<svg version="1.1" xmlns="http://www.w3.org/2000/svg" xmlns:xlink="http://www.w3.org/1999/xlink" width="85.51479" height="88.65194" viewBox="0,0,85.51479,88.65194"><g transform="translate(-197.24261,-135.67403)"><g data-paper-data="{&quot;isPaintingLayer&quot;:true}" fill-rule="nonzero" stroke="none" stroke-width="0.99501" stroke-linecap="butt" stroke-linejoin="miter" stroke-miterlimit="10" stroke-dasharray="" stroke-dashoffset="0" style="mix-blend-mode: normal"><g><path d="M238.82433,180.99734c-1.04291,-0.53229 -1.67249,-1.52798 -2.33922,-2.63759c-1.51126,-2.49965 -0.26501,-4.56072 2.33339,-6.24117c0.0581,0.36165 0.22436,0.72184 0.45967,0.89686c7.49391,0.46259 15.71623,-2.85911 22.47005,-4.99134c4.70086,-1.48433 8.96671,0.14167 13.07345,2.04947c2.29127,1.06458 7.42348,4.2244 6.37918,6.85404c-0.25348,0.64126 -1.15472,0.92525 -1.89109,0.92737c-3.31236,0.01525 -8.68783,-3.80903 -9.15188,-3.80538c-0.06686,0.99495 1.82715,2.80904 0.05664,4.26804c-2.11552,1.74365 -6.87221,-3.76188 -6.97461,-3.56073c0.70512,1.49966 1.83729,3.4176 0.87504,5.02477c-2.39579,4.00588 -7.30429,-3.26725 -8.52726,-3.14675c-0.11619,0.46332 1.24836,2.60716 -0.19685,4.44015c-2.48658,3.16054 -5.80974,-1.32902 -7.39874,-2.75532c0,0 0.07408,3.42563 -2.2847,2.80546c-0.87657,-0.22808 -1.2796,-1.20917 -2.03268,-1.63403c-0.03773,0.037 -0.06897,0.077 -0.09444,0.12057c-0.33764,0.41172 -1.60709,1.75015 -3.61219,1.39069c-0.6398,-0.11474 -0.9797,-0.09371 -1.14377,-0.00511z" fill="#fff100"/><path d="M282.0178,178.61315c-2.19391,1.51345 -5.658,0.22881 -7.59697,-1.00145c-0.88453,-0.55988 -1.71241,-1.18808 -2.65365,-1.68191c0.32392,1.0167 0.63258,2.94698 -0.59112,3.63474c-0.64272,0.35727 -1.70957,0.68046 -2.45681,0.46332c-1.03853,-0.2999 -2.06465,-1.33989 -2.82429,-1.99998c0.12707,1.49017 0.02759,3.50183 -1.69497,4.34205c-1.56505,0.76322 -2.86933,0.01015 -4.2063,-0.58608c-1.10677,-0.4931 -1.61512,-1.06896 -2.56935,-1.70876c-0.20407,1.03415 -0.21429,2.14596 -1.01532,3.00143c-2.62672,2.79889 -6.07921,-0.04715 -7.79308,-2.04939c-0.6841,3.44811 -4.12784,1.19976 -4.9412,-0.46113c-2.22369,2.77196 -4.43285,1.40448 -4.43285,1.40448c0,0 -0.86132,-0.73636 -0.41902,-0.97386c0.1648,-0.08788 0.50543,-0.1089 1.14523,0.00584c2.00509,0.35946 3.27455,-0.97897 3.61219,-1.39069c0.02547,-0.04357 0.05671,-0.08357 0.09444,-0.12057c0.75308,0.42486 1.15611,1.40594 2.03268,1.63403c2.35878,0.61944 2.2847,-2.80546 2.2847,-2.80546c1.58899,1.42631 4.91215,5.91586 7.39874,2.75532c1.44521,-1.83372 0.08065,-3.97683 0.19685,-4.44015c1.22224,-0.11977 6.13147,7.15328 8.52726,3.14675c0.96226,-1.60717 -0.16991,-3.52438 -0.87504,-5.02477c0.1024,-0.20115 4.85982,5.30438 6.97461,3.56073c1.77124,-1.459 -0.12349,-3.27309 -0.05664,-4.26804c0.46405,-0.00365 5.83952,3.82064 9.15188,3.80538c0.73636,-0.00212 1.6376,-0.28611 1.89109,-0.92737c1.04502,-2.62964 -4.08791,-5.78945 -6.37918,-6.85404c-4.10674,-1.9078 -8.3726,-3.5338 -13.07345,-2.04947c-6.7531,2.13223 -14.97614,5.45393 -22.47005,4.99134c-0.23531,-0.17502 -0.40157,-0.53448 -0.45967,-0.89686c-0.05591,-0.35077 -0.0116,-0.70301 0.17356,-0.89109c1.80467,0.50332 5.3181,0.44011 7.20342,0.22874c5.16702,-0.58024 14.04731,-6.60136 21.45116,-5.43138c3.42191,0.54032 6.2208,1.82138 8.95138,3.75677c2.44009,1.73205 5.26074,3.30644 6.01316,6.14745c0.22655,0.85402 0.29552,2.07049 -0.59338,2.68409z" fill="#272525"/></g><g><path d="M237.63253,195.2531c-0.07766,-0.06248 -0.15977,-0.0908 -0.24399,-0.10386c0.50478,-0.69717 1.49966,-1.74438 2.24478,-0.48872l-0.42048,0.21787c0.08423,0.94335 -0.47354,8.50624 -0.56572,9.43944c3.11909,0.89248 6.24839,-0.53594 9.28982,-0.65725c-0.46916,0.84825 0.25925,3.73203 0.73344,4.09879c-2.2004,0.98766 -3.26798,2.83882 -3.10383,4.39c-3.37695,-1.36164 -5.48663,-3.65364 -9.43149,-4.31519c0.63039,-1.68191 1.58323,-10.78802 1.49747,-12.58108z" fill="#ffa600"/><path d="M251.04297,208.81389c-4.99857,1.44083 -3.40527,4.41394 -4.20768,5.6834c-0.6355,-0.21714 -1.14961,-0.80979 -1.69285,-1.17071c-2.49965,-1.6587 -5.02185,-3.28323 -8.10897,-4.02909c-0.72622,-0.17502 -2.80181,-0.79081 -2.98917,-0.94627c0.4234,-1.28902 2.05596,-12.41548 2.37404,-13.02112c0.31662,-0.00657 0.66016,-0.22516 0.97021,-0.17867c0.08423,0.01306 0.16634,0.04138 0.24399,0.10386c0.08576,1.79233 -0.86708,10.89845 -1.49747,12.58035c3.94486,0.66155 6.05527,2.95355 9.43149,4.31519c-0.16415,-1.55119 0.90343,-3.40235 3.10383,-4.39c-0.47492,-0.36676 -1.2026,-3.25054 -0.73344,-4.09879c-3.0407,0.1213 -6.17,1.54973 -9.28982,0.65725c0.09218,-0.93321 0.64995,-8.49609 0.56572,-9.43944l0.42048,-0.21787l0.9354,-0.48441c0.04715,0.73425 -0.43361,8.13875 -0.17145,8.85336c3.1104,-0.31443 9.75825,-1.47061 10.25062,-1.1699c0.05598,1.5163 -2.65869,3.14741 -0.76322,5.56064c0.35727,0.45755 0.97897,0.85117 1.1583,1.39222z" fill="#272525"/></g><g><path d="M259.71116,154.48805c-3.00216,1.41616 -7.38713,1.80102 -10.71905,1.27814c-0.90343,-0.14232 -1.73416,-0.45456 -2.60782,-0.62017c-0.50478,-0.09444 -1.41835,-0.35515 -2.00728,-0.23604l-0.00292,-0.00431c0,0 -0.01306,0.0065 -0.01525,0.00723c-0.1097,0.02394 -0.21137,0.05664 -0.29195,0.11182c0.00657,0.01095 0.01379,0.02759 0.02109,0.04146c-0.40019,0.25268 -1.08137,0.83511 -1.16056,1.85182c-0.00504,0.03489 -0.01015,0.07043 -0.01525,0.10605c0,0.00219 -0.00073,0.00438 -0.00073,0.0065c-0.03846,0.32246 -0.04423,0.64491 -0.05875,0.91868c-0.23531,4.7299 6.82572,5.88747 5.95645,7.78221c-0.13218,0.28611 -0.40522,0.42413 -0.73352,0.46332c-2.24544,0.26874 -4.42197,-0.358 -6.19102,-1.49601c-1.15326,-0.74147 -2.13435,-1.69862 -2.84385,-2.77269c-1.43433,-2.17435 -1.77635,-5.1787 -0.11189,-7.31816c1.90488,-2.4517 4.74589,-2.22296 7.38859,-2.75532c0.81409,-0.16334 1.60936,-0.39719 2.35156,-0.80607c3.40738,-1.87656 6.06323,-5.30146 7.08351,-8.6471c0.25786,-0.85117 0.30216,-1.70665 0.512,-2.54979c0.23969,-0.95138 1.28398,-1.7916 2.37331,-1.97604c4.32322,-0.73279 9.57016,12.60064 1.07334,16.61448z" fill="#ffa600"/><g><path d="M236.13149,155.36243c-1.22151,3.79232 1.06531,7.1308 4.05011,9.75175c-1.06539,1.95422 -1.10677,7.9492 -0.71388,9.52294c1.26946,5.0944 4.31811,9.83737 5.223,15.05168c0.7495,4.32753 -2.75817,8.38712 -6.9187,10.46556c-4.14382,2.07195 -10.50914,2.54103 -15.51792,1.6514c-0.63112,-0.14524 -7.86352,-1.95349 -11.54183,-9.0959v0c-0.66016,-1.31303 -2.46994,-4.8504 -2.80758,-4.83376l-1.20479,0.39946c-1.28982,0.37325 -4.05886,0.87942 -5.37481,0.60134c-0.89759,-0.19028 -2.27237,-0.8584 -2.56935,-1.65797c-0.87803,-2.35732 5.00003,-1.42419 6.15548,-1.46484c-0.04146,-0.17575 -3.72407,-2.71897 -4.34862,-4.39219c-0.23604,-0.63396 -0.28691,-1.39361 0.08496,-1.97604c1.72913,-2.70153 5.84171,3.06252 6.57953,4.09879c0,0 -1.25851,-5.43503 0.87511,-5.9274c0.66812,-0.15327 1.79956,0.55776 2.03341,1.07334c0.73206,1.61877 -0.26647,5.15907 -0.76176,6.83083c0.94627,0.19685 1.8678,0.55922 2.85188,0.58754c16.4358,3.29126 20.82581,-17.98706 20.82581,-17.98706c-0.00139,-0.00803 -0.00431,-0.01306 -0.00504,-0.02182c0.19458,-0.89759 -0.10386,-2.01305 -0.44303,-2.72328c-1.94626,-4.07266 -6.78506,-10.79167 -4.99565,-16.97766v-0.3907c-0.08138,-0.00292 -2.13435,0.9797 -2.51271,1.09801c0.47565,-1.66665 2.07625,-2.85619 3.33119,-4.09879c0.11182,-0.11109 -2.61008,0.48733 -4.00952,1.17144c0.88964,-1.62023 4.75749,-3.29272 4.94193,-3.73283c-0.95715,-0.39573 -1.85547,-0.25341 -3.05011,-0.07335c4.08353,-2.93611 11.30732,-2.77992 15.00373,0.44595c0.67907,0.59258 2.94122,1.71241 3.79458,8.22589c-3.84392,1.08429 -7.87811,0.9681 -8.97539,4.37767z" fill="#fff100"/><path d="M265.7519,148.70371c-0.77928,3.71393 -4.09806,6.96082 -8.27385,8.12349c-3.67685,1.024 -7.91439,0.85694 -11.40972,-0.5998c-0.21714,-0.0908 -0.75527,-0.33844 -1.20406,-0.5701v0c-0.81913,-0.12707 -0.9608,0.70439 -0.98036,1.13217c0.06897,3.98332 3.08931,5.74369 6.81776,8.06394c0.33406,0.20845 0.26509,0.95722 0.19677,1.24406c-0.60856,2.49746 -7.27962,1.41689 -9.19465,0.22947c-0.20195,0.44084 -0.65075,1.03123 -0.82796,2.20916c-1.29843,6.52297 2.18449,10.90064 3.59051,15.46858c0.74651,2.43206 1.36887,4.79596 1.5817,7.31955c0.27669,3.31301 -1.88386,5.88747 -4.63115,7.95212c-2.37039,1.77781 -5.28905,3.21069 -8.38566,3.80326c-2.54906,0.48945 -8.9805,0.92664 -12.18674,-0.31085c-3.07267,-1.18589 -6.26365,-2.1888 -9.80401,-7.45391c-0.92518,-1.37551 -2.69788,-4.34643 -3.61583,-5.56071c-0.65002,-0.13722 -6.09957,2.24405 -9.28989,-0.82935c-1.54243,-1.48659 -1.0813,-3.91362 1.35587,-4.39146c0.61732,-0.1205 1.39434,-0.12488 2.03268,-0.17064c-1.45966,-1.41251 -3.20696,-2.73569 -2.90779,-4.85478c0.13802,-0.98335 1.12056,-1.97604 2.23098,-2.24405c2.10895,-0.50835 3.54759,1.63111 4.88456,2.63402c0.36238,-7.28692 8.5382,-5.1598 4.9412,4.46409c0.63768,0.19677 1.32464,0.19969 1.97677,0.34275c0,0 13.38941,3.56577 18.59928,-15.92461c0.84533,-2.69066 -1.73197,-7.33991 -3.14157,-9.80686c-2.33484,-4.08572 -2.0872,-9.02692 -1.34208,-9.90641l-2.88385,2.49169c-0.45821,-0.81336 0.81847,-4.39073 0.81847,-4.39073l-2.17435,1.6587c-0.05591,-2.13223 0.77417,-4.55488 3.19105,-5.51349c-0.96948,-0.17721 -1.37908,-0.1983 -2.93684,0c0.2186,-0.48879 0.91722,-1.14093 1.35587,-1.51272c5.93608,-5.03637 14.88535,-2.64351 17.47944,-0.02686c3.4568,2.78722 4.33118,7.36312 4.53087,8.87949c0.91139,-0.32319 1.79671,-0.73709 2.60935,-1.31595c2.38199,-1.69935 4.11185,-4.74436 4.74078,-6.36751c0.58389,-1.50688 0.88891,-2.83517 1.13144,-4.39073c0.19677,-1.26873 1.93174,-2.68044 3.38855,-2.87874c1.97458,-0.26866 4.032,1.61001 5.02543,2.87874c2.3101,2.9499 3.13872,8.09087 2.71102,10.12501zM258.63709,137.87285c-1.08933,0.18444 -2.13362,1.02466 -2.37331,1.97604c-0.20984,0.84314 -0.25414,1.69862 -0.51193,2.54979c-1.02035,3.34571 -3.67692,6.77054 -7.08358,8.6471c-0.7422,0.40887 -1.53747,0.64199 -2.35156,0.80614c-2.64197,0.53229 -5.48298,0.30355 -7.38859,2.75525c-1.66446,2.13946 -1.32245,5.14381 0.11189,7.31816c0.7095,1.07407 1.69132,2.03122 2.84385,2.77269c1.7684,1.13801 3.94486,1.76548 6.19102,1.49601c0.32829,-0.03919 0.60134,-0.17721 0.73352,-0.46332c0.86927,-1.89474 -6.19175,-3.0523 -5.95645,-7.78221c0.01379,-0.27377 0.02029,-0.59623 0.05883,-0.91868c0,-0.00212 0.00066,-0.00431 0.00066,-0.0065c0.00438,-0.03562 0.00949,-0.07043 0.01525,-0.10605c0.07992,-1.0167 0.76038,-1.59841 1.16056,-1.85182c-0.00657,-0.01387 -0.01379,-0.03051 -0.02109,-0.04146c0.08065,-0.05518 0.18232,-0.08788 0.29195,-0.11182c0.00219,-0.00146 0.01525,-0.00723 0.01525,-0.00723l0.00292,0.00431c0.58893,-0.11838 1.50323,0.14167 2.00728,0.23604c0.87365,0.16561 1.70446,0.47784 2.60782,0.62017c3.33192,0.52222 7.71688,0.13802 10.71905,-1.27814c8.49755,-4.0131 3.25061,-17.34653 -1.07334,-16.61448zM239.46771,174.63713c-0.39289,-1.57447 -0.3515,-7.56945 0.71388,-9.52294c-2.98479,-2.62095 -5.27161,-5.95944 -4.05011,-9.75175c1.09655,-3.40957 5.13148,-3.29338 8.97539,-4.37767c-0.85336,-6.51348 -3.11551,-7.63332 -3.79458,-8.22589c-3.69641,-3.22587 -10.9202,-3.38133 -15.00373,-0.44595c1.19465,-0.18006 2.09297,-0.32238 3.05011,0.07335c-0.18444,0.44011 -4.0523,2.1126 -4.94193,3.73283c1.39945,-0.6841 4.12134,-1.28252 4.00952,-1.17144c-1.25493,1.2426 -2.85553,2.43214 -3.33119,4.09879c0.37836,-0.11831 2.43133,-1.10093 2.51271,-1.09801v0.3907c-1.78942,6.18599 3.04938,12.905 4.99565,16.97766c0.33917,0.71096 0.63834,1.82642 0.44303,2.72328c0.00146,0.00803 0.00365,0.01306 0.00504,0.02182c0,0 -4.39,21.27833 -20.82581,17.98706c-0.98408,-0.02832 -1.90561,-0.3907 -2.85188,-0.58754c0.49529,-1.67176 1.49382,-5.21205 0.76176,-6.83083c-0.23385,-0.51558 -1.36529,-1.22661 -2.03341,-1.07334c-2.13362,0.49237 -0.87511,5.9274 -0.87511,5.9274c-0.73782,-1.03627 -4.8504,-6.80032 -6.57953,-4.09879c-0.37187,0.58243 -0.321,1.34208 -0.08496,1.97604c0.62455,1.67322 4.30716,4.21644 4.34862,4.39219c-1.15545,0.04065 -7.03351,-0.89248 -6.15548,1.46484c0.29698,0.79884 1.67176,1.46769 2.56935,1.65797c1.31595,0.27808 4.08499,-0.22808 5.37481,-0.60134l1.20479,-0.39946c0.33764,-0.01737 2.14742,3.52 2.80758,4.83376v0c3.67831,7.14241 10.91071,8.95065 11.54183,9.0959c5.00879,0.88964 11.37337,0.42128 15.51792,-1.6514c4.16053,-2.07844 7.6682,-6.13804 6.9187,-10.46556c-0.90489,-5.21432 -3.95354,-9.95729 -5.223,-15.05168z" fill="#272525"/></g></g><g><path d="M227.32024,210.3469c2.96589,2.74656 12.7626,2.38345 17.6225,4.90347c-5.56721,0.16196 -8.73286,3.91143 -10.10902,7.3167c-3.69648,-1.79598 -7.57376,-2.37185 -11.25134,-0.77125c-0.00438,0.00219 -0.00876,0.00073 -0.01306,0.00292c-0.58462,0.23597 -2.62679,1.18516 -2.62679,1.18516c6.73062,-5.72479 4.97025,-10.93034 3.67036,-13.68494c6.93688,-2.72262 5.38854,-6.93104 4.46912,-8.65075c0.33048,-0.22005 0.59988,-0.61367 0.75315,-1.25055c0.56426,0.41252 1.17428,0.4539 1.69351,0.26874c0.17356,0.21714 0.33333,0.44369 0.48076,0.67608c0.00365,0.00584 0.00803,0.0116 0.0116,0.01817c0.1424,0.22728 0.2702,0.4604 0.3842,0.69863c0.0065,0.01525 0.01379,0.02978 0.02102,0.04503c0.1097,0.23312 0.20407,0.46982 0.28326,0.7095c0.00657,0.02175 0.01379,0.04357 0.02109,0.06532c0.07474,0.23531 0.1343,0.47427 0.1786,0.71315c0.00511,0.0262 0.00876,0.0516 0.01306,0.07773c0.04,0.2375 0.06394,0.47565 0.06978,0.71388c0.00073,0.02686 0,0.05299 0,0.07919c0.00212,0.23889 -0.01241,0.47711 -0.04795,0.71308c-0.00292,0.02328 -0.00876,0.04576 -0.01233,0.06832c-0.04065,0.23962 -0.09809,0.47784 -0.1794,0.71096c-0.00438,0.01525 -0.0116,0.02832 -0.01671,0.04357c-0.08715,0.2418 -0.19458,0.48003 -0.33041,0.71096c-0.95138,1.62454 -5.13732,4.17579 -5.08498,4.63692z" fill="#ffa600"/><path d="M244.26732,216.83717c-3.37907,0.93824 -7.7117,2.68263 -8.81052,7.4888c-8.11262,-3.84611 -10.17077,-2.101 -12.03638,-1.54177c-1.22661,0.50178 -2.64059,1.38638 -3.29126,1.23895c-1.16122,-0.2629 -0.48441,-1.4917 0.14305,-2.0175c0.32319,-0.27085 0.72695,-0.70731 0.72695,-0.70731c2.75094,-3.43651 3.16419,-5.71975 2.59847,-10.23974c-0.10678,-0.85621 -1.08721,-1.98692 -0.14094,-2.7081c1.66235,-1.26435 4.14893,-1.72475 4.5462,-3.97675c0.17787,-1.01306 0.52937,-1.96225 -0.07773,-2.8548c-0.08642,-0.12707 -0.41537,-0.60929 -0.66739,-0.94919c-0.66666,-0.34275 -1.2869,-0.93095 -1.62892,-1.51411c-0.06102,-0.21137 0.25998,-0.25348 0.4234,-0.29195c0.1648,-0.04 1.11619,1.37981 2.03268,1.00145c0.67681,-0.28326 0.46624,-1.31303 0.59331,-1.8308c0.34136,0.19312 0.64783,0.30428 0.93029,0.36742c0.32246,0.07124 0.61075,0.07481 0.8657,0.02547c1.48148,-0.28976 1.90561,-2.20121 2.27091,-0.73498c0.09583,0.3842 0.03408,0.7676 -0.13072,1.10458c0.32311,0.39727 0.61506,0.79161 0.84672,1.17793c2.3944,4.00515 -0.01088,7.47209 -4.10382,10.52228c1.97677,1.14159 4.93536,0.98693 7.22875,1.24399c2.94195,0.32902 7.60142,1.08641 9.37339,3.43797c1.01087,1.33916 -0.62966,1.46258 -1.69212,1.75818zM244.94639,215.24891c-4.86062,-2.52001 -14.65668,-2.1569 -17.62257,-4.90347c-0.05445,-0.4604 4.13149,-3.01238 5.08287,-4.63619c0.1351,-0.23166 0.24326,-0.46989 0.33041,-0.71096c0.00511,-0.01525 0.0116,-0.02832 0.01671,-0.04357c0.08204,-0.23312 0.1394,-0.47135 0.1794,-0.71096c0.00358,-0.02328 0.00942,-0.04576 0.01233,-0.06824c0.03481,-0.23604 0.04934,-0.47427 0.04788,-0.71315c0,-0.0262 0.00073,-0.05233 0,-0.07919c-0.00577,-0.23823 -0.02971,-0.47638 -0.0697,-0.71388c-0.00431,-0.02613 -0.00869,-0.05153 -0.01306,-0.07773c-0.04357,-0.23889 -0.10313,-0.47784 -0.17867,-0.71315c-0.0065,-0.02175 -0.01379,-0.04357 -0.02102,-0.06532c-0.07992,-0.24035 -0.17429,-0.47711 -0.28326,-0.7095c-0.0065,-0.01525 -0.01379,-0.02978 -0.02102,-0.04503c-0.11401,-0.23823 -0.24188,-0.47208 -0.3842,-0.69863c-0.00365,-0.00584 -0.00796,-0.0116 -0.0116,-0.01817c-0.14743,-0.23312 -0.30793,-0.45894 -0.48076,-0.67608c-0.51923,0.18517 -1.12925,0.14378 -1.69351,-0.26874c-0.15327,0.63688 -0.42267,1.0305 -0.75315,1.25055c0.91941,1.71971 2.46775,5.9282 -4.46912,8.65075c1.29989,2.75459 3.06026,7.96015 -3.67036,13.68494c0,0 2.04217,-0.94912 2.62672,-1.18516c0.00438,-0.00219 0.00876,-0.00073 0.01314,-0.00292c3.67758,-1.6006 7.55485,-1.02473 11.25134,0.77125c1.37616,-3.40527 4.54182,-7.15401 10.11121,-7.31743z" fill="#272525"/></g><g><path d="M245.36686,144.9484c0.78862,0.89547 0.7095,4.61955 -1.78,3.09807c-0.9092,-0.55484 -1.08933,-3.29995 0.12999,-3.59262c0.38493,-0.09364 1.13436,-0.09007 1.65001,0.49456z" fill="#ffffff"/><path d="M245.71034,145.38267c0.43646,0 0.83154,0.16123 1.11838,0.42194c0.28611,0.26144 0.46332,0.6217 0.46332,1.01889c0,0.39727 -0.17721,0.75746 -0.46332,1.01889c-0.28684,0.26071 -0.68191,0.42194 -1.11838,0.42194c-0.43646,0 -0.83154,-0.16123 -1.11838,-0.42194c-0.28611,-0.26144 -0.46332,-0.62163 -0.46332,-1.01889c0,-0.39719 0.17721,-0.75746 0.46332,-1.01889c0.28684,-0.26071 0.68191,-0.42194 1.11838,-0.42194z" fill="#272525"/><path d="M247.08942,147.7843c-0.64484,1.85985 -3.67393,2.8875 -5.05521,0.67688c-0.66958,-1.07342 -0.72622,-3.25783 0,-4.31811c1.94334,-2.8359 6.27963,0.10313 5.05521,3.64123zM245.36686,144.9484c-0.51565,-0.58462 -1.26508,-0.5882 -1.65001,-0.49456c-1.21932,0.29268 -1.03918,3.03778 -0.12999,3.59262c2.4895,1.52148 2.56935,-2.20259 1.78,-3.09807z" fill="#272525"/></g><g><path d="M238.27598,148.26141c0.34428,0.86278 -0.26647,1.83087 -1.10166,1.90349c-2.40958,0.20838 -2.27018,-2.07852 -0.61805,-2.459c0.73352,-0.16926 1.51345,0.03773 1.71971,0.5555z" fill="#ffffff"/><path d="M238.06761,148.4495c0.29049,0 0.55404,0.07627 0.74432,0.19976c0.19101,0.12415 0.30866,0.29479 0.30866,0.48295c0,0.18809 -0.11765,0.35873 -0.30866,0.48288c-0.19028,0.12349 -0.45383,0.19976 -0.74432,0.19976c-0.29049,0 -0.55412,-0.07627 -0.74439,-0.19976c-0.19101,-0.12415 -0.30866,-0.29479 -0.30866,-0.48288c0,-0.18816 0.11765,-0.3588 0.30866,-0.48295c0.19028,-0.12349 0.4539,-0.19976 0.74439,-0.19976z" fill="#272525"/><path d="M234.1002,149.70589c-1.34858,-2.54322 3.61664,-4.74443 5.02623,-2.04939c1.71606,3.28104 -3.75385,4.44956 -5.02623,2.04939zM238.27598,148.26141c-0.20626,-0.51777 -0.9862,-0.72476 -1.71971,-0.5555c-1.65213,0.38048 -1.79153,2.66737 0.61805,2.459c0.83519,-0.07262 1.44594,-1.04072 1.10166,-1.90349z" fill="#272525"/></g><g><path d="M247.73937,141.72764c-0.51047,-1.48513 -2.41535,-1.67176 -3.86851,-1.17071c1.26647,-2.18522 4.84749,-1.05955 3.86851,1.17071z" fill="#ffa600"/><path d="M247.29422,142.72763c0.04065,-2.61876 -1.98334,-1.86204 -3.9804,-1.68191c-0.35369,-2.06392 3.68481,-3.47862 5.04798,-1.37989c0.92372,1.41616 -0.0327,2.97319 -1.06758,3.06179zM243.87085,140.55693c1.45317,-0.50105 3.35805,-0.31443 3.86851,1.17071c0.97897,-2.23025 -2.60205,-3.35593 -3.86851,-1.17071z" fill="#272525"/></g><g><path d="M234.8105,145.73709c-1.59848,0.07408 -2.57015,1.35514 -3.33265,2.41469c-0.42194,-1.35368 0.51704,-2.51782 1.9448,-2.8359c0.5701,-0.12634 1.10604,0.13364 1.38784,0.42121z" fill="#ffa600"/><path d="M236.27892,145.91065c-1.37697,0.23823 -4.1998,0.92306 -4.74881,3.01384c-2.54687,-2.96808 2.32098,-5.32686 4.74881,-3.01384zM234.8105,145.73709c-0.2818,-0.28757 -0.81774,-0.54755 -1.38784,-0.42121c-1.42777,0.31808 -2.36674,1.48221 -1.9448,2.8359c0.76249,-1.05955 1.73416,-2.34061 3.33265,-2.41469z" fill="#272525"/></g><g><path d="M235.11763,169.90212l0.14094,-0.12123c0,0 3.28104,6.90856 -3.85333,7.71681c0.16553,-0.4096 0.02029,-0.74731 -1.0305,-0.86635c-0.35515,0.08788 -0.68702,0.22509 -0.87584,0.51266c-2.1896,3.35301 5.90784,8.73067 2.65431,11.29426c-2.02108,1.59038 -2.96443,-1.28325 -3.95427,-2.39002c0.38274,2.13873 2.63621,7.38713 0,8.7822c-2.73204,-0.35296 -2.86568,-3.45103 -3.64123,-5.43941c-0.18524,0.4423 0.22144,4.79742 0.05591,5.97608c-0.12276,0.87657 -0.66454,2.75313 -1.60936,3.22229c-0.34202,0.16918 -1.15246,0.16626 -1.49674,0c-2.0029,-0.96445 -2.2004,-6.34722 -2.23018,-6.21942c-0.42559,1.84678 -0.2448,3.9623 -0.56433,5.85485c-0.19896,1.18224 -1.07042,5.95207 -3.24762,5.39219c-4.59918,-1.18158 -3.38855,-11.59635 -2.71029,-14.63778c0.92306,-4.13287 3.02034,-7.49165 5.50626,-11.0734c3.55482,-5.12279 9.79379,-8.56141 16.85628,-8.00372z" fill="#fff100"/><path d="M230.96002,193.08021c-0.04788,1.95721 -0.75308,3.86355 -2.99202,3.34286c-0.00796,-0.00146 -0.01452,-0.00073 -0.02248,-0.00292c-0.96883,-0.23166 -1.38638,-1.1329 -2.03275,-1.70957c-0.33479,1.9848 -0.51923,5.16344 -3.47278,5.56217c-1.72329,0.23093 -2.3428,-1.10093 -2.90852,-2.2215c-0.25341,1.34493 -0.22436,2.78357 -0.53667,4.09952c-0.31735,1.33843 -1.25055,2.79525 -2.90779,3.04793c-4.42197,0.68046 -5.67975,-6.75456 -5.61954,-9.31887c0.07554,-3.16996 0.99495,-8.12349 2.03348,-11.17295c1.02685,-3.0145 3.9942,-7.51201 6.29561,-9.95283c2.14742,-2.27748 5.08206,-3.841 8.33048,-4.6348c1.79015,-0.43719 3.70955,-0.6652 5.58173,-0.82862c0.38924,-0.03335 0.77994,-0.06824 1.16268,-0.09729c0.92087,-0.06605 1.37908,-0.08277 1.38711,0.58827l-0.14094,0.12123c-7.06249,-0.55842 -13.30146,2.8802 -16.85628,8.00299c-2.48593,3.58248 -4.5832,6.94126 -5.50626,11.0734c-0.67827,3.04143 -1.8889,13.45619 2.71029,14.63778c2.17719,0.55988 3.04865,-4.20995 3.24762,-5.39219c0.31954,-1.89328 0.13875,-4.00807 0.56433,-5.85485c0.02978,-0.1278 0.22728,5.25497 2.23018,6.21942c0.34428,0.16626 1.15472,0.16918 1.49674,0c0.94481,-0.46989 1.48659,-2.34645 1.60936,-3.22229c0.16553,-1.17866 -0.24115,-5.53378 -0.05591,-5.97608c0.77556,1.98838 0.9092,5.08644 3.64123,5.43941c2.63621,-1.39507 0.38274,-6.6442 0,-8.7822c0.98985,1.10677 1.9332,3.9804 3.95427,2.39002c3.25353,-2.56359 -4.84391,-7.94052 -2.65431,-11.29426c0.18882,-0.28757 0.52069,-0.42478 0.87584,-0.51266c1.05079,0.11831 1.19603,0.45675 1.0305,0.86635c-0.05591,0.1394 -0.14597,0.28611 -0.25202,0.43719c-0.2302,0.32895 -0.52288,0.67031 -0.63688,0.96518c-0.65141,1.67826 1.96517,3.94479 2.7662,5.39219c0.75811,1.37179 1.70439,3.72984 0.42405,5.09878c-0.9978,1.06685 -2.03341,0.83738 -3.19025,0.22005l-0.05664,0.24691c0.2883,0.66016 0.53156,1.95137 0.50032,3.22222z" fill="#272525"/></g></g></g></svg>