<svg version="1.1" xmlns="http://www.w3.org/2000/svg" xmlns:xlink="http://www.w3.org/1999/xlink" width="92.49141" height="69.89904" viewBox="0,0,92.49141,69.89904"><g transform="translate(-193.75429,-145.05048)"><g data-paper-data="{&quot;isPaintingLayer&quot;:true}" fill-rule="nonzero" stroke="none" stroke-width="1.4" stroke-linecap="butt" stroke-linejoin="miter" stroke-miterlimit="10" stroke-dasharray="" stroke-dashoffset="0" style="mix-blend-mode: normal"><path d="M264.58578,157.79733c-2.59592,0.18802 -3.9498,0.97714 -6.47093,1.8054c-5.98865,1.97385 -9.49182,5.43717 -15.04711,5.26663c-0.45222,-0.37604 -1.3406,-0.62766 -2.10665,-0.75278l3.91205,-2.10665c-0.56336,-0.48927 -1.57894,-0.56476 -1.50415,-1.35458c0.15028,-1.24134 2.55818,0.07479 3.0097,-1.05333c0.26281,-0.67799 -0.56476,-1.01628 -0.90305,-1.65583l6.31996,-2.10665l-2.1437,-1.54259c1.91863,-1.09037 2.78324,-1.16586 5.00312,-1.16586c0.9394,0 1.72991,0 2.4072,0.15097c0.97644,0.21668 -1.8061,-2.03116 -0.86531,-2.33241c2.06961,-0.71503 4.25105,0.52701 6.43319,0.52701c2.10665,0 3.64925,-0.67729 5.53014,0.26281c0.71573,-2.1444 1.27979,-4.13782 2.89647,-5.7559c1.22247,0.72412 0.71014,3.53811 1.27979,4.74032c0.86531,0.11253 1.68938,0.28517 2.63297,0.15028c1.50485,2.4072 -2.85873,5.60492 -5.71815,5.4169c-0.78982,3.19702 -1.39162,1.27909 -4.66553,1.50625z" fill="#975b3d"/><path d="M280.57998,168.78351c-3.80022,-0.78982 -6.24587,-3.49827 -9.9692,-4.96608c0,2.70845 2.1444,3.76178 4.06233,5.68041c-1.31683,1.31683 -3.19772,1.91863 -4.96538,1.39232c-1.8061,-0.56406 -1.27979,-3.009 -3.0104,-3.76178c-1.99342,0.33829 -3.53532,-0.97854 -5.64267,0.15028c-6.05645,3.27321 -5.79364,10.26975 -10.9086,14.89754c5.56718,4.17486 9.21643,8.57688 9.93076,15.68596c0.32781,3.25713 -0.22576,4.28949 0.30195,7.48721c0.37604,2.25693 3.04675,2.37016 3.76178,4.51385c0.29426,0.91074 -0.51723,1.93261 -1.49646,2.50156c-0.39771,0.16425 -0.8003,0.30754 -1.2064,0.43265c-0.0021,0 -0.00419,0.0007 -0.00629,0.0007c-2.09966,0.22716 -3.99173,0.42357 -5.60283,-0.19501c-0.35856,-0.1978 -0.72132,-0.39281 -1.08757,-0.58223c-0.37254,-0.26421 -0.72691,-0.58712 -1.06032,-0.99112c-0.52701,-0.63954 0.75208,-4.40132 0.97784,-7.63679c0.37674,-5.26663 0.37674,-8.83969 -2.55818,-13.24171c-1.2036,-1.84315 -2.48269,-2.48199 -3.76178,-4.2133c-1.54259,0.22576 -3.19772,-0.45083 -3.19772,1.09177c0,1.72991 0.6018,2.7455 0.78982,4.47611c0.56406,4.77806 -0.15028,9.89371 -4.40132,12.00037c-3.348,1.65652 -4.66413,0.75347 -8.38886,0.18872c-0.38652,-0.06221 -0.75976,-0.1328 -1.12462,-0.21248c-0.84853,-0.43545 -1.68029,-0.88628 -2.48968,-1.31963c-0.06151,-0.08737 -0.1349,-0.16705 -0.19151,-0.25791c-0.1342,-0.44034 -0.34459,-0.85133 -0.63745,-1.2036c-0.03774,-0.08108 -0.07619,-0.16146 -0.11393,-0.24254c-0.21388,-2.25553 2.31145,-4.50267 4.25524,-5.94392c0.9401,2.89647 4.92764,4.40062 7.07203,2.25693c2.59522,-2.59592 3.72403,-6.54572 1.35458,-9.33036c-4.32723,1.43006 -7.22301,1.43006 -11.58728,0.30125c-2.33311,-0.6025 -3.31095,-2.03186 -5.71815,-2.25693c0.48857,2.06891 -0.94079,4.32514 0.90235,5.4169c1.84384,1.09107 3.76178,1.27839 4.36358,3.30955c0.52701,1.73131 -1.35388,2.67141 -2.85873,3.6122c-0.24673,0.15307 -0.48577,0.30265 -0.71853,0.44873c-0.11603,0.07339 -0.23135,0.14538 -0.34459,0.21668c-1.61319,2.12343 -3.71006,2.12343 -5.77197,2.05912c-0.12791,-0.0014 -0.25652,-0.00699 -0.38792,-0.01538c0,0 0.08667,-0.19221 0.20409,-0.50395c0.03844,-0.10345 0.08178,-0.22087 0.12511,-0.34948c0.04403,-0.12861 0.08877,-0.267 0.1335,-0.41378c0.4012,-1.32242 0.74648,-3.29837 -0.46271,-3.99942c-0.70804,0.70734 -1.74459,1.13161 -1.84315,1.88019c-0.17124,4.09937 4.02598,6.74143 6.66035,9.92657c0.27189,0.66191 0.61298,1.29237 0.91074,1.941c0.05452,0.59411 0.25023,1.16376 0.56755,1.66002c0.00489,0.02796 0.01468,0.05452 0.01957,0.08318c0.02307,0.1307 0.10135,0.19571 0.19361,0.21947c0.01188,0.01468 0.02307,0.03145 0.03355,0.04753c0.02167,0.0664 0.03844,0.1321 0.05801,0.1985c-0.01957,0.29566 0.00349,0.59341 0.08737,0.88558c0.02376,0.43545 0.02376,0.79401 0.01887,1.02956c-0.03704,0.05242 -0.0671,0.10974 -0.10065,0.16495c-0.05102,0.06011 -0.10065,0.12302 -0.14888,0.18732l-4.16298,0.96036c0,0 -3.53182,-0.42427 -4.54041,-0.54588c-0.16845,-0.02027 -0.2656,-0.03145 -0.2656,-0.03145c-0.02376,-0.12302 -0.05242,-0.24114 -0.08667,-0.35437c0.37674,-1.18683 1.52233,-5.51406 -0.11113,-10.12786c-0.92961,-2.62528 -3.09917,-2.86292 -4.5523,-5.1534c-0.97784,-1.54259 -0.90235,-4.89059 1.01628,-6.80922c-1.54399,0.32012 -3.46612,-0.21388 -4.25105,-1.73061c-0.78353,-1.51394 0.19221,-4.30487 1.01558,-5.64337c1.2043,-1.95638 -0.78982,-6.28221 -0.15028,-10.3082c0.79052,-4.96538 5.49309,-7.89959 10.53396,-7.52356c3.72403,0.26351 5.7545,1.2036 9.47923,1.2036c9.14094,0 14.70882,-1.12811 22.87262,-5.4169c4.32584,-2.25763 6.9595,-3.15998 10.83451,-6.16968c1.46711,-1.12881 -0.90305,-2.33241 -0.75208,-4.17626c0.15028,-2.06821 1.91863,-3.38574 3.98684,-3.72403c0.22646,3.08449 -0.97714,5.22889 0.82826,7.74932c1.24204,1.76836 3.46053,0.37674 5.56858,-0.15028c0.6018,2.44495 4.58026,5.00173 5.40782,5.03947c1.05822,0.04753 1.35388,-1.24134 2.4072,-1.35458c1.91863,-0.18872 3.50806,0.41448 2.83007,3.42418c0.78982,1.01558 0.78982,1.27909 1.61738,2.37016c1.76836,2.33241 -1.65443,4.36428 -4.54671,3.76527z" fill="#d1b23e"/><path d="M265.34135,210.6796c-0.065,0.11463 -0.05801,0.21877 -0.01468,0.30265c-1.75787,1.0729 -3.66602,1.95708 -5.64197,2.2101c-0.27888,0.03565 -0.54588,0.10205 -0.80659,0.18033c-0.2705,0.0021 -0.53959,0.00419 -0.81009,0.00559c-0.35088,-0.11812 -0.74299,-0.18592 -1.17914,-0.18592c-0.02307,0 -0.04403,0.0028 -0.0664,0.00349c-0.69896,-0.42357 -1.41189,-0.82966 -2.15138,-1.21199c-0.98413,-0.50954 -1.61738,-0.94359 -2.03326,-1.65443c0.10065,-0.32082 0.19431,-0.63954 0.25372,-0.96596c1.10225,-0.34319 2.22897,-0.78842 3.41859,-1.38323c2.41,-1.205 3.59682,-1.85293 5.12614,-2.42118c0.00489,0.00489 0.00559,0.01118 0.01118,0.01677c0.44104,0.44384 0.97364,0.74928 1.51184,1.04494c1.08478,0.71154 1.93401,1.64045 2.68049,2.66162c-0.00559,0.48787 -0.05452,0.96456 -0.29845,1.39721z" fill="#b4762e"/><path d="M225.90069,212.33263c0.0664,0.16985 0.12092,0.34319 0.18313,0.51443c-0.10414,0.11673 -0.18313,0.25023 -0.2691,0.38023c-0.09436,0.10414 -0.18522,0.21598 -0.27189,0.3362c-0.30195,0.41937 -1.64324,0.95967 -3.19213,1.35877c-0.36625,0.01188 -0.73251,0.02307 -1.09876,0.02726c-0.51233,-0.14538 -1.04214,-0.18592 -1.57405,-0.21178c-0.80939,-0.21108 -1.62158,-0.40539 -2.44355,-0.55427c-0.11742,-0.02097 -0.23485,-0.04194 -0.35088,-0.05871c-0.32222,-0.50045 -0.35577,-0.61368 -0.39351,-0.72272c-0.15237,-0.43755 -0.38652,-0.80869 -0.67729,-1.11483v-1.03306c0.1342,-0.17404 0.24813,-0.36625 0.30614,-0.58992c0.04613,-0.17823 0.10414,-0.35297 0.15866,-0.52911c0.25442,-0.28238 0.4005,-0.64514 0.43825,-1.02607c0.00349,-0.01677 0.01328,-0.03215 0.01677,-0.04893c1.74389,1.09387 3.62688,1.05752 5.64616,-0.02726c0.77444,-0.40959 1.35527,-0.85203 1.81728,-1.42517c0.22087,0.47249 0.45991,0.9359 0.67729,1.4084c0.05452,0.6039 0.24603,1.19172 0.57384,1.69217c0.0028,0.01608 0.00839,0.03215 0.01118,0.04823c0.02237,0.12721 0.09646,0.19221 0.18452,0.21807c0.01468,0.01817 0.02936,0.03704 0.04403,0.05522c0.02097,0.0636 0.03774,0.12931 0.05662,0.19361c-0.02656,0.37045 0.01468,0.74439 0.15726,1.10924z" fill="#b4762e"/><path d="M229.81834,194.44147v0.6032c-0.03006,0.03285 -0.05662,0.07129 -0.07269,0.12092c-0.24533,0.76466 -0.7388,1.47899 -1.14349,2.16816c-0.09296,0.15726 -0.17194,0.32362 -0.25931,0.48438c-0.49206,0.34389 -0.92821,0.76606 -1.41608,1.11204c-0.67589,0.26211 -1.36087,0.49905 -2.04305,0.74788c-0.03704,0.01398 -0.06291,0.03774 -0.09086,0.06011c-0.67938,0.10694 -1.31404,0.33969 -1.97175,0.54938c-0.96106,0.30754 -2.00111,0.44593 -3.00621,0.4676c-0.0657,0.0014 -0.11673,0.02446 -0.16286,0.05452c-0.02516,0.00349 -0.05102,0.00629 -0.07269,0.01468c-0.05312,-0.00489 -0.10554,-0.00839 -0.16006,-0.01817c-0.01118,-0.00419 -0.02027,-0.0007 -0.03145,-0.00349c-0.14398,-0.30474 -0.27958,-0.61508 -0.38373,-0.92751c0.04473,-0.05242 0.07898,-0.11533 0.08457,-0.19571c0.06151,-0.88977 0.34668,-1.7418 0.34528,-2.63716c0.05172,-0.04194 0.10205,-0.08457 0.16006,-0.12302c2.63366,-1.74949 4.72144,-2.36876 6.31996,-5.11566c0.15447,-0.26421 0.31942,-0.56476 0.49486,-0.85902c0.70595,0.32921 1.36646,0.72132 1.97175,1.19172c0.18942,0.23555 0.3991,0.44803 0.61298,0.66541c0.28028,0.28447 0.48228,0.65702 0.67519,1.01488c0.01188,0.09506 0.03774,0.17823 0.08108,0.24603c0.00489,0.0657 0.02167,0.12232 0.03844,0.17753c-0.00839,0.07269 0.00629,0.13839 0.03006,0.2013z" fill="#b4762e"/><path d="M235.31842,197.2953c-0.45153,2.72663 -0.67729,4.30696 -0.45153,7.07203c0.01188,0.14538 0.02027,0.28937 0.02586,0.43265c-1.8767,-0.7346 -3.68,-1.7376 -5.39104,-2.65254c-0.07968,-0.11463 -0.16565,-0.22506 -0.23764,-0.34459c-0.12232,-0.37953 -0.29985,-0.7353 -0.54239,-1.04704c-0.07129,-0.15097 -0.14329,-0.30125 -0.21318,-0.45502c-0.00699,-0.01468 -0.01608,-0.02307 -0.02446,-0.03495c-0.00629,-0.07549 -0.03635,-0.14398 -0.09156,-0.19431v-0.19571c0,-0.08877 -0.03075,-0.15307 -0.07339,-0.2027c0.02446,-0.17124 0.04893,-0.34319 0.07059,-0.51513c0.25442,-0.50954 0.51024,-1.01768 0.78283,-1.51743c0.38862,-0.71293 0.86321,-1.39651 1.14489,-2.16117c0.09855,-0.04124 0.15936,-0.12931 0.18662,-0.22716c0.0007,-0.0007 0.0014,-0.0007 0.0014,-0.0014c0.68218,-0.39491 1.22527,-0.95198 1.79841,-1.49017c0.00909,-0.00909 0.01188,-0.01817 0.01747,-0.02726c0.02446,-0.00979 0.04334,-0.02586 0.0636,-0.04054c0.04194,-0.00629 0.08457,-0.01887 0.12931,-0.04963c0.19501,-0.1314 0.41168,-0.21388 0.62836,-0.29845c0.56056,1.1407 1.40141,1.99761 2.4757,2.7462c-0.11183,0.37883 -0.22856,0.77514 -0.29985,1.2043z" fill="#b4762e"/><path d="M272.64194,150.55475c1.80051,-1.0736 3.0761,-0.82547 3.2138,-0.51303c0.63605,1.44404 -1.03096,4.38455 -2.15348,5.26453c-1.76626,1.38323 -3.47241,1.62437 -5.50358,1.28538c-0.50744,-0.08527 -1.1393,-0.736 -0.6018,-0.6018c2.81539,0.69896 6.81482,-1.66212 7.19924,-4.6152c-1.62018,-0.17124 -2.79722,0.43894 -4.10217,1.88019c0.92821,-2.30655 1.83546,-4.18744 0.0692,-6.39195c-1.62297,1.86621 -2.03746,3.22009 -2.28978,5.98166c0,0 -1.06311,-0.99671 -1.40141,-1.4699c-0.36066,0.91423 -0.03565,1.92982 -0.23974,2.87131l-0.51233,-0.10205c-0.31593,-1.86062 -0.40679,-3.75619 -0.30754,-5.63987c-5.44976,3.42278 -1.23855,4.36498 -1.23086,6.15221c-0.92612,0.17753 -2.1423,-0.64863 -2.63227,-1.40141c-1.52442,-2.3436 2.01579,-5.52385 4.10217,-5.98166c0.22576,-0.04963 1.02187,-0.10345 0.99112,0.30754l-0.17055,2.28978l1.16166,1.16236c0.4047,-2.19891 0.82617,-4.7536 2.93981,-5.98236c2.0067,0.74229 1.90885,3.86872 1.46851,5.50427z" fill="#272525"/><path d="M197.74816,150.8616c10.80096,-0.37045 1.88998,12.3785 8.37488,13.70722c2.29537,0.4704 4.89548,-2.08219 6.73374,1.29866c0.31663,0.58153 0.13909,1.31683 0.54728,1.81169c5.69369,-3.56607 12.2457,-0.08248 18.39022,-0.82057c4.05184,-0.48717 7.57318,-0.82127 11.00645,-2.05143c-0.89117,-0.12651 -1.81589,-0.28098 -2.56307,-0.81987c0.15377,-1.11134 2.2723,-1.47619 3.04255,-2.11923c-0.38443,-0.39002 -0.66261,-0.57594 -1.23086,-1.06032c0.93171,-0.99112 2.33591,-1.05892 3.52064,-1.57265c-0.42846,-0.45712 -0.7332,-0.68847 -1.40141,-1.23016c1.87879,-1.54259 4.27411,-2.22268 6.66454,-2.39252c-0.62836,-0.4697 -1.42307,-0.65632 -1.98154,-1.23086c1.62787,-1.59082 4.88989,-1.88368 6.80154,-1.87949c-0.32571,-0.48088 -0.54658,-0.87719 -0.88837,-1.4699c1.2064,-0.86041 5.32604,-0.95967 6.39265,-0.40959c0.54379,0.28028 0.53889,1.37974 0.11952,1.45383c-1.27909,0.22576 -3.33122,-1.00859 -4.77806,-0.41378c0.54029,0.47599 1.537,1.32382 1.78723,2.00251c-1.71104,-0.08318 -4.83747,-0.70734 -6.73374,1.05962c1.11064,0.43685 1.75717,0.77304 2.56377,1.29866c-1.37904,0.30474 -5.24636,0.95128 -7.38377,2.05143c0.35437,0.17684 1.79142,0.54868 2.35897,1.40141c0.44104,0.66401 -3.78554,1.08128 -4.51665,1.4042c0.63885,0.37604 1.2036,0.67729 1.91863,1.39861c-1.4734,0.43615 -2.89857,1.02257 -4.27271,1.70965c0.36276,0.22786 0.81358,0.14259 1.06032,0.51233c3.20331,-0.55986 6.07462,-2.57425 9.09271,-3.69188c2.51834,-0.93241 9.26955,-5.17017 10.83591,-5.60562c0.19361,-0.05382 0.71503,0.07758 0.81987,0.27329c0.11253,0.20969 -0.15028,0.76745 -0.30684,0.88907c-1.45243,1.12392 -3.35429,2.06681 -4.95839,2.97965c-9.13185,5.19813 -17.85971,8.44688 -28.4384,8.98367c-5.50987,0.28028 -10.41164,-2.22827 -15.51891,0.92262c-3.21799,1.98503 -4.77107,5.05065 -4.6837,8.85367c0.04893,2.11364 1.37065,3.12992 1.40141,4.58095l-0.58153,0.51233c-2.55748,-2.38763 -3.22079,-6.18995 -2.03256,-9.45337c0.63885,-1.75298 1.39791,-3.081 2.37365,-4.42509c-0.29077,-0.37534 -0.98762,-0.2027 -1.40141,-0.17055c-3.39063,0.26071 -7.20134,7.07133 -13.01106,2.79023c-4.28809,-3.15998 -3.31235,-7.78566 -1.99482,-10.58428c1.0687,-2.27021 3.51924,-4.15669 2.80281,-6.97348c-0.43056,-1.69217 -0.88278,-3.81001 -2.46102,-4.98984c0.97434,0.21248 1.78024,0.84574 2.52952,1.4692z" fill="#272525"/><path d="M212.68624,168.09015l-1.23086,0.99112c0.07689,-0.3362 -0.31802,-0.5333 -0.58153,-0.58153c-3.09567,-0.56126 -6.36748,3.76877 -10.49342,3.45214c-2.38274,-0.18173 -4.04206,-1.56286 -5.02549,-3.69118c-2.50855,-5.43228 6.4877,-8.99765 2.73501,-16.64702c1.66212,0.37883 3.68489,1.93401 4.23916,3.58984c0.92891,2.77625 -1.12322,5.80552 0.81987,8.61393c3.08868,4.46353 6.38216,0.10764 8.95572,2.97336c0.35367,0.39421 0.54658,0.75907 0.58153,1.29936z" fill="#975b3d"/><path d="M211.86566,168.09015c-5.02479,-2.73361 -6.6254,2.92093 -11.24619,1.57265c-1.36296,-0.3984 -2.28978,-0.91004 -2.87131,-2.29048c-1.38813,-3.29697 0.95128,-5.50497 1.88019,-8.37488c0.56406,-1.74319 1.08059,-4.28669 -0.47878,-6.56249c0.80869,0.43825 1.39791,2.02627 1.70965,2.87131c1.49087,4.03996 -3.82538,9.1668 -1.4699,12.06607c2.62737,3.23477 6.6932,-1.9431 10.73316,-0.51233c0.57943,0.20479 1.11973,0.56545 1.74319,1.23016z" fill="#272525"/><path d="M278.64946,160.17238c1.36646,-3.8142 7.65915,-0.97504 5.16179,2.46102c1.46781,0.91004 2.88529,2.72383 2.29886,4.63617c-1.25602,4.09238 -9.45547,2.55468 -11.17839,-0.71853c-1.54749,-0.30894 -3.04884,-0.9366 -4.10147,-2.15348c0.17544,2.28489 2.8776,3.83447 4.6152,4.92204c-1.2078,3.13272 -5.8873,2.79163 -7.48581,0.23974c-0.26421,-0.42147 -0.49346,-1.65023 -1.06032,-1.64045c-1.94659,0.03145 -3.94001,0.99951 -5.50358,-0.95757c-0.78632,-0.98553 -1.01978,-2.38833 -0.54658,-3.55489c1.78164,4.05604 4.96188,2.8084 7.38307,1.91374c0.15447,1.76556 0.40539,6.97907 5.63987,3.82888c-1.59921,-0.79961 -5.07232,-2.62737 -3.45214,-7.04198c0.16146,-0.44034 1.84175,3.54999 5.26453,3.52134c4.00921,4.78016 13.89523,2.52043 7.13564,-2.58544c2.03466,-2.84195 -1.99063,-5.2876 -3.11035,-2.05143c-1.37275,1.39232 -6.33953,-3.10825 -6.96509,-4.38804c0.14329,-0.52631 0.75208,-0.68987 1.23016,-0.71783c1.43635,1.36157 2.6749,3.26203 4.57257,4.2175z" fill="#272525"/><path d="M271.00079,157.93852c2.24365,3.15648 -3.97566,2.83846 -4.34051,1.64115c-0.56406,-1.85363 3.11385,-3.36897 4.34051,-1.64115z" fill="#272525"/><path d="M270.41996,159.23648c0,0 -0.79262,0.25791 -1.39442,0.25093c-0.6018,-0.00559 -1.54469,-0.18243 -1.54469,-0.18243c0.42636,-0.7374 1.05612,-1.05263 1.62297,-1.08688c0.75487,-0.04613 1.40001,0.4047 1.31613,1.01838z" fill="#ffffff"/><path d="M270.00338,158.20901c0.25931,0 0.49486,0.08667 0.66541,0.22646c0.16985,0.13909 0.27539,0.332 0.27539,0.54519c0,0.21318 -0.10554,0.40609 -0.27539,0.54519c-0.17055,0.13979 -0.40609,0.22646 -0.66541,0.22646c-0.25931,0 -0.49486,-0.08667 -0.66541,-0.22646c-0.16985,-0.13909 -0.27539,-0.332 -0.27539,-0.54519c0,-0.21318 0.10554,-0.40609 0.27539,-0.54519c0.17055,-0.13979 0.40609,-0.22646 0.66541,-0.22646z" fill="#272525"/><path d="M278.45305,162.10779c0,0 -1.78024,-0.1321 -2.35828,0.58153c-0.53191,0.65562 -0.48508,1.46361 -0.65003,2.22198c-3.16557,-3.33751 1.29726,-4.65574 3.0083,-2.80351z" fill="#272525"/><path d="M277.22219,164.9113c-0.69127,-2.58264 3.78065,-0.36416 2.63227,0.88907c-0.34528,0.37604 -2.40091,-0.03006 -2.63227,-0.88907z" fill="#272525"/><path d="M265.63561,209.27959c-0.0028,0.28308 -0.02586,0.56196 -0.08807,0.83106c-0.13979,0.37534 -0.36416,0.76186 -0.58572,1.08268c-1.65792,0.97364 -3.43886,1.75997 -5.28061,1.99622c-0.2684,0.03425 -0.52492,0.10135 -0.77444,0.18033c-0.28238,0.0021 -0.56545,0.00419 -0.84783,0.00559c-0.34948,-0.11812 -0.73949,-0.18592 -1.17355,-0.18592c-0.01957,0 -0.03844,0.0028 -0.05801,0.0028c-0.70175,-0.42357 -1.41818,-0.82756 -2.15977,-1.21129c-0.98343,-0.50884 -1.61878,-0.938 -2.03536,-1.64744c0.0699,-0.22297 0.1363,-0.44593 0.19291,-0.6696c0.4026,-1.19521 0.8681,-2.24994 1.11553,-3.66672c0.86181,-4.94162 1.0708,-9.90001 -2.29048,-15.00587c-0.69476,-1.05612 -2.7427,-4.16927 -3.79463,-4.6837c-0.31523,-0.15447 -1.79072,1.06451 -2.35828,1.29866c0.98762,3.78205 1.98154,8.98437 0.17055,12.6476c-1.10016,2.22827 -3.78554,4.66483 -6.32345,4.99124c-1.09736,0.14049 -2.30516,0.08807 -3.52833,-0.11952c-0.00629,0 -0.00979,-0.00349 -0.01608,-0.00349c-0.0014,0 -0.0028,-0.0007 -0.00419,-0.0007c-0.00629,-0.0014 -0.01328,-0.00349 -0.02027,-0.00419c-2.19472,-0.7388 -4.29578,-1.91094 -6.27313,-2.96916c-0.0685,-0.09925 -0.14468,-0.19501 -0.20759,-0.29776c-0.1307,-0.41728 -0.32571,-0.80869 -0.599,-1.14559c-0.06291,-0.1349 -0.12721,-0.2684 -0.18942,-0.40539c-0.00699,-0.01468 -0.01608,-0.02307 -0.02446,-0.03495c-0.00629,-0.07549 -0.03635,-0.14398 -0.09156,-0.19431v-0.19571c0,-0.08877 -0.03075,-0.15307 -0.07339,-0.2027c0.00769,-0.05452 0.01398,-0.10904 0.02237,-0.16356c0.03774,-0.17614 0.07758,-0.35227 0.12931,-0.52981c0.22716,-0.45013 0.45991,-0.89676 0.70175,-1.3392c0.36066,-0.66051 0.79331,-1.29726 1.08059,-1.99552c0.13769,-0.17124 0.27888,-0.33969 0.42496,-0.49975c0.6018,-0.38582 1.10155,-0.89257 1.62577,-1.38393c0.00629,-0.00489 0.00769,-0.01188 0.01328,-0.01747c0.03285,-0.02027 0.0657,-0.03774 0.09785,-0.05731c0.03215,-0.01048 0.065,-0.01957 0.09925,-0.04264c0.19012,-0.12791 0.4012,-0.20969 0.61228,-0.29216c0.58642,1.19312 1.48738,2.06541 2.63017,2.83846c0.1992,0.1342 0.42077,0.20829 0.64863,0.23205c3.94281,1.39092 7.70179,-4.72494 4.89129,-8.64189c-3.53811,1.62857 -8.58038,1.54329 -12.79718,0.30335c-0.37953,-0.18942 -0.76396,-0.36555 -1.15118,-0.52492c-0.28308,-0.11603 -0.57664,-0.17684 -0.86251,-0.18522c-0.8052,-0.3341 -1.56496,-0.70944 -2.24504,-1.13161c0.01817,1.05333 0.37115,2.14999 0,3.17885c0.18452,0.09436 0.3998,0.21039 0.63395,0.34179c0.1335,0.36765 0.37674,0.68358 0.74788,0.83595c0.7339,0.30195 1.44125,0.64164 2.09966,1.05053c0.92681,0.7388 1.70685,1.54679 1.96756,2.29747c0.00559,0.01957 0.01118,0.03914 0.01957,0.05731c0.01048,0.03285 0.02586,0.0671 0.03425,0.09995c0.02027,0.08178 0.03006,0.16286 0.04334,0.24394c0.0007,0.0028 0.0014,0.00559 0.0014,0.00839c0.01817,0.11533 0.02796,0.22996 0.03075,0.34459v0.01887c0.0021,0.11183 -0.0014,0.22227 -0.00979,0.3327c-0.02586,0.03285 -0.04893,0.0692 -0.0636,0.11463c-0.24533,0.76466 -0.7388,1.47899 -1.14349,2.16816c-0.08947,0.15237 -0.16565,0.31243 -0.25093,0.4683c-0.02027,0.01957 -0.04403,0.03844 -0.0636,0.05801c-0.4683,0.3362 -0.89117,0.7367 -1.36017,1.0701c-0.67659,0.26141 -1.36226,0.49905 -2.04375,0.74788c-0.03215,0.01118 -0.05522,0.03145 -0.08108,0.04893c-0.02307,0.00699 -0.04543,0.01328 -0.0685,0.02097c-0.65772,0.11113 -1.2742,0.3355 -1.91304,0.53889c-0.12861,0.04054 -0.26071,0.07129 -0.39142,0.10624c-0.43405,0.09995 -0.87649,0.18802 -1.33151,0.26141c-0.42776,0.05522 -0.85832,0.09017 -1.28258,0.09995c-0.065,0.0014 -0.11673,0.02446 -0.16286,0.05452c-0.03215,0.00559 -0.065,0.00979 -0.09226,0.02307c-0.06291,-0.01258 -0.12581,-0.02376 -0.18662,-0.03844c-0.07689,-0.01747 -0.15237,-0.03844 -0.22646,-0.06081c-0.10624,-0.26071 -0.14608,-0.55148 -0.14538,-0.85622c0.04543,-0.05312 0.08108,-0.11673 0.08667,-0.1985c0.05592,-0.81219 0.29146,-1.59362 0.3327,-2.40371c0.04683,-0.38233 0.03635,-0.71363 -0.10345,-0.94988c-0.50884,0.42986 -1.10435,0.7353 -1.64045,1.12811c0.17264,1.31963 0.79821,3.22428 1.64045,4.27202c0.98483,1.22597 2.07939,2.19752 3.10895,3.17186c0.08597,0.08178 0.17124,0.16286 0.25582,0.24394c0.30824,0.36206 1.70615,1.06101 1.2728,1.92492c0.04543,0.11183 0.09296,0.22157 0.14189,0.33061c0.24533,0.54658 0.52701,1.07639 0.77584,1.61878c0.05452,0.6032 0.24603,1.19032 0.57384,1.69147c0.00349,0.01677 0.00909,0.03285 0.01188,0.04893c0.02237,0.12721 0.09646,0.19221 0.18452,0.21807c0.01468,0.01817 0.02936,0.03704 0.04403,0.05522c0.02167,0.0685 0.03914,0.137 0.05941,0.20619c-0.02516,0.36555 0.01258,0.7353 0.15307,1.09526c0.0671,0.16985 0.12232,0.34319 0.18383,0.51373c-0.12651,0.14189 -0.23485,0.29706 -0.3341,0.45712c-0.07059,0.08318 -0.14049,0.16775 -0.20689,0.26001c-0.30195,0.41867 -1.64255,0.95897 -3.19143,1.35877c-0.36625,0.01188 -0.7332,0.02307 -1.09946,0.02726c-0.51233,-0.14538 -1.04214,-0.18592 -1.57405,-0.21178c-0.80939,-0.21108 -1.62158,-0.40539 -2.44355,-0.55427c-0.11742,-0.02097 -0.23415,-0.04194 -0.35088,-0.05941c-0.31034,-0.50395 -0.34389,-0.61858 -0.38233,-0.72831c-0.15377,-0.44034 -0.39351,-0.81289 -0.68777,-1.12112v-0.88767c0.30405,-0.55078 0.62976,-1.09456 0.8052,-1.69636c2.05423,-7.03219 -5.10098,-9.99646 -5.81112,-12.30511c-0.44244,-1.43985 0.29915,-2.90416 0.64933,-4.27271c0.40959,-0.09855 1.10295,-0.59621 1.40141,-0.0685c-0.01188,1.21478 -1.2686,3.48569 -0.34109,4.51176c0.61927,0.68568 1.6069,1.205 2.28209,1.93261c2.52253,2.71894 3.92813,7.27683 3.22149,10.95473c-0.15657,0.81219 -0.51793,1.66142 -0.75208,2.46102c2.29187,1.14349 5.33722,1.09666 7.38307,0.47948c0.36136,-0.62487 0.38512,-1.77045 0.23974,-2.46102c-1.05962,-5.01361 -8.72716,-9.50649 -8.44338,-14.69833c0.88837,-0.52561 1.82008,-1.04494 2.46102,-1.87949c-2.30236,-5.29529 -7.6941,0.28937 -10.56262,-3.52064c-1.18054,-1.56846 -0.99252,-4.05953 -0.17055,-5.74332c0.43475,-1.02537 0.26421,-1.90395 1.64045,-1.57195c0.28867,0.0699 0.69686,0.08597 0.82057,0.40959c-0.6668,1.37415 -2.24994,3.52623 -1.23086,5.09329c0.88697,1.36436 4.07771,0.7353 5.50358,0.92332c2.3422,0.30894 5.20862,2.45333 5.98236,4.7515c0.29636,0.88278 -0.0021,2.26112 -0.1992,3.478c-0.02027,0.12232 -0.03844,0.24254 -0.05452,0.35996c0.25652,-0.00839 0.25652,0.69057 0.25652,0.69057c1.39791,0 2.09687,0 3.78135,-0.70874c0.07689,-0.03495 0.15377,-0.07059 0.23066,-0.10764c2.06821,-0.98343 3.86732,-2.43656 3.36827,-3.64435c-0.05102,-0.12162 -0.90235,-1.068 -1.04564,-1.22806c-2.28139,-2.53022 -6.76868,-5.10657 -10.03001,-5.16388c-0.19501,-0.24324 -0.21318,-0.40609 0.0685,-0.58083c1.59292,-0.98972 3.50247,-2.02767 3.69118,-4.17067c0.15587,-1.77045 -0.34808,-3.69328 -2.63227,-5.43438c0.98133,-2.65114 5.33093,2.41839 4.72913,5.50358c5.71536,2.59382 11.91999,4.66762 18.24064,3.2131c4.82,4.19723 -1.75997,16.41217 -8.61323,9.02352c-1.33221,1.10435 -2.34639,2.58474 -2.76856,4.27271c1.19242,1.81589 4.03297,2.76367 6.05016,3.35009c2.52742,0.736 6.05365,-0.87859 7.55501,-2.93981c1.30565,-1.79352 1.6705,-3.39413 1.98224,-5.50288c0.30684,-2.0738 0.0685,-4.0127 -0.34179,-6.08511c-0.18872,-0.95477 -0.64444,-1.7404 -0.71713,-2.76856c1.09876,-0.74579 2.42747,-1.14838 3.2802,-2.22198c1.1393,1.12532 5.37567,5.92574 6.39265,8.68242c2.08429,5.64826 3.35289,12.40227 0.47809,18.04843c2.40021,1.28328 6.10747,1.75717 8.48881,0.31383c0.41728,-0.25302 0.65981,-0.70245 0.5361,-1.03236c-0.39002,-1.04424 -3.0782,-2.97545 -3.93023,-4.10147c0.66051,-7.03708 -0.80659,-14.9255 -6.1529,-20.03067c-0.70525,-0.67309 -4.64176,-3.13272 -4.27341,-3.69188c0.68777,-1.04074 1.54539,-1.90745 2.19053,-3.02228c2.10875,-3.63876 3.39622,-8.06385 7.00493,-10.58219c0.78003,-0.54379 1.56286,-1.31963 2.46102,-1.64045l0.23974,0.23834c-0.11393,0.90305 -1.44404,1.58803 -2.05143,2.22268c-4.49568,4.69349 -4.37546,10.04119 -7.86255,13.12638c6.40663,4.49358 10.01044,11.57121 10.32427,19.34709c0.04124,1.04983 -0.03844,2.01858 -0.06081,3.18514c-0.14538,0.11952 -0.21877,0.3341 -0.05871,0.49416c0.38792,0.39002 0.84713,0.67309 1.31753,0.9373c0.6675,0.54239 1.44334,1.19382 2.01928,1.70895c0.30125,0.3376 0.58572,0.69127 0.85133,1.05752z" fill="#272525"/><path d="M222.94061,188.70235c-1.08128,-0.64024 -2.34989,-0.76186 -3.52064,-1.16236c1.14,-0.60669 2.05493,-1.22946 3.11035,-2.29048c0.47389,0.65562 0.42496,2.73711 0.41029,3.45284z" fill="#d1b23e"/><path d="M225.46943,192.46203c0,1.87879 -1.81239,3.51714 -3.69118,3.93162c-0.21598,0.04683 -0.51653,-0.43195 -0.30754,-0.58153c2.0731,-1.48808 3.16487,-3.745 3.99872,-3.35009z" fill="#272525"/><path d="M235.55396,198.44439l-0.0685,3.79533c-1.97455,1.11693 -1.24833,-5.08979 0.0685,-3.79533z" fill="#272525"/><path d="M259.73363,207.03944c-0.71433,1.01558 -2.53441,1.53071 -3.27251,1.61738c-0.63954,0.07479 -0.88278,-0.37115 -0.6018,-0.6018c0.98693,-0.81428 2.1381,-1.1379 3.31025,-1.65513c0.23485,-0.10414 0.71084,0.43126 0.56406,0.63954z" fill="#272525"/><path d="M223.20552,209.48439c-1.2036,0.75278 -3.53671,0.88837 -4.66483,0.37604c-0.43545,-0.19711 -0.03774,-0.75138 0.29845,-0.75068c1.40141,0.0685 2.97336,0.03425 4.10147,-0.88837c0.37604,-0.17194 0.77864,0.94219 0.2649,1.26301z" fill="#272525"/><path d="M277.41511,157.79523c-2.06961,1.88089 -3.76248,1.16586 -3.78904,0.51443c-0.12721,-1.01349 0.83595,-2.18563 2.24644,-1.79352c0.67729,0.18872 1.24134,0.56406 1.54259,1.27909z" fill="#272525"/><path d="M276.53023,157.79104c-0.68428,0.18592 -1.45243,0.6696 -2.2758,0.56895c0.137,-0.41168 0.38652,-1.00929 0.82826,-1.12811c0.58712,-0.16006 1.35388,0.10275 1.44754,0.55916z" fill="#ffffff"/><path d="M276.24855,157.0809c0.21807,0 0.41518,0.065 0.55847,0.17055c0.14259,0.10554 0.23135,0.25162 0.23135,0.41238c0,0.16076 -0.08877,0.30684 -0.23135,0.41238c-0.14329,0.10554 -0.34039,0.17055 -0.55847,0.17055c-0.21807,0 -0.41518,-0.065 -0.55847,-0.17055c-0.14259,-0.10554 -0.23135,-0.25162 -0.23135,-0.41238c0,-0.16076 0.08877,-0.30684 0.23135,-0.41238c0.14329,-0.10554 0.34039,-0.17055 0.55847,-0.17055z" fill="#272525"/><path d="M281.02032,161.97149c1.23016,-1.69217 2.08289,2.11993 0.75557,2.03885c-0.3984,-0.02516 -1.16516,-1.47549 -0.75557,-2.03885z" fill="#272525"/></g></g></svg>