<svg version="1.1" xmlns="http://www.w3.org/2000/svg" xmlns:xlink="http://www.w3.org/1999/xlink" width="79.96536" height="68.79845" viewBox="0,0,79.96536,68.79845"><g transform="translate(-200.01732,-145.60078)"><g data-paper-data="{&quot;isPaintingLayer&quot;:true}" fill-rule="nonzero" stroke="none" stroke-width="1" stroke-linecap="butt" stroke-linejoin="miter" stroke-miterlimit="10" stroke-dasharray="" stroke-dashoffset="0" style="mix-blend-mode: normal"><g><path d="M214.15419,183.07947c0,0 2.81719,-3.57864 6.04879,2.12564c3.23161,5.70428 4.18579,8.56556 4.18579,8.56556c0,0 4.17256,-1.95244 3.22783,2.77121c0,0 0.62982,4.88111 -2.2831,4.64492c0,0 -2.20563,3.85702 -4.56368,2.91292c-2.35805,-0.9441 -2.67926,-3.1491 -1.6558,-5.82584z" fill="#20a6d8"/><path d="M224.45238,193.44568c0.72177,-0.65375 1.72319,-1.09085 2.52117,-0.71862c1.59156,0.74256 2.06014,2.55329 1.10659,4.60525c0.70981,2.29947 -0.84837,5.26026 -2.74413,4.63044c-0.46103,1.57329 -1.6621,2.72838 -2.94378,2.99668c-3.78459,0.78916 -5.29679,-2.89088 -3.99747,-6.87134c-0.22044,-0.47992 -5.51471,-15.66615 -5.42527,-16.29471l1.18469,1.28609c0.62037,0.94977 5.90771,14.75795 5.28608,15.99177c-1.67658,3.32293 1.59974,6.26041 4.46102,3.45897c1.16769,-1.14249 0,-4.34072 -0.55613,-5.0077c1.42717,0.03905 2.04251,1.92599 2.36749,2.83167c1.26279,0.10077 1.51787,-1.26783 1.53676,-2.00157c0.05542,-2.11683 -1.59659,-2.14958 -2.79766,-2.37757c-0.21162,-0.45095 0.3042,-0.4415 0.52275,-0.52905c0.78035,-0.31113 1.53424,0.12974 2.27554,0.37789c0.79924,-2.05573 -1.8523,-2.53251 -2.85938,-1.01716l-4.59139,-9.75025c-0.02078,-0.45347 0.9145,-0.33569 1.12549,-0.40183z" fill="#272525"/></g><g><path d="M262.85316,195.73634c0.93654,1.32199 0.79483,3.24169 -0.20343,4.46857c-0.35963,0.44024 -0.82129,0.39238 -1.07699,0.94347c-0.41001,0.87986 -0.07747,1.68288 -0.61533,2.45378c-0.79546,1.1469 -2.25476,1.50842 -3.1258,0.43961c-0.75641,1.85671 -2.80585,1.48008 -4.15303,0.37789c-0.66572,-0.53409 -0.70225,-1.36797 -0.87104,-2.32719c-0.55046,-3.09872 0.02582,-5.08013 -0.82066,-8.05351c-0.52527,-1.85545 -1.13997,-2.92552 -2.45882,-4.0277c-0.82632,-0.69595 -1.26342,-1.67406 -2.14139,-1.8586c-0.02393,0.0655 -0.06613,0.13478 -0.11715,0.20532c-0.26389,-0.48433 -0.52401,-0.97118 -0.71044,-1.47693c0.00945,-0.09699 0.02519,-0.19524 0.03086,-0.29224c0.03275,-0.59329 -0.05353,-1.15194 -0.22862,-1.65958c0.31869,-1.58715 1.94174,-2.04629 3.33616,-1.95244c0.81625,0.05479 1.65895,0.27019 2.48023,0.59014c0.99575,1.16139 1.82144,2.55959 3.03951,4.05226c1.40828,1.73075 1.89576,3.0351 3.07478,5.03415c0.55109,0.94347 0.89686,1.98141 1.84537,1.95118c1.11541,-0.04661 1.98582,0.09384 2.71579,1.13179z" fill="#20a6d8"/><path d="M259.65871,193.89789c3.14469,-0.94599 5.63941,2.97275 3.62902,6.34229c-0.245,0.40875 -0.68902,1.18532 -1.10722,1.28357c-0.37663,2.88458 -1.64005,4.55612 -4.15115,3.43567c-0.84396,1.22626 -2.05007,1.7087 -3.32041,1.35789c-4.38985,-1.20925 -1.35915,-7.52824 -2.86001,-10.87322c-0.79735,-1.77357 -1.89954,-3.65863 -3.09368,-5.05557c-0.24752,-0.29035 -1.58022,-1.32514 -1.69107,-1.51157c-0.22988,-0.3823 -0.99323,-1.38623 0.1732,-1.53991c0.85404,-0.11274 1.76602,0.99197 2.30451,1.38749c2.1036,1.54558 4.08061,5.71058 4.05919,8.72301c-0.01575,2.1565 -1.30877,5.43724 0.95355,6.67987c2.39143,1.31506 3.06785,-1.22059 2.5218,-3.24546c0.38041,-0.0655 1.00771,1.208 0.90505,2.46638c1.23067,1.35663 2.52432,-0.51141 2.63328,-2.08848c0.15997,-2.3423 -1.24767,-2.1269 -1.846,-2.6421c1.5185,-0.86852 2.74854,0.57818 3.16611,1.35915c1.2439,-1.33585 0.37663,-4.09887 -0.93087,-4.55612c-1.43536,-0.5026 -1.58841,0.06487 -2.45252,0.40371c-0.98378,-4.24688 -4.56809,-9.27473 -8.37157,-12.19269c-0.08251,-0.43961 0.48685,-0.66887 0.67643,-0.98189c3.3519,0.91513 7.59941,7.79655 8.80237,11.24796z" fill="#272525"/></g><g><path d="M252.4945,146.62862c5.4322,-1.49582 6.82473,-0.27145 8.89621,3.85765c2.07148,4.1291 5.51093,5.51093 7.95148,6.2982c2.44055,0.78728 8.50257,0.23618 9.60476,7.63657c1.10219,7.40039 -3.54274,7.00675 -3.54274,7.00675c0.07873,7.32166 -9.05367,5.90457 -9.05367,5.90457c-2.75546,7.47912 -11.88786,2.59801 -11.88786,2.59801c-7.95148,13.61986 -23.38208,14.01287 -33.53793,9.09901c-10.15585,-4.91386 -12.59641,-13.74394 -12.12404,-17.3654c0.47237,-3.62147 -3.1491,-11.65168 10.8644,-16.53278c14.0135,-4.88111 24.42632,3.46968 24.42632,3.46968c0,-2.12564 2.97086,-10.47643 8.40306,-11.97225z" fill="#20a6d8"/><path d="M276.22487,171.9518c-0.79672,4.48621 -4.30482,7.29836 -9.61799,6.01541c-2.26546,5.49896 -7.18877,4.82442 -9.45171,3.98487c-0.5555,-0.20658 -2.13131,-0.94095 -2.37694,-1.00204c-0.84144,1.09211 -1.62997,2.17729 -2.69311,3.22027l0.00567,0.00252c0,0 -1.56636,2.2705 -3.96472,3.99243c-4.57313,3.28388 -9.31378,3.86458 -10.96706,4.14926c-1.18532,0.20406 -18.12119,4.19019 -27.17171,-13.1771c-0.06613,-0.11652 -0.11715,-0.21225 -0.14045,-0.26389c-1.30436,-2.85686 -1.7931,-7.65106 -1.61045,-11.01304c0.0485,-0.89057 -0.07873,-9.5802 7.01998,-11.90234c8.55485,-2.79766 18.67669,-5.70806 28.39041,2.08596c0,0 0.97496,-10.47832 10.26481,-12.20655c9.28985,-1.72823 6.76049,6.49093 11.68254,8.87039c0.25193,0.21351 0.50197,0.38356 0.77027,0.51897c0.50575,0.25445 3.18941,0.963 4.6972,1.3686c5.89134,1.07132 7.1894,4.3023 7.1894,4.3023c2.76113,4.08942 2.31585,10.75166 -2.02613,11.05398zM277.73266,161.95718c-1.06251,-3.16548 -7.66302,-4.5114 -9.34842,-4.80616c-1.43347,-0.18895 -2.58352,-0.85467 -3.60068,-1.75657c0,0 -1.74964,-1.17147 -3.15666,-3.41237c-1.40702,-2.2409 -2.51928,-7.95148 -9.9984,-4.09383c-7.47912,3.85765 -7.63657,11.7304 -7.63657,11.7304c0,0 -4.80175,-4.46669 -10.62759,-4.91008c-5.82584,-0.44339 -24.05851,-0.621 -23.79902,12.22166l-0.15116,1.52039c-0.32814,4.07242 0.22044,6.43361 1.54369,10.21128c0.05102,0.08566 9.05052,18.91413 32.68956,10.36747c4.04534,-1.46244 5.41205,-2.92489 7.50935,-5.39882c0.03905,-0.04598 2.95638,-4.57187 3.185,-4.75829c3.70649,2.01228 8.64869,3.27192 11.39345,-1.01905c-1.29428,-0.44528 -2.83419,-1.12045 -4.88363,-0.99449c2.15273,-1.63564 6.30198,0.05416 8.81496,-0.12596c5.28293,-0.37789 4.97873,-4.82883 5.08013,-9.94045c0.01071,-0.53598 0.7117,-0.61785 0.83262,-0.3464c0.35459,0.79357 0.71737,3.61769 0.69532,4.12091c2.84679,-0.94347 2.39017,-6.02423 1.45803,-8.60964z" fill="#272525"/></g><g><path d="M214.4458,165.493c-2.89969,1.87497 -9.84976,-0.09573 -12.46477,-4.42953c-2.68429,-4.46228 -2.01794,-8.42196 0.55235,-12.20403c-0.04346,2.25413 -0.4012,3.65863 0.67769,5.8378c1.62809,3.29396 4.86158,5.40764 8.42574,5.17082c0.39112,0.12722 0.78476,0.10707 1.2483,0.06676c0.06172,-0.00567 0.1077,-0.02708 0.14549,-0.05605c0.79231,0.29413 1.46937,0.88112 1.94992,1.63186c0.39616,0.61848 0.53409,1.34215 0.48748,2.06455c-0.0485,0.74382 -0.60841,1.3201 -1.0222,1.9178z" fill="#20a6d8"/><path d="M209.17231,166.55172c-2.07652,-0.47425 -4.03904,-1.51283 -5.6646,-3.15162c-4.17508,-4.28404 -5.21995,-11.79653 0.3042,-17.31439c-0.07684,0.37852 -0.15305,0.75767 -0.31932,1.10785c-0.76523,2.98913 -0.22233,7.08548 2.25917,9.81764c1.36419,1.62935 3.75436,2.78003 5.54683,2.24846c0.43898,0.07747 0.87419,0.32184 1.21051,0.5681c0.17824,0.12974 0.35648,0.30483 0.44339,0.51456c0.00567,0.03212 0.01008,0.06361 0.01638,0.09573c-0.11337,0.5385 -0.8597,0.30735 -1.38246,0.38419c-2.87828,0.13856 -6.17413,-2.19429 -7.73482,-4.57879c-1.32703,-1.82522 -1.67154,-4.24562 -1.60667,-6.20373c-0.6991,1.40261 -0.96488,3.07037 -0.94662,4.7457c-0.04661,3.63343 1.89009,7.38212 5.48636,9.27158c1.2735,0.56495 2.63832,0.82884 3.9748,0.82758c0.15179,0.114 0.2576,0.2576 0.22988,0.44339c-0.05416,0.36656 -0.46355,0.63234 -0.74949,0.80617c-0.32247,0.1965 -0.68776,0.33443 -1.06755,0.41757z" fill="#272525"/></g><g><path d="M206.49306,205.06712c0,0 -2.65028,0.97622 -3.75436,-0.9674c-1.10407,-1.94363 0.07873,-5.82584 2.83419,-7.87275c2.75546,-2.04692 5.4322,-6.17287 5.74711,-8.16436c0.31491,-1.99149 1.18091,-7.50242 1.18091,-7.50242c0,0 9.98517,-1.30751 6.60618,7.50242c-3.37899,8.80993 -5.81891,9.97509 -5.81891,9.97509c0,0 2.67485,2.76995 1.25964,5.19602c-1.41521,2.42607 -2.91292,2.07904 -2.91292,2.07904c0,0 -3.67059,4.02833 -5.14185,-0.24563z" fill="#20a6d8"/><path d="M207.47873,204.88322c0.22799,1.0455 1.52731,1.81325 2.58289,0.90631c2.25224,-1.93481 0.19084,-4.6128 0.30735,-4.98314c0.97622,0.14927 1.8649,2.3486 1.6917,3.70019c2.72019,0.73437 3.35946,-5.72948 -0.4308,-6.53187c2.02172,-0.54039 5.98833,-6.07084 7.17743,-11.58932c0.13289,-0.61659 0.92961,1.34719 1.30121,1.75279c0.81562,0.8912 -3.89481,8.98124 -5.68161,10.02485c0.77783,1.53739 1.5481,2.14895 1.10722,4.26577c-0.32373,1.55377 -2.19618,3.62902 -3.57486,3.62399c-0.41001,1.32199 -4.66319,3.39851 -5.99589,0c-1.89639,0.62982 -3.22531,-0.51771 -3.71342,-1.47252c-0.93402,-1.82396 -0.86726,-5.20106 0.27649,-6.87008c1.81703,-2.65217 4.89622,-3.2398 6.36496,-6.53061c0.91261,-2.04566 2.07211,-4.21791 2.27869,-6.52557c0.05983,-0.66761 0.21414,-3.12454 0.32877,-3.75058c0.0888,-0.48118 1.18091,-1.6621 1.46937,-1.13053c0.10455,0.19335 0.41316,2.10045 0,4.0277c-0.82884,3.86647 -1.96504,7.12012 -3.80034,10.21128c-1.91465,3.22279 -6.69688,3.60446 -6.27301,8.4925c0.21288,2.44811 2.39647,2.9274 3.78207,1.47378c0.75389,-0.79357 0.46355,-1.32262 0.64557,-2.45378c0.79483,1.32073 0.53157,2.34419 0.1562,3.35883z" fill="#272525"/></g><g><path d="M239.57941,186.93712c0,0 5.60225,-8.97494 6.10926,-0.55109l-3.90111,15.58805c0,0 5.24199,0.76523 1.57455,5.92787c0,0 -1.73201,5.88126 -4.72365,3.83435c0,0 -1.18091,1.81073 -2.67674,1.73201c-1.49582,-0.07873 -6.64083,-4.25633 -2.51928,-8.40117c4.0151,-4.03778 3.77892,-7.02942 3.93638,-7.50179c0.15746,-0.47237 2.20059,-10.62822 2.20059,-10.62822z" fill="#20a6d8"/><path d="M242.37833,201.25923c2.7605,-0.07054 3.7764,3.38654 2.58478,6.04061c-0.47174,1.04865 -0.81373,0.99323 -1.53613,1.66147c-0.07747,2.76428 -2.56841,5.55313 -4.64366,3.51062c-2.36875,4.30608 -8.26387,0.78161 -7.22656,-4.52904c0.55298,-2.83293 2.5218,-3.64036 3.3645,-5.09777c1.73453,-2.99606 3.24106,-12.09444 3.76884,-15.93067c0.16249,-1.18658 1.58652,-0.44276 1.47567,0.75515c-0.49756,5.44543 -2.28373,13.33015 -5.74963,17.0253c-1.07132,1.14123 -1.75342,3.17807 -1.38372,4.86851c0.37852,1.7339 1.78113,2.83608 3.22783,2.90662c0.94095,0.04661 2.34986,-2.01354 2.14454,-4.52904c1.3327,1.25838 -0.0422,3.07667 1.32955,3.28451c2.09037,0.31743 3.2568,-3.68697 1.10722,-5.09651c1.04802,-0.8301 1.98582,0.79987 2.21508,1.16895c0.38986,-0.2576 0.75138,-0.84333 0.88994,-1.35915c0.79798,-2.9526 -1.28798,-3.28388 -2.87639,-3.41048c1.28294,-4.53597 3.92252,-16.15741 4.56998,-16.86092c0.37663,-0.40812 1.09211,0.02204 0.95355,0.52905c-1.39253,5.00518 -2.60683,10.15333 -4.21539,15.06278z" fill="#272525"/></g><g><path d="M274.75613,165.09747c-2.27617,0.55865 -6.29694,-0.1247 -7.6202,-3.35505c-1.91402,-4.67264 8.64113,-8.05162 10.47769,-4.84647c1.84978,3.22909 -0.58195,7.64224 -2.85749,8.20152zM276.764,157.72353c-1.16076,-1.65391 -6.98282,0.14801 -7.68255,2.12375c-1.05117,2.96079 3.82238,4.42323 5.46306,3.92567c1.64068,-0.4963 3.19067,-4.66445 2.21949,-6.04942z" fill="#272525"/><path d="M276.764,157.72353c0.97118,1.38497 -0.5788,5.55313 -2.21949,6.04942c-1.64131,0.49756 -6.51423,-0.96488 -5.46306,-3.92567c0.69973,-1.97575 6.52179,-3.77766 7.68255,-2.12375z" fill="#205ed8"/></g><g><path d="M262.46897,156.58734c-0.12974,-4.14863 6.30198,-4.84458 5.3667,-1.9726c-0.67454,2.07022 -3.84064,3.62336 -5.3667,1.9726z" fill="#272525"/><path d="M263.18696,156.22141c-0.09951,-1.17902 2.36183,-2.54762 3.22153,-2.25287c1.32199,0.4541 -1.2313,3.04707 -3.22153,2.25287z" fill="#ffffff"/><path d="M265.26537,154.63174c0,-0.58089 0.44609,-1.0518 0.99638,-1.0518c0.55028,0 0.99638,0.47091 0.99638,1.0518c0,0.58089 -0.44609,1.0518 -0.99638,1.0518c-0.55028,0 -0.99638,-0.47091 -0.99638,-1.0518z" fill="#272525"/></g><g><path d="M260.02652,157.92696c-0.72555,5.08706 -8.26324,4.0044 -6.58351,0.79168c1.21303,-2.31774 5.17775,-3.25806 6.58351,-0.79168z" fill="#272525"/><path d="M259.12336,158.15685c-0.13289,1.46433 -3.24987,2.39143 -4.17634,1.77483c-1.42339,-0.94851 2.05825,-3.33742 4.17634,-1.77483z" fill="#ffffff"/><path d="M256.90639,158.76966c0,-0.74681 0.57355,-1.35222 1.28105,-1.35222c0.70751,0 1.28105,0.60541 1.28105,1.35222c0,0.74681 -0.57355,1.35222 -1.28105,1.35222c-0.70751,0 -1.28105,-0.60541 -1.28105,-1.35222z" fill="#272525"/></g><g><path d="M246.96594,171.42527c-1.11163,1.69926 -3.41866,1.40387 -4.69846,-0.09825c-1.53172,-1.79814 -2.0973,-3.54715 -2.0973,-6.108c0,-4.58005 0.54542,-8.69278 4.0277,-10.73781c1.69988,-0.98504 3.14847,-0.24563 4.86725,0.69028c0.94347,0.51708 1.84663,0.78853 2.0973,1.97008c0.23177,1.15761 -0.50197,1.8227 -1.09022,2.75861c-2.39206,3.74365 -0.62856,7.78269 -3.10627,11.52508z" fill="#205ed8"/><path d="M251.03899,157.88036c0.39238,1.20485 -1.14627,2.80711 -1.38309,3.89733c-0.67202,3.09179 -0.47677,5.41331 -1.70618,8.46353c-0.60211,1.49141 -1.67847,3.08864 -3.26121,3.07982c-2.00472,-0.0126 -4.32687,-2.69752 -4.81435,-4.87355c-0.8912,-3.98235 0.18013,-12.25693 4.00692,-14.09538c0.75515,-0.33758 1.1721,-0.42387 1.79058,-0.4182c0.77216,-0.03086 2.78758,-0.01008 4.48558,2.02613c-0.61407,0.21666 -3.69075,-1.92158 -5.95369,-0.64116c-3.61517,2.04629 -4.74884,12.83196 -1.22248,15.78959c0.7476,0.6273 2.1269,0.94221 2.92866,0.29916c3.41803,-2.73846 1.61864,-13.99965 5.12926,-13.52728z" fill="#272525"/></g></g></g></svg>