<svg version="1.1" xmlns="http://www.w3.org/2000/svg" xmlns:xlink="http://www.w3.org/1999/xlink" width="63.05604" height="89.17179" viewBox="0,0,63.05604,89.17179"><defs><linearGradient x1="223.74758" y1="191.87319" x2="214.53086" y2="179.20007" gradientUnits="userSpaceOnUse" id="color-1"><stop offset="0" stop-color="#ac7f2e"/><stop offset="1" stop-color="#d29839"/></linearGradient><linearGradient x1="258.48531" y1="191.84524" x2="266.88704" y2="178.5758" gradientUnits="userSpaceOnUse" id="color-2"><stop offset="0" stop-color="#ac7f2e"/><stop offset="1" stop-color="#d29839"/></linearGradient><linearGradient x1="230.48615" y1="174.58312" x2="230.48615" y2="204.34517" gradientUnits="userSpaceOnUse" id="color-3"><stop offset="0" stop-color="#9f7a29"/><stop offset="1" stop-color="#d29839"/></linearGradient><linearGradient x1="234.78455" y1="180.51497" x2="234.78455" y2="200.10614" gradientUnits="userSpaceOnUse" id="color-4"><stop offset="0" stop-color="#f3b271"/><stop offset="1" stop-color="#ffcb99"/></linearGradient><linearGradient x1="213.19624" y1="148.44825" x2="226.91145" y2="148.44825" gradientUnits="userSpaceOnUse" id="color-5"><stop offset="0" stop-color="#cbbd7c"/><stop offset="1" stop-color="#b4812d"/></linearGradient><linearGradient x1="255.50636" y1="148.57764" x2="269.22157" y2="148.57764" gradientUnits="userSpaceOnUse" id="color-6"><stop offset="0" stop-color="#b4812d"/><stop offset="1" stop-color="#cbbd7c"/></linearGradient><linearGradient x1="230.14586" y1="164.33672" x2="230.14586" y2="175.80988" gradientUnits="userSpaceOnUse" id="color-7"><stop offset="0" stop-color="#ffcb6b"/><stop offset="1" stop-color="#ffcb99"/></linearGradient><linearGradient x1="223.15917" y1="168.37412" x2="229.62861" y2="168.37412" gradientUnits="userSpaceOnUse" id="color-8"><stop offset="0" stop-color="#fe9e6c"/><stop offset="1" stop-color="#ffcb99"/></linearGradient><linearGradient x1="253.04798" y1="167.72717" x2="259.51741" y2="167.72717" gradientUnits="userSpaceOnUse" id="color-9"><stop offset="0" stop-color="#fe9e6c"/><stop offset="1" stop-color="#ffcb99"/></linearGradient></defs><g transform="translate(-206.16553,-131.49652)"><g data-paper-data="{&quot;isPaintingLayer&quot;:true}" fill-rule="nonzero" stroke-linejoin="miter" stroke-miterlimit="10" stroke-dasharray="" stroke-dashoffset="0" style="mix-blend-mode: normal"><g stroke="none" stroke-width="1" stroke-linecap="round"><path d="M251.54707,202.48099c0.49168,1.04391 0.7665,2.19392 1.00923,3.32529c0.20081,0.9404 0.39282,1.83111 0.36229,2.75598c-0.09523,2.904 0.35194,5.99277 -0.64694,8.7208c-0.34417,0.8374 -1.84043,0.26137 -2.71716,0.20702c-0.40059,-0.02484 -1.03666,0.12887 -1.11274,-0.4658c-0.42336,-2.35022 -0.02898,-4.78531 -0.18114,-7.16814c-0.06573,-1.02631 -0.1149,-2.04434 -0.43992,-2.97594c-0.36695,-1.05633 -0.87208,-2.0754 -1.60442,-2.89831c-0.75201,-0.84568 -3.28596,-1.30838 -2.66541,-1.96671c1.11326,-1.2825 3.97638,-2.04848 6.13303,-1.91495c1.00457,0.06211 1.38342,1.4947 1.8632,2.38075z" fill="#b4852d"/><path d="M253.59141,216.63612c0.52842,0.36436 1.22712,0.76805 1.29389,1.3974c0.07763,0.75304 -0.27741,1.69189 -0.9316,2.07022c-0.9197,0.53205 -2.10024,0.339 -3.15709,0.33641c-1.10964,0.00259 -2.36678,0.22928 -3.31235,-0.33641c-0.53619,-0.32088 -0.43423,-1.23799 -0.31053,-1.85026c0.15371,-0.75874 0.41301,-1.53093 1.08065,-2.0578c0.66765,-0.52739 1.69913,-0.9492 2.60692,-0.85345c1.01544,0.10765 1.90046,0.72716 2.7301,1.29389z" fill="#fdcb96"/><path d="M252.58218,215.44575c0.37212,0.10092 0.6604,0.49271 0.82809,0.85397c0.13042,0.2831 0.30432,0.69301 0.07763,0.87984c-0.43785,0.35918 -1.04908,0.43889 -1.60442,0.4658c-1.23644,0.05848 -2.42992,-0.03002 -3.62289,-0.20702c-0.30898,-0.04762 -0.71785,-0.11231 -0.72458,-0.36229c-0.03571,-0.53929 0.20495,-1.16191 0.62728,-1.43207c0.56931,-0.36539 1.3296,-0.34262 2.01225,-0.37937c0.78565,-0.04192 1.63289,-0.08488 2.40663,0.18114z" fill="#cc9832"/></g><path d="M215.26646,184.59947c1.85595,0.77271 3.39309,2.25499 4.78738,3.70052c0.76288,0.85241 1.27319,1.95377 1.55267,3.05357c0.46942,1.84715 0.38506,3.79885 0.59519,5.69311c0.19201,1.72812 -0.02018,3.49505 0.56931,5.09792c0.34003,0.92228 1.07496,1.74934 1.94083,2.01846c1.4564,0.49271 3.07324,0.2536 4.52861,0.10351c1.74675,-0.17856 3.49971,-0.40111 5.17555,-1.00923c1.2059,-0.43733 2.09351,-1.82335 3.31235,-1.96671c1.87821,-0.22048 6.41768,0.04503 5.61547,0.85397c-1.41189,1.42431 -6.80895,3.11516 -10.41372,4.02347c-2.37402,0.59726 -4.86346,0.76391 -7.26078,0.55689c-1.49108,-0.16769 -3.14052,-0.60761 -4.14044,-1.65618c-1.076,-1.12827 -1.33684,-2.86311 -1.60442,-4.39922c-0.40059,-2.2995 -0.01087,-4.61918 -0.38817,-6.88348c-0.22772,-1.36531 -0.55223,-2.90348 -1.47503,-4.01105c-1.18054,-1.39326 -2.82119,-2.42216 -4.55448,-3.15709c-2.21876,-0.93988 -4.91315,-0.48081 -7.03875,-1.68205c-0.60036,-0.33952 -0.23497,-1.98638 0.4658,-2.01846c2.78703,-0.12732 5.7195,0.59415 8.33264,1.68205z" fill="#a97a2a" stroke="none" stroke-width="1" stroke-linecap="round"/><g stroke="none" stroke-width="1"><path d="M216.35302,180.81837c-0.92461,-0.20495 -1.54687,-1.19871 -2.0167,-1.89311c-0.33294,-0.49121 -0.51543,-1.13986 -0.43169,-1.7217c0.08338,-0.5822 0.38786,-1.1262 0.89309,-1.49361c0.50519,-0.36741 1.11652,-0.4895 1.69613,-0.38946c0.5793,0.09963 1.14261,0.46942 1.50495,0.94123c0.51471,0.66811 1.2663,1.56079 1.17956,2.50186c-0.12551,0.5367 -1.19612,0.34133 -1.64096,0.71345c-0.45447,0.38175 -0.63701,1.38995 -1.18437,1.34135z" fill="#fccd97" stroke-linecap="round"/><path d="M221.70272,185.55053c-2.51703,-1.19069 -5.12597,-2.89049 -6.36412,-5.45089c-0.53665,-1.11104 1.27629,-2.87626 2.4734,-2.75872c1.66409,0.11826 2.37848,2.32367 3.6529,3.26293c1.17987,0.86913 2.49063,1.80373 3.82416,2.17844c1.47275,0.41037 3.03769,0.39924 4.57565,0.35199c1.16088,-0.08716 2.63027,-1.33307 3.45318,-0.75149c0.67608,0.48169 0.18472,2.03321 -0.42807,2.71116c-0.86494,0.95603 -2.17213,1.61105 -3.41514,1.68376c-2.63632,0.08576 -5.43324,-0.11355 -7.77197,-1.22717z" fill="url(#color-1)" stroke-linecap="butt"/><path d="M216.16323,180.46617c-0.49753,0.07256 -0.91048,-0.02707 -1.12051,-0.31592c-0.21008,-0.2888 -0.17762,-0.71236 0.04472,-1.16331c0.22208,-0.45141 0.63411,-0.93025 1.18241,-1.32903c0.54835,-0.39878 1.13086,-0.64322 1.62869,-0.71542c0.49758,-0.07256 0.91048,0.02707 1.12056,0.31586c0.21002,0.28885 0.17762,0.71236 -0.04477,1.16336c-0.22208,0.45141 -0.63411,0.93025 -1.18241,1.32903c-0.54835,0.39878 -1.13081,0.64322 -1.62869,0.71542z" fill="#cd9934" stroke-linecap="round"/></g><g stroke="none" stroke-width="1"><path d="M262.32101,178.61938c-0.1504,-0.93507 0.544,-1.87986 1.01627,-2.57256c0.33393,-0.49059 0.8696,-0.89936 1.44129,-1.03604c0.572,-0.1371 1.18991,-0.0546 1.71771,0.27958c0.52775,0.33419 0.86659,0.85743 0.98729,1.43311c0.12095,0.57521 -0.01511,1.23515 -0.32011,1.74592c-0.43133,0.72478 -0.98408,1.75249 -1.89084,2.01883c-0.54514,0.08115 -0.75822,-0.9861 -1.26817,-1.26237c-0.52237,-0.28176 -1.52689,-0.07976 -1.68345,-0.60647z" fill="#fccd97" stroke-linecap="round"/><path d="M253.43883,186.80016c-1.85471,-0.0796 -3.83415,-0.4643 -5.3127,-1.52601c-0.60347,-0.50586 -0.47537,-2.0297 0.18922,-2.3305c1.07253,-0.48174 2.33029,0.51554 3.49432,0.52785c1.53786,-0.0517 3.10026,-0.14124 4.54356,-0.64544c1.30672,-0.45969 2.5546,-1.47669 3.67619,-2.41988c1.21139,-1.01927 1.78246,-3.26603 3.43553,-3.49106c1.18701,-0.19424 3.08804,1.43083 2.64564,2.59399c-1.03206,2.70774 -3.59147,4.69221 -6.09509,6.09514c-2.00242,1.12304 -4.35678,1.28695 -6.57668,1.19591z" fill="url(#color-2)" stroke-linecap="butt"/><path d="M262.51851,178.23778c-0.25096,-0.43578 -0.31053,-0.85635 -0.1195,-1.15808c0.19103,-0.30173 0.59674,-0.42771 1.09794,-0.38729c0.50146,0.04006 1.09846,0.24651 1.67129,0.60921c0.57283,0.3627 1.01477,0.81406 1.26542,1.25026c0.25091,0.43573 0.31048,0.85629 0.11945,1.15803c-0.19103,0.30173 -0.59669,0.42771 -1.09789,0.38729c-0.50146,-0.04001 -1.09846,-0.24651 -1.67129,-0.60921c-0.57283,-0.3627 -1.01482,-0.81401 -1.26542,-1.25021z" fill="#cd9934" stroke-linecap="round"/></g><g stroke="none" stroke-width="1" stroke-linecap="round"><path d="M233.12211,200.152c2.15665,-0.13353 5.01977,0.63245 6.13303,1.91495c0.62055,0.65833 -1.9134,1.12102 -2.66541,1.96671c-0.73234,0.82291 -1.23747,1.84198 -1.60442,2.89831c-0.32502,0.9316 -0.37419,1.94963 -0.43992,2.97594c-0.15216,2.38282 0.24222,4.81792 -0.18114,7.16814c-0.07608,0.59467 -0.71216,0.44096 -1.11274,0.4658c-0.87674,0.05434 -2.37299,0.63038 -2.71716,-0.20702c-0.99888,-2.72803 -0.55171,-5.8168 -0.64694,-8.7208c-0.03054,-0.92487 0.16148,-1.81558 0.36229,-2.75598c0.24273,-1.13138 0.51756,-2.28138 1.00923,-3.32529c0.47977,-0.88605 0.85862,-2.31865 1.8632,-2.38075z" fill="#b4852d"/><path d="M232.2552,215.52338c0.90779,-0.09575 1.93928,0.32606 2.60692,0.85345c0.66765,0.52687 0.92694,1.29906 1.08065,2.0578c0.1237,0.61227 0.22565,1.52938 -0.31053,1.85026c-0.94557,0.56569 -2.20271,0.339 -3.31235,0.33641c-1.05685,0.00259 -2.23739,0.19564 -3.15709,-0.33641c-0.65419,-0.37833 -1.00923,-1.31718 -0.9316,-2.07022c0.06676,-0.62935 0.76546,-1.03304 1.29389,-1.3974c0.82964,-0.56672 1.71466,-1.18624 2.7301,-1.29389z" fill="#fdcb96"/><path d="M232.96684,215.34224c0.68266,0.03675 1.44294,0.01397 2.01225,0.37937c0.42232,0.27016 0.66299,0.89278 0.62728,1.43207c-0.00673,0.24998 -0.4156,0.31467 -0.72458,0.36229c-1.19296,0.177 -2.38645,0.26551 -3.62289,0.20702c-0.55534,-0.02691 -1.16657,-0.10662 -1.60442,-0.4658c-0.22669,-0.18684 -0.05279,-0.59674 0.07763,-0.87984c0.16769,-0.36125 0.45597,-0.75304 0.82809,-0.85397c0.77374,-0.26602 1.62098,-0.22307 2.40663,-0.18114z" fill="#cc9832"/></g><g stroke="none" stroke-linecap="round"><path d="M250.2952,175.00917c1.53636,0.20992 0.96514,0.25945 1.04091,2.16219c0.30225,7.61008 0.89516,15.34199 0,22.99771c-0.22151,1.83116 -1.63718,2.85954 -3.12277,3.53811c-1.88111,0.85935 -4.12036,0.58965 -6.24549,0.58965c-2.39995,0 -5.04802,0.29878 -7.2864,-0.58965c-1.62554,-0.65419 -3.26184,-1.82174 -3.53914,-3.73468c-1.10834,-7.65257 -0.55208,-15.42459 -0.20816,-23.19428c0.08576,-1.9428 -0.03664,-1.64639 1.45728,-1.76905c5.97735,-0.49219 12.01965,-0.63923 17.90378,0z" fill="url(#color-3)" stroke-width="1.56471"/><path d="M247.09609,180.79544c0.95489,0.13819 0.59985,0.17079 0.64694,1.42328c0.18787,5.00942 0.55637,10.09905 0,15.13848c-0.13767,1.20539 -1.01751,1.88235 -1.94083,2.329c-1.16916,0.56569 -2.56086,0.38817 -3.88166,0.38817c-1.49159,0 -3.13742,0.19667 -4.52861,-0.38817c-1.01027,-0.43061 -2.02726,-1.19917 -2.19961,-2.45839c-0.68887,-5.03736 -0.34314,-10.15339 -0.12939,-15.26787c0.05331,-1.27888 -0.02277,-1.08376 0.90572,-1.1645c3.71501,-0.32399 7.47039,-0.42077 11.12743,0z" fill="url(#color-4)" stroke-width="1"/><path d="M241.40299,196.58087c0.28569,0 0.54447,0.08695 0.73182,0.22772c0.18735,0.14026 0.30329,0.33434 0.30329,0.54861c0,0.21427 -0.11593,0.40835 -0.30329,0.54861c-0.18735,0.14077 -0.44613,0.22772 -0.73182,0.22772c-0.28569,0 -0.54447,-0.08695 -0.73182,-0.22772c-0.18735,-0.14026 -0.30329,-0.33434 -0.30329,-0.54861c0,-0.21427 0.11593,-0.40835 0.30329,-0.54861c0.18735,-0.14077 0.44613,-0.22772 0.73182,-0.22772z" fill="#fccded" stroke-width="1"/></g><g fill="#cd9934" stroke="none" stroke-width="1" stroke-linecap="butt"><path d="M231.11658,177.56072c1.01751,0 1.93928,0.46373 2.60692,1.21367c0.66765,0.74942 1.08065,1.78453 1.08065,2.92677c0,1.14224 -0.41301,2.17735 -1.08065,2.92677c-0.66765,0.74994 -1.58941,1.21367 -2.60692,1.21367c-1.01751,0 -1.93928,-0.46373 -2.60692,-1.21367c-0.66765,-0.74942 -1.08065,-1.78453 -1.08065,-2.92677c0,-1.14224 0.41301,-2.17735 1.08065,-2.92677c0.66765,-0.74994 1.58941,-1.21367 2.60692,-1.21367z"/><path d="M237.63778,177.43133c1.01751,0 1.93928,0.46373 2.60692,1.21367c0.66765,0.74942 1.08065,1.78453 1.08065,2.92677c0,1.14224 -0.41301,2.17735 -1.08065,2.92677c-0.66765,0.74994 -1.58941,1.21367 -2.60692,1.21367c-1.01751,0 -1.93928,-0.46373 -2.60692,-1.21367c-0.66765,-0.74942 -1.08065,-1.78453 -1.08065,-2.92677c0,-1.14224 0.41301,-2.17735 1.08065,-2.92677c0.66765,-0.74994 1.58941,-1.21367 2.60692,-1.21367z"/><path d="M244.83179,177.43133c1.01751,0 1.93928,0.46373 2.60692,1.21367c0.66765,0.74942 1.08065,1.78453 1.08065,2.92677c0,1.14224 -0.41301,2.17735 -1.08065,2.92677c-0.66765,0.74994 -1.58941,1.21367 -2.60692,1.21367c-1.01751,0 -1.93928,-0.46373 -2.60692,-1.21367c-0.66765,-0.74942 -1.08065,-1.78453 -1.08065,-2.92677c0,-1.14224 0.41301,-2.17735 1.08065,-2.92677c0.66765,-0.74994 1.58941,-1.21367 2.60692,-1.21367z"/><path d="M251.94817,177.30194c1.01751,0 1.93928,0.46373 2.60692,1.21367c0.66765,0.74942 1.08065,1.78453 1.08065,2.92677c0,1.14224 -0.41301,2.17735 -1.08065,2.92677c-0.66765,0.74994 -1.58941,1.21367 -2.60692,1.21367c-1.01751,0 -1.93928,-0.46373 -2.60692,-1.21367c-0.66765,-0.74942 -1.08065,-1.78453 -1.08065,-2.92677c0,-1.14224 0.41301,-2.17735 1.08065,-2.92677c0.66765,-0.74994 1.58941,-1.21367 2.60692,-1.21367z"/><path d="M241.01482,176.39622c3.17727,0 6.05591,0.35504 8.14062,0.92901c2.08471,0.57397 3.37498,1.36635 3.37498,2.24101c0,0.87467 -1.29026,1.66704 -3.37498,2.24101c-2.08471,0.57397 -4.96335,0.92901 -8.14062,0.92901c-3.17727,0 -6.05591,-0.35504 -8.14062,-0.92901c-2.08471,-0.57397 -3.37498,-1.36635 -3.37498,-2.24101c0,-0.87467 1.29026,-1.66704 3.37498,-2.24101c2.08471,-0.57397 4.96335,-0.92901 8.14062,-0.92901z"/></g><g stroke="none" stroke-linecap="butt"><path d="M220.05384,148.44825c1.89218,0 3.60632,0.72509 4.84794,1.89632c1.2411,1.17071 2.00967,2.78807 2.00967,4.57312c0,1.78505 -0.76857,3.40241 -2.00967,4.57312c-1.24161,1.17123 -2.95576,1.89632 -4.84794,1.89632c-1.89218,0 -3.60632,-0.72509 -4.84794,-1.89632c-1.2411,-1.17071 -2.00967,-2.78807 -2.00967,-4.57312c0,-1.78505 0.76857,-3.40241 2.00967,-4.57312c1.24161,-1.17123 2.95576,-1.89632 4.84794,-1.89632z" fill="url(#color-5)" stroke-width="1"/><path d="M219.60098,150.90017c1.16036,0 2.21151,0.45648 2.97284,1.19447c0.76132,0.73798 1.2323,1.75689 1.2323,2.88128c0,1.12434 -0.47098,2.1433 -1.2323,2.88128c-0.76132,0.73798 -1.81248,1.19447 -2.97284,1.19447c-1.16036,0 -2.21151,-0.45648 -2.97284,-1.19447c-0.76132,-0.73798 -1.2323,-1.75694 -1.2323,-2.88128c0,-1.12439 0.47098,-2.1433 1.2323,-2.88128c0.76132,-0.73798 1.81248,-1.19447 2.97284,-1.19447z" fill="#fecc99" stroke-width="1.0253"/></g><g stroke="none" stroke-linecap="butt"><path d="M262.36397,148.57764c1.89218,0 3.60632,0.72509 4.84794,1.89632c1.2411,1.17071 2.00967,2.78807 2.00967,4.57312c0,1.78505 -0.76857,3.40241 -2.00967,4.57312c-1.24161,1.17123 -2.95576,1.89632 -4.84794,1.89632c-1.89218,0 -3.60632,-0.72509 -4.84794,-1.89632c-1.2411,-1.17071 -2.00967,-2.78807 -2.00967,-4.57312c0,-1.78505 0.76857,-3.40241 2.00967,-4.57312c1.24161,-1.17123 2.95576,-1.89632 4.84794,-1.89632z" fill="url(#color-6)" stroke-width="1"/><path d="M263.0756,151.02955c1.16036,0 2.21151,0.45648 2.97284,1.19447c0.76132,0.73798 1.2323,1.75689 1.2323,2.88128c0,1.12434 -0.47098,2.1433 -1.2323,2.88128c-0.76132,0.73798 -1.81248,1.19447 -2.97284,1.19447c-1.16036,0 -2.21151,-0.45648 -2.97284,-1.19447c-0.76132,-0.73798 -1.2323,-1.75694 -1.2323,-2.88128c0,-1.12439 0.47098,-2.1433 1.2323,-2.88128c0.76132,-0.73798 1.81248,-1.19447 2.97284,-1.19447z" fill="#fecc99" stroke-width="1.0253"/></g><g stroke="none"><g><g><path d="M241.44015,135.4365c5.79196,0 11.04043,2.31979 14.84089,6.06719c3.80046,3.74798 6.1529,8.92353 6.1529,14.63501c0,5.71148 -2.35244,10.88703 -6.1529,14.63496c-3.80046,3.74741 -9.04893,6.06725 -14.84089,6.06725c-5.79191,0 -11.04038,-2.31984 -14.84084,-6.06725c-3.80046,-3.74793 -6.1529,-8.92348 -6.1529,-14.63496c0,-5.71148 2.35244,-10.88703 6.1529,-14.63501c3.80046,-3.74741 9.04893,-6.06719 14.84084,-6.06719z" fill="#cd9933" stroke-width="1.12676" stroke-linecap="butt"/><path d="M244.50832,143.2727c2.89624,-0.17597 5.97,0.50565 8.28088,2.07022c2.61883,1.813 4.67404,4.57984 5.69311,7.50455c0.91245,2.6002 0.13922,5.47832 0,8.28088c-0.03468,0.70077 -0.48029,-0.29397 -0.25878,0c0.88502,1.17537 2.22652,2.13129 2.97594,3.4935c0.49685,1.08738 0.85086,2.41439 0.64694,3.62289c-0.339,2.00604 -0.65212,4.37438 -2.19961,5.69311c-2.99199,2.53809 -6.89746,4.36661 -10.86866,5.17555c-4.76616,1.00043 -9.79887,0.85655 -14.75032,0.12939c-3.67516,-0.54033 -7.37516,-1.77159 -10.48049,-3.88166c-1.71984,-1.21315 -2.68456,-3.43398 -3.23472,-5.56372c-0.43319,-1.68154 0.01604,-3.46451 0.64694,-5.17555c0.47874,-1.29337 1.69085,-2.15976 2.58778,-3.23472c0.2241,-0.26861 0.44769,-0.177 0.51756,-0.77633c0.27948,-2.3968 -0.41197,-4.92661 0.25878,-7.24577c0.74476,-2.56656 1.94808,-5.44364 4.14044,-7.24577c2.14734,-1.7069 5.10982,-2.5355 8.0221,-2.58778c1.69913,-0.02847 3.01114,1.72812 4.39922,2.58778c0.34728,0.21479 -0.53826,0.24066 -0.25878,0c1.1143,-0.9611 2.27931,-2.74873 3.88166,-2.84655z" fill="#ffcb99" stroke-width="1" stroke-linecap="round"/></g><path d="M241.5344,164.39769c2.47381,0.00352 5.1034,-0.38149 7.24189,0.74047c1.8263,0.9626 3.63841,2.81498 3.73199,4.7983c0.04798,2.02416 -1.62787,3.99739 -3.38367,4.95171c-2.25582,1.22624 -5.11401,0.8874 -7.72347,0.8536c-2.4809,0.0338 -5.19641,0.29087 -7.45693,-0.8536c-1.79074,-0.90577 -3.67573,-2.66748 -3.79834,-4.68517c-0.00357,-1.97437 1.73448,-3.9873 3.49505,-4.91677c2.34111,-1.23628 5.24972,-0.89154 7.89349,-0.88854z" fill="url(#color-7)" stroke-width="1.14458" stroke-linecap="round"/><path d="M226.39389,168.37412c0.89226,0 1.7012,0.33331 2.28656,0.87208c0.58587,0.53877 0.94816,1.28302 0.94816,2.10386c0,0.82084 -0.36229,1.56509 -0.94816,2.10386c-0.58535,0.53877 -1.39429,0.87208 -2.28656,0.87208c-0.89226,0 -1.7012,-0.33331 -2.28656,-0.87208c-0.58587,-0.53877 -0.94816,-1.28302 -0.94816,-2.10386c0,-0.82084 0.36229,-1.56509 0.94816,-2.10386c0.58535,-0.53877 1.39429,-0.87208 2.28656,-0.87208z" fill="url(#color-8)" stroke-width="1" stroke-linecap="round"/><path d="M256.2827,167.72717c0.89226,0 1.7012,0.33331 2.28656,0.87208c0.58587,0.53877 0.94816,1.28302 0.94816,2.10386c0,0.82084 -0.36229,1.56509 -0.94816,2.10386c-0.58535,0.53877 -1.39429,0.87208 -2.28656,0.87208c-0.89226,0 -1.7012,-0.33331 -2.28656,-0.87208c-0.58587,-0.53877 -0.94816,-1.28302 -0.94816,-2.10386c0,-0.82084 0.36229,-1.56509 0.94816,-2.10386c0.58535,-0.53877 1.39429,-0.87208 2.28656,-0.87208z" fill="url(#color-9)" stroke-width="1" stroke-linecap="butt"/></g><path d="M238.42705,131.49832c0.35453,-0.00569 0.30898,1.62305 0.77633,2.329c0.46114,0.65057 1.33426,0.90883 1.94083,1.42328c0.48857,0.41353 1.23954,0.65937 1.42328,1.29389c0.16562,0.38454 -0.25257,0.80428 -0.58794,1.12879c-0.38299,0.36746 -0.86432,0.68266 -1.41758,0.68266c-0.55327,0 -1.15932,-0.22669 -1.41758,-0.68266c-0.69145,-1.30372 -1.23126,-2.58312 -1.36428,-3.97534c-0.07505,-0.82861 0.35711,-2.25913 0.64694,-2.19961z" fill="#cd9933" stroke-width="1" stroke-linecap="round"/></g><path d="M230.61197,153.88258c1.07082,0 2.04124,0.72509 2.74408,1.89632c0.70284,1.17071 1.13759,2.78807 1.13759,4.57312c0,1.78505 -0.43475,3.40241 -1.13759,4.57312c-0.70284,1.17123 -1.67326,1.89632 -2.74408,1.89632c-1.07082,0 -2.04124,-0.72509 -2.74408,-1.89632c-0.70284,-1.17071 -1.13759,-2.78807 -1.13759,-4.57312c0,-1.78505 0.43475,-3.40241 1.13759,-4.57312c0.70284,-1.17123 1.67326,-1.89632 2.74408,-1.89632z" fill="#ffffff" stroke="none" stroke-width="1" stroke-linecap="butt"/><path d="M230.75429,159.25345c0.76748,0 1.46308,0.40576 1.96671,1.06197c0.50358,0.65569 0.81515,1.56126 0.81515,2.56091c0,0.99961 -0.31157,1.90522 -0.81515,2.56086c-0.50363,0.65626 -1.19923,1.06202 -1.96671,1.06202c-0.76748,0 -1.46308,-0.40576 -1.96671,-1.06202c-0.50358,-0.65564 -0.81515,-1.56126 -0.81515,-2.56086c0,-0.99966 0.31157,-1.90522 0.81515,-2.56091c0.50363,-0.65621 1.19923,-1.06197 1.96671,-1.06197z" fill="#9a6732" stroke="none" stroke-width="1.14582" stroke-linecap="butt"/><path d="M251.70233,154.14135c1.07082,0 2.04124,0.72509 2.74408,1.89632c0.70284,1.17071 1.13759,2.78807 1.13759,4.57312c0,1.78505 -0.43475,3.40241 -1.13759,4.57312c-0.70284,1.17123 -1.67326,1.89632 -2.74408,1.89632c-1.07082,0 -2.04124,-0.72509 -2.74408,-1.89632c-0.70284,-1.17071 -1.13759,-2.78807 -1.13759,-4.57312c0,-1.78505 0.43475,-3.40241 1.13759,-4.57312c0.70284,-1.17123 1.67326,-1.89632 2.74408,-1.89632z" fill="#ffffff" stroke="none" stroke-width="1" stroke-linecap="butt"/><path d="M251.61176,159.51223c0.76748,0 1.46308,0.40576 1.96671,1.06197c0.50358,0.65569 0.81515,1.56126 0.81515,2.56091c0,0.99961 -0.31157,1.90522 -0.81515,2.56086c-0.50363,0.65626 -1.19923,1.06202 -1.96671,1.06202c-0.76748,0 -1.46308,-0.40576 -1.96671,-1.06202c-0.50358,-0.65564 -0.81515,-1.56126 -0.81515,-2.56086c0,-0.99966 0.31157,-1.90522 0.81515,-2.56091c0.50363,-0.65621 1.19923,-1.06197 1.96671,-1.06197z" fill="#9a6732" stroke="none" stroke-width="1.14582" stroke-linecap="butt"/><path d="M241.35123,163.84551c0.9994,0 1.90512,0.23186 2.56086,0.60657c0.65626,0.37471 1.06202,0.89226 1.06202,1.46365c0,0.57138 -0.40576,1.08894 -1.06202,1.46365c-0.65574,0.37471 -1.56146,0.60657 -2.56086,0.60657c-0.9994,0 -1.90512,-0.23186 -2.56086,-0.60657c-0.65626,-0.37471 -1.06202,-0.89226 -1.06202,-1.46365c0,-0.57138 0.40576,-1.08894 1.06202,-1.46365c0.65574,-0.37471 1.56146,-0.60657 2.56086,-0.60657z" fill="#343432" stroke="none" stroke-width="1" stroke-linecap="butt"/><path d="M241.22184,165.91092v3.72355" fill="none" stroke="#343432" stroke-width="2.57151" stroke-linecap="round"/><path d="M241.22609,171.0092c1.26516,-0.00404 2.54461,0.12665 3.78855,0.3716c0.3111,0.06112 0.26649,0.18233 0.19077,0.38356c-0.36969,0.81013 -0.66428,1.74623 -1.36681,2.28609c-0.69295,0.53184 -1.64577,0.75128 -2.51847,0.7357c-0.87229,-0.0176 -1.82283,-0.30976 -2.50673,-0.86944c-0.65636,-0.5366 -0.94733,-1.41153 -1.29648,-2.16804c-0.07049,-0.21204 -0.09062,-0.31302 0.19796,-0.36731c1.15529,-0.21825 2.34168,-0.37104 3.5112,-0.37217z" fill="#343432" stroke="none" stroke-width="1" stroke-linecap="round"/></g></g></svg>