<svg version="1.1" xmlns="http://www.w3.org/2000/svg" xmlns:xlink="http://www.w3.org/1999/xlink" width="96.22086" height="52.24051" viewBox="0,0,96.22086,52.24051"><g transform="translate(-192.55642,-153.74022)"><g data-paper-data="{&quot;isPaintingLayer&quot;:true}" fill-rule="nonzero" stroke-miterlimit="10" stroke-dasharray="" stroke-dashoffset="0" style="mix-blend-mode: normal"><path d="M233.27653,198.86455c-4.7024,-1.77899 -13.95304,-5.70439 -11.30494,-10.08099c2.64752,-4.37595 14.05457,6.24928 16.91693,7.27435c0,0 3.71573,-2.69497 3.98242,0.00381c0.26727,2.69886 -3.27301,2.26909 -3.27301,2.26909c0,0 4.06439,0.26698 2.65406,2.81736c-1.41026,2.55045 -3.18932,0.51548 -3.64066,-0.30322c0,0 1.36712,2.54728 -0.52828,3.23519c-1.89597,0.68733 -2.97684,-1.85355 -1.5289,-3.36059c0,0 -0.9866,-0.9884 -3.27762,-1.85499v0v0v0v0z" fill="#e29339" stroke="#000000" stroke-width="1.52831" stroke-linecap="butt" stroke-linejoin="round"/><path d="M233.53042,165.73729v0v0v0v0c1.76942,-1.00716 3.25497,-1.89367 3.25554,-1.8931c-1.46642,-1.48979 -0.4151,-4.04275 1.48871,-3.37771c1.90381,0.66504 0.56675,3.22807 0.56675,3.22807c0.44128,-0.82352 2.19632,-2.87977 3.63599,-0.34572c1.44132,2.5342 -2.62012,2.84792 -2.62012,2.84792c0,0 3.5341,-0.4722 3.29919,2.22975c-0.23434,2.70195 -3.98177,0.05112 -3.98177,0.05112c-2.84964,1.05944 -13.7333,10.84569 -16.43215,6.50181c-2.69879,-4.34432 6.52812,-6.81955 10.78788,-9.24215z" fill="#e29339" stroke="#000000" stroke-width="1.52831" stroke-linecap="butt" stroke-linejoin="round"/><path d="M264.69232,159.88356v0v0v0v0c1.76885,-1.00724 3.25497,-1.89367 3.25439,-1.8931c-1.46584,-1.48986 -0.41503,-4.04275 1.48878,-3.37771c1.90381,0.66504 0.56675,3.22807 0.56675,3.22807c0.44121,-0.82352 2.19689,-2.87977 3.63656,-0.34572c1.44132,2.5342 -2.62019,2.84792 -2.62019,2.84792c0,0 3.5341,-0.4722 3.29919,2.22975c-0.23434,2.70188 -3.9812,0.0512 -3.9812,0.0512c-2.85022,1.05937 -13.7333,10.84612 -16.43215,6.50181c-2.69929,-4.34439 6.52812,-6.81955 10.78788,-9.24222z" fill="#e29339" stroke="#000000" stroke-width="1.52831" stroke-linecap="butt" stroke-linejoin="round"/><path d="M267.89055,195.90943v0v0v0v0c1.86872,0.80777 3.47053,1.46196 3.47061,1.46146c0.30825,-2.06739 2.98043,-2.76343 3.59421,-0.84222c0.61327,1.92071 -2.23795,2.39441 -2.23795,2.39441c0.92311,-0.14338 3.62153,0.02265 2.46337,2.69692c-1.15816,2.67592 -3.85163,-0.38045 -3.85163,-0.38045c0,0 2.50342,2.54009 0.20363,3.97703c-2.30036,1.43801 -2.4359,-3.15006 -2.4359,-3.15006c-2.56094,-1.63942 -16.92556,-4.44786 -15.07812,-9.21691c1.84686,-4.76913 9.37417,1.1143 13.87178,3.05982z" fill="#e29339" stroke="#000000" stroke-width="1.52831" stroke-linecap="butt" stroke-linejoin="round"/><path d="M265.92994,168.56673v0v0v0v0c2.0661,1.42004 4.29499,6.18277 4.11278,11.01733c0.03293,5.13685 -3.63325,11.16912 -6.50447,12.65495c-6.0588,3.1356 -12.67666,1.00242 -17.27106,1.33347c-3.53144,0.25454 -5.91255,4.1276 -12.20253,3.81294c-10.35782,-0.51735 -17.93632,-6.26963 -18.00053,-15.90107c-0.06421,-9.63195 8.34637,-13.80506 16.50154,-14.42753c5.52987,-0.4228 10.41383,2.97245 13.49148,2.70576c5.87401,-0.50937 15.33525,-4.31404 19.87278,-1.19584z" fill="#e29339" stroke="#000000" stroke-width="1.52831" stroke-linecap="butt" stroke-linejoin="miter"/><path d="M280.82816,160.04685l-2.32438,5.78096" fill="none" stroke="#000000" stroke-width="1.52831" stroke-linecap="round" stroke-linejoin="miter"/><path d="M280.86591,167.02423l3.69135,-4.61374" fill="none" stroke="#000000" stroke-width="1.52831" stroke-linecap="round" stroke-linejoin="miter"/><path d="M283.30354,168.71399l4.44088,-1.29083" fill="none" stroke="#000000" stroke-width="1.52831" stroke-linecap="round" stroke-linejoin="miter"/><path d="M279.58011,193.05806l2.79578,4.41176" fill="none" stroke="#000000" stroke-width="1.52831" stroke-linecap="round" stroke-linejoin="miter"/><path d="M286.235,195.46427l-4.37912,-3.96617" fill="none" stroke="#000000" stroke-width="1.52831" stroke-linecap="round" stroke-linejoin="miter"/><path d="M283.42283,189.97027l4.5903,0.5656" fill="none" stroke="#000000" stroke-width="1.52831" stroke-linecap="round" stroke-linejoin="miter"/><path d="M260.96804,168.14436c15.49948,-12.58204 18.76538,-1.44542 18.76538,-1.44542c0,0 0.05271,0.03171 0.08025,0.04537c3.24209,1.64416 5.53059,2.21156 5.27828,13.26786c-0.29423,12.89834 -5.51183,13.04589 -5.51183,13.04589c-5.21587,10.75207 -17.86585,-2.58029 -17.86585,-2.58029" fill="#e29339" stroke="#000000" stroke-width="1.52831" stroke-linecap="butt" stroke-linejoin="round"/><g stroke-width="0.76416" stroke-linecap="butt" stroke-linejoin="miter"><path d="M279.07419,186.93289c0.01941,-0.51613 0.24678,-0.97553 0.59781,-1.30154c0.35147,-0.32544 0.82668,-0.51757 1.34281,-0.49815c0.51613,0.01949 0.97545,0.24685 1.30147,0.59781c0.32551,0.35154 0.51764,0.82668 0.49815,1.34281c-0.01941,0.51613 -0.24678,0.97553 -0.59781,1.30154c-0.35154,0.32544 -0.82668,0.51757 -1.34281,0.49815c-0.51613,-0.01949 -0.97545,-0.24685 -1.30147,-0.59781c-0.32551,-0.35154 -0.51764,-0.82668 -0.49815,-1.34281v0v0v0z" fill="#ffffff" stroke="#000000"/><path d="M280.1529,186.5551c0.01215,-0.32177 0.1538,-0.60838 0.37318,-0.8113c0.2188,-0.20342 0.51527,-0.32314 0.83704,-0.31099c0.32177,0.01208 0.60838,0.1538 0.81122,0.37311c0.20349,0.2188 0.32314,0.51527 0.31106,0.83704c-0.01215,0.32177 -0.1538,0.60838 -0.37318,0.8113c-0.2188,0.20342 -0.51527,0.32314 -0.83704,0.31099c-0.32177,-0.01215 -0.60838,-0.1538 -0.81122,-0.37311c-0.20349,-0.2188 -0.32314,-0.51534 -0.31106,-0.83704v0v0v0z" fill="#000000" stroke="none"/></g><g stroke-width="0.76416" stroke-linecap="butt" stroke-linejoin="miter"><path d="M279.71731,172.17323c0.01949,-0.51613 0.24685,-0.97545 0.59781,-1.30154c0.35154,-0.32544 0.82668,-0.51757 1.34281,-0.49808c0.51613,0.01941 0.97553,0.24678 1.30154,0.59774c0.32544,0.35154 0.51757,0.82676 0.49815,1.34289c-0.01949,0.51606 -0.24685,0.97545 -0.59781,1.30147c-0.35154,0.32544 -0.82668,0.51764 -1.34281,0.49815c-0.51613,-0.01949 -0.97553,-0.24678 -1.30154,-0.59781c-0.32544,-0.35154 -0.51757,-0.82668 -0.49815,-1.34281v0v0v0z" fill="#ffffff" stroke="#000000"/><path d="M280.79609,171.79545c0.01215,-0.32177 0.1538,-0.60838 0.37311,-0.81122c0.2188,-0.20349 0.51534,-0.32314 0.83704,-0.31106c0.32177,0.01215 0.60845,0.1538 0.8113,0.37318c0.20342,0.2188 0.32314,0.51527 0.31099,0.83704c-0.01208,0.3217 -0.1538,0.60838 -0.37311,0.81122c-0.2188,0.20349 -0.51527,0.32314 -0.83704,0.31106c-0.32177,-0.01215 -0.60838,-0.1538 -0.8113,-0.37318c-0.20342,-0.2188 -0.32314,-0.51527 -0.31099,-0.83704v0v0v0z" fill="#000000" stroke="none"/></g><path d="M284.38102,179.95134c0.02754,-0.73076 0.18451,-1.38747 0.41575,-1.85873c0.23132,-0.47191 0.53727,-0.7573 0.8622,-0.745c0.32486,0.01222 0.60853,0.31983 0.8036,0.80777c0.19515,0.48737 0.30221,1.15399 0.27467,1.88476c-0.02754,0.73084 -0.18443,1.38747 -0.41575,1.8588c-0.23132,0.47184 -0.53727,0.75722 -0.86213,0.745c-0.32494,-0.01222 -0.60853,-0.31983 -0.80367,-0.80777c-0.19515,-0.48737 -0.30221,-1.15399 -0.27467,-1.88483v0v0v0z" fill="#ec008c" stroke="#000000" stroke-width="1.30982" stroke-linecap="butt" stroke-linejoin="miter"/><g><path d="M268.59536,193.92796c-2.05769,-0.35967 -8.84574,1.45247 -9.38733,0.72278c-0.54216,-0.73033 0.56689,-1.27026 1.75856,-3.09814c1.19167,-1.8273 3.79655,-7.1859 3.79655,-7.1859" fill="#e29339" stroke="#000000" stroke-width="1.52831" stroke-linecap="round" stroke-linejoin="round"/><path d="M261.61223,193.18526v0v0v0v0c0,0 3.04831,-3.63124 4.28873,-6.19851c0.4041,1.57737 1.59398,4.21863 2.13441,5.37276c0,0 -0.39619,-0.05012 -0.39519,-0.04897c-1.33325,-0.26633 -6.02796,0.87472 -6.02796,0.87472z" fill="#58595b" stroke="none" stroke-width="0.76416" stroke-linecap="butt" stroke-linejoin="miter"/></g><g><path d="M264.05014,175.28762c0,0 -2.19409,-5.53944 -3.24483,-7.45073c-1.05074,-1.91237 -2.116,-2.53484 -1.52042,-3.22225c0.59494,-0.68633 7.22682,1.63108 9.30629,1.42795" fill="#e29339" stroke="#000000" stroke-width="1.52831" stroke-linecap="round" stroke-linejoin="round"/><path d="M261.57254,166.25644c0,0 4.59555,1.49115 5.94505,1.32592c-0.00115,0.00165 0.3977,-0.01905 0.3977,-0.01905c-0.62578,1.1102 -2.01102,3.65382 -2.53269,5.19689c-1.04427,-2.65341 -3.81007,-6.50375 -3.81007,-6.50375v0v0v0v0z" fill="#58595b" stroke="none" stroke-width="0.76416" stroke-linecap="butt" stroke-linejoin="miter"/></g><path d="M219.12539,183.09751c-0.35269,1.53897 -1.88418,2.5045 -3.4261,2.15771c-5.21084,-1.1696 -9.25229,-0.62916 -12.01212,1.60757c-4.58735,3.71731 -4.62726,11.2114 -4.62625,11.2851c0.01934,1.58765 -1.24963,2.88531 -2.83562,2.90522c-1.58492,0.01999 -2.88523,-1.2502 -2.90472,-2.83512c-0.00511,-0.41913 -0.04537,-10.30648 6.75225,-15.81601c4.1926,-3.39734 9.87383,-4.32195 16.88393,-2.74746c1.5463,0.34701 2.51888,1.8831 2.17187,3.42941c-0.00122,0.00431 -0.00194,0.0087 -0.00324,0.01359v0v0v0v0v0z" fill="#e29339" stroke="#000000" stroke-width="1.52831" stroke-linecap="butt" stroke-linejoin="miter"/></g></g></svg>