<svg version="1.1" xmlns="http://www.w3.org/2000/svg" xmlns:xlink="http://www.w3.org/1999/xlink" width="83.43524" height="78.23044" viewBox="0,0,83.43524,78.23044"><g transform="translate(-198.26991,-140.7011)"><g data-paper-data="{&quot;isPaintingLayer&quot;:true}" fill-rule="nonzero" stroke-linecap="butt" stroke-linejoin="miter" stroke-miterlimit="10" stroke-dasharray="" stroke-dashoffset="0" style="mix-blend-mode: normal"><path d="M272.52893,209.02473l5.86779,4.9684c0,0 1.57194,2.13364 -0.66969,3.7273c-1.57023,1.11596 -4.02557,0.73312 -4.64041,0.73312c-0.05886,0 -0.89597,0.17942 -1.43024,0.18228c-5.02268,0.02628 -28.32871,-0.00971 -29.54524,0.10114c-1.34567,0.12228 -0.92682,-0.60455 -1.79137,-0.54284c-0.86454,0.06171 -32.28686,0.01429 -33.38568,0.01429c-0.30228,0 -2.51877,-1.2691 -2.8559,-1.97136c-0.64741,-1.34795 0.22571,-2.77476 0.10228,-3.45531c-0.124,-0.68055 -2.02107,-12.05157 -1.12339,-15.45545c0.27313,-1.03825 0.31142,-1.17653 0.09428,-1.24567c-0.46341,-0.14799 -4.45756,-1.04796 -4.61241,-4.35642c-0.00343,-0.07771 12.00929,-6.50663 15.68345,-8.04086c1.7188,-0.71712 8.4477,-0.38456 14.86576,-0.38456c6.41863,0 24.69341,0.04228 25.92251,-0.124c1.31195,-0.17771 3.43359,-0.01543 3.58502,-3.61816c0.16285,-3.89129 -0.3777,-11.64302 -1.48052,-18.94047c-0.64798,-4.28842 1.00854,-9.24939 2.77076,-10.46249c1.80794,-1.24567 10.97676,-8.71512 10.97676,-8.71512c0,0 0.44113,2.0765 -1.70623,4.70841c-1.9885,2.43649 -3.38674,3.11989 -3.38674,3.11989l1.43881,0.30456c0.23713,0.05028 0.8834,-0.62741 2.06164,-1.24567c1.17824,-0.61941 7.2506,-4.38213 7.49859,-4.53184c0.11657,-0.07028 0.84283,2.53648 -2.16849,4.73469c-2.79076,2.0365 -4.24385,1.90736 -4.09471,1.95707c2.40506,0.80169 4.87069,2.98961 4.43927,3.41531c-1.12967,1.11482 1.47538,4.58498 6.27178,6.40377c0.55198,0.20971 -0.16514,3.06961 -1.37024,3.78444c-0.99254,0.58798 -2.53477,-0.99825 -10.01793,-2.19821c-0.15314,-0.02457 -0.00686,1.18224 0.03486,1.51309c0.28399,2.24963 0.23885,1.4988 0.62055,4.35699c0.66512,4.98554 4.40156,21.66381 4.65241,23.65745c0.63255,5.02725 2.67876,12.06757 -2.60734,17.60624" fill="#d7c3bc" stroke="none" stroke-width="1"/><path d="M272.63179,209.11216c0,0 4.26842,3.56616 4.91983,4.12328c0.65083,0.55769 1.82965,1.48509 1.34338,2.81304c-0.95082,2.41134 -2.85418,2.25021 -2.85418,2.25021h-3.18732c0.91882,-0.32342 2.21821,-2.09307 1.40224,-3.39188c-0.81597,-1.29938 -3.68444,-3.87815 -3.68444,-3.87815l1.95765,-2.00393" fill="#bb9696" stroke="none" stroke-width="1"/><path d="M269.42676,150.00625c0,0 5.27239,-0.8274 7.34088,-6.10607c0.088,0.06 0,0 0,0c0,0 1.08568,4.51184 -6.32492,6.49234l-1.01596,-0.38627" fill="#bb968c" stroke="none" stroke-width="1"/><path d="M263.56811,150.20852l-0.97768,-0.04114c0,0 7.02375,-5.22782 8.27456,-8.91797c0.05657,-0.04571 0.23771,5.82551 -7.29689,8.95911" fill="#bb968c" stroke="none" stroke-width="1"/><path d="M279.73668,164.08232c-0.11028,0.01257 -0.45256,0.128 -1.12167,-0.06743c-2.93304,-0.85826 -10.99447,-2.9119 -12.4967,-2.87361c-0.20799,0.00514 -0.26113,0.4657 -0.37884,0.35027c-0.33427,-0.32685 -0.19885,-1.17253 -0.59026,-0.97711c-0.128,0.06343 -0.05828,1.06911 -0.30228,0.8274c-2.4822,-2.46391 -2.78047,-5.7598 -2.1245,-7.95629c1.03139,-3.45531 6.35578,-1.7588 8.96483,-0.90683c1.01596,0.33142 1.9085,0.57427 1.72108,0.41027c-0.22456,-0.19656 -0.14171,-0.93082 0.66455,-0.2897c1.37081,1.09139 0.84226,1.18624 0.53484,1.97822c-0.38913,1.00454 3.06846,4.43584 6.45977,5.60552c1.29081,0.2697 -0.81254,3.83986 -1.33081,3.89929" fill="#f0e1db" stroke="none" stroke-width="1"/><path d="M267.19312,149.51083l9.6768,-5.84779c0,0 0.94625,4.96954 -6.54205,6.75748" fill="none" stroke="#26214b" stroke-width="0.5"/><path d="M269.14105,150.02682c0,0 0.16457,-0.01429 0.44741,-0.06685c0.14,-0.03028 0.31199,-0.06 0.50455,-0.116c0.19371,-0.04914 0.40741,-0.11828 0.63941,-0.19599c0.23256,-0.07657 0.4777,-0.17999 0.73426,-0.29142c0.25142,-0.12342 0.51884,-0.24685 0.78112,-0.40341c0.27085,-0.14057 0.52912,-0.32113 0.79254,-0.5017c0.26685,-0.17771 0.5057,-0.40113 0.76112,-0.60055c0.23599,-0.22228 0.47827,-0.43998 0.70169,-0.66855c0.20971,-0.24228 0.42513,-0.47313 0.61769,-0.70969c0.17771,-0.24799 0.3577,-0.48284 0.52684,-0.70683c0.16114,-0.22971 0.29199,-0.46113 0.42456,-0.66741c0.13028,-0.20856 0.25371,-0.3977 0.33999,-0.57769c0.09371,-0.17714 0.17485,-0.33199 0.24171,-0.45884c0.13771,-0.25371 0.21599,-0.39884 0.21599,-0.39884c0,0 -0.06228,0.15257 -0.16971,0.41999c-0.05543,0.13314 -0.124,0.29542 -0.20114,0.48113c-0.07028,0.18971 -0.17657,0.39027 -0.29942,0.60626c-0.12228,0.21599 -0.24228,0.45827 -0.39313,0.69998c-0.15942,0.23599 -0.32627,0.48684 -0.50741,0.74055c-0.19256,0.24513 -0.40799,0.4857 -0.61826,0.73712c-0.22513,0.23771 -0.46855,0.46684 -0.70797,0.69883c-0.26685,0.20114 -0.51598,0.42513 -0.79311,0.60284c-0.27428,0.18057 -0.54227,0.36113 -0.82283,0.50113c-0.2697,0.15942 -0.55369,0.26742 -0.81711,0.37999c-0.26799,0.09943 -0.52284,0.19142 -0.7634,0.25656c-0.23999,0.06971 -0.46341,0.11885 -0.66341,0.15085c-0.19771,0.03886 -0.37484,0.05371 -0.5177,0.072c-0.28913,0.02514 -0.45427,0.01657 -0.45427,0.01657" fill="#26214b" stroke="none" stroke-width="1"/><path d="M271.12555,155.12949c-0.116,0.78911 -0.55769,2.06564 -2.30163,1.81022c-1.74451,-0.25542 -2.09478,-2.5342 -1.93022,-2.57648c0.62741,0.18628 4.23185,0.76626 4.23185,0.76626" fill="#26214b" stroke="none" stroke-width="1"/><path d="M281.42805,160.59444c0.16228,0.37142 -0.43084,2.11478 -0.65083,2.21992c-2.55762,-0.53427 -2.89361,-2.94561 -2.89361,-2.94561l3.54445,0.72569" fill="#26214b" stroke="none" stroke-width="1"/><path d="M271.38154,155.66833c0,0 0.01029,0.05371 0.01029,0.14971c-0.00229,0.09485 -0.00229,0.23428 -0.03886,0.39541c-0.03314,0.16228 -0.09085,0.3497 -0.18799,0.53598c-0.05028,0.09257 -0.10285,0.18799 -0.17371,0.27313c-0.06228,0.09257 -0.14571,0.16914 -0.22285,0.25142c-0.08228,0.07657 -0.17542,0.14057 -0.26228,0.20914c-0.09485,0.056 -0.18971,0.10914 -0.28228,0.15714c-0.19314,0.084 -0.37827,0.14 -0.54055,0.17085c-0.15885,0.04628 -0.29999,0.036 -0.3937,0.04971c-0.09485,0.00457 -0.14857,0.00743 -0.14857,0.00743c0,0 0.05143,-0.016 0.14342,-0.04343c0.08971,-0.028 0.22228,-0.05371 0.37027,-0.11428c0.07485,-0.02857 0.15771,-0.05371 0.24056,-0.09028c0.08114,-0.04114 0.16514,-0.08514 0.25428,-0.12571c0.08228,-0.05143 0.16799,-0.10457 0.25485,-0.15885c0.07771,-0.06571 0.16285,-0.12571 0.23656,-0.19714c0.07143,-0.07428 0.15028,-0.14171 0.20856,-0.22513c0.06571,-0.07828 0.12228,-0.16057 0.17314,-0.24399c0.09943,-0.16628 0.18285,-0.33199 0.22971,-0.48341c0.10685,-0.29942 0.12914,-0.5177 0.12914,-0.5177" fill="#26214b" stroke="none" stroke-width="1"/><path d="M265.60918,149.17827c8.83683,1.67137 9.40024,4.58612 9.40024,4.58612c-2.18564,2.3022 5.02325,6.10036 5.9535,6.37863c0.93025,0.27885 0.37199,1.43938 -0.27942,2.87818c-0.65083,1.43938 -1.48795,1.11425 -1.85993,1.06796c-3.81415,-1.39309 -12.83726,-2.97132 -12.83726,-2.97132c-0.39541,0.13942 0.55827,0.97482 -0.116,0.48741c-0.67426,-0.48741 -0.34913,-1.48566 -0.72112,-1.09082c-0.37199,0.39427 -0.04628,1.25367 -0.04628,1.25367c-3.62787,-4.15528 -3.23246,-8.44884 -1.23253,-9.95793c1.99993,-1.50852 9.8448,1.32338 9.8448,1.32338c0,0 -0.75197,-0.67369 -0.28685,-0.74283c0.46513,-0.06971 1.1451,0.60284 1.1451,0.60284" fill="none" stroke="#26214b" stroke-width="0.5"/><path d="M269.66103,161.81326c1.3251,11.58359 4.90611,26.76363 4.90611,26.76363c0,0 2.51191,11.07161 0.97711,15.26975c-5.39638,14.76176 -27.6036,14.30064 -27.6036,14.30064h-41.32425c0,0 -2.20221,-1.28167 -2.62791,-2.08907c-0.55769,-1.74051 0.23256,-2.36734 0.18628,-3.2496c-0.24456,-2.36506 -2.23878,-10.12021 -0.93768,-16.70798c0.30742,-1.55766 0.7994,-3.05018 1.54223,-4.3907c5.41867,-8.84312 11.88301,-8.4717 11.88301,-8.4717h35.58046c5.90665,0 5.97636,-1.20681 6.25578,-2.99418c0.09257,-0.60398 0.76683,-6.4992 -1.02339,-16.73541c-1.79022,-10.23621 2.39477,-13.41553 2.39477,-13.41553l11.13961,-8.84369c-0.44227,6.3832 -7.44145,8.95911 -7.44145,8.95911" fill="none" stroke="#26214b" stroke-width="0.5"/><path d="M261.40532,151.04449c0,0 0.67312,-0.52684 1.66223,-1.33824c0.49827,-0.40056 1.06225,-0.88911 1.67137,-1.40509c0.60341,-0.52227 1.24281,-1.08568 1.85593,-1.67537c0.31142,-0.28913 0.62169,-0.57998 0.91425,-0.8794c0.30056,-0.29142 0.58341,-0.59026 0.85083,-0.88568c0.27542,-0.28856 0.52341,-0.58112 0.76054,-0.85826c0.24628,-0.27142 0.44398,-0.55312 0.63712,-0.80626c0.19942,-0.24913 0.35027,-0.49884 0.49141,-0.71597c0.06971,-0.10857 0.13542,-0.21028 0.19656,-0.30456c0.05828,-0.09543 0.09657,-0.19142 0.13942,-0.2737c0.16742,-0.3337 0.26285,-0.52398 0.26285,-0.52398c0,0 -0.07885,0.19828 -0.21714,0.5457c-0.03714,0.08571 -0.07028,0.18571 -0.12171,0.2857c-0.05486,0.09885 -0.11371,0.20571 -0.17657,0.31999c-0.12628,0.22856 -0.26171,0.49313 -0.45484,0.75083c-0.18399,0.26342 -0.37313,0.55769 -0.60855,0.84111c-0.22856,0.2897 -0.46513,0.59884 -0.74112,0.89083c-0.26628,0.3017 -0.54741,0.60684 -0.84568,0.90454c-0.29085,0.3057 -0.59884,0.60341 -0.90911,0.89825c-0.62512,0.58512 -1.27538,1.14167 -1.8885,1.65823c-0.61884,0.51084 -1.21481,0.96339 -1.72737,1.34795c-1.03082,0.76397 -1.75194,1.22339 -1.75194,1.22339" fill="#26214b" stroke="none" stroke-width="1"/><path d="M203.25366,196.02005c-5.03754,-1.07539 -4.73012,-4.35642 -4.73012,-4.35642l14.39492,-7.57688" fill="none" stroke="#26214b" stroke-width="0.5"/><path d="M199.37951,194.06126c0,0 0.048,-0.07314 0.14857,-0.20399c0.09485,-0.13371 0.24285,-0.30685 0.41713,-0.51712c0.08914,-0.104 0.19199,-0.21028 0.29713,-0.3257c0.10514,-0.11485 0.21542,-0.23713 0.33999,-0.35313c0.12228,-0.11771 0.24799,-0.23999 0.37599,-0.36399c0.12514,-0.12685 0.27085,-0.23656 0.4057,-0.35656c0.13714,-0.11657 0.27485,-0.23428 0.41027,-0.34913c0.14285,-0.10628 0.28285,-0.21085 0.41884,-0.31199c0.13542,-0.10057 0.26685,-0.19828 0.39084,-0.29028c0.12171,-0.096 0.25256,-0.16457 0.36456,-0.23942c0.45656,-0.28742 0.76112,-0.47884 0.76112,-0.47884c0,0 -0.29085,0.21028 -0.7274,0.52627c-0.10685,0.08171 -0.23199,0.15771 -0.34627,0.26113c-0.11714,0.09943 -0.24113,0.20456 -0.3697,0.31256c-0.12742,0.10857 -0.25942,0.22114 -0.3937,0.33542c-0.12571,0.12228 -0.25428,0.24685 -0.38227,0.37142c-0.12571,0.12628 -0.26113,0.24285 -0.37656,0.37599c-0.11714,0.12971 -0.23371,0.25771 -0.34513,0.38113c-0.11542,0.12114 -0.21542,0.24799 -0.31085,0.36627c-0.09485,0.12 -0.18856,0.22971 -0.26799,0.33599c-0.15599,0.21428 -0.28856,0.39199 -0.36742,0.51998c-0.084,0.124 -0.12971,0.20399 -0.12971,0.20399z" fill="#26214b" stroke="none" stroke-width="1"/><path d="M201.40744,195.50007c0,0 0.00743,-0.06914 0.04,-0.20799c0.01371,-0.06914 0.03314,-0.14971 0.06171,-0.23656c0.02857,-0.088 0.05543,-0.18971 0.09428,-0.29542c0.08628,-0.20856 0.17142,-0.4577 0.30685,-0.70226c0.06514,-0.124 0.12628,-0.25485 0.19828,-0.3817c0.07714,-0.124 0.15599,-0.24913 0.23485,-0.37484c0.08228,-0.12342 0.14971,-0.25542 0.24342,-0.36742c0.08857,-0.11542 0.17485,-0.22913 0.25885,-0.33885c0.08457,-0.10971 0.16514,-0.21542 0.24171,-0.31599c0.08571,-0.09314 0.16685,-0.18114 0.24171,-0.26171c0.29828,-0.32399 0.49713,-0.53941 0.49713,-0.53941c0,0 -0.18114,0.23028 -0.45256,0.57598c-0.06743,0.08628 -0.14057,0.17942 -0.21771,0.2777c-0.068,0.10571 -0.13942,0.21656 -0.21428,0.33142c-0.07371,0.11485 -0.15028,0.23256 -0.22742,0.35313c-0.08343,0.11657 -0.13942,0.25199 -0.20971,0.37884c-0.06743,0.128 -0.13428,0.25599 -0.20056,0.38227c-0.05943,0.12857 -0.10857,0.25999 -0.16114,0.38399c-0.112,0.24571 -0.17371,0.4897 -0.23999,0.69255c-0.048,0.20514 -0.09371,0.3817 -0.104,0.49541c-0.01829,0.112 -0.02171,0.18914 -0.02171,0.18914z" fill="#26214b" stroke="none" stroke-width="1"/><path d="M221.15075,199.09137c0,0 0.41884,0.12457 1.13367,0.3977c0.71255,0.27713 1.72851,0.68626 2.89818,1.28567c1.16682,0.59998 2.5062,1.35995 3.82386,2.35135c0.65883,0.49541 1.30853,1.05025 1.92622,1.6588c0.61426,0.61198 1.20453,1.27481 1.70051,2.00964c0.49255,0.73655 0.90111,1.53195 1.18567,2.35935c0.28628,0.82511 0.44798,1.68394 0.4577,2.51705c0.00229,0.10685 0.01371,0.20171 0.008,0.3177l-0.01429,0.30113c-0.01086,0.20056 -0.02171,0.39884 -0.03143,0.59541c-0.02228,0.39256 -0.10971,0.78454 -0.15999,1.1611c-0.17371,0.7394 -0.38227,1.43766 -0.73426,2.00964c-0.14799,0.29999 -0.36513,0.54112 -0.54684,0.7834c-0.22171,0.20971 -0.41656,0.42284 -0.64683,0.56969c-0.43598,0.32113 -0.87711,0.50627 -1.2491,0.60398c-0.37027,0.10857 -0.67426,0.132 -0.87883,0.13885c-0.20514,0.00971 -0.31427,-0.004 -0.31427,-0.004c0,0 0.10971,0.00629 0.31313,-0.016c0.20228,-0.01829 0.49998,-0.06685 0.85826,-0.18742c0.36056,-0.11371 0.78169,-0.31542 1.18682,-0.64512c0.21485,-0.15142 0.39313,-0.36742 0.59484,-0.57655c0.16399,-0.24285 0.36742,-0.47427 0.49998,-0.76912c0.3217,-0.55655 0.50341,-1.23881 0.65026,-1.95707c0.03657,-0.36742 0.11142,-0.73197 0.12171,-1.12567c0.00686,-0.19599 0.01314,-0.39427 0.01943,-0.59484l0.012,-0.30228c0.004,-0.08743 -0.008,-0.19542 -0.01143,-0.29313c-0.01657,-0.80054 -0.17942,-1.62223 -0.46284,-2.41363c-0.28113,-0.79197 -0.68283,-1.5548 -1.1651,-2.26392c-0.47313,-0.71712 -1.04225,-1.36909 -1.63823,-1.97364c-0.59884,-0.60169 -1.23253,-1.15367 -1.87651,-1.64794c-1.28967,-0.98739 -2.58048,-1.79937 -3.72673,-2.42277c-1.14567,-0.62512 -2.12735,-1.09882 -2.82676,-1.40338c-0.69826,-0.30856 -1.10682,-0.46398 -1.10682,-0.46398" fill="#26214b" stroke="none" stroke-width="1"/><path d="M237.16047,218.02213c0,-0.00057 0.46513,-0.04743 1.1451,-0.27942c0.17028,-0.052 0.34856,-0.12971 0.53941,-0.20285c0.18514,-0.088 0.38741,-0.16571 0.58227,-0.27599c0.20056,-0.1 0.4017,-0.21485 0.59941,-0.3417c0.20514,-0.11714 0.39313,-0.26513 0.59026,-0.4017c0.19428,-0.13942 0.37084,-0.30228 0.55541,-0.4497c0.17485,-0.15828 0.33827,-0.32342 0.50113,-0.47884c0.15542,-0.16228 0.29485,-0.3297 0.43313,-0.48341c0.14285,-0.14971 0.24628,-0.31713 0.35884,-0.45827c0.10571,-0.14571 0.21314,-0.27256 0.28628,-0.40056c0.07771,-0.124 0.14628,-0.23256 0.20228,-0.3217c0.112,-0.17828 0.17657,-0.28056 0.17657,-0.28056c0,0 -0.06057,0.10457 -0.16685,0.28685c-0.05371,0.09085 -0.11771,0.20171 -0.19199,0.32856c-0.06857,0.13028 -0.17199,0.26113 -0.2737,0.41084c-0.10742,0.14571 -0.20685,0.31713 -0.34456,0.47313c-0.13371,0.15885 -0.26856,0.33199 -0.41999,0.5017c-0.15885,0.16171 -0.3177,0.33427 -0.4897,0.50055c-0.18114,0.15542 -0.35484,0.3257 -0.54741,0.4737c-0.19428,0.14571 -0.38113,0.30285 -0.58512,0.42856c-0.19714,0.13657 -0.39827,0.25999 -0.59941,0.36913c-0.19542,0.11942 -0.39941,0.20571 -0.58569,0.30228c-0.19314,0.08114 -0.37313,0.16685 -0.54684,0.22685c-0.68455,0.26056 -1.1851,0.3297 -1.1851,0.3297z" fill="#26214b" stroke="none" stroke-width="1"/><path d="M246.28357,218.02156c0,0 0.67712,-0.03486 1.68565,-0.21542c0.50398,-0.08685 1.08796,-0.21428 1.7068,-0.37656c0.3097,-0.08057 0.62512,-0.17942 0.94682,-0.27599c0.31599,-0.11314 0.64455,-0.21085 0.95939,-0.34113c0.31656,-0.12857 0.63769,-0.24628 0.93882,-0.39656c0.3057,-0.13942 0.60569,-0.27999 0.8834,-0.44056c0.28342,-0.15028 0.55369,-0.30056 0.79711,-0.46627c0.24571,-0.15999 0.48684,-0.30056 0.68512,-0.46341c0.20456,-0.15485 0.39256,-0.29656 0.55884,-0.42227c0.15485,-0.14 0.29028,-0.26113 0.40113,-0.36113c0.22228,-0.20114 0.3497,-0.31599 0.3497,-0.31599c0,0 -0.12457,0.11771 -0.3417,0.32399c-0.10914,0.10285 -0.24171,0.22799 -0.3937,0.37142c-0.16342,0.13028 -0.34799,0.27656 -0.54969,0.43713c-0.19599,0.16742 -0.4337,0.31427 -0.67712,0.48113c-0.24056,0.17199 -0.50912,0.3297 -0.78969,0.48741c-0.27542,0.16742 -0.57369,0.31599 -0.87768,0.46398c-0.29999,0.15828 -0.61998,0.28456 -0.93597,0.4217c-0.31427,0.13885 -0.64283,0.24456 -0.95882,0.36684c-0.3217,0.10514 -0.63769,0.21256 -0.94797,0.30113c-0.62055,0.17885 -1.20681,0.32056 -1.71423,0.42056c-1.01196,0.20571 -1.70737,0.25885 -1.70737,0.25885z" fill="#26214b" stroke="none" stroke-width="1"/><path d="M262.59043,215.49593c0,0 0.59998,-0.31313 1.44281,-0.89654c0.42227,-0.28856 0.89997,-0.64683 1.39481,-1.05139c0.24799,-0.20171 0.49313,-0.42341 0.74569,-0.64512c0.23999,-0.23428 0.4977,-0.45941 0.72969,-0.70912c0.23371,-0.24856 0.47713,-0.48855 0.68798,-0.75026c0.21999,-0.25428 0.43427,-0.50684 0.61941,-0.76797c0.19485,-0.25371 0.37827,-0.50284 0.5297,-0.75483c0.15714,-0.24799 0.3177,-0.47541 0.43084,-0.70626c0.12114,-0.22571 0.23256,-0.43256 0.33085,-0.61655c0.08285,-0.19085 0.15485,-0.35713 0.21428,-0.49541c0.11828,-0.27485 0.18571,-0.43198 0.18571,-0.43198c0,0 -0.06343,0.15885 -0.17542,0.43656c-0.05657,0.13885 -0.12457,0.30742 -0.20228,0.5017c-0.09485,0.18571 -0.20114,0.39599 -0.3177,0.62512c-0.108,0.23428 -0.26342,0.46627 -0.41484,0.7194c-0.14685,0.25599 -0.32513,0.51084 -0.51484,0.77083c-0.17999,0.26742 -0.3897,0.52627 -0.60455,0.7874c-0.20628,0.26856 -0.44456,0.51655 -0.67426,0.77197c-0.22856,0.25771 -0.48227,0.49027 -0.71883,0.73255c-0.24913,0.22856 -0.49141,0.4577 -0.73655,0.66798c-0.4897,0.41999 -0.96339,0.79311 -1.38281,1.09425c-0.83426,0.60855 -1.44395,0.94511 -1.44395,0.94511z" fill="#26214b" stroke="none" stroke-width="1"/><g><path d="M270.46215,211.12352l3.01247,2.70676c0,0 1.6508,1.57823 0.81369,2.92447c-0.83711,1.34624 -0.85997,1.92679 -5.02268,1.92679c-4.32556,0 -27.44132,-0.06971 -27.51046,0c-0.07028,0.06914 -1.04682,-0.29542 -1.07025,-0.53084" fill="none" stroke="#26214b" stroke-width="0.5"/><path d="M268.61421,216.87074c0,0 -0.04114,-0.13485 -0.20228,-0.28342c-0.07943,-0.072 -0.19256,-0.13828 -0.33199,-0.16799c-0.07028,-0.01314 -0.14571,-0.01886 -0.22571,-0.016c-0.07657,0.00114 -0.17028,-0.00971 -0.2697,-0.00571h-2.87761h-2.87704c-0.19656,0.01143 -0.37599,-0.012 -0.53598,-0.03314c-0.15942,-0.01886 -0.29828,-0.03486 -0.41256,-0.04857c-0.22856,-0.03086 -0.35999,-0.04857 -0.35999,-0.04857c0,0 0.13142,-0.01771 0.35999,-0.048c0.11428,-0.01371 0.25313,-0.03028 0.41256,-0.04914c0.15999,-0.02114 0.33942,-0.04457 0.53598,-0.03257h2.87704h2.87761c0.09714,0.00229 0.19085,-0.00857 0.29313,0.00514c0.09828,0.01829 0.18914,0.05028 0.27028,0.08685c0.16171,0.07885 0.27313,0.19142 0.34113,0.29313c0.06971,0.10057 0.09543,0.19314 0.10971,0.25313c0.01429,0.06171 0.01543,0.09485 0.01543,0.09485" fill="#26214b" stroke="none" stroke-width="1"/></g><path d="M272.58036,208.97788l5.80094,4.9684c0,0 1.23253,1.25367 0.06971,2.92447c-1.17253,1.68565 -2.7439,1.53195 -3.81358,1.53195h-2.23478" fill="none" stroke="#26214b" stroke-width="0.5"/></g></g></svg>