<svg version="1.1" xmlns="http://www.w3.org/2000/svg" xmlns:xlink="http://www.w3.org/1999/xlink" width="89.42659" height="53.54168" viewBox="0,0,89.42659,53.54168"><g transform="translate(-195.11212,-153.19216)"><g data-paper-data="{&quot;isPaintingLayer&quot;:true}" fill-rule="nonzero" stroke-miterlimit="10" stroke-dasharray="" stroke-dashoffset="0" style="mix-blend-mode: normal"><path d="M227.82452,195.1696v0c-1.1758,-1.577 2.62221,-3.79621 3.17311,-1.53431c0.40165,1.6501 1.93398,5.11768 1.93398,5.11768c0,0 5.54579,-0.52032 5.28926,1.6823c-0.25787,2.20011 -3.49143,1.28765 -3.49143,1.28765c0,0 0.89542,3.72033 -0.46713,4.31258c-1.36254,0.59234 -2.60795,-2.56561 -2.60795,-2.56561c0,0 -1.00771,2.01489 -2.11732,1.44569c-0.55601,-0.28487 -0.34164,-2.14566 0.46183,-3.67423c0.80357,-1.52606 -2.17436,-6.07175 -2.17436,-6.07175z" fill="#7f7f7f" stroke="#000000" stroke-width="1.39667" stroke-linecap="butt" stroke-linejoin="miter"/><path d="M231.03629,170.61961v0c-0.67306,1.84797 -4.61333,-0.10692 -3.02422,-1.80904c1.15912,-1.24164 3.21589,-4.42622 3.21589,-4.42622c0,0 -3.48022,-4.3507 -1.49798,-5.34586c1.98045,-0.99264 2.99264,2.2115 2.99264,2.2115c0,0 2.61772,-2.79074 3.8607,-1.97802c1.2437,0.81523 -0.71199,3.58974 -0.71199,3.58974c0,0 2.23859,-0.26244 2.3716,0.97587c0.06655,0.62131 -1.6066,1.46426 -3.32496,1.63171c-1.71648,0.1662 -3.88169,5.15032 -3.88169,5.15032z" fill="#7f7f7f" stroke="#000000" stroke-width="1.39667" stroke-linecap="butt" stroke-linejoin="miter"/><path d="M248.10767,172.32218v0c-0.67244,1.84797 -4.61207,-0.10701 -3.02422,-1.80913c1.15849,-1.24155 3.21643,-4.42622 3.21643,-4.42622c0,0 -3.48139,-4.35061 -1.49789,-5.34586c1.97982,-0.99264 2.99202,2.21159 2.99202,2.21159c0,0 2.61647,-2.79074 3.86007,-1.97802c1.24495,0.81523 -0.71136,3.58974 -0.71136,3.58974c0,0 2.2385,-0.26244 2.3716,0.97578c0.06655,0.62131 -1.6066,1.46426 -3.32496,1.63171c-1.71648,0.16629 -3.88169,5.15041 -3.88169,5.15041z" fill="#7f7f7f" stroke="#000000" stroke-width="1.39667" stroke-linecap="butt" stroke-linejoin="miter"/><path d="M244.49587,195.56578v0c-1.5448,-1.21733 1.54417,-4.34747 2.66526,-2.30577c0.81595,1.48865 3.19607,4.43941 3.19607,4.43941c0,0 5.22226,-1.94511 5.54686,0.24953c0.32272,2.19033 -3.03641,2.14988 -3.03641,2.14988c0,0 1.83128,3.35994 0.67073,4.28585c-1.16297,0.9278 -3.18755,-1.79864 -3.18755,-1.79864c0,0 -0.44946,2.20836 -1.66741,1.94654c-0.61207,-0.13077 -0.88806,-1.98269 -0.51027,-3.66849c0.37914,-1.68275 -3.67728,-5.29832 -3.67728,-5.29832z" fill="#7f7f7f" stroke="#000000" stroke-width="1.39667" stroke-linecap="butt" stroke-linejoin="miter"/><path d="M258.25369,189.83154c-2.65163,3.26406 -9.96044,7.74392 -24.10484,6.63189c-14.14431,-1.1114 -17.41662,-9.88223 -15.73118,-18.55717c1.6867,-8.67306 9.72571,-12.99389 21.42173,-10.58049c11.01094,3.26729 12.14592,3.45035 15.93963,5.40873c8.92259,4.60624 5.40766,13.48676 2.47466,17.09704v0zM234.14822,196.46343c-14.14431,-1.1114 -17.41725,-9.88223 -15.73055,-18.5578c1.68544,-8.67306 9.72508,-12.99389 21.4211,-10.58049" fill="#7f7f7f" stroke="#000000" stroke-width="1.39667" stroke-linecap="butt" stroke-linejoin="miter"/><g stroke-linejoin="miter"><path d="M280.98405,194.56802c-2.55,-1.50453 -3.0931,-3.80473 -3.0931,-3.80473" fill="none" stroke="#000000" stroke-width="0.69834" stroke-linecap="round"/><path d="M283.72313,192.07668c-2.91918,-0.50659 -4.23993,-2.46363 -4.23993,-2.46363" fill="none" stroke="#000000" stroke-width="0.69834" stroke-linecap="round"/><path d="M278.47962,175.62212c0,0 0.49412,-2.31151 3.01372,-3.86788" fill="none" stroke="#000000" stroke-width="0.69834" stroke-linecap="round"/><path d="M280.00092,177.40981c0,0 1.28047,-1.98457 4.18862,-2.55081" fill="none" stroke="#000000" stroke-width="0.69834" stroke-linecap="round"/><path d="M267.75956,193.85423v0c-5.69288,-0.6188 -10.45941,-5.00439 -10.72598,-10.90357c-0.26648,-5.89927 6.50838,-11.01004 9.93443,-11.0461c0,0 3.60777,-1.71979 8.22351,1.04368c2.20674,1.32075 6.51825,4.1062 6.56875,10.43609c0.03642,4.36756 -2.28926,6.7406 -4.7084,8.1932c-5.25921,3.15705 -9.29231,2.27671 -9.29231,2.27671z" fill="#7f7f7f" stroke="#000000" stroke-width="1.39667" stroke-linecap="butt"/><path d="M279.82314,183.54219c-0.00834,-0.81048 0.20953,-1.54749 0.56794,-2.08297c0.35842,-0.53556 0.8573,-0.87021 1.41223,-0.87595c0.55494,-0.00574 1.06063,0.3185 1.43008,0.84653c0.36936,0.52794 0.60248,1.26029 0.61082,2.07077c0.00843,0.81048 -0.20944,1.54749 -0.56785,2.08306c-0.35842,0.53556 -0.8573,0.87021 -1.41223,0.87595c-0.55494,0.00574 -1.06063,-0.3185 -1.43008,-0.84653c-0.36936,-0.52803 -0.60248,-1.26038 -0.61091,-2.07086z" fill="#000000" stroke="#000000" stroke-width="1.39667" stroke-linecap="butt"/><g stroke-width="0.69834" stroke-linecap="butt"><path d="M269.09708,178.31509c-0.00834,-0.81048 0.31348,-1.54857 0.83972,-2.08646c0.52686,-0.53727 1.25814,-0.87434 2.06861,-0.88277c0.81048,-0.00834 1.54857,0.31348 2.08646,0.83972c0.53727,0.52686 0.87434,1.25814 0.88277,2.06861c0.00834,0.81048 -0.31348,1.54857 -0.83972,2.08646c-0.52686,0.53727 -1.25814,0.87434 -2.06861,0.88277c-0.81048,0.00834 -1.54866,-0.31348 -2.08646,-0.83972c-0.53727,-0.52686 -0.87434,-1.25814 -0.88277,-2.06861z" fill="#ffffff" stroke="#000000"/><path d="M270.76072,177.6414c-0.0052,-0.50552 0.19544,-0.9661 0.52399,-1.30083c0.32792,-0.33537 0.78429,-0.54561 1.28971,-0.55081c0.50543,-0.0052 0.96601,0.19544 1.30083,0.52399c0.33537,0.32792 0.54552,0.7842 0.55081,1.28971c0.0052,0.50543 -0.19553,0.96601 -0.52399,1.30083c-0.32792,0.33537 -0.78429,0.54552 -1.28971,0.55072c-0.50543,0.00529 -0.9661,-0.19544 -1.30083,-0.52399c-0.33537,-0.32783 -0.54561,-0.7842 -0.55081,-1.28962z" fill="#000000" stroke="none"/><g stroke="none"><path d="M269.37719,181.53376c0,0 -4.68849,-2.89308 -0.06745,-6.52013c0,-0.00063 1.48749,3.6083 0.06745,6.52013v0z" fill="#58595b"/><path d="M270.4163,178.49367c0.02529,2.45026 -0.75487,3.56767 -0.78886,3.61629c-0.15122,0.21078 -0.44515,0.25895 -0.65593,0.10826c-0.20953,-0.15069 -0.25823,-0.44022 -0.11077,-0.65217c0.0148,-0.02215 0.72706,-1.11005 0.60176,-3.53099c-0.12432,-2.3333 -0.55933,-2.90699 -0.56382,-2.91264c-0.18351,-0.18037 -0.17831,-0.46731 0.00448,-0.6527c0.18163,-0.1854 0.48928,-0.1767 0.67477,0.00493c0.1575,0.15427 0.68168,0.86295 0.82241,3.51116c0.0087,0.17472 0.01426,0.34505 0.01597,0.50785v0v0z" fill="#000000"/></g></g><g stroke-width="0.69834" stroke-linecap="butt"><path d="M269.04227,188.697c-0.00834,-0.81048 0.31348,-1.54866 0.83972,-2.08646c0.52686,-0.53727 1.25823,-0.87434 2.0687,-0.88277c0.81048,-0.00834 1.54857,0.31348 2.08646,0.83972c0.53727,0.52686 0.87425,1.25814 0.88268,2.06861c0.00834,0.81048 -0.31348,1.54857 -0.83972,2.08646c-0.52686,0.53727 -1.25814,0.87434 -2.06861,0.88277c-0.81048,0.00834 -1.54857,-0.31348 -2.08646,-0.83972c-0.53727,-0.52686 -0.87434,-1.25814 -0.88277,-2.06861z" fill="#ffffff" stroke="#000000"/><path d="M270.63461,187.96824c-0.00529,-0.50543 0.19544,-0.96601 0.52399,-1.30083c0.32783,-0.33537 0.7842,-0.54552 1.28971,-0.55072c0.50543,-0.00529 0.96601,0.19544 1.30074,0.52399c0.33546,0.32783 0.54561,0.7842 0.55081,1.28962c0.00529,0.50552 -0.19544,0.9661 -0.52399,1.30083c-0.32783,0.33537 -0.7842,0.54561 -1.28962,0.55081c-0.50552,0.0052 -0.9661,-0.19544 -1.30083,-0.52399c-0.33546,-0.32792 -0.54561,-0.7842 -0.55081,-1.28971z" fill="#000000" stroke="none"/><g stroke="none"><path d="M269.67587,192.17444c0,0 -4.96448,-2.38972 -0.74545,-6.47807c0,0 1.85335,3.43484 0.74545,6.47807v0z" fill="#58595b"/><path d="M270.39136,189.04259c0.2802,2.43439 -0.37896,3.62633 -0.40847,3.67925c-0.12862,0.22495 -0.41591,0.30442 -0.64024,0.17643c-0.2237,-0.12799 -0.3037,-0.41214 -0.17768,-0.63772c0.01292,-0.02332 0.60732,-1.17957 0.23114,-3.5735c-0.36649,-2.30765 -0.85801,-2.83433 -0.86375,-2.83936c-0.2002,-0.1601 -0.22639,-0.44551 -0.06368,-0.64885c0.16136,-0.20343 0.46802,-0.22666 0.67145,-0.06584c0.17239,0.1366 0.76796,0.78751 1.1828,3.40604c0.02745,0.17383 0.04987,0.34209 0.06844,0.50354v0v0z" fill="#000000"/></g></g><path d="M268.20247,192.46469c0,0 0.05238,5.0583 -3.58265,8.14333c-2.69306,2.28415 -7.49654,1.65674 -9.84411,-1.23293c-2.34891,-2.88976 -1.35223,-7.66319 2.49628,-9.8572c3.07184,-1.75253 6.9364,-1.54642 6.9364,-1.54642" fill="#57595b" stroke="#000000" stroke-width="1.39667" stroke-linecap="butt"/><path d="M263.8419,179.49134c0,0 -5.04126,0.43116 -8.38873,-2.96313c-2.48031,-2.51502 -2.21275,-7.35231 0.49251,-9.90976c2.70526,-2.55673 7.54013,-1.91963 10.01668,1.75298c1.97722,2.93174 2.06117,6.80141 2.06117,6.80141" fill="#57595b" stroke="#000000" stroke-width="1.39667" stroke-linecap="butt"/></g><path d="M220.69232,183.85792c-4.42972,1.52606 -13.13364,3.63566 -20.18323,-3.57081c-9.69028,-9.90707 -1.40156,-26.23794 -1.31805,-26.39661c0,0 -7.36254,15.5708 1.68894,24.82679c6.5665,6.71351 14.99766,4.21517 19.14718,2.78473c2.10377,0.75621 0.77478,2.29402 0.77478,2.29402c0,0 0.00027,0.02449 -0.10961,0.06189v0z" fill="#58595b" stroke="#000000" stroke-width="1.39667" stroke-linecap="butt" stroke-linejoin="round"/></g></g></svg>