<svg version="1.1" xmlns="http://www.w3.org/2000/svg" xmlns:xlink="http://www.w3.org/1999/xlink" width="94.95686" height="64.99365" viewBox="0,0,94.95686,64.99365"><g transform="translate(-192.52157,-147.50318)"><g data-paper-data="{&quot;isPaintingLayer&quot;:true}" fill-rule="nonzero" stroke="none" stroke-width="1" stroke-linecap="butt" stroke-linejoin="miter" stroke-miterlimit="10" stroke-dasharray="" stroke-dashoffset="0" style="mix-blend-mode: normal"><g><path d="M266.79092,198.85134c-2.76259,0.77604 -3.34082,0.84072 -5.84648,5.6263c-1.99162,3.75092 -7.38842,5.303 -7.00293,2.71618c0.51403,-3.62149 4.49728,-4.72091 5.78228,-6.72573c0.77089,-1.22869 1.67041,-4.07422 5.7822,-7.82507c1.15646,-1.03475 4.11179,5.43227 1.28492,6.20831z" fill="#c9b59b"/><path d="M256.57564,192.38433c0.70678,2.91021 2.24864,6.40234 6.48898,10.21794c2.37711,2.19876 7.64536,5.94961 4.04752,5.94961c-3.59784,0 -5.01123,-0.3233 -7.06713,-1.61675c-1.22073,-0.77604 -5.01123,-2.39279 -8.80181,-6.5317c-0.89944,-0.96999 -2.18444,-3.23351 -3.34082,-5.69098c-2.56993,-5.56163 7.96657,-4.91494 8.67326,-2.32812z" fill="#dbccb6"/><path d="M227.27906,206.02981c0,0 -5.01123,-1.03475 -7.00285,1.03467c-2.24864,2.32812 -7.90237,5.75566 -7.25995,2.19884c0.6425,-3.55689 4.24034,-6.66105 5.84648,-8.40716c0.96371,-1.09942 1.86315,-3.29819 3.27663,-3.8802c1.28492,-0.51741 7.51689,0.64669 8.73754,-0.25871c-0.06419,-0.06468 1.9917,7.37241 -3.59784,9.31255z" fill="#c9b59b"/><path d="M220.08346,198.59272c-0.7067,2.52215 0.83517,4.52688 2.89106,7.24306c1.92743,2.58682 6.55317,5.82033 2.95542,6.01428c-3.59784,0.19403 -5.13978,-1.61675 -7.25995,-2.78077c-1.28492,-0.71136 -1.86315,-0.71136 -2.76259,-1.94014c-0.83525,-1.16402 -6.36043,-9.7652 -6.36043,-9.7652c5.91067,-4.85026 10.5365,1.22878 10.5365,1.22878z" fill="#dbccb6"/></g><path d="M272.50889,200.27411l-0.57822,0.25868c-3.21234,-2.91016 -4.62577,-0.58203 -2.44138,1.7461c-0.57822,0.32335 0,0 -0.57822,0.32335c-1.60617,-2.71615 -4.62577,-1.29341 -2.50563,1.42275c-0.32123,0.12934 -0.19274,0.06467 -0.51397,0.19401c-2.82686,-3.75088 -6.42469,-1.55209 -4.04755,0.97005c-0.32123,0.12934 -0.64247,0.19401 -0.9637,0.32335c-3.34084,-4.39758 -5.204,-2.52214 -3.59782,1.87544c-0.32123,0.12934 -0.57822,0.19401 -0.89946,0.25868c-2.63412,-5.10895 -4.75427,-3.88022 -2.89111,0.71137c-0.12849,0.06467 -0.51397,0.12934 -0.51397,0.12934c0,0 -1.28494,-3.4922 -2.44138,-3.0395c-1.15644,0.45269 -0.32123,3.55687 -0.32123,3.55687l-0.51397,0.06467c0,0 -0.38548,-2.91016 -1.73467,-2.91016c-1.34918,0 -0.9637,3.36286 -0.9637,3.36286c0,0 -0.25699,0.06467 -0.38548,0.06467c-0.64247,-1.29341 -0.64247,-3.42753 -1.92741,-3.42753c-1.22069,0 -0.83521,2.32813 -0.77096,3.75088c-0.25699,0 -0.51397,0.06467 -0.77096,0.06467c-1.60617,-3.75088 -2.50563,-3.68621 -2.95536,0.25868c-0.32123,0 -0.64247,0.06467 -1.02795,0.06467c-1.0922,-3.55687 -1.92741,-3.55687 -2.82686,0.12934c-0.38548,0 -0.70672,0 -1.02795,0c-0.06425,0 -0.12849,0 -0.19274,0c-0.25699,-1.22874 -0.57822,-2.13412 -0.89946,-2.58681c0.12849,-0.19401 0.25699,-0.45269 0.44973,-0.6467c-17.47515,-1.03472 -31.22398,-11.44665 -31.22398,-24.12203c0,-13.38675 15.22651,-24.25137 34.05084,-24.25137c18.82433,0 34.05084,10.86461 34.05084,24.25137c0,2.19879 -0.38548,4.26824 -1.15644,6.27302c2.44138,2.78082 5.204,6.91972 5.65372,7.1784c-0.25699,0.38802 -0.57822,0.77604 -0.83521,1.0994c-5.26824,-0.90538 -5.84647,-0.38802 -2.69837,2.65148z" fill="#dbccb6"/><g fill="#3e5360"><path d="M277.58436,184.30055c-0.06419,0.12935 -0.06419,0.25871 -0.12847,0.38798c-5.13978,-0.38798 -8.99456,2.13417 -4.11179,2.91021c-0.12847,0.32338 -0.25702,0.64669 -0.38549,0.97007c-4.433,0.3233 -7.70963,0.12935 -4.11179,1.81078c-0.32121,0.51733 -0.6425,0.96999 -1.02799,1.4874c-0.25694,0 -0.83517,-0.51741 -3.85477,-1.42281c-3.01961,-0.90531 -3.21235,1.74611 0.06427,3.62157l-0.6425,0.45274c-4.56155,-2.6515 -7.38842,0.12927 -3.79058,2.7161c-0.38549,0.32338 -0.77097,0.64669 -1.22065,0.97007c-4.43308,-3.16883 -7.00293,-1.4874 -2.63412,1.68143c-0.25702,0.19403 -0.44976,0.38806 -0.77097,0.58201c-4.11179,-3.42754 -4.75429,-1.09934 -1.73468,1.09942c-0.32121,0.19403 -0.25694,0.19403 -0.57823,0.38798c-5.26825,-1.8107 -6.29616,-1.16402 -3.72631,2.39287c-0.32121,0.19395 -0.57823,0.3233 -0.89944,0.51733c-4.56155,-2.52215 -4.0476,-0.77604 -1.3492,2.6515c-0.19274,0.12935 -0.83517,0.25863 -1.09218,0.3233c-1.9917,-1.4874 -3.34082,-2.00473 -3.46937,-0.71136c0.12855,0.64669 0.77097,2.26344 0.96371,2.97488c-0.19274,0.06468 -0.38549,0.12927 -0.57823,0.19395c-0.83517,-0.45266 -1.67041,-3.49214 -2.95534,-2.9748c-1.28492,0.51733 -0.57823,4.07422 -0.57823,4.07422c-0.32121,0.06468 -0.57823,0.12935 -0.89944,0.19403c-1.73468,-5.10897 -2.6984,-5.17365 -4.0476,0.71136c-0.06419,0 -0.19266,0 -0.25694,0c-0.83525,-6.72573 -2.50566,-5.88501 -4.81849,0.19403c-0.12855,0 -0.32129,0 -0.44976,0c0,-6.20839 -0.57823,-6.98443 -3.79058,-0.32338c-0.06427,0 -0.12847,0 -0.19274,0c1.22073,-6.33767 0.38549,-6.46702 -3.4051,-0.64669c-0.19274,-0.06468 -0.32121,-0.06468 -0.51395,-0.12935c1.3492,-6.14372 1.47767,-5.88501 -2.82687,-0.77604c-0.19274,-0.06468 -0.38549,-0.12935 -0.57823,-0.19403c2.18444,-4.65623 1.22073,-5.23824 -2.63412,-0.97007c-0.19274,-0.06468 -0.44968,-0.19395 -0.64242,-0.25863c2.18436,-4.52696 1.41339,-5.10897 -3.08388,-1.42281c-0.25702,-0.12927 -0.51395,-0.25863 -0.77097,-0.38798c2.82687,-4.85026 1.86315,-5.36768 -3.4051,-2.06949c-0.19274,-0.19395 -0.44968,-0.3233 -0.7067,-0.51733c3.27663,-4.00955 2.56985,-4.59156 -2.50566,-1.87546c-0.25694,-0.19395 -0.44968,-0.38798 -0.7067,-0.58201c3.34082,-3.23351 2.76259,-3.81552 -1.99162,-1.81078c-0.25702,-0.25863 -0.51395,-0.51733 -0.77097,-0.77604c2.95534,-2.58682 2.31291,-3.36286 -2.0559,-2.39279c-0.38549,-0.45266 -0.7067,-0.90539 -1.02799,-1.35805c2.76267,-2.00481 2.31291,-2.6515 -1.28492,-2.00481c-0.25694,-0.38798 -0.51395,-0.77604 -0.7067,-1.22869c2.50566,-1.48748 2.24864,-2.06949 -0.83525,-1.87546c-0.25694,-0.45274 -0.38549,-0.97007 -0.57823,-1.4874c2.82687,-1.35813 2.63412,-1.94014 -0.57815,-2.00481c-0.12855,-0.58201 -0.25702,-1.09942 -0.32129,-1.68143c4.0476,-1.87546 4.0476,-3.55689 -0.06419,-4.26825c0.06419,-0.38798 0.06419,-0.77604 0.12847,-1.16402c5.13978,-0.90539 5.20397,-1.29345 0.32121,-1.74611c0.06427,-0.25871 0.12855,-0.58201 0.19274,-0.84072c6.81019,-0.90539 7.06721,-1.09942 0.96371,-3.03948c0.06427,-0.25871 0.12847,-0.45274 0.25702,-0.71144c6.87438,-0.3233 7.25987,-1.42272 1.99162,-4.00955c0.19274,-0.3233 0.38549,-0.64669 0.57823,-0.97007c5.97495,0.45274 6.61745,-0.38798 2.24864,-3.10416c0.19274,-0.25863 0.32121,-0.45266 0.51395,-0.64669c6.55317,1.55208 7.25995,0.77604 2.63412,-2.84553c0.12855,-0.12927 0.32129,-0.3233 0.44976,-0.45266c5.7822,2.00481 6.4889,1.35805 2.56985,-2.32812c0.19274,-0.19403 0.44976,-0.32338 0.6425,-0.51741c4.36873,2.06949 5.01123,1.48748 2.31283,-1.74603c0.25702,-0.19403 0.44976,-0.38806 0.70678,-0.51741c4.49728,2.91021 5.01123,2.58682 1.92735,-1.22869c0.12855,-0.06468 0.19274,-0.12935 0.32129,-0.19403c4.69002,4.00955 5.1397,3.75084 1.60614,-0.97007c0.06427,-0.06468 0.12847,-0.06468 0.19274,-0.12935c4.56155,4.46228 5.01123,4.20358 1.67041,-0.90539c0.12847,0 0.19274,-0.06468 0.32121,-0.12927c3.98332,3.75084 4.43308,3.29819 2.56993,-1.22878c0.32121,-0.12935 0.64242,-0.25871 0.96371,-0.38798c2.89106,2.91013 3.98324,2.32812 3.14808,-1.22878c0.44968,-0.19403 0.83517,-0.32338 1.28492,-0.45266c3.27663,3.94487 3.01961,4.1389 2.82687,-0.84072c0.38549,-0.12935 0.83525,-0.25871 1.22065,-0.32338c3.01961,4.52688 3.59784,4.97962 4.56155,-0.84072c0.12847,-0.06468 0.19274,-0.06468 0.32121,-0.06468c1.73468,6.27299 2.50566,5.88501 3.46937,-0.32338c0.12847,0 0.32121,0 0.44976,0c1.02791,5.75566 2.12009,6.07904 4.04752,-0.0646c0.06427,0 0.19274,0 0.25702,0c-0.32129,5.49695 0.06419,5.3676 1.54186,0.0646c0.25702,0.06468 0.51403,0.06468 0.77097,0.06468c0.44976,5.17365 1.67041,5.94969 5.26825,0.58209c0.12855,0 0.32129,0.06468 0.44976,0.06468c-1.3492,5.17357 -0.83525,5.10889 2.12017,0.38798c0.19274,0.06468 0.44968,0.06468 0.64242,0.12935c-1.28492,4.07422 -0.77097,4.59156 2.31291,0.58201c0.32121,0.12935 0.7067,0.19403 1.02791,0.32338c-1.47767,4.59156 0,4.20358 3.59784,1.22869c0.19274,0.06468 0.32121,0.12935 0.51395,0.19403c-3.66203,4.52696 -0.89944,4.85026 3.98332,1.81078c0.38549,0.12935 0.7067,0.32338 1.02799,0.51733c-2.89114,3.75092 -2.0559,4.65631 2.50558,1.55208c0.06427,0.06468 0.19274,0.12935 0.25702,0.19403c-3.66203,3.49222 -3.01961,3.49222 1.41339,0.97007c0.25702,0.19403 0.51403,0.38806 0.77097,0.58201c-3.40501,3.42754 -2.44138,4.59164 2.76267,2.32812c0.12847,0.06468 0.25694,0.19403 0.32121,0.25871c-5.33252,3.55689 -4.69002,4.00955 1.73468,1.81078c0.19274,0.19403 0.38549,0.38806 0.51395,0.58201c-4.75429,3.42754 -4.36881,3.49222 1.99162,2.6515c0.25702,0.38806 0.44976,0.77604 0.70678,1.1641c-4.94704,2.78077 -4.24034,4.07422 1.99162,4.00955c0.12847,0.3233 0.19274,0.58201 0.32121,0.90539c-6.74592,2.26344 -6.74592,3.16883 0.89944,3.42754c0,0.12927 0.06427,0.3233 0.06427,0.45266c-6.23196,1.35805 -3.91905,1.68143 0.25702,2.06941c0,0.32338 0.06419,0.64677 0.06419,0.97007c-6.03914,1.1641 -6.81011,1.55208 -0.38549,3.10424c0,0.25863 -0.06419,0.58201 -0.06419,0.84072c-6.74592,0.38798 -7.8381,1.4874 -1.9917,2.9748z"/><path d="M262.61486,194.25979c0.32121,-0.38806 0,0.06468 0,0z"/></g><g><path d="M286.32198,195.29453l-1.9917,1.22869c-10.72916,2.52215 -19.20976,0.25871 -21.32993,-4.26825c-0.19274,-0.45266 -0.44968,-1.03467 -0.77097,-1.61675c1.09218,-0.84072 3.72631,-0.58201 3.72631,-0.58201c0,0 0.12855,-0.64669 0.25702,-0.77604c-1.67041,-0.45274 -3.59784,-0.58201 -4.49728,-1.42272c-0.83525,-0.77604 3.27663,-2.52215 3.27663,-2.52215l-0.19274,-0.64677c0,0 -4.11187,0.45274 -4.88276,-0.25863c0,-0.12935 -0.06427,-0.32338 -0.06427,-0.51741c0.25702,-0.64669 1.99162,-1.35805 4.04752,-2.06941c0,0 -0.12847,-0.45274 -0.12847,-0.64669c0,0 -1.47767,-0.25871 -3.14808,-0.71136c0.25694,-0.38806 0.38549,-0.32338 0.89944,-0.64677c2.44138,-1.35805 10.98618,2.45747 14.13434,1.48748c1.54186,-0.45274 1.22065,-0.32338 1.22065,-0.32338c0.25702,0.51733 0.51395,1.29337 0.7067,1.74611c1.02799,2.9748 1.28501,4.85026 3.66211,7.17838c2.12017,2.13409 5.01123,1.55208 5.07551,5.36768z" fill="#dbccb6"/><path d="M271.40854,188.06016c-0.64129,-0.04508 -1.12485,-0.59809 -1.08006,-1.23518c0.04479,-0.63709 0.60096,-1.11701 1.24225,-1.07193c0.64129,0.04508 1.12485,0.59809 1.08006,1.23518c-0.04479,0.63709 -0.60096,1.11701 -1.24225,1.07193z" fill="#3e5360"/><g fill="#c6a87b" opacity="0.6"><path d="M272.25191,180.22633c-0.83525,-0.97007 -2.12017,-1.61675 -3.4051,-1.1641c-0.6425,0.19403 -0.89944,-0.84072 -0.25702,-1.03467c1.60622,-0.58209 3.3409,0.19395 4.43308,1.42272c0.44968,0.45266 -0.32129,1.22869 -0.77097,0.77604z"/></g><path d="M285.29399,192.70771c1.15646,-0.12935 2.0559,0.3233 2.18444,1.42272c0,0 -0.77097,2.06941 -1.86315,2.19876c-1.09226,0.06468 -2.18444,-1.87538 -2.18444,-1.87538c-0.12847,-1.1641 0.77097,-1.74611 1.86315,-1.74611z" fill="#65746f"/><path d="M256.57564,174.79397c5.84648,-3.55681 8.03092,2.52215 8.73762,5.49703c-2.44138,2.32812 -13.62038,-2.45747 -8.73762,-5.49703z" fill="#dbccb6"/></g></g></g></svg>