<svg version="1.1" xmlns="http://www.w3.org/2000/svg" xmlns:xlink="http://www.w3.org/1999/xlink" width="96.70274" height="56.76356" viewBox="0,0,96.70274,56.76356"><g transform="translate(-191.61903,-151.61822)"><g data-paper-data="{&quot;isPaintingLayer&quot;:true}" fill-rule="evenodd" stroke-linecap="butt" stroke-linejoin="miter" stroke-miterlimit="10" stroke-dasharray="" stroke-dashoffset="0" style="mix-blend-mode: normal"><path d="M251.2983,193.87912c-0.11101,-0.0555 -5.53052,3.78531 -5.21122,11.36485c0,0 0.74929,1.38818 4.83018,1.66584c2.85229,0.19456 8.02219,-2.08211 8.02219,-2.08211l3.34495,3.1234c0,0 0.15278,0.18038 -0.95765,0.18038h-22.23498c0,0 -0.41665,-0.77742 3.98315,-1.76274c1.62421,-0.33317 1.8601,-1.05508 1.8601,-1.05508c-0.01426,-0.62898 -0.03469,-0.73869 0.06923,-5.26147c0,0 0.01022,-4.13578 -1.54691,-3.90081" fill="#8088ad" stroke="none" stroke-width="1"/><path d="M251.84966,193.50455c-0.11108,-0.05558 -6.08173,4.1598 -5.7629,11.73972c0,0 0.74974,1.38818 4.83018,1.66584c2.85274,0.19411 8.02265,-2.08257 8.02265,-2.08257l3.34487,3.12385c0,0 0.15278,0.18038 -0.95757,0.18038h-22.23543c0,0 -0.41619,-0.77742 3.98353,-1.7632c1.62383,-0.33317 1.71624,-1.08749 1.71624,-1.08749c0.06038,-0.82804 0.05954,-1.1128 0.21317,-5.22906c0,0 0.26692,-4.40186 -1.9676,-3.79019" fill="none" stroke="#2e4166" stroke-width="0.5"/><path d="M245.86483,195.54046c-0.11101,-0.05558 -5.26047,2.12389 -4.94111,9.70381c0,0 0.74921,1.38818 4.8301,1.66584c2.85274,0.19411 8.02219,-2.08257 8.02219,-2.08257l3.34541,3.1234c0,0 0.15233,0.18084 -0.95803,0.18084h-22.23505c0,0 -0.41619,-0.77742 3.98361,-1.7632c1.62376,-0.33317 1.85964,-1.05501 1.85964,-1.05501c-0.01426,-0.62906 -0.03469,-0.73876 0.0693,-5.26154c0,0 0.12968,-2.92883 -1.42752,-2.69424" fill="#8088ad" stroke="none" stroke-width="1"/><path d="M246.12428,195.4014c-0.11108,-0.0555 -5.51992,2.26295 -5.20055,9.84287c0,0 0.74967,1.38818 4.8301,1.66584c2.85274,0.19411 8.02265,-2.08257 8.02265,-2.08257l3.34495,3.1234c0,0 0.15278,0.18084 -0.95765,0.18084h-22.23543c0,0 -0.41619,-0.77742 3.98361,-1.7632c1.62376,-0.33317 1.71616,-1.08749 1.71616,-1.08749c0.06038,-0.8285 0.05954,-1.1128 0.21317,-5.22906c0,0 0.1293,-2.92921 -1.4279,-2.69424" fill="none" stroke="#2e4166" stroke-width="0.5"/><path d="M288.06955,167.30152c-1.8508,-3.46144 -4.76621,-3.74132 -4.76621,-3.74132c-12.62136,-1.62856 -27.18638,1.03686 -27.18638,1.03686c0,0 7.10685,5.78523 8.4579,8.72825c0.92296,2.01014 5.31117,12.52072 -8.27271,18.40674c-16.80395,7.21877 -32.94127,7.95937 -43.11937,8.55152c-10.17818,0.59261 -20.69028,1.92529 -21.28236,0c-0.592,-1.9249 7.38444,-2.57256 7.38444,-2.57256c0,0 -1.06858,-1.91995 -0.29131,-2.63386c0.67998,-0.62418 2.97534,-0.41269 6.34331,0.39225c2.79412,0.66809 7.69802,2.92616 7.69802,2.92616c14.36115,-26.50555 30.27592,-29.63383 30.27592,-29.63383c0,0 -3.14329,-6.36717 -3.29158,-7.05219c-0.14836,-0.68502 -1.70465,-5.47875 5.44612,-7.58221c19.57992,-5.92292 34.92747,1.38513 38.59659,3.91728c4.2381,2.92433 4.00763,9.25689 4.00763,9.25689" fill="#353c62" stroke="none" stroke-width="1"/><path d="M245.1709,159.37715c0,0 -0.66626,0.05558 3.94183,1.52731c4.60801,1.47128 14.25007,8.40933 16.05596,13.90577c2.16788,6.59818 -0.53825,10.04102 -0.53825,10.04102c0.30511,-1.16617 1.02687,-4.37304 -1.27694,-8.56524c-3.09267,-5.62803 -14.35185,-8.16323 -17.40533,-11.13384c-3.05356,-2.97099 -0.77727,-5.77502 -0.77727,-5.77502" fill="#faf1e8" stroke="none" stroke-width="1"/><path d="M251.34297,161.91304c0,0 1.49903,-0.48107 1.416,-2.16559c-0.06755,-1.35844 -1.03534,-4.47917 -0.94293,-5.47875c0.09233,-0.9995 0.34727,-1.60317 0.34727,-1.60317c0,0 16.28476,-3.77464 31.89838,5.37918c4.00984,2.3504 4.00763,9.25689 4.00763,9.25689c0,0 -1.21298,-2.87104 -4.85724,-3.75283c-3.80323,-0.92006 -23.04251,-0.26615 -27.09535,1.04837z" fill="#ffa364" stroke="none" stroke-width="1"/><path d="M256.11673,164.59691l-4.60756,-2.63744c0,0 23.09618,-2.15675 32.1826,1.52686c0,0 -13.48211,-1.48065 -27.57505,1.11059" fill="#ff7664" stroke="none" stroke-width="1"/><path d="M288.10073,167.53992c-0.96916,-2.64674 -4.07594,-4.49785 -7.70556,-5.02688c-7.05127,-1.0284 -8.83056,-3.30424 -8.74708,-4.95186c0.12572,-2.47841 4.22476,-2.98487 8.28743,-1.64411c9.14147,3.0159 8.16521,11.62284 8.16521,11.62284" fill="#353c62" stroke="none" stroke-width="1"/><path d="M283.30334,163.5602c-12.62136,-1.62856 -27.18638,1.03686 -27.18638,1.03686c0,0 7.10685,5.78523 8.4579,8.72825c0.92296,2.01014 5.31117,12.52072 -8.27271,18.40674c-16.80395,7.21877 -32.94127,7.95937 -43.11937,8.55152c-10.17818,0.59261 -20.69028,1.92529 -21.28236,0c-0.592,-1.9249 7.38444,-2.57256 7.38444,-2.57256c0,0 -1.06858,-1.91995 -0.29131,-2.63386c0.67998,-0.62418 2.97534,-0.41269 6.34331,0.39225c2.79412,0.66809 7.69802,2.92616 7.69802,2.92616c14.36115,-26.50555 30.27592,-29.63383 30.27592,-29.63383c0,0 -3.14329,-6.36717 -3.29158,-7.05219c-0.14836,-0.68502 -1.70465,-5.47875 5.44612,-7.58221c19.57992,-5.92292 34.92747,1.38513 38.59659,3.91728c4.2381,2.92433 4.00763,9.25689 4.00763,9.25689c-1.8508,-3.46144 -4.76621,-3.74132 -4.76621,-3.74132z" fill="none" stroke="#1e223d" stroke-width="0.5"/><path d="M251.86476,154.98512c0.12572,1.39359 0.85678,2.89239 0.89368,4.65071c0.03682,1.7587 -1.48973,2.25891 -1.48973,2.25891c-2.29444,-0.37007 -7.17654,-1.36736 -7.15786,-4.53254c0.0186,-3.1651 7.7539,-2.37708 7.7539,-2.37708" fill="#ffd5a3" stroke="none" stroke-width="1"/><path d="M256.27112,164.7237c-0.51561,-0.38471 -4.92822,-2.81066 -4.92822,-2.81066c2.16521,-0.75874 1.36927,-3.55385 0.72169,-5.9416c-0.64758,-2.38776 0.17284,-3.42241 0.17284,-3.42241" fill="none" stroke="#1e223d" stroke-width="0.5"/><path d="M251.34297,161.91304c0,0 31.99704,-2.77643 35.78875,3.97949" fill="none" stroke="#1e223d" stroke-width="0.5"/><path d="M252.30505,174.37002c0,0 0.07281,0.12663 0.19144,0.37449c0.11413,0.24877 0.28598,0.61526 0.44989,1.10258c0.16346,0.48687 0.35002,1.08611 0.489,1.79293c0.06572,0.35314 0.14082,0.73122 0.18031,1.13453c0.05329,0.40293 0.03377,0.83033 0.04048,1.2745c-0.0218,0.88941 -0.12976,1.85072 -0.35444,2.84535c-0.23672,0.99287 -0.61122,2.00572 -1.09755,3.00431c-0.50722,0.98845 -1.13742,1.95197 -1.87116,2.85511c-0.17413,0.23413 -0.38509,0.43708 -0.57653,0.65833c-0.20074,0.21233 -0.38372,0.44425 -0.60092,0.6424c-0.4322,0.39668 -0.83414,0.83292 -1.30134,1.19232c-0.45439,0.37495 -0.90299,0.75828 -1.38848,1.08703l-0.71284,0.51043c-0.23672,0.17017 -0.48992,0.31319 -0.73328,0.47002c-0.49076,0.30557 -0.97183,0.62014 -1.47639,0.87866c-0.50051,0.26341 -0.97976,0.55663 -1.47989,0.78542c-0.49655,0.23634 -0.98464,0.46865 -1.46259,0.69607c-0.48321,0.21462 -0.96466,0.40384 -1.42881,0.5997c-0.92296,0.40605 -1.83258,0.68951 -2.65559,0.99821c-0.8208,0.31495 -1.60912,0.49266 -2.29802,0.67701c-0.68662,0.1919 -1.29867,0.30694 -1.79705,0.42115c-0.99973,0.21279 -1.57092,0.33446 -1.57092,0.33446c0,0 0.55564,-0.17985 1.52785,-0.49442c0.48504,-0.15858 1.08017,-0.32737 1.74422,-0.58057c0.33355,-0.12084 0.68845,-0.24923 1.06286,-0.38471c0.3722,-0.13998 0.78169,-0.23146 1.18675,-0.39317c0.81546,-0.3061 1.71883,-0.58728 2.63203,-0.98975c0.45965,-0.19373 0.93668,-0.38112 1.41509,-0.59353c0.47253,-0.22476 0.95536,-0.45439 1.44612,-0.68806c0.4948,-0.22613 0.96649,-0.51531 1.46121,-0.77566c0.49838,-0.2554 0.97183,-0.56463 1.4555,-0.86624c0.23901,-0.15416 0.489,-0.29497 0.72176,-0.46201l0.70042,-0.50242c0.47833,-0.32295 0.91671,-0.69836 1.36225,-1.06614c0.45919,-0.35276 0.85053,-0.77917 1.2742,-1.16655c0.21279,-0.19418 0.38997,-0.42023 0.58628,-0.62776c0.18656,-0.21545 0.39355,-0.41398 0.56189,-0.64141c0.71551,-0.87958 1.32665,-1.81558 1.81878,-2.77338c0.47032,-0.96794 0.83277,-1.94709 1.06195,-2.90657c0.21721,-0.96177 0.32112,-1.89113 0.34293,-2.75119c0.00488,-0.43091 -0.01914,-0.84222 -0.03736,-1.23448c-0.00267,-0.39271 -0.04216,-0.76453 -0.07418,-1.11463c-0.07189,-0.70011 -0.20028,-1.30332 -0.31708,-1.7969c-0.24382,-0.98662 -0.47879,-1.52548 -0.47879,-1.52548" fill="#5f6484" stroke="none" stroke-width="1"/><path d="M278.52722,162.1721c-1.35067,-0.36923 -7.44307,-1.57351 -6.84619,-4.87729c0.64095,-3.54851 8.25457,-1.46236 8.25457,-1.46236" fill="none" stroke="#1e223d" stroke-width="0.5"/><path d="M247.08627,157.85944c0,-0.88934 0.72085,-1.61034 1.61003,-1.61034c0.88919,0 1.61003,0.721 1.61003,1.61034c0,0.88934 -0.72085,1.61034 -1.61003,1.61034c-0.88919,0 -1.61003,-0.721 -1.61003,-1.61034" fill="#1e223d" stroke="none" stroke-width="1"/><path d="M247.83541,157.85944c0,-0.56235 0.45569,-1.01818 1.01795,-1.01818c0.56227,0 1.01803,0.45584 1.01803,1.01818c0,0.56242 -0.45576,1.01818 -1.01803,1.01818c-0.56227,0 -1.01795,-0.45576 -1.01795,-1.01818" fill="#495aa9" stroke="none" stroke-width="1"/><path d="M248.20098,157.85944c0,-0.36069 0.2923,-0.65254 0.65292,-0.65254c0.35978,0 0.652,0.29185 0.652,0.65254c0,0.36077 -0.29223,0.65261 -0.652,0.65261c-0.36061,0 -0.65292,-0.29185 -0.65292,-0.65261" fill="#1e223d" stroke="none" stroke-width="1"/></g></g></svg>