<svg version="1.1" xmlns="http://www.w3.org/2000/svg" xmlns:xlink="http://www.w3.org/1999/xlink" width="93.70554" height="63.00802" viewBox="0,0,93.70554,63.00802"><g transform="translate(-193.14723,-148.49599)"><g data-paper-data="{&quot;isPaintingLayer&quot;:true}" fill-rule="nonzero" stroke="none" stroke-width="1" stroke-linecap="butt" stroke-linejoin="miter" stroke-miterlimit="10" stroke-dasharray="" stroke-dashoffset="0" style="mix-blend-mode: normal"><g><path d="M250.64218,210.87473c-2.0128,-1.92519 3.30654,-8.895 -4.69279,-13.98517c-0.01542,-0.96295 2.0962,-2.92038 2.0962,-2.92038c0,0 6.85066,2.52861 8.07432,8.96719c0.76531,4.03751 -2.65687,10.63517 -5.47773,7.93836zM248.10376,195.31899l-0.98187,1.15568c1.75489,1.04004 3.5245,2.63023 4.5295,4.96962c1.05125,2.45012 -0.5046,7.96499 0.48217,8.04699c2.5994,0.21796 5.60598,-9.66942 -4.0298,-14.17229z" fill="#000000"/><path d="M252.13426,209.49128c-0.98748,-0.082 0.56908,-5.59687 -0.48217,-8.04699c-1.005,-2.33939 -2.77461,-3.92958 -4.5295,-4.96962l0.98187,-1.15568c9.63508,4.50287 6.6285,14.39025 4.0298,14.17229z" fill="#ff0000"/></g><g><path d="M260.37818,201.73093c-2.75779,-0.37355 -2.55104,-9.13959 -12.01442,-8.5558c-0.58029,-0.76882 -0.02032,-3.59458 -0.02032,-3.59458c0,0 7.02868,-1.98126 11.80206,2.50829c2.99257,2.81525 4.10199,10.16561 0.23268,9.64209zM249.18234,190.63881l-0.11494,1.5124c2.03102,-0.18993 4.39774,0.05607 6.58505,1.35822c2.29243,1.36453 4.27509,6.73923 5.1217,6.22622c2.23076,-1.35121 -1.14867,-11.11805 -11.59181,-9.09684z" fill="#000000"/><path d="M260.77485,199.73495c-0.84661,0.51371 -2.82927,-4.86099 -5.1217,-6.22622c-2.18801,-1.30215 -4.55473,-1.54814 -6.58505,-1.35822l0.11494,-1.5124c10.44244,-2.02051 13.82187,7.74633 11.59181,9.09684z" fill="#ff0000"/></g><g><path d="M229.61432,210.87052c-2.82226,2.69822 -6.24514,-3.89945 -5.47843,-7.93766c1.22226,-6.43787 8.07362,-8.96578 8.07362,-8.96578c0,0 2.11302,1.95673 2.0976,2.92038c-8.00003,5.08946 -2.67999,12.06067 -4.69279,13.98306zM233.13532,196.47186l-0.98257,-1.15568c-9.63648,4.50357 -6.6292,14.39095 -4.0291,14.17229c0.98678,-0.082 -0.56908,-5.59547 0.48217,-8.04559c1.0036,-2.34079 2.7732,-3.93098 4.5295,-4.97102z" fill="#000000"/><path d="M232.15275,195.31689l0.98257,1.15568c-1.75559,1.04004 -3.5252,2.63023 -4.5288,4.97032c-1.05125,2.45012 0.5046,7.96359 -0.48217,8.04559c-2.6015,0.21936 -5.60878,-9.66872 4.0284,-14.17159z" fill="#ff0000"/></g><g><path d="M231.89274,193.17303c-9.46338,-0.5838 -9.25733,8.18085 -12.01582,8.5558c-3.86931,0.52422 -2.75989,-6.82473 0.23338,-9.64069c4.77339,-4.49025 11.80206,-2.50899 11.80206,-2.50899c0,0 0.55927,2.82437 -0.01962,3.59388zM231.1877,192.14911l-0.11564,-1.5124c-10.44174,-2.02051 -13.82117,7.74563 -11.58971,9.09684c0.84661,0.51301 2.82857,-4.86239 5.1203,-6.22622c2.18731,-1.30285 4.55403,-1.54814 6.58505,-1.35822z" fill="#000000"/><path d="M231.07276,190.63601l0.11564,1.5124c-2.03102,-0.18993 -4.39774,0.05537 -6.58505,1.35822c-2.29173,1.36383 -4.27369,6.73923 -5.1203,6.22622c-2.23216,-1.35051 1.14727,-11.11665 11.58971,-9.09684z" fill="#ff0000"/></g><g><path d="M237.06981,169.49532l-1.11433,1.80815c-2.84469,-1.75279 -4.69489,-6.06433 -5.26608,-9.30078c-1.45143,-0.01822 -2.96173,-0.78984 -4.18399,-2.69751c-2.83558,-4.42507 3.37943,-10.46978 7.40082,-6.90743c3.57987,3.17198 1.82007,7.64471 -1.14937,9.11787c0.46185,2.78021 2.07517,6.60047 4.31294,7.97971zM230.89124,160.43002l1.2629,-0.05607c0.71135,-0.19133 1.37924,-0.65808 1.87543,-1.47946c0.41139,-0.67981 0.57749,-1.33369 0.49339,-2.1782c-0.53123,-5.39643 -7.7197,-4.68719 -6.62009,0.69803c0.3371,1.64766 1.61613,2.78232 2.98836,3.01569z" fill="#000000"/><path d="M234.52297,156.71559c0.0841,0.84451 -0.082,1.49839 -0.49339,2.1782c-1.72826,2.86011 -5.50927,1.54114 -6.1267,-1.48016c-1.09961,-5.38452 6.08956,-6.09376 6.62009,-0.69803z" fill="#ffffff"/><path d="M229.27792,154.82333c0,-1.05977 0.85911,-1.91889 1.91889,-1.91889c1.05977,0 1.91889,0.85911 1.91889,1.91889c0,1.05977 -0.85911,1.91889 -1.91889,1.91889c-1.05977,0 -1.91889,-0.85911 -1.91889,-1.91889z" fill="#000000"/></g><g><path d="M247.12749,162.00549c-1.75489,2.14806 -3.45231,5.51768 -3.13694,7.96219l-2.10671,0.27192c-0.37775,-2.92669 1.28323,-6.50936 3.16147,-9.01554c-0.0834,-0.06027 -0.1682,-0.11844 -0.2502,-0.18642c-6.11268,-5.04461 2.29874,-14.18911 7.15693,-7.16183c2.45432,3.55253 -1.15988,8.40582 -4.82455,8.12969zM251.17832,156.87678c0,-0.06097 0.0007,-0.12124 -0.0021,-0.18432c-0.00561,-0.10653 -0.01682,-0.21656 -0.02944,-0.32729c-0.00561,-0.05467 -0.00911,-0.10793 -0.01752,-0.1647c-0.02523,-0.1696 -0.05677,-0.34271 -0.10022,-0.52212c-0.72256,-2.99817 -4.54702,-4.18469 -6.17366,-1.26571c-0.38896,0.69383 -0.53123,1.35331 -0.4191,2.19431c0.02453,0.18292 0.05817,0.35743 0.09742,0.52563c0.01191,0.05116 0.02663,0.09952 0.03995,0.14928c0.03084,0.11494 0.06237,0.22777 0.09882,0.3357c0.01822,0.05256 0.03855,0.10372 0.05817,0.15488c0.03785,0.10092 0.07779,0.19834 0.12124,0.29295c0.02243,0.04555 0.04415,0.09111 0.06658,0.13526c0.04906,0.09601 0.10022,0.18852 0.15418,0.27753c0.02103,0.03434 0.04205,0.06938 0.06378,0.10302c0.06658,0.10162 0.13596,0.19764 0.20885,0.28944c0.01262,0.01612 0.02453,0.03364 0.03785,0.04906c0.91459,1.11503 2.29944,1.47316 3.48806,1.16269c0.01752,-0.00421 0.03574,-0.01051 0.05326,-0.01542c0.09321,-0.02663 0.18642,-0.05677 0.27753,-0.09111c0.02593,-0.00981 0.05116,-0.02032 0.07709,-0.03084c0.082,-0.03434 0.16329,-0.07078 0.24179,-0.11213c0.02873,-0.01402 0.05607,-0.02873 0.0841,-0.04415c0.07499,-0.04135 0.14788,-0.0869 0.21936,-0.13526c0.02733,-0.01892 0.05467,-0.03644 0.0813,-0.05537c0.07219,-0.05186 0.14017,-0.10793 0.20745,-0.1661c0.02313,-0.01962 0.04696,-0.03785 0.06868,-0.05817c0.07709,-0.07008 0.14928,-0.14577 0.21866,-0.22497c0.00981,-0.01121 0.02032,-0.02032 0.03014,-0.03154c0.07919,-0.09321 0.15278,-0.19203 0.22146,-0.29645c0.00981,-0.01472 0.01752,-0.03154 0.02733,-0.04626c0.05467,-0.08831 0.10793,-0.17941 0.15488,-0.27543c0.01822,-0.03785 0.03434,-0.07849 0.05116,-0.11704c0.03434,-0.07709 0.06728,-0.15559 0.09601,-0.23758c0.01682,-0.04766 0.03084,-0.09812 0.04555,-0.14718c0.02313,-0.07919 0.04555,-0.15839 0.06378,-0.24039c0.01191,-0.05467 0.02243,-0.11003 0.03224,-0.1661c0.01472,-0.0834 0.02593,-0.1682 0.03504,-0.2558c0.00561,-0.05887 0.01191,-0.11844 0.01542,-0.17871c0.00561,-0.09111 0.00631,-0.18432 0.00491,-0.27963z" fill="#000000"/><path d="M251.17762,156.69316c0.0028,0.06308 0.0021,0.12335 0.0021,0.18432c0.0007,0.09461 0,0.18782 -0.00561,0.27893c-0.0028,0.06027 -0.00911,0.11984 -0.01542,0.17871c-0.00911,0.0869 -0.02032,0.17241 -0.03504,0.2558c-0.00981,0.05607 -0.02032,0.11143 -0.03224,0.1661c-0.01892,0.082 -0.04065,0.16189 -0.06378,0.24039c-0.01472,0.04906 -0.02873,0.09952 -0.04555,0.14718c-0.02873,0.082 -0.06167,0.16049 -0.09601,0.23758c-0.01682,0.03925 -0.03294,0.07919 -0.05116,0.11704c-0.04766,0.09601 -0.10022,0.18712 -0.15488,0.27543c-0.00981,0.01472 -0.01752,0.03154 -0.02733,0.04626c-0.06798,0.10442 -0.14227,0.20324 -0.22146,0.29645c-0.00981,0.01121 -0.01962,0.02032 -0.03014,0.03154c-0.06938,0.07919 -0.14227,0.15418 -0.21866,0.22497c-0.02243,0.02032 -0.04626,0.03855 -0.06868,0.05817c-0.06728,0.05817 -0.13526,0.11424 -0.20745,0.1661c-0.02663,0.01962 -0.05396,0.03714 -0.0813,0.05537c-0.07078,0.04766 -0.14437,0.09321 -0.21936,0.13526c-0.02803,0.01472 -0.05607,0.02944 -0.0841,0.04415c-0.07919,0.04065 -0.15979,0.07779 -0.24179,0.11213c-0.02593,0.00981 -0.05116,0.02103 -0.07709,0.03084c-0.09041,0.03434 -0.18362,0.06448 -0.27753,0.09111c-0.01752,0.00421 -0.03574,0.01051 -0.05326,0.01542c-1.18932,0.31117 -2.57347,-0.04766 -3.48806,-1.16269c-0.01332,-0.01612 -0.02523,-0.03294 -0.03785,-0.04906c-0.07289,-0.09181 -0.14227,-0.18782 -0.20885,-0.28944c-0.02173,-0.03294 -0.04275,-0.06798 -0.06378,-0.10302c-0.05396,-0.08831 -0.10583,-0.18082 -0.15418,-0.27753c-0.02313,-0.04415 -0.04555,-0.08971 -0.06658,-0.13526c-0.04345,-0.09461 -0.0834,-0.19203 -0.12124,-0.29295c-0.01962,-0.05116 -0.03995,-0.10162 -0.05817,-0.15488c-0.03644,-0.10793 -0.06798,-0.22076 -0.09882,-0.3357c-0.01332,-0.04976 -0.02803,-0.09742 -0.03995,-0.14928c-0.03925,-0.1682 -0.07289,-0.34271 -0.09742,-0.52563c-0.11213,-0.841 0.03014,-1.50049 0.4191,-2.19431c1.62734,-2.91898 5.4518,-1.73246 6.17366,1.26571c0.04345,0.17941 0.07569,0.35322 0.10022,0.52212c0.00771,0.05607 0.01121,0.10933 0.01752,0.1647c0.01262,0.11143 0.02383,0.22146 0.03014,0.32799z" fill="#ffffff"/><path d="M245.86319,154.47993c0,-1.05938 0.8588,-1.91819 1.91819,-1.91819c1.05938,0 1.91819,0.8588 1.91819,1.91819c0,1.05938 -0.8588,1.91819 -1.91819,1.91819c-1.05938,0 -1.91819,-0.8588 -1.91819,-1.91819z" fill="#000000"/></g><g><path d="M273.42913,175.73906c-1.53273,0.36584 -3.41867,0.20955 -4.98224,0.09251c-4.4454,8.62027 -11.75721,6.95509 -15.01329,5.40414c0.31608,-0.63005 0.66019,-1.24679 1.00219,-1.86352c5.96831,0.96155 9.54117,-2.54053 9.45567,-4.28771c-0.01682,-0.32379 -0.18572,-0.74639 -0.4212,-0.95874c-3.05844,-3.26799 -3.91487,-8.08413 -1.79624,-11.90088c1.16619,-2.1004 7.36367,-5.51207 8.61396,-3.75788c0.0035,0.00491 0.00771,0.00631 0.01121,0.01121c-0.76041,1.56777 0.48077,3.87772 0.46746,4.87781c-0.03364,2.57557 -2.9337,2.10601 -2.35971,5.38522c0.07499,0.42961 -0.11073,0.93982 0.3378,1.23137c0.67561,-0.25861 0.15488,-1.38906 0.47587,-2.12563c0.88726,-2.03382 2.80544,-1.48297 3.29743,-3.57146c0.47306,-2.0135 -1.80745,-4.72713 0.25651,-6.14072c0.67841,-0.46535 1.39116,-0.51862 1.78152,-1.35542c0.86483,-1.85721 -0.78213,-3.71092 1.3463,-5.22052c1.59931,-1.13465 3.22314,-0.64897 4.81824,0.32939c7.78558,4.77549 3.36962,21.30749 -7.29149,23.85082z" fill="#ff0000"/><path d="M286.50812,164.71072c-1.27272,6.19819 -6.40563,14.23536 -17.39052,13.16238c-2.94281,7.52487 -12.40759,7.0504 -16.15495,4.31995c0.02383,-0.03714 0.05467,-0.06518 0.07219,-0.10863c0.03855,-0.09391 0.0869,-0.18222 0.12895,-0.27333l-0.20044,0.38196l-0.54245,-0.53894l1.48927,-3.04022h0.93141c4.95701,0.05817 6.43367,-1.96935 7.46249,-3.62402c-0.03294,-0.02873 -0.06518,-0.05957 -0.09391,-0.09601c-0.53964,-0.69102 -2.09059,-2.86431 -2.79773,-4.76498c-1.14587,-3.08718 0.0876,-7.78348 2.3485,-10.04717c3.50418,-3.51188 8.86136,-4.4517 10.16141,-2.92038c2.72625,-1.41499 0.49689,-4.04452 1.48998,-6.15684c0.80246,-1.71004 2.80474,-2.74307 4.2779,-2.45713c7.69096,1.49208 10.153,9.65961 8.81791,16.16336zM280.72062,151.88894c-1.5951,-0.97837 -3.21894,-1.46404 -4.81824,-0.32939c-2.12844,1.5096 -0.48147,3.36331 -1.3463,5.22052c-0.39037,0.8368 -1.10311,0.89006 -1.78152,1.35542c-2.06396,1.41358 0.21656,4.12722 -0.25651,6.14072c-0.49199,2.08849 -2.41017,1.53763 -3.29743,3.57146c-0.32098,0.73658 0.19974,1.86702 -0.47587,2.12563c-0.44783,-0.29155 -0.26281,-0.80176 -0.3378,-1.23137c-0.57468,-3.27921 2.32607,-2.80965 2.35971,-5.38522c0.01332,-1.00009 -1.22786,-3.30934 -0.46746,-4.87781c-0.0035,-0.00491 -0.00771,-0.00631 -0.01121,-0.01121c-1.25029,-1.75419 -7.44778,1.65748 -8.61396,3.75788c-2.11933,3.81675 -1.2622,8.63289 1.79624,11.90088c0.23548,0.21235 0.40508,0.63496 0.4212,0.95874c0.0855,1.74648 -3.48455,5.24645 -9.44936,4.28841l-0.98257,1.87403c3.26799,1.54814 10.55388,3.18389 14.98806,-5.41535c1.56356,0.11704 3.44881,0.27333 4.98224,-0.09251c10.6604,-2.54403 15.07637,-19.07603 7.29079,-23.85082z" fill="#000000"/></g><g><path d="M226.37156,181.32401c-3.34298,1.52011 -10.45926,2.95963 -14.81986,-5.49455c-1.56356,0.11704 -3.44881,0.27262 -4.98224,-0.09321c-10.659,-2.54333 -15.07637,-19.07603 -7.29079,-23.85012c1.5951,-0.97837 3.21753,-1.46475 4.81824,-0.32939c2.12844,1.5089 0.48007,3.36261 1.3456,5.21982c0.39037,0.8375 1.10382,0.89146 1.78222,1.35542c2.06396,1.41499 -0.21726,4.12792 0.25651,6.14142c0.49129,2.08919 2.41017,1.53833 3.29673,3.57216c0.32168,0.73658 -0.19904,1.86702 0.47517,2.12493c0.44853,-0.29085 0.26421,-0.80105 0.3392,-1.23067c0.57398,-3.27921 -2.32607,-2.80965 -2.36041,-5.38522c-0.01332,-1.02813 1.29865,-3.4383 0.40018,-5.00747c1.56216,-1.29655 7.33284,1.80395 8.48361,3.79432c2.1852,3.7803 1.57898,8.52706 -1.4255,11.84832c-0.01191,0.01472 -0.01892,0.02803 -0.03014,0.04275c-0.30206,0.14928 -0.53263,0.67 -0.55086,1.05125c-0.0855,1.72476 3.39695,5.15254 9.22579,4.31714c0.27823,0.6735 0.62865,1.31337 1.03654,1.92309z" fill="#ff0000"/><path d="M227.80336,181.60995l-0.79685,0.59571c-3.76278,2.71363 -13.18691,3.17268 -16.12481,-4.33537c-10.98419,1.07158 -16.11781,-6.9649 -17.38982,-13.16379c-1.33509,-6.50305 1.12694,-14.67058 8.81861,-16.16336c1.47245,-0.28524 3.47474,0.74709 4.2793,2.45713c0.97696,2.07938 -1.1732,4.66055 1.35612,6.09096c1.51591,-1.31897 6.61729,-0.40999 10.04717,2.90847c2.29944,2.22445 3.61631,6.89762 2.52301,10.00442c-0.6721,1.91258 -2.1852,4.1125 -2.71363,4.81334c-0.03714,0.04766 -0.0806,0.09251 -0.12825,0.13526c1.02252,1.64907 2.47535,3.68429 7.37699,3.65766l0.73728,-0.19764zM226.37226,181.32471l-1.18301,-1.90417l-0.0007,-0.00421c-5.73844,0.7555 -9.16342,-2.62323 -9.07862,-4.33256c0.01822,-0.38196 0.2488,-0.90268 0.55086,-1.05125c0.01121,-0.01472 0.01822,-0.02803 0.03014,-0.04275c3.00448,-3.32126 3.6107,-8.06801 1.4255,-11.84832c-1.15077,-1.99107 -6.92145,-5.09157 -8.48361,-3.79432c0.89847,1.56917 -0.41349,3.97934 -0.40018,5.00747c0.03434,2.57557 2.9344,2.10601 2.36041,5.38522c-0.07499,0.42961 0.10933,0.93982 -0.3392,1.23067c-0.6742,-0.25791 -0.15348,-1.38835 -0.47517,-2.12493c-0.88656,-2.03382 -2.80544,-1.48297 -3.29673,-3.57216c-0.47376,-2.0135 1.80745,-4.72643 -0.25651,-6.14142c-0.67841,-0.46395 -1.39186,-0.51792 -1.78222,-1.35542c-0.86553,-1.85721 0.78283,-3.71092 -1.3456,-5.21982c-1.60071,-1.13535 -3.22314,-0.64897 -4.81824,0.32939c-7.78628,4.77409 -3.36891,21.30679 7.29009,23.84942c1.53343,0.36584 3.41867,0.21025 4.98224,0.09321c4.3606,8.45417 11.47758,7.01536 14.82056,5.49595z" fill="#000000"/></g><g><path d="M240.13246,170.24101c5.47492,-0.02593 12.55406,2.04994 13.33549,5.07124c0.67561,2.6029 -0.54034,4.92897 -1.97215,6.98943c-2.43891,3.51118 -3.13974,8.33573 -5.0348,11.84131c-1.28113,2.37233 -3.88683,3.46913 -6.32854,3.37172c-2.44101,0.09812 -5.04812,-0.99939 -6.32854,-3.37172c-1.89366,-3.50698 -2.92248,-8.33153 -5.36139,-11.84131c-1.43111,-2.05975 -2.64776,-4.38653 -1.97355,-6.98943c0.78283,-3.0206 8.18786,-5.09647 13.66348,-5.07124z" fill="#ff0000"/><path d="M253.94452,181.80899c-3.0248,3.84969 -4.68508,13.61512 -6.08535,15.29503c-1.7605,2.11092 -4.71312,2.32677 -7.69377,2.32958c-3.04933,-0.0028 -6.00125,-0.21866 -7.76105,-2.32958c-1.40097,-1.6799 -3.06055,-11.44534 -6.08535,-15.29503c-2.73746,-3.48385 -3.1061,-8.00494 0,-10.1558c3.16777,-2.19361 8.46959,-2.98766 13.77702,-2.98766h0.07149c5.30742,0 10.60924,0.79335 13.77632,2.98766c3.1068,2.15156 2.73746,6.67265 0.0007,10.1558zM253.46795,175.31295c-0.78143,-3.0213 -7.86057,-5.09717 -13.33549,-5.07124c-5.47562,-0.02593 -12.88065,2.04994 -13.66348,5.07124c-0.6742,2.6029 0.54245,4.92967 1.97355,6.98943c2.43891,3.50978 3.46773,8.33433 5.36139,11.84131c1.28043,2.37233 3.88753,3.46983 6.32854,3.37172c2.44171,0.09742 5.04741,-0.99939 6.32854,-3.37172c1.89506,-3.50558 2.59589,-8.33013 5.0348,-11.84131c1.43181,-2.06116 2.64776,-4.38653 1.97215,-6.98943z" fill="#272525"/></g></g></g></svg>