<svg version="1.1" xmlns="http://www.w3.org/2000/svg" xmlns:xlink="http://www.w3.org/1999/xlink" width="93.83029" height="54.36139" viewBox="0,0,93.83029,54.36139"><g transform="translate(-193.16909,-152.67868)"><g data-paper-data="{&quot;isPaintingLayer&quot;:true}" fill-rule="evenodd" stroke-linecap="butt" stroke-linejoin="miter" stroke-miterlimit="10" stroke-dasharray="" stroke-dashoffset="0" style="mix-blend-mode: normal"><g><path d="M208.70251,169.85253c0,0 5.27837,8.33653 8.79828,6.86465c2.70132,-1.12915 5.88027,-2.84103 5.88027,-2.84103c0,0 0.60881,7.34596 -6.1518,13.00058c-5.66425,4.92269 -12.72963,4.37403 -12.72963,4.37403c0,0 -0.85261,-0.27801 -0.88292,3.06157c-0.03032,3.33962 0,7.27798 0,7.27798c0,0 0.09139,1.33509 1.12701,2.12775c0.48716,0.39616 -3.50235,1.79816 -3.50235,1.79816c0,0 0.39611,-11.09522 -0.66983,-16.39904c-0.2511,-1.26599 -0.1144,-1.0765 0.60915,-1.34901c0.79738,-0.30034 6.18177,-1.60799 6.94334,-8.40529c0.76122,-6.79735 0.57849,-9.41887 0.57849,-9.51035" fill="#b1b6cc" stroke="none" stroke-width="1"/><path d="M223.38106,173.87615c0,0 0.60881,7.34596 -6.1518,13.00058c-5.66425,4.92269 -12.72963,4.37403 -12.72963,4.37403c0,0 -0.85261,-0.27801 -0.88292,3.06157c-0.03032,3.33962 0,7.27798 0,7.27798c0,0 0.09139,1.33509 1.12701,2.12775c0.48716,0.39616 -3.50235,1.79816 -3.50235,1.79816c0,0 0.39611,-11.09522 -0.66983,-16.39904c-0.2511,-1.26599 -0.1144,-1.0765 0.60915,-1.34901c0.79738,-0.30034 6.18177,-1.60799 6.94334,-8.40529c0.76122,-6.79735 0.57849,-9.41887 0.57849,-9.51035" fill="none" stroke="#424763" stroke-width="0.5625"/><path d="M201.8202,206.99452c0,0 0.34205,-0.54355 0.14034,-1.74259c0.16662,-0.0636 2.63845,-1.21913 2.63845,-1.21913l1.7585,1.30035l0.82224,1.66137z" fill="#313753" stroke="none" stroke-width="1"/><path d="M212.47858,176.22317c0,0 3.01339,7.49745 6.27092,9.23123c0.12423,0.06584 -1.16468,1.11713 -1.16468,1.11713c0,0 -2.94395,-2.36225 -5.10625,-10.34836" fill="#424763" stroke="none" stroke-width="1"/><path d="M208.64363,173.35464c0,0 3.46765,8.46451 5.54041,11.09853c1.58346,2.01251 -3.2586,-2.40794 -5.69462,-8.38227" fill="#424763" stroke="none" stroke-width="1"/><path d="M208.30246,177.67913c0,0 3.45228,9.1193 6.19306,11.13109l-1.7731,0.94701c0,0 -3.81369,-6.40041 -4.57491,-10.6069c0.0983,-1.00667 0.15494,-1.4712 0.15494,-1.4712" fill="#424763" stroke="none" stroke-width="1"/><path d="M207.56304,181.88849c0,0 0.94721,7.44183 2.91583,8.60388l-1.68833,0.4075c0,0 -1.91417,-2.38672 -2.24891,-6.93336c0.18127,-0.39728 1.02142,-2.07801 1.02142,-2.07801" fill="#424763" stroke="none" stroke-width="1"/><path d="M204.8422,185.858c0,0 1.27392,4.60844 2.00478,5.32537l-1.34297,0.08122c0,0 -1.43066,-2.1475 -1.571,-4.69296c-0.01022,-0.18365 0.9092,-0.71363 0.9092,-0.71363" fill="#424763" stroke="none" stroke-width="1"/><path d="M201.933,187.50773c0.11985,-0.02049 2.00006,3.5294 2.32672,3.80921c0,0 -0.58394,0.68477 -0.49261,1.11125c0.09139,0.42691 -3.19573,-3.3114 -3.19573,-3.3114c0,0 -0.23207,-0.78205 -0.08078,-1.00589c0.16847,-0.24837 0.85256,-0.50331 1.44239,-0.60317" fill="#424763" stroke="none" stroke-width="1"/><path d="M203.60755,195.7009c0,0 -2.30517,-0.21324 -2.39651,-0.18253c-0.09139,0.03037 -0.09611,-1.76818 -0.09611,-1.76818l2.50176,0.56219z" fill="#424763" stroke="none" stroke-width="1"/><path d="M203.60465,198.96271l-2.30409,-0.12107l-0.03618,-1.79745l2.35233,0.21142z" fill="#424763" stroke="none" stroke-width="1"/><path d="M203.61315,201.06594c-0.09134,0.88409 0.4729,1.71626 0.31976,1.79855c-0.65377,0.35046 -2.66877,0.85339 -2.66877,0.85339l0.04861,-2.53008l2.3004,-0.12185" fill="#424763" stroke="none" stroke-width="1"/></g><g><path d="M209.05672,169.55161c0,0 -1.02833,7.77872 -7.97166,10.11824" fill="none" stroke="#424763" stroke-width="1.5"/><path d="M201.88662,179.53539c0,0 -0.09431,0.0801 -0.26423,0.20993c-0.09134,0.0673 -0.19075,0.14706 -0.31465,0.23226c-0.11728,0.09037 -0.26676,0.17927 -0.40122,0.29338c-0.13338,0.109 -0.2964,0.23664 -0.43562,0.34015c-0.15533,0.1401 -0.31684,0.2908 -0.49299,0.43494c-0.15747,0.15105 -0.30657,0.31421 -0.47139,0.46638c-0.15932,0.16788 -0.32161,0.33835 -0.48312,0.50881c-0.32156,0.35406 -0.64282,0.70779 -0.94429,1.03991c-0.14506,0.17007 -0.2836,0.32774 -0.42136,0.47917c-0.13995,0.14925 -0.25251,0.30287 -0.36691,0.44c-0.10633,0.14195 -0.22764,0.26117 -0.30842,0.38151c-0.07927,0.12073 -0.15601,0.22423 -0.21854,0.31129c-0.12603,0.17304 -0.20681,0.2729 -0.20681,0.2729c0,0 0.02229,-0.12034 0.07416,-0.33251c0.02706,-0.10535 0.05922,-0.23557 0.10419,-0.38297c0.04238,-0.14886 0.12058,-0.29995 0.19839,-0.47149c0.08044,-0.16973 0.16083,-0.36141 0.28175,-0.53844c0.11329,-0.18107 0.23027,-0.38185 0.36657,-0.56842c0.13703,-0.1818 0.27114,-0.37528 0.42059,-0.56146c0.16044,-0.19791 0.32049,-0.37713 0.48424,-0.56623c0.17689,-0.17703 0.34973,-0.35591 0.53022,-0.52419c0.19153,-0.16569 0.3892,-0.32078 0.57484,-0.46711c0.18603,-0.13022 0.37494,-0.24506 0.55144,-0.35664c0.21343,-0.1181 0.3892,-0.19202 0.56497,-0.27397c0.16993,-0.08779 0.33183,-0.12326 0.47402,-0.17338c0.14029,-0.04681 0.27076,-0.08336 0.36978,-0.11046c0.2109,-0.05669 0.33441,-0.08336 0.33441,-0.08336" fill="#424763" stroke="none" stroke-width="1"/><path d="M195.03998,182.98903c0,0 0.01168,-0.02521 0.03397,-0.07241c0.02341,-0.04681 0.04934,-0.11742 0.09981,-0.20336c0.05226,-0.07903 0.11402,-0.17669 0.19075,-0.28204c0.07489,-0.10681 0.18745,-0.21908 0.30623,-0.34239c0.11985,-0.11961 0.25032,-0.23518 0.39465,-0.35479c0.0709,-0.05776 0.14365,-0.11742 0.2182,-0.1781l0.05625,-0.04613l0.01392,-0.01134l0.02847,-0.01864l0.02998,-0.02049l0.12204,-0.08302c0.33514,-0.22058 0.66438,-0.47115 1.06419,-0.65952c0.39903,-0.18141 0.79957,-0.38589 1.18764,-0.49416c0.19187,-0.06511 0.38117,-0.11484 0.55952,-0.16462c0.1783,-0.05046 0.34715,-0.09547 0.50759,-0.11995c0.63587,-0.11781 1.07402,-0.13241 1.07402,-0.13241c0,0 -0.36618,0.25017 -0.93626,0.52925c-0.28394,0.14341 -0.60516,0.32263 -0.96073,0.4836c-0.182,0.07533 -0.35411,0.17557 -0.531,0.26701c-0.17762,0.09329 -0.36068,0.18068 -0.54341,0.26886c-0.18526,0.07533 -0.36691,0.19168 -0.54998,0.28968c-0.18161,0.10277 -0.36725,0.19168 -0.54341,0.28423c-0.34316,0.18029 -0.66365,0.34896 -0.93845,0.49304c-0.12569,0.07903 -0.25397,0.13241 -0.36287,0.20706c-0.10672,0.07572 -0.2054,0.13606 -0.28506,0.18725c-0.15017,0.11046 -0.23606,0.17338 -0.23606,0.17338" fill="#424763" stroke="none" stroke-width="1"/><path d="M195.03998,180.13997c0,0 0.35995,-0.24837 0.93042,-0.52891c0.13703,-0.07937 0.30915,-0.12657 0.48823,-0.18068c0.17981,-0.05377 0.37056,-0.1145 0.57153,-0.16243c0.10414,-0.02599 0.19406,-0.05192 0.31538,-0.0783c0.09976,-0.01752 0.20097,-0.03401 0.3037,-0.04715c0.20462,-0.03002 0.41329,-0.05343 0.62161,-0.07791c0.20754,-0.02234 0.429,-0.02341 0.63986,-0.02929c0.21231,-0.00691 0.42209,-0.00034 0.62346,0.00258c0.40088,0.02852 0.77363,0.06803 1.09008,0.12034c0.63368,0.12983 1.03932,0.28093 1.03932,0.28093c0,-0.00039 -0.43231,0.09401 -1.05538,0.13898c-0.31246,0.04243 -0.67426,0.08161 -1.06049,0.10389c-0.19187,0.01645 -0.38847,0.04827 -0.58876,0.06146c-0.2017,0.02156 -0.40122,0.02195 -0.61027,0.04827c-0.20939,0.02049 -0.41806,0.0417 -0.62414,0.05562c-0.10346,0.00876 -0.20574,0.01387 -0.30701,0.01791c-0.09246,0.01168 -0.1838,0.02341 -0.27367,0.03474c-0.18492,0.02745 -0.36764,0.03985 -0.54234,0.05523c-0.17319,0.02049 -0.34239,0.01465 -0.49917,0.05265c-0.62526,0.11596 -1.06234,0.13207 -1.06234,0.13207" fill="#424763" stroke="none" stroke-width="1"/><path d="M193.16961,181.81667c0,0.00331 0.03144,0.02234 0.09246,-0.00399c0.06102,-0.02088 0.14506,-0.06954 0.25212,-0.12657c0.21382,-0.12 0.51202,-0.30579 0.87343,-0.52054c0.09027,-0.0545 0.18453,-0.11119 0.28175,-0.17007c0.10672,-0.06034 0.1783,-0.11158 0.33509,-0.18068c0.22219,-0.09586 0.45572,-0.20044 0.70127,-0.29484c0.2456,-0.09582 0.49664,-0.20229 0.75645,-0.29664c0.2529,-0.10681 0.54122,-0.16496 0.8146,-0.24579c0.27844,-0.07022 0.55655,-0.14083 0.83061,-0.20998c0.14253,-0.03401 0.26058,-0.06511 0.4217,-0.09329c0.13489,-0.01825 0.26754,-0.03582 0.39835,-0.05338c0.13046,-0.01611 0.25835,-0.03732 0.38555,-0.04866c0.13046,-0.00623 0.25835,-0.01241 0.38224,-0.01864c0.24813,-0.01426 0.48419,-0.01937 0.69285,-0.0183c0.2109,-0.00292 0.40492,0.00219 0.57776,0.00657c0.17066,-0.00292 0.32049,0.00112 0.44477,0.00331c0.24774,0.00584 0.39246,0.01572 0.39246,0.01572c0,0 -0.13265,0.05085 -0.37129,0.12803c-0.23791,0.08049 -0.58214,0.17888 -0.99689,0.26409c-0.21012,0.04535 -0.42759,0.09693 -0.65888,0.14083c-0.22915,0.04136 -0.4729,0.09985 -0.73236,0.16058c-0.12788,0.02964 -0.25874,0.05927 -0.391,0.08964c-0.12282,0.03693 -0.24779,0.07426 -0.37348,0.11226c-0.2602,0.07246 -0.52477,0.14672 -0.78935,0.22058c-0.26604,0.0746 -0.53246,0.12292 -0.79592,0.21616c-0.26277,0.08599 -0.52589,0.15766 -0.77806,0.23411c-0.25178,0.07791 -0.4999,0.13971 -0.73343,0.2019c-0.07051,0.01319 -0.20574,0.07538 -0.30584,0.10754c-0.10818,0.03732 -0.21304,0.07353 -0.31358,0.10827c-0.40341,0.13903 -0.75061,0.23153 -1.0002,0.27728c-0.12423,0.02487 -0.22545,0.03144 -0.29528,0.02964c-0.07455,0.00146 -0.10268,-0.03474 -0.09791,-0.03513" fill="#424763" stroke="none" stroke-width="1"/></g><g><g><path d="M254.83446,181.00888c0,0 -1.62001,1.18881 -2.14074,2.62157c-0.52078,1.43241 -3.45962,9.28135 -3.45962,9.28135c0,0 0.09577,0.65986 0.25543,1.26667c0.1491,0.56662 -0.58175,1.70565 -1.29071,2.9859c-0.7093,1.2802 -1.222,3.10877 -1.24176,4.0843c-0.01937,0.97553 0.44803,1.61568 0.44803,1.61568c-0.02049,1.1946 0.10633,1.32959 0.14579,2.02716c0.01864,0.32589 -2.8168,0.25674 -3.11753,0.2202c-0.44326,-0.05377 0.36725,-0.48686 0.14871,-0.9748c-0.21815,-0.48759 -1.04,-0.95032 -0.43046,-1.95621c0.60954,-1.00589 1.07806,-1.54142 1.52424,-3.18741c0.44657,-1.64604 0.34973,-4.12274 0.19479,-4.36673c-0.15499,-0.2436 0.61577,-0.8764 0.87339,-2.0041c0.25762,-1.12769 1.08497,-7.25453 0.58467,-9.81502c0,0 2.04356,-1.09733 2.20726,-2.80444" fill="#b1b6cc" stroke="none" stroke-width="1"/><path d="M254.83446,181.00888c0,0 -1.62001,1.18881 -2.14074,2.62157c-0.52078,1.43241 -3.45962,9.28135 -3.45962,9.28135c0,0 0.09577,0.65986 0.25543,1.26667c0.1491,0.56662 -0.58175,1.70565 -1.29071,2.9859c-0.7093,1.2802 -1.222,3.10877 -1.24176,4.0843c-0.01937,0.97553 0.44803,1.61568 0.44803,1.61568c-0.02049,1.1946 0.10633,1.32959 0.14579,2.02716c0.01864,0.32589 -2.8168,0.25674 -3.11753,0.2202c-0.44326,-0.05377 0.36725,-0.48686 0.14871,-0.9748c-0.21815,-0.48759 -1.04,-0.95032 -0.43046,-1.95621c0.60954,-1.00589 1.07806,-1.54142 1.52424,-3.18741c0.44657,-1.64604 0.34973,-4.12274 0.19479,-4.36673c-0.15499,-0.2436 0.61577,-0.8764 0.87339,-2.0041c0.25762,-1.12769 1.08497,-7.25453 0.58467,-9.81502c0,0 2.04356,-1.09733 2.20726,-2.80444" fill="none" stroke="#424763" stroke-width="0.5625"/></g><path d="M247.381,205.0133c0.19586,0.12214 0.55402,0.26662 0.55402,0.26662c0.08516,0.45723 1.233,1.76015 1.233,1.76015h-5.17608l0.44146,-1.92838" fill="#424763" stroke="none" stroke-width="1"/><path d="M247.46504,183.54524c0.36725,-0.02929 4.95642,-0.5893 4.95642,-0.5893l-4.93744,2.34317z" fill="#313753" stroke="none" stroke-width="1"/><path d="M248.66232,185.89352c0,0 3.06678,-0.59256 3.41466,-0.59441c0.15168,-0.00034 -0.4345,1.16648 -0.4345,1.16648z" fill="#313753" stroke="none" stroke-width="1"/><path d="M251.27206,187.45961l-3.9168,1.20015c0,0 -0.17431,-0.90312 0.182,-1.09733c0.35596,-0.19426 3.95223,-0.68584 3.95223,-0.68584z" fill="#424763" stroke="none" stroke-width="1"/><path d="M247.21166,189.88283c0,0 2.70424,0.05703 3.12488,-0.12584l-0.46156,1.26891l-2.84021,0.5256z" fill="#424763" stroke="none" stroke-width="1"/><path d="M246.52002,193.43778c0,0 2.21933,0.11411 2.70244,-0.11411c0,0 0.30073,0.99416 0.19037,1.23451c0,0 -3.20123,0.76448 -3.31928,0.74287l-0.13664,-0.88005z" fill="#424763" stroke="none" stroke-width="1"/><path d="M246.08679,196.82782c0,0 1.8911,0.14745 2.29933,0.00112c0.10818,-0.04574 -0.66146,1.14672 -0.66146,1.14672c0,0 -1.55713,0.10642 -1.73178,0.08341c-0.17436,-0.02268 -0.06725,-0.81971 0.09392,-1.23125" fill="#424763" stroke="none" stroke-width="1"/><path d="M245.80168,199.24457c0,0 1.08059,0.09105 1.41679,-0.00185c0.14618,-0.05742 -0.22949,1.13358 -0.22949,1.13358c0,0 -1.05796,0.23995 -1.61563,0.04569c-0.2218,-0.0801 -0.01752,-0.29737 -0.01752,-0.29737l0.28939,-0.8819z" fill="#424763" stroke="none" stroke-width="1"/><path d="M244.59466,201.59032c0.04973,-0.01134 0.84891,0.37713 2.00955,0.03182c0.69178,-0.20589 0.44842,0.65149 0.44842,0.65149c0,0 -1.63134,0.57684 -2.74079,0.50292c-0.85879,-0.05703 0.28282,-1.18623 0.28282,-1.18623" fill="#424763" stroke="none" stroke-width="1"/></g><g><path d="M256.81067,161.14968c0,0 -1.71864,-0.66463 -1.9584,-1.3274c-0.23971,-0.66317 0.05153,-2.09704 3.2824,-3.84473c3.30356,-1.78682 16.6859,-3.98113 21.76879,-2.45256c5.61715,1.68954 3.99529,7.45721 3.99529,7.45721c-1.33601,-0.65913 -2.24595,0.16749 -2.24595,0.16749c1.57465,2.4332 1.52604,3.06746 2.29057,5.58625c0.82623,2.72215 0.86789,2.78906 2.23831,6.39238c1.37037,3.60332 0.45679,6.18134 -1.6675,7.25565c-2.12429,1.07465 -3.81447,-0.38847 -3.81447,-0.38847c0.1217,-0.3764 0.13377,-0.70745 0.07017,-1.05163c-0.05625,-0.30433 -0.171,-0.61854 -0.32122,-0.98322c-1.19387,-2.6658 -6.47156,-5.23691 -7.77983,-6.59467c-1.87285,-1.94302 -0.48823,-5.88761 -0.48823,-5.88761" fill="#d3d5df" stroke="none" stroke-width="1"/><path d="M271.8316,169.75171c-1.54434,0.84424 -7.21083,2.94196 -11.35415,9.15624c-5.72353,8.70013 -12.50384,8.27945 -20.5994,7.98392c-7.94134,-0.28973 -14.58137,-8.40018 -15.98098,-9.68554c-1.94122,-1.78317 -0.46409,-1.74516 -6.88961,0.05338c-8.61813,2.49943 -8.22237,-6.64513 -8.19166,-7.80358c0.03032,-1.1584 0.30404,-2.80405 1.33971,-4.26717c1.03562,-1.46312 6.57788,-6.00503 10.81109,-6.91949c4.23291,-0.91446 11.87639,1.46312 13.7036,2.07285c1.82716,0.60939 6.02971,0.51796 8.22237,0.64015c2.19261,0.1218 5.72528,-0.45723 8.7705,-0.67085c3.04522,-0.21324 5.29885,0.30506 7.12606,0c1.82716,-0.30467 10.33313,-1.98984 13.50584,-2.59081c3.70006,-0.70122 5.24771,0.23041 5.24771,0.23041" fill="#d3d5df" stroke="none" stroke-width="1"/><path d="M279.39947,159.95449c0,0 -1.00239,0.95173 -1.30682,0.92137c-0.30443,-0.03071 -0.48419,-1.87353 1.18769,-3.74629c1.62434,-1.81903 2.65198,-2.73607 2.65198,-2.73607c0,0 -0.43158,3.05466 -2.53286,5.56099" fill="#c0a1a7" stroke="none" stroke-width="1"/><path d="M276.58661,174.24155c0,0 1.24833,-3.55101 3.74138,-4.14537c0,0 -2.37539,2.8805 -2.14989,5.35355" fill="#424763" stroke="none" stroke-width="1"/><path d="M279.6129,172.48909c-0.03655,0.03148 1.08093,-1.92035 2.87782,-1.58492c1.79645,0.33509 2.29894,1.58492 2.29894,1.58492c0,0 -3.12118,-1.78317 -5.17676,0" fill="#424763" stroke="none" stroke-width="1"/><path d="M278.42881,175.66268c0,0 0.1944,-1.72682 1.07694,-2.51801c0.73085,-0.65514 2.43675,-0.5183 3.39602,-0.37163c0.39246,0.06034 0.74584,0.58487 0.10633,0.70667c-0.63952,0.12219 -1.93392,-0.25898 -2.68011,0.50297c-0.74589,0.76229 -1.01996,1.61563 -1.03494,1.88998c-0.01572,0.27436 2.22259,-1.84429 3.53232,-1.06696c0.38044,0.35076 -2.5694,0.50258 -2.98235,2.33183" fill="#424763" stroke="none" stroke-width="1"/><path d="M285.76431,172.69357c0,0 -0.80691,-1.24219 -1.50745,-1.82818c-0.70054,-0.58633 -1.81295,-1.82049 -2.05597,-2.62848c-0.24336,-0.80764 1.55314,1.4785 2.13198,2.05753c0.57888,0.57903 0.94721,0.88954 0.94721,0.88954" fill="#424763" stroke="none" stroke-width="1"/><path d="M284.93744,170.6757c-0.61319,-0.88409 -2.10054,-2.77738 -2.58804,-3.6768c-0.4875,-0.89913 -0.26968,-2.41967 -0.26968,-2.41967c0,0 0.38628,1.5403 0.6545,1.99646c0.45679,0.77728 1.36526,1.5637 1.36526,1.5637" fill="#424763" stroke="none" stroke-width="1"/><path d="M282.9625,170.21833c-0.73854,-0.12949 -1.81188,-1.4785 -1.90322,-1.64599c-0.09134,-0.16754 -0.71553,0.18287 -1.62911,0.36574c-0.91363,0.18292 -1.22604,-0.43927 -1.45081,-0.43927c-0.22472,0 -0.95523,0.60681 -1.39271,1.59772c-0.74034,1.67563 -0.51343,3.78804 -0.51343,3.78804l-0.58725,-0.39616c0,0.11338 -0.52477,-0.23664 -0.53241,-0.55708c-0.07679,-2.98731 1.93349,-4.63335 2.47582,-5.0752c0.54302,-0.44224 0.59966,-0.19825 0.99947,0c0.39942,0.19786 1.56443,0.27431 2.15826,0.20993c0.59387,-0.06399 0.79193,-0.13387 0.95932,0.43017c0.16735,0.5637 1.41606,1.7221 1.41606,1.7221" fill="#424763" stroke="none" stroke-width="1"/><path d="M281.47037,164.50303c0,0 -1.52716,-2.16434 -0.36798,-3.96877c0.08258,-0.12837 0.76745,1.09227 0.76745,1.09227c0,0 -0.96219,1.85631 -0.39947,2.87651" fill="#424763" stroke="none" stroke-width="1"/><path d="M280.89441,160.20505c-0.04564,0 -1.47962,0.95251 -2.13451,3.47495c-0.3384,1.30219 -0.24375,1.1127 -0.4111,0.89908c-0.1674,-0.21324 -0.62419,-1.58492 0.33509,-3.07879c0.95927,-1.49348 1.30205,-2.13689 1.30205,-2.13689" fill="#424763" stroke="none" stroke-width="1"/><path d="M271.60649,169.07511c0.31976,-0.36579 1.03017,-1.19134 1.65689,-2.05753c0.88292,-1.22098 1.68249,-4.45082 1.58346,-2.04215c-0.09869,2.40833 -2.52775,5.12094 -2.52775,5.12094c0,0 1.24687,-0.77582 2.284,-2.28614c1.53811,-2.2404 2.51237,-5.18201 2.51237,-4.35899c0,0.82302 -0.57849,2.91086 -1.20263,4.3133c-0.62458,1.402 -2.74006,4.08138 -2.78575,4.09676" fill="#424763" stroke="none" stroke-width="1"/><path d="M273.12708,171.8613c0,0 -1.72156,-1.56701 -1.41679,-2.77081" fill="#424763" stroke="none" stroke-width="1"/><path d="M276.48169,157.62942c0,0 -0.9348,0.70341 -0.85879,1.63319c0.0764,0.92949 0.04569,3.03013 -0.50248,3.9296c-0.41003,0.67304 -1.49168,1.70672 -1.49168,1.70672c0,0 0.66944,-1.52677 0.66944,-2.85125c0,-1.32448 -0.89275,-3.68853 0.76161,-4.57812c0.4111,-0.22127 1.26949,0.15985 1.4219,0.15985" fill="#424763" stroke="none" stroke-width="1"/><path d="M274.23765,157.45935c-0.04569,0.01538 -2.21675,2.4548 -2.4057,6.19014c-0.18891,3.73534 -0.85256,0.5183 -0.85256,0.5183c0,0 -0.73051,-2.81943 0.82224,-5.42601c0.94395,-1.58492 1.48005,-1.19134 1.48005,-1.19134z" fill="#424763" stroke="none" stroke-width="1"/><path d="M270.10863,158.11911c0,0 -0.28652,5.40849 -0.01241,7.72494c0.27406,2.31689 0.21304,2.39295 -0.1217,1.34132c-0.33509,-1.05159 -1.29436,-5.06021 -1.32473,-7.37672c-0.03071,-2.31646 0,-1.40643 0,-1.40643l1.45884,-0.28312" fill="#424763" stroke="none" stroke-width="1"/><path d="M267.67261,158.59264c0,0 0.20063,7.49521 2.67354,11.83742l-2.16118,1.15694c0,0 -1.72779,-3.41086 -2.27597,-7.70884c-0.54813,-4.29792 -0.25285,-4.81622 -0.25285,-4.81622z" fill="#424763" stroke="none" stroke-width="1"/><path d="M264.08174,159.29079c0,0 -0.25908,8.77546 2.45612,13.34959c-0.19041,0.25601 -1.43543,1.07611 -1.43543,1.07611c0,0 -2.80731,-6.47944 -2.15281,-14.20657c0.67533,-0.14667 0.78166,-0.32375 1.01008,-0.2473" fill="#424763" stroke="none" stroke-width="1"/><path d="M262.28758,176.40823c-0.40857,-0.95762 -1.1709,-3.89851 -1.40331,-6.67769c-0.33402,-3.9914 0.27338,-9.72831 0.27299,-8.12767c0.65484,6.71866 3.05797,12.86783 3.05797,12.86783" fill="#424763" stroke="none" stroke-width="1"/><path d="M260.0466,160.20505c0,0 -1.27903,9.70821 -0.80691,15.65218c0.12939,1.63066 -0.87922,-0.89363 -1.24468,-3.54551c-0.36545,-2.65193 -0.59747,-5.10192 -0.49115,-11.90326" fill="#424763" stroke="none" stroke-width="1"/><path d="M256.04624,183.7322c-0.25874,-0.83835 -0.46083,-2.25101 -0.70458,-6.27462c-0.24375,-4.02357 0.44146,-10.91235 0.35012,-9.0377c0.13703,8.83984 2.38702,13.43806 2.38702,13.43806" fill="#424763" stroke="none" stroke-width="1"/><path d="M255.90507,160.44885c0,0 -2.12867,6.14187 -3.51442,18.19472c0.07635,1.70964 -0.19221,-7.14008 0.13995,-9.77551c0.28871,-2.29383 1.07514,-7.91623 1.48623,-8.51064c0.19805,-0.30467 1.88823,0.09144 1.88823,0.09144" fill="#424763" stroke="none" stroke-width="1"/><path d="M253.43835,160.41848c-0.28978,0.25898 -1.82716,4.00824 -2.6951,8.74835c-0.86794,4.73982 -1.78152,10.95809 -1.78152,10.95809c-0.77655,-3.75179 -0.56278,-5.4044 -0.50248,-7.98611c0.09139,-3.91714 1.18769,-9.04028 2.05558,-10.68155c0.7309,-1.2294 0.72506,-1.12258 0.80579,-1.12876c0.08005,-0.00623 2.11772,-0.06808 2.11772,-0.06808c0,0 0.2891,-0.10092 0,0.15805" fill="#424763" stroke="none" stroke-width="1"/><path d="M249.5249,160.51887c0,0 -1.13835,1.80478 -2.24492,6.87998c-1.07621,4.9388 -0.95266,15.33977 -0.95266,15.40852c0,0.06842 -1.26847,-2.97013 -1.27908,-8.73303c-0.01202,-6.69852 1.9186,-11.86739 2.3984,-12.74637c0.47947,-0.87898 0.63587,-0.68545 0.63587,-0.68545l1.16828,-0.12365z" fill="#424763" stroke="none" stroke-width="1"/><path d="M246.30445,160.83698c0,0 -3.06055,7.45205 -4.27126,22.56466c-0.19256,2.40575 -1.73543,-5.8298 -0.59382,-12.64248c1.142,-6.81268 1.91855,-8.65877 2.30702,-9.30184c0.38847,-0.64268 1.07368,-0.50915 1.07368,-0.50915l1.37037,-0.11119z" fill="#424763" stroke="none" stroke-width="1"/><path d="M243.15398,160.99591c-0.04496,0.06842 -1.9657,1.73894 -3.31305,8.323c-1.34774,6.58406 -2.21568,14.72273 -2.21568,14.72273c0,0 -0.84487,-3.49763 -0.6165,-8.5959c0.22842,-5.09788 1.05066,-10.05897 2.9005,-13.76253c0.622,-1.24511 0.66438,-0.7729 0.66438,-0.7729l2.48682,0.08341z" fill="#424763" stroke="none" stroke-width="1"/><path d="M237.4433,160.78462c0,0 -5.55063,18.36479 -5.34523,21.33677c0.18453,2.66872 -1.22716,-3.03232 0.09134,-11.01917c1.34774,-8.16134 3.41831,-10.51585 3.41831,-10.51585" fill="#424763" stroke="none" stroke-width="1"/><path d="M232.54202,160.82248c-0.30219,0.54428 -1.45446,3.64464 -2.13417,6.21058c-1.80414,6.81268 -1.5074,13.46516 -1.5074,13.46516c0,0 -0.75353,-2.21738 -0.70789,-6.62981c0.04569,-4.41204 0.45207,-7.65614 2.43894,-12.96c0.59859,-1.38375 1.22166,-1.38375 1.22166,-1.38375l1.34117,0.38667l0.50905,0.15616c0,0 -0.85913,0.21071 -1.16137,0.75499" fill="#424763" stroke="none" stroke-width="1"/><path d="M228.6492,158.94004c-0.09134,0.02268 -4.49963,10.49313 -3.7914,17.07719c0,0 -1.08132,-6.71204 0.15971,-12.07075c1.09665,-4.73213 1.76541,-5.55 1.76541,-5.55l1.86628,0.34677z" fill="#424763" stroke="none" stroke-width="1"/><path d="M236.05775,186.20846l-1.72521,-0.67192l-0.20321,-0.0929c-0.31976,-5.69233 1.92843,-17.79345 1.47052,-12.63372c-0.48127,5.42085 0.42686,12.99217 0.44949,13.12934z" fill="#424763" stroke="none" stroke-width="1"/><path d="M239.16126,186.85469c-0.54818,-4.93802 0.54263,-12.43766 0.47397,-9.46568c-0.0691,3.00892 1.38682,9.6215 1.38682,9.6215" fill="#424763" stroke="none" stroke-width="1"/><path d="M244.66016,187.00905c0,0 -1.14273,0.18764 -1.14234,-0.00404c0.0073,-3.93763 1.051,-15.67407 0.82258,-11.51552c-0.22876,4.15895 0.70784,11.52102 0.70784,11.52102" fill="#424763" stroke="none" stroke-width="1"/><path d="M284.17155,158.86661c0,0 -1.89952,-0.26701 -3.13325,1.08599c-0.06506,0.0399 -0.62307,-0.58925 -0.62307,-0.58925c0,0 0.80068,-1.66249 3.38872,-2.40721c0,0 0.43596,1.00404 0.36759,1.91047" fill="#424763" stroke="none" stroke-width="1"/><path d="M276.48169,157.40042c0,0 0.77144,-2.61164 0.68229,-4.33666c-0.00808,-0.12949 1.86006,0.25713 1.86006,0.25713c0,0 -0.00915,2.25796 -1.97553,4.26279" fill="#424763" stroke="none" stroke-width="1"/><path d="M276.27128,153.03714l0.04822,0.24949c0.16224,1.72502 -0.84122,3.9771 -0.84122,3.9771h-0.97134c0.37236,-1.30434 0.11329,-4.22659 0.11329,-4.22659" fill="#424763" stroke="none" stroke-width="1"/><path d="M273.9757,153.03714c0,0 0.10161,2.85052 -0.26968,4.26683l-1.14127,0.09659c0,0 -0.03217,-3.36079 -0.33986,-4.26795c-0.06433,-0.14594 1.27864,-0.09547 1.27864,-0.09547z" fill="#424763" stroke="none" stroke-width="1"/><path d="M271.39126,153.17359c0,0 0.56604,1.90351 0.11329,4.41024l-0.793,0.14117c0,0 -0.30774,-3.32897 -0.97937,-4.39817c-0.14545,-0.30759 0.33178,-0.05669 0.33178,-0.05669z" fill="#424763" stroke="none" stroke-width="1"/><path d="M269.02016,153.4242c0,0 0.18638,3.76425 0.46448,4.47934c-0.01898,0.04024 -1.16867,0.25095 -1.16867,0.25095c0,0 -0.64755,-0.48579 -1.30278,-4.40625c-0.0201,-0.17849 0.29017,-0.162 0.29017,-0.162z" fill="#424763" stroke="none" stroke-width="1"/><path d="M265.8747,153.81228c0,0 0.49115,3.65378 0.75791,4.64211l-1.10837,0.24287c0,0 -1.18983,-1.84682 -1.38901,-4.55943l0.24628,-0.04973z" fill="#424763" stroke="none" stroke-width="1"/><path d="M262.98296,154.50153c0,0 0.07893,1.13538 0.18599,1.66429c0.09285,0.45942 0.30774,1.35704 0.54234,1.78648c0.21192,0.38774 0.50394,0.95577 0.50394,0.95577l-1.42633,0.33616c0,0 -0.93918,-1.23524 -1.44093,-3.09816c-0.22399,-0.83397 -0.31538,-1.1584 -0.31538,-1.1584l1.93354,-0.59407z" fill="#424763" stroke="none" stroke-width="1"/><path d="M260.4902,155.44937c0,0 0.95489,2.54327 0.92273,4.0825l-1.04404,0.20229c0,0 -0.65523,-2.17899 -1.73986,-3.94459c-0.06983,-0.08929 0.21012,-0.08929 0.21012,-0.08929l1.53777,-0.53441z" fill="#424763" stroke="none" stroke-width="1"/><path d="M258.01384,156.25487c0,0 1.09227,1.43825 1.19752,3.59267c0,0 -0.50175,0.23484 -0.78458,0.23484c0,0 -0.96331,-2.3132 -1.70769,-3.02351l-0.19479,-0.14414l1.37222,-0.82156z" fill="#424763" stroke="none" stroke-width="1"/><path d="M255.96181,157.45935c0.02521,-0.00326 0.37387,1.43241 0.95163,2.67169h-0.7528c0,0 -0.76891,-1.12589 -1.08429,-1.34463c-0.31538,-0.21874 0.56973,-1.28643 0.88545,-1.32706" fill="#424763" stroke="none" stroke-width="1"/><path d="M281.03942,157.48115c-0.01168,0.03401 0.29129,-0.72536 0.29129,-0.72536l0.34823,-1.07246c0,0 0.23392,-1.11674 0.42248,-1.05382c0.18857,0.06292 1.01884,1.05382 1.01884,1.05382" fill="#424763" stroke="none" stroke-width="1"/><path d="M281.79836,154.30669l-2.21636,1.64599c0.85295,-1.05163 0.63183,-2.27076 0.63183,-2.27076" fill="#424763" stroke="none" stroke-width="1"/><path d="M282.84473,155.24503c0.03436,0.00438 0.94648,-0.88847 0.94648,-0.88847l-0.33144,1.82672z" fill="#d3d5df" stroke="none" stroke-width="1"/><path d="M282.78551,155.17073c0.74584,-0.64044 1.07548,-0.86394 1.07548,-0.86394c0,0 -0.20866,0.87786 -0.40127,1.87645" fill="none" stroke="#424763" stroke-width="0.5625"/><path d="M280.58711,179.9953c0,0 0.3563,-1.02818 0.32891,-1.33324c-0.02701,-0.30472 0.16701,-1.07981 0.44107,-1.14088c0.27411,-0.06073 1.78813,0.36321 2.19558,-1.01577c0.16954,-0.57358 0.47616,-1.70711 0.56754,-2.31942c0.09134,-0.6127 0.17611,-0.86472 0.55947,-1.2839c0.38336,-0.41917 1.18915,-0.24399 1.2783,-0.06219c1.69456,3.4442 0.28579,6.07194 -0.63076,6.91141c-1.57285,1.44049 -3.0167,1.24988 -4.74012,0.24399" fill="#c0a1a7" stroke="none" stroke-width="1"/><path d="M280.04901,159.26262c2.10127,2.35456 3.34746,4.66119 3.78157,7.47331c0.43377,2.81174 0.86794,2.78906 2.23831,6.39238c1.37042,3.60332 0.45679,6.18134 -1.6675,7.25565c-2.12429,1.07465 -3.81442,-0.38847 -3.81442,-0.38847c0.12165,-0.3764 0.13338,-0.70745 0.06978,-1.05163c-0.05591,-0.30433 -0.171,-0.61854 -0.32083,-0.98322c-1.19426,-2.6658 -6.47156,-5.23691 -7.77983,-6.59467c-1.87285,-1.94302 -0.48823,-5.88761 -0.48823,-5.88761" fill="none" stroke="#424763" stroke-width="0.5625"/><path d="M280.69397,179.37807c0.4111,-0.59441 0.07601,-1.16575 0.35007,-1.64604c0.27406,-0.4799 0.81051,0.0344 1.63276,-0.26297c0.82224,-0.29703 0.99363,-1.24589 1.26774,-2.36629c0.27406,-1.12 0.16005,-1.64599 0.59382,-2.08015c0.611,-0.61158 1.41971,-0.18292 1.41971,-0.18292" fill="none" stroke="#424763" stroke-width="0.5"/><path d="M284.69832,179.37807c0,0 0.29674,-0.49163 0,-1.09738c-0.15567,-0.35664 -0.23971,-0.68584 0,-0.85738c0.23971,-0.17119 0.8109,0.32005 0.57081,1.09733c-0.25105,0.66317 -0.57081,0.85742 -0.57081,0.85742z" fill="none" stroke="#424763" stroke-width="0.5"/><path d="M281.85476,167.25009c0,0 -0.18273,-0.23995 -1.27903,-0.20555c-1.09631,0.03401 -1.69378,-0.15144 -1.73436,-0.89363c-0.03582,-0.66098 -0.41256,-0.94701 -0.41256,-0.94701c0,0 0.71772,0.09144 2.05558,0.21728c1.42594,0.13426 1.37037,1.82891 1.37037,1.82891" fill="#edeef4" stroke="none" stroke-width="1"/><path d="M280.57572,167.04454c-1.09631,0.03401 -1.69378,-0.15144 -1.73436,-0.89363c-0.03582,-0.66098 -0.41256,-0.94701 -0.41256,-0.94701c0,0 0.71772,0.09144 2.05558,0.21728c1.42594,0.13426 1.37037,1.82891 1.37037,1.82891c0,0 -0.18273,-0.23995 -1.27903,-0.20555z" fill="none" stroke="#424763" stroke-width="0.5"/><path d="M280.14176,165.47836c0,0 0.0892,-0.10131 0.43085,-0.04097c1.2984,0.24472 1.33932,1.97266 1.28195,1.8128c-0.05698,-0.1602 -1.16059,-0.14044 -1.16059,-0.14044c0,0 -0.34681,0.00584 -0.55222,-0.12253c-0.20535,-0.12842 -0.43377,-0.32005 -0.44545,-0.82302c-0.01134,-0.50297 0.44545,-0.68584 0.44545,-0.68584" fill="#424763" stroke="none" stroke-width="1"/><path d="M276.94773,160.98238c0,0 -0.97426,-1.03626 -0.10633,-2.34687c0.86789,-1.31095 5.23817,-4.45048 5.23817,-4.45048c0,0 -0.73085,2.62118 -1.18764,3.56639c-0.45684,0.94482 -1.03567,1.82891 -1.26409,2.14896" fill="none" stroke="#424763" stroke-width="0.5625"/><path d="M278.02905,160.75377c0,0 -1.4767,-1.50886 4.05053,-6.56874" fill="#c0a1a7" stroke="none" stroke-width="1"/><path d="M271.7188,169.75171c-1.54468,0.84424 -7.21083,2.94196 -11.3545,9.15624c-5.72314,8.70013 -12.50384,8.27945 -20.5994,7.98392c-7.941,-0.28973 -14.58137,-8.40018 -15.98064,-9.68554c-1.94118,-1.78317 -0.46443,-1.74516 -6.88956,0.05338c-4.96926,1.10614 -8.22237,-6.64513 -8.19205,-7.80358c0.03032,-1.1584 0.30443,-2.80405 1.34005,-4.26717c1.03528,-1.46312 6.57788,-6.00503 10.81075,-6.91949c4.23291,-0.91446 11.87639,1.46312 13.7036,2.07285c1.82716,0.60939 6.02971,0.51796 8.22237,0.64015c2.19261,0.1218 5.72567,-0.45723 8.7705,-0.67085c3.04556,-0.21324 5.29885,0.30506 7.12606,0c1.82716,-0.30467 10.33347,-1.98984 13.50623,-2.59081c3.70006,-0.70122 5.24732,0.23041 5.24732,0.23041" fill="none" stroke="#424763" stroke-width="0.5625"/><path d="M255.23539,160.32763c0,0 -1.18511,-0.67635 0.32813,-2.5239c2.69806,-3.29388 12.43333,-4.33194 14.60332,-4.58328c2.16959,-0.25163 10.16904,-0.93309 12.5217,1.83334c2.35237,2.766 1.21037,5.92859 1.21037,5.92859c-1.21037,-0.76195 -2.34322,0.17518 -2.34322,0.17518" fill="none" stroke="#424763" stroke-width="0.5625"/></g><g><path d="M226.70248,176.01742c0,0 0.47728,5.67073 -2.98673,10.08169c-3.87398,4.92304 -10.41094,5.15165 -10.41094,5.15165c0,0 -0.95382,-0.27801 0.23022,3.06157c1.18399,3.33962 2.64614,7.27798 2.64614,7.27798c0,0 0.57703,1.33509 1.90064,2.12775c0.63149,0.39616 -2.84823,1.79816 -2.84823,1.79816c0,0 -3.63831,-11.09522 -6.63307,-16.39904c-0.71115,-1.26599 -0.50613,-1.0765 0.11839,-1.34901c0.68886,-0.30034 5.16985,-2.9566 2.7642,-8.23263c-2.80473,-6.15136 -2.64541,-9.26125 -2.6787,-9.35269" fill="#d3d5df" stroke="none" stroke-width="1"/><path d="M226.15951,171.42227c0,0 2.26093,9.02271 -2.44371,14.67699c-3.87437,4.92304 -10.41099,5.15165 -10.41099,5.15165c0,0 -0.95412,-0.27801 0.23027,3.06157c1.18399,3.33962 2.64614,7.27759 2.64614,7.27759c0,0 0.88798,1.65519 1.90064,2.12775c0.51781,0.14487 -2.84823,1.79855 -2.84823,1.79855c0,0 -3.63831,-11.09561 -6.63307,-16.39943c-0.71154,-1.26594 -0.50613,-1.0765 0.11839,-1.34862c0.68886,-0.30034 5.41248,-2.19728 2.60264,-8.61784c-2.8113,-6.42382 -2.58619,-9.77697 -2.61947,-9.86841" fill="none" stroke="#424763" stroke-width="0.5625"/><path d="M215.85641,206.99452c0,0 0.63733,-0.54355 0,-1.74259c0.14399,-0.0636 2.19519,-1.21913 2.19519,-1.21913l1.7585,0.79008l1.19387,2.17164z" fill="#424763" stroke="none" stroke-width="1"/><path d="M215.81928,176.22317c0,0 4.90858,6.89059 8.79648,8.62441c0.14798,0.06584 -0.9001,1.25168 -0.9001,1.25168c0,0 -2.83033,-1.88998 -7.89638,-9.8761" fill="#424763" stroke="none" stroke-width="1"/><path d="M208.99906,172.43211c0,0 6.54572,8.46456 9.57634,11.09853c2.31539,2.01256 -4.13384,-2.40794 -8.74276,-8.38222" fill="#424763" stroke="none" stroke-width="1"/><path d="M210.8288,177.98045c0,0 7.42275,8.101 10.89444,10.11279l-1.29621,0.93236c0,0 -6.39886,-4.59311 -8.68976,-8.7996c-0.26788,-1.00701 -0.90847,-2.24556 -0.90847,-2.24556" fill="#424763" stroke="none" stroke-width="1"/><path d="M212.17561,183.24285c0,0 3.78517,5.64474 6.17628,6.80684l-1.28672,0.46891c0,0 -3.1512,-1.38555 -5.13987,-5.93258c0.03728,-0.39723 0.25032,-1.34317 0.25032,-1.34317" fill="#424763" stroke="none" stroke-width="1"/><path d="M211.48578,185.51936c0,0 2.89899,4.72552 3.89043,5.44245l-1.16429,0.20044c0,0 -2.66731,-1.92074 -3.7333,-4.4662c-0.07674,-0.18326 1.00716,-1.1767 1.00716,-1.1767" fill="#424763" stroke="none" stroke-width="1"/><path d="M209.37701,187.50773c0.11256,-0.02049 3.28308,3.5294 3.71213,3.80921c0,0 -0.33548,0.68477 -0.0892,1.11125c0.24667,0.42691 -4.39948,-3.3114 -4.39948,-3.3114c0,0 -0.51674,-0.78205 -0.44657,-1.00589c0.0782,-0.24837 0.6691,-0.50331 1.22312,-0.60317" fill="#424763" stroke="none" stroke-width="1"/><path d="M214.03051,195.7009c0,0 -2.3823,-0.21324 -2.46269,-0.18253c-0.08044,0.03037 -0.73893,-1.76818 -0.73893,-1.76818l2.70604,0.56219z" fill="#424763" stroke="none" stroke-width="1"/><path d="M215.21403,198.96271l-2.34831,-0.12107l-0.68995,-1.79745l2.42943,0.21142z" fill="#424763" stroke="none" stroke-width="1"/><path d="M215.98736,201.06594c0.23027,0.88409 1.0967,1.71626 0.97353,1.79855c-0.52623,0.35046 -2.3585,0.85339 -2.3585,0.85339l-0.87158,-2.53008l2.25655,-0.12185" fill="#424763" stroke="none" stroke-width="1"/></g><path d="M225.18505,158.18274c-0.04568,0.0406 -5.03245,7.98135 -5.48925,16.62293c-0.36544,3.86375 -1.43873,-9.58676 3.28894,-16.74254c1.43617,-0.11303 2.2003,0.11961 2.2003,0.11961" fill="#424763" stroke="none" stroke-width="1"/><path d="M218.27173,159.16845c0,0 -2.64139,11.79645 -0.8142,15.95721c0,0 -3.26154,-9.66175 -1.16027,-14.92095c1.02323,-0.83032 1.97446,-1.03626 1.97446,-1.03626" fill="#424763" stroke="none" stroke-width="1"/><path d="M213.72765,161.89626c0,0 -1.40876,6.14257 0.06212,12.06347c0.69945,2.81615 -2.07605,-3.36153 -2.25183,-6.55809c-0.13704,-2.49207 0.03801,-3.78511 0.03801,-3.78511c0,0 1.2498,-1.2111 2.1517,-1.72027" fill="#424763" stroke="none" stroke-width="1"/><g><path d="M255.38687,181.00888c0,0 -1.18764,1.18881 -1.18764,2.62157c0,1.43241 -0.08409,9.28135 -0.08409,9.28135c0,0 0.33548,0.65986 0.71592,1.26667c0.35484,0.56662 0.03835,1.70565 -0.2054,2.9859c-0.24375,1.2802 -0.091,3.10877 0.24375,4.0843c0.33475,0.97553 1.03567,1.61568 1.03567,1.61568c0.41402,1.1946 0.58944,1.32959 0.88287,2.02716c0.13708,0.32589 -2.72322,0.25674 -3.03787,0.2202c-0.46229,-0.05377 0.19041,-0.48686 -0.20535,-0.9748c-0.39577,-0.48759 -1.38614,-0.95032 -1.142,-1.95621c0.24336,-1.00589 0.51747,-1.54142 0.3654,-3.18741c-0.15202,-1.64604 -1.15003,-4.12274 -1.39339,-4.36673c-0.24341,-0.2436 0.29708,-0.8764 0.14506,-2.0041c-0.15275,-1.12769 -1.55349,-7.25453 -2.98488,-9.81502c0,0 1.64448,-1.09733 1.18764,-2.80444" fill="#d3d5df" stroke="none" stroke-width="1"/><path d="M255.38687,181.00888c0,0 -1.18764,1.18881 -1.18764,2.62157c0,1.43241 -0.08409,9.28135 -0.08409,9.28135c0,0 0.33548,0.65986 0.71592,1.26667c0.35484,0.56662 0.03835,1.70565 -0.2054,2.9859c-0.24375,1.2802 -0.091,3.10877 0.24375,4.0843c0.33475,0.97553 1.03567,1.61568 1.03567,1.61568c0.41402,1.1946 0.58944,1.32959 0.88287,2.02716c0.13708,0.32589 -2.72322,0.25674 -3.03787,0.2202c-0.46229,-0.05377 0.19041,-0.48686 -0.20535,-0.9748c-0.39577,-0.48759 -1.38614,-0.95032 -1.142,-1.95621c0.24336,-1.00589 0.51747,-1.54142 0.3654,-3.18741c-0.15202,-1.64604 -1.15003,-4.12274 -1.39339,-4.36673c-0.24341,-0.2436 0.29708,-0.8764 0.14506,-2.0041c-0.15275,-1.12769 -1.55349,-7.25453 -2.98488,-9.81502c0,0 1.64448,-1.09733 1.18764,-2.80444" fill="none" stroke="#424763" stroke-width="0.5625"/><path d="M256.66245,205.0133c0.2401,0.12214 0.65085,0.26662 0.65085,0.26662c0.25139,0.45723 1.87285,1.76015 1.87285,1.76015h-5.73262l0.29674,-1.92838" fill="#313753" stroke="none" stroke-width="1"/><path d="M248.93998,183.54524c0.35664,-0.02929 4.74192,-0.5893 4.74192,-0.5893l-4.08522,2.34317z" fill="#424763" stroke="none" stroke-width="1"/><path d="M250.99094,185.89352c0,0 2.85115,-0.59256 3.19831,-0.59441c0.15168,-0.00034 -0.00983,1.16648 -0.00983,1.16648z" fill="#424763" stroke="none" stroke-width="1"/><path d="M254.16983,187.45961l-3.48006,1.20015c0,0 -0.50248,-0.90312 -0.21708,-1.09733c0.2854,-0.19426 3.70298,-0.68584 3.70298,-0.68584z" fill="#424763" stroke="none" stroke-width="1"/><path d="M250.99094,189.88283c0,0 2.72507,0.05703 3.07918,-0.12584v1.26891l-2.6494,0.5256z" fill="#424763" stroke="none" stroke-width="1"/><path d="M251.59192,193.43778c0,0 2.26098,0.11411 2.66074,-0.11411c0,0 0.66253,0.99416 0.63952,1.23451c0,0 -2.92351,0.76448 -3.04921,0.74287l-0.45645,-0.88005z" fill="#424763" stroke="none" stroke-width="1"/><path d="M252.39129,196.82782c0,0 1.94487,0.14745 2.30011,0.00112c0.09134,-0.04574 -0.24448,1.14672 -0.24448,1.14672c0,0 -1.51879,0.10642 -1.70151,0.08341c-0.18268,-0.02268 -0.3654,-0.81971 -0.35411,-1.23125" fill="#424763" stroke="none" stroke-width="1"/><path d="M252.98516,199.24457c0,0 1.11382,0.09105 1.41606,-0.00185c0.12569,-0.05742 0.18273,1.13358 0.18273,1.13358c0,0 -0.97061,0.23995 -1.59879,0.04569c-0.25105,-0.0801 -0.12574,-0.29737 -0.12574,-0.29737l-0.03139,-0.8819z" fill="#424763" stroke="none" stroke-width="1"/><path d="M252.63109,201.59032c0.04569,-0.01134 0.98599,0.37713 2.02127,0.03182c0.61684,-0.20589 0.68516,0.65149 0.68516,0.65149c0,0 -1.42151,0.57684 -2.55806,0.50292c-0.87922,-0.05703 -0.14837,-1.18623 -0.14837,-1.18623" fill="#424763" stroke="none" stroke-width="1"/></g></g></g></svg>