<svg version="1.1" xmlns="http://www.w3.org/2000/svg" xmlns:xlink="http://www.w3.org/1999/xlink" width="94.75849" height="51.81617" viewBox="0,0,94.75849,51.81617"><g transform="translate(-192.62075,-154.09192)"><g data-paper-data="{&quot;isPaintingLayer&quot;:true}" fill-rule="nonzero" stroke="none" stroke-width="1.3401" stroke-linecap="butt" stroke-linejoin="miter" stroke-miterlimit="10" stroke-dasharray="" stroke-dashoffset="0" style="mix-blend-mode: normal"><g><path d="M256.36656,164.78053c-0.07915,2.32619 -1.11963,4.54338 -3.03132,7.42226c-1.91295,2.87947 -4.67896,3.75261 -6.56209,3.27257c-1.88313,-0.4813 -3.26807,-2.07903 -3.66766,-2.79645c-0.40022,-0.72003 2.64015,-5.96466 2.64015,-5.96466c0,0 0.50599,-2.58695 0.15505,-3.67022c-0.35094,-1.08332 0,-4.29301 0,-4.29301c0.4599,-0.05382 1.119,-4.28716 4.98449,-4.23265c3.8668,0.05445 4.71076,4.23265 4.71076,4.23265c0,0 0.85039,3.70203 0.77062,6.02952z" fill="#8395d4"/><path d="M256.01368,158.77632c-0.37103,0.47094 -0.88805,-0.7713 -1.02427,-1.1722c-0.4314,-1.27205 -1.69178,-2.51299 -3.33294,-2.74911c-1.60029,-0.23094 -3.01379,0.39117 -3.91094,1.46409c-2.56357,3.06569 -1.07678,6.54844 -1.6243,9.97547c-0.31914,1.99795 -1.69242,3.42113 -2.26128,5.24912c-0.2063,0.66166 0.06225,1.71579 0.61882,2.22889c1.12548,1.04048 3.44645,1.51404 5.03184,1.10603c1.87538,-0.48072 3.19802,-2.3593 4.03418,-3.72609c0.51828,1.4894 -0.92697,2.95542 -2.21979,3.83374c-2.9379,1.99926 -9.32224,1.20849 -8.87013,-2.67321c0.21667,-1.86367 2.3593,-3.6709 2.8497,-5.72074c0.62337,-2.60709 -0.55788,-5.21606 0.13684,-7.78748c0.50792,-1.88182 1.82799,-4.47982 4.49734,-4.68869c3.61253,-0.28215 5.30881,1.93827 6.07493,4.66018z" fill="#272525"/></g><g><path d="M209.24941,185.59033c0.79008,-0.26337 2.00376,-0.48914 2.95537,0.13684c1.119,0.73693 2.10372,1.62692 1.86304,3.05078c-0.26594,-0.02401 -0.52477,0.23288 -0.52477,0.23288c-2.06736,4.74382 -4.44414,5.51444 -4.44482,5.51512c-0.11283,0.00324 -0.21599,0.01621 -0.29707,0.04797c-1.55813,0.59293 -4.40265,-3.32645 -4.45972,-4.85345c-0.02919,-0.75827 0.0454,-1.65673 0.86859,-2.19254c1.09562,-0.71549 5.73502,-1.13454 4.03937,-1.93759z" fill="#8395d4"/><path d="M207.64974,194.38712c-0.44045,-0.23743 -0.89971,-0.62468 -1.33367,-1.09499c0.55783,-0.20824 1.418,-0.91269 1.97002,-0.36454c0.48522,0.4813 -0.21018,1.02233 -0.63635,1.45953z" fill="#b7cbe7"/><path d="M214.51606,189.29236c0,0 -2.4384,5.42232 -4.58423,6.23839l-0.00068,-0.00068c-0.03113,0.01946 -0.06423,0.03243 -0.09599,0.04996c-1.40115,0.77193 -3.26676,-0.53841 -4.12887,-1.61389c-0.86666,-1.08008 -1.79949,-2.57722 -2.18736,-3.98748c-0.31333,-1.1404 -0.27117,-2.22366 0.4586,-2.98068c0.97886,-1.01328 1.58994,-0.75964 2.95736,-1.1508c1.13521,-0.32432 0.95292,-0.70188 1.59773,-0.51567c0.31134,0.09013 0.54553,0.17576 0.71742,0.25684c1.69502,0.80373 -2.94438,1.22215 -4.04,1.93827c-0.82319,0.53585 -0.89778,1.43426 -0.86859,2.19259c0.00324,0.07978 0.0169,0.16734 0.03437,0.25946c0.14275,0.74211 0.74341,1.84353 1.49719,2.79064c0.12649,-0.0986 0.33148,-0.23288 0.66945,-0.45216c1.60286,-1.03593 3.15126,0.57279 2.35731,1.708c-0.14793,0.21212 -0.29905,0.42166 -0.45085,0.60391c0.12261,0.00068 0.24131,-0.01361 0.35225,-0.05514c0.08171,-0.03176 0.18486,-0.04472 0.29707,-0.04797c0,0 0.28477,-0.0973 0.73693,-0.40869c0.86405,-0.59612 2.35083,-1.99209 3.70789,-5.10643c0,0 0.25883,-0.25689 0.52477,-0.23288c0.16734,0.0136 0.33796,0.13883 0.44824,0.51441zM208.28609,192.92759c-0.55202,-0.54752 -1.41219,0.15698 -1.97002,0.36454c0.43396,0.46964 0.89323,0.85756 1.33367,1.09499c0.42616,-0.4372 1.12157,-0.97823 0.63635,-1.45953z" fill="#272525"/></g><g><path d="M239.27181,191.7431c0.10765,-1.23251 1.479,-0.96913 2.04142,-0.97561c0.81215,-0.00973 1.63466,0.1881 2.40528,0.50075c-0.20819,0.07265 -0.30229,0.14662 -0.14725,0.19459c2.55645,0.79075 3.30829,3.30312 3.52757,3.47176c1.24742,0.95229 3.45879,0.06617 3.93166,1.64444c0.14918,0.504 -0.16216,1.02103 -0.48652,1.39075c-1.48224,1.69179 -4.3572,2.93789 -6.69442,2.06025c-1.43939,-0.53711 -3.62288,-5.47557 -4.14247,-7.8186c-0.07009,-0.31851 -0.27049,-0.4541 -0.43527,-0.46833z" fill="#8395d4"/><path d="M250.17681,198.34991c-0.52283,-0.42553 -1.47638,-0.9581 -0.98017,-1.48224c0.57022,-0.60067 1.29606,-0.2854 1.86953,-0.02658c0.00324,0.41513 -0.25296,0.82189 -0.52152,1.12868c-0.11419,0.12977 -0.23874,0.25689 -0.36784,0.38013z" fill="#b7cbe7"/><path d="M245.96101,200.29403c-0.32301,-0.71616 -0.84391,-1.64314 -0.06612,-1.91425c1.18837,-0.41387 1.7962,0.74661 2.29565,1.30773c-0.70445,0.325 -1.46602,0.54229 -2.22953,0.60653z" fill="#b7cbe7"/><path d="M242.43024,200.48408c-1.66778,-1.89024 -3.35433,-5.68763 -3.39199,-8.57102c-0.00126,-0.12068 0.10509,-0.18292 0.23356,-0.17126c0.16347,0.01554 0.36392,0.15112 0.43396,0.46769c0.36522,1.64764 1.55228,4.57063 2.7251,6.35254c0.49625,0.75314 0.99058,1.30778 1.41805,1.46732c0.34639,0.1291 0.70382,0.20824 1.06706,0.2504c-0.14202,-0.35027 -0.24517,-0.74274 -0.31265,-1.07291c-0.29905,-1.4485 2.33785,-2.39105 3.6132,-0.69995c0.29513,0.39184 0.50207,0.65261 0.62855,0.84265c0.26725,-0.15698 0.52152,-0.32693 0.75895,-0.50923c-0.36522,-0.2108 -0.74012,-0.5877 -1.00742,-0.89841c-0.78166,-0.90427 0.57022,-2.43384 2.10953,-1.91556c-0.79395,-0.79593 -2.54542,-0.28284 -3.60667,-1.09175c-0.03955,-0.0305 -0.0973,-0.13945 -0.17968,-0.29968c-0.37171,-0.72458 -1.2539,-2.52465 -3.34658,-3.17208c-0.15568,-0.04797 -0.06032,-0.12324 0.14662,-0.19459c0.36778,-0.12779 1.0963,-0.24779 1.43296,-0.20369c1.86498,0.59418 2.76664,2.75172 2.91519,2.88213c0.54036,0.46377 1.96808,0.38076 2.98654,0.68823c0.43265,0.1304 0.79396,0.33017 0.97886,0.67463c0.70315,1.30773 -0.43333,3.31803 -1.36161,4.26382c-1.61458,1.65025 -4.24306,2.56164 -6.64055,2.06083c-0.48977,-0.10184 -1.04378,-0.52022 -1.60098,-1.15012zM250.17619,198.34928c0.12973,-0.12324 0.25365,-0.2504 0.36778,-0.38013c0.26855,-0.30616 0.52482,-0.71292 0.52158,-1.12873c-0.57347,-0.25883 -1.29936,-0.57409 -1.86953,0.02662c-0.49558,0.52414 0.45734,1.0567 0.98017,1.48224zM245.96038,200.29466c0.76414,-0.06486 1.52571,-0.28216 2.23016,-0.60716c-0.49882,-0.56175 -1.10728,-1.72223 -2.29565,-1.30773c-0.77846,0.27112 -0.25689,1.19809 0.06549,1.91488z" fill="#272525"/></g><g><path d="M285.90766,171.85964c-0.39247,0.93278 -1.97138,1.57629 -2.86785,2.00052c0,0 -0.04802,0.03374 -0.10446,0.12c-0.08558,0.1304 -0.19004,0.38855 -0.17446,0.84201c-0.01365,0.0045 -0.02401,0.00649 -0.03766,0.01167c-0.01747,3.85513 -0.21535,7.8705 -3.68905,10.59821c-6.18065,4.85278 -19.17964,1.55746 -23.00428,-4.65107c-3.10847,1.34733 -0.58639,6.01007 1.2299,7.41965c-1.21175,1.13584 -3.89275,1.86043 -6.74371,-0.50013c-1.6626,1.33305 -3.81104,2.57979 -5.82777,3.38676c-1.8825,0.75121 -4.64652,1.13846 -5.67278,1.20463c0,0 -19.51306,1.5925 -29.78821,-7.07974c-2.6142,-2.20619 -2.94825,-2.7751 -4.2054,-5.13242c-2.96708,-5.56178 -1.18774,-10.53397 -0.1064,-13.20457c0.00194,-0.00261 2.03363,-3.16042 3.80581,-4.44612c5.46908,-3.94464 9.72705,-7.10438 18.32208,-6.02754c9.36831,1.17345 14.59542,5.44503 14.59542,5.44503c0.65841,-0.65904 2.78024,-1.93759 3.18569,-2.17957c4.57648,-1.84745 6.68014,-1.33953 9.63556,-0.98273c3.88432,0.47026 7.28861,3.44645 8.91224,6.76123c1.48615,3.03456 1.93502,8.93107 3.50487,12.4599c-0.94318,-0.20108 -2.7874,-0.69341 -2.71411,0.02725c0.08108,0.79986 1.49327,0.29256 2.7433,0.03567c0.09405,0.20762 0.19328,0.40675 0.29581,0.59679c-1.0003,0.12586 -2.61551,0.3049 -2.29569,0.90557c0.35936,0.67526 1.37066,-0.11937 2.3774,-0.76413c0.25365,0.4495 0.53193,0.84846 0.84589,1.16503c1.18386,1.1903 3.15712,1.81628 5.12201,1.94669c-0.50144,0.77778 -0.94512,2.05695 -0.53711,2.06867c0.4236,0.01166 0.90165,-1.11381 0.95553,-2.04596c0.10509,0.00324 0.20563,-0.00261 0.30941,-0.00261c-0.32045,0.99576 -0.47549,2.25484 0.22833,2.1407c0.59287,-0.09473 0.56437,-1.26887 0.2731,-2.14458c0.92697,-0.0363 1.81241,-0.17968 2.56812,-0.43332c0.85368,-0.28671 1.51729,-0.81346 2.02976,-1.46795c0.38207,0.51504 1.04566,1.09431 1.17021,0.86985c0.1304,-0.22959 -0.4067,-0.79787 -0.9808,-1.12737c0.07198,-0.10253 0.13558,-0.21017 0.20045,-0.31788c0.70445,0.36977 1.80786,0.73238 1.80917,0.21797c0.00261,-0.4236 -1.0022,-0.53324 -1.69503,-0.41193c0.57279,-1.03854 0.86665,-2.24898 0.96526,-3.32708c0.20432,-2.1893 -1.83255,-2.20812 -2.9606,-3.53144c-0.6558,-0.76806 -0.91724,-2.28335 -0.44238,-3.17988c0.32045,-0.60129 1.55876,-1.56656 2.3333,-1.35377c1.44719,0.39891 1.4485,3.88626 1.4485,3.88626c1.6911,-3.45618 5.97894,-2.17114 4.98062,0.20175z" fill="#8395d4"/><path d="M285.69032,173.86209c-0.44108,0.24454 -1.02882,0.50211 -1.6003,0.62923l-0.12063,0.89517c0.06419,0.42945 0.01098,0.999 0.0499,1.50886c0.6422,3.60473 -1.33237,8.28437 -4.60044,10.39258c-4.90535,3.16429 -13.43164,2.10691 -18.24879,-0.70643c-1.89156,-1.10534 -3.68713,-2.47407 -5.09215,-4.07568c-0.95166,1.82669 1.48287,4.81454 3.2019,5.75381c-0.83877,2.33336 -5.22971,3.15978 -8.60287,1.35512c-3.14933,2.62006 -7.31456,3.74356 -11.44081,4.0932c-21.53957,1.61651 -31.5935,-8.31611 -31.5935,-8.31611l0.00774,-0.00392c-5.28611,-3.87261 -6.87861,-12.22378 -4.66206,-17.61696c0.0136,-0.035 0.33274,-0.78035 0.36454,-0.79395c1.47057,-2.96384 3.81815,-4.94301 3.81815,-4.94301c4.2372,-3.50875 9.5707,-6.66393 15.18568,-7.05572c2.47862,-0.17256 7.63374,0.43526 9.04593,0.87832c0,0 6.18128,1.29089 10.23555,4.61279c0,0 1.47512,-1.11963 2.39236,-1.70602c0.11874,-0.09086 0.25627,-0.16932 0.40153,-0.24135c0.05581,-0.02982 0.10707,-0.05446 0.14793,-0.07261v0.00063c0.22185,-0.10054 0.44756,-0.19009 0.64153,-0.27504c4.85089,-2.1452 11.67892,-1.47319 15.66315,1.972c4.30013,3.71824 4.58814,7.64667 5.57804,12.65972c0.26855,1.36093 1.75597,5.06103 2.64659,6.12295c1.25134,1.49066 3.5464,1.89611 5.45224,1.76764c1.76633,-0.12194 3.98873,-2.08034 4.47395,-3.65014c1.13909,-3.6936 -4.90341,-4.34747 -3.71824,-8.06833c0.3308,-1.03985 1.47832,-2.18155 2.64727,-2.53118c1.8734,-0.56238 3.96477,-0.13752 3.78378,2.67713c4.08216,-4.13666 7.95283,2.52727 3.94203,4.73733zM280.92641,171.66045c0,0 -0.00131,-3.4873 -1.44855,-3.88626c-0.77517,-0.21212 -2.01286,0.75247 -2.3333,1.35381c-0.47481,0.89585 -0.21342,2.41052 0.44243,3.17988c1.12805,1.32332 3.16361,1.34146 2.9606,3.53077c-0.09861,1.07809 -0.39247,2.28921 -0.96526,3.32775c0.69279,-0.11937 1.69759,-0.0104 1.69503,0.41189c-0.00131,0.51441 -1.10471,0.15117 -1.80921,-0.21793c-0.06486,0.10765 -0.12973,0.21536 -0.20045,0.31851c0.57409,0.32887 1.1112,0.89711 0.98084,1.12737c-0.12586,0.22315 -0.78814,-0.35545 -1.17026,-0.87053c-0.51243,0.65518 -1.17669,1.18255 -2.0297,1.46732c-0.75571,0.25432 -1.6412,0.39766 -2.56817,0.43333c0.29126,0.87638 0.31982,2.05115 -0.27306,2.1452c-0.70382,0.11419 -0.54883,-1.14426 -0.22838,-2.14128c-0.10441,0 -0.20563,0.00648 -0.30941,0.00324c-0.05383,0.93085 -0.53256,2.05759 -0.95548,2.0453c-0.40806,-0.00973 0.03567,-1.29089 0.53711,-2.068c-1.96489,-0.1304 -3.9382,-0.75639 -5.12201,-1.94673c-0.31595,-0.31653 -0.59225,-0.71486 -0.8459,-1.16503c-1.00674,0.64544 -2.01808,1.43945 -2.37745,0.76418c-0.31977,-0.60072 1.29543,-0.78102 2.29569,-0.90557c-0.10247,-0.19139 -0.20108,-0.38987 -0.29581,-0.59811c-1.24804,0.25689 -2.66217,0.76414 -2.74325,-0.03504c-0.07333,-0.72003 1.77219,-0.22765 2.71407,-0.02721c-1.5698,-3.52951 -2.01866,-9.42606 -3.50482,-12.45995c-1.62367,-3.31478 -5.02796,-6.29091 -8.91228,-6.76122c-2.95411,-0.3568 -5.05777,-0.86472 -9.63551,0.98273c-0.40544,0.24198 -2.52664,1.52052 -3.18574,2.17962c0,0 -5.22705,-4.27162 -14.59536,-5.44508c-8.59508,-1.07683 -12.85305,2.08228 -18.32209,6.02759c-1.77219,1.28634 -3.80387,4.44346 -3.80581,4.44608c-1.08139,2.67059 -2.86074,7.64279 0.10635,13.20525c1.25652,2.35668 1.59057,2.92555 4.20545,5.13237c10.27515,8.67229 29.78821,7.07974 29.78821,7.07974c1.02621,-0.06549 3.79027,-0.45342 5.67273,-1.20526c2.01678,-0.80693 4.16522,-2.05371 5.82782,-3.38613c2.85028,2.3593 5.53259,1.63602 6.74371,0.50018c-1.81633,-1.40895 -4.33905,-6.07299 -1.2299,-7.41969c3.82464,6.2092 16.82358,9.50453 23.00428,4.65107c3.47501,-2.72641 3.67347,-6.74239 3.68905,-10.59821c0.0136,-0.00387 0.02401,-0.00649 0.03761,-0.01099c-0.01554,-0.45409 0.08888,-0.71162 0.17451,-0.84202c0.05644,-0.08626 0.10446,-0.11936 0.10446,-0.11936c0.89648,-0.42486 2.47601,-1.06837 2.8678,-2.00052c0.999,-2.37678 -3.28884,-3.6618 -4.98057,-0.20306z" fill="#272525"/></g><g><g><path d="M243.63874,168.83481c-0.10771,3.14739 -1.51404,6.14821 -4.10292,10.04421c-2.58889,3.89599 -6.33051,5.07922 -8.87985,4.42923c-2.54929,-0.64999 -4.42337,-2.81141 -4.96373,-3.78441c-0.54036,-0.97305 3.57298,-8.07157 3.57298,-8.07157c0,0 0.68499,-3.50032 0.21081,-4.96696c-0.47419,-1.46669 0,-5.80962 0,-5.80962c0.62337,-0.07265 1.51336,-5.80187 6.74632,-5.72854c5.23165,0.07396 6.3733,5.72854 6.3733,5.72854c0,0 1.1508,5.01044 1.0431,8.15914z" fill="#8395d4"/><path d="M243.16194,160.71067c-0.50206,0.63765 -1.20264,-1.04373 -1.38688,-1.58602c-0.58445,-1.7216 -2.29115,-3.40041 -4.50901,-3.72085c-2.1666,-0.31266 -4.07891,0.52931 -5.29327,1.98173c-3.46982,4.14896 -1.4589,8.86166 -2.19903,13.50043c-0.4314,2.70371 -2.28984,4.62963 -3.06114,7.10375c-0.27959,0.8958 0.08563,2.32033 0.83742,3.01442c1.52376,1.40764 4.66603,2.04916 6.81055,1.49845c2.53699,-0.65193 4.32738,-3.19285 5.45868,-5.0435c0.70189,2.01542 -1.25323,3.99977 -3.00276,5.18944c-3.97775,2.70502 -12.61625,1.63535 -12.00455,-3.6164c0.29387,-2.5247 3.19217,-4.96958 3.85514,-7.74334c0.84328,-3.52758 -0.7544,-7.05902 0.18554,-10.53983c0.6876,-2.5461 2.47406,-6.06196 6.08592,-6.34412c4.89174,-0.38274 7.18681,2.62133 8.22338,6.30583z" fill="#272525"/></g><g><path d="M239.54167,169.71052c-0.90949,0.74341 -1.40963,1.359 -1.63728,2.46371c-0.42036,2.07124 -0.12455,3.81297 -1.90975,5.05584c-0.75053,0.52026 -1.239,1.01971 -2.18281,0.97755c-1.35314,-0.06419 -2.72902,-0.73363 -2.72902,-1.99664c0,-2.69852 2.69466,-3.84604 2.41052,-6.54394c-0.2731,-2.54929 -1.67165,-3.73901 -1.91039,-6.28768c-0.2277,-2.40079 1.26364,-4.76977 3.82009,-5.01368c2.22889,-0.21279 3.82076,0.7544 3.82076,2.67646c0,1.42386 -0.30747,2.9846 0.27243,4.29103c0.46644,1.0522 1.27342,1.38107 1.86498,2.37939c-0.07915,0.97692 -1.02296,1.34927 -1.81952,1.99795z" fill="#b7cbe7"/><path d="M241.21007,167.09568c-0.06423,1.24093 -2.0466,-0.9581 -2.21979,-1.17152c-1.56787,-1.92985 0.62661,-3.41662 -0.0623,-5.37628c-0.35419,-1.00805 -1.37066,-2.04273 -2.72966,-2.08876c-1.63597,-0.05581 -3.04299,1.51074 -3.53924,2.66217c-1.52827,3.55221 2.08813,6.77096 1.42972,10.39583c-0.2776,1.52502 -3.10267,3.98225 -2.32164,5.33669c0.25297,0.43788 1.35638,0.82319 1.91493,0.82188c4.40585,-0.01229 2.33462,-7.38654 7.21726,-8.86034c-0.19072,0.47287 -0.66684,0.78877 -1.03274,1.16503c-2.32876,2.40402 -0.89062,6.04056 -3.72604,8.17927c-1.02296,0.77256 -3.04231,0.93279 -4.27094,0.43203c-4.59913,-1.87863 0.50923,-5.47102 1.15598,-7.22181c1.24418,-3.36991 -4.81585,-8.01775 -0.40608,-12.42427c0.86729,-0.86598 2.68038,-1.5335 4.04392,-1.29021c7.36383,1.31422 0.57602,6.77032 4.54661,9.44029z" fill="#272525"/></g></g><g><path d="M209.83517,185.81474c0.09342,-0.72135 0.59356,-2.39362 3.26158,-1.73327c2.98717,0.7395 4.66792,3.91415 5.22967,6.60812c-0.09599,0.04022 0.35873,4.1704 1.40962,5.3348c1.58665,1.76115 4.1159,1.5562 2.91065,4.57126c-0.48522,1.21242 -5.94002,0.71877 -8.47639,-0.15761c-3.29919,-1.13971 -2.66024,-3.14028 -3.08191,-5.2407c-0.59094,-2.9392 -0.75571,-7.34897 -1.05021,-9.10561c-0.01684,-0.10247 -0.10959,-0.21468 -0.20301,-0.27698z" fill="#8395d4"/><path d="M216.57887,194.7264c-0.9062,0.44626 -1.59967,-0.25365 -1.15593,-1.41868c0.98922,-0.57477 0.35287,0.68238 0.69859,0.87765c0.24391,0.1382 0.47549,-0.06162 0.57801,-0.26986c0.51567,-1.0489 -0.82774,-1.48872 -1.44463,-1.14882c-1.50237,0.83229 -0.15828,3.30636 1.56526,2.76925c0.44112,-0.13815 0.46576,-0.83224 0.91531,-0.76612c0.91463,1.69571 -4.74837,1.65547 -3.75654,-1.01192c1.48548,-3.9959 4.81841,-0.12779 2.59993,0.9685z" fill="#272525"/><path d="M217.93332,201.17236c-0.72976,-0.07978 -1.4621,-0.19333 -2.13673,-0.32824c0.19392,-0.82188 0.37166,-1.90714 1.14944,-1.80461c1.11963,0.14725 0.97756,1.35313 0.98729,2.13285z" fill="#b7cbe7"/><path d="M221.79106,201.12502c-0.49107,0.12581 -1.14818,0.17769 -1.89092,0.17121c0.11419,-0.84846 0.07459,-2.2107 0.86273,-2.16268c0.7577,0.04603 0.85693,1.21625 1.02819,1.99147z" fill="#b7cbe7"/><path d="M224.38058,200.7747c-0.22248,0.46838 -0.70251,0.80504 -1.34858,1.03661c-2.7219,0.97562 -8.40891,0.0746 -10.39191,-0.85107c-0.10058,-0.04671 -0.19465,-0.09406 -0.27505,-0.14077c-2.37421,-1.37783 -2.69921,-5.05782 -2.81789,-7.40018c-0.01815,-0.36522 -0.07202,-5.24787 -0.05644,-6.92407c-0.11869,-0.81085 0.18031,-1.68138 0.18031,-1.68138c0.58838,-0.58838 0.41063,0.87116 0.48329,1.74948h-0.00194c0.28085,2.01804 0.63246,6.99673 0.93602,8.63333c0.27117,1.46476 0.52613,3.16559 1.5517,4.27742c0.38725,0.41905 0.88026,0.75765 1.5302,0.96332c0.22446,0.07004 0.47743,0.13815 0.7408,0.20563c0.09405,-0.46838 0.29905,-1.00224 0.48846,-1.42129c0.67918,-1.50755 3.36473,-1.17539 3.30698,1.00999c-0.01166,0.45734 -0.01491,0.77585 -0.02851,1.01004c0.14595,0.01103 0.29188,0.0214 0.43526,0.02919c-0.03374,-0.53256 0.12712,-1.26557 0.28347,-1.81827c0.44437,-1.55813 2.88857,-1.47119 3.07735,0.70968c0.02009,0.23806 0.03829,0.42941 0.05383,0.60198c0.04933,-0.05257 0.09604,-0.10576 0.11937,-0.16869c0.57279,-1.51205 0.23481,-2.15817 -0.47612,-2.71731c-0.63702,-0.50081 -1.57372,-0.93283 -2.43453,-1.85332c-1.20332,-1.28634 -1.89155,-4.35459 -1.77997,-6.40966c0,0 0.06617,-0.06486 0.16153,-0.10509c0.18031,-0.07391 0.46639,-0.05445 0.62792,0.67788c0.00581,0.02662 1.02427,5.03575 2.5279,5.77331c4.07828,2.00119 3.33942,4.32346 3.10654,4.81323zM216.94603,199.0395c-0.77778,-0.10253 -0.95553,0.9821 -1.14944,1.80461c0.67463,0.13491 1.40697,0.24846 2.13673,0.32824c-0.00973,-0.77972 0.13234,-1.9856 -0.98729,-2.13285zM221.79106,201.12502c-0.17126,-0.77522 -0.27049,-1.94606 -1.02819,-1.99147c-0.78814,-0.04802 -0.74854,1.31422 -0.86273,2.16268c0.74274,0.00648 1.39984,-0.0454 1.89092,-0.17121z" fill="#272525"/></g><g><path d="M236.35792,199.70634c0.90035,0.99508 3.3005,3.34398 2.28398,4.25212c-0.11157,0.29644 -2.30087,1.05283 -6.30713,0.05514c-0.21405,-0.04734 -4.0796,-0.84072 -4.07505,-2.46178c0.00518,-1.87858 5.00589,-3.80194 4.44414,-9.01152c0.10572,-0.46121 -0.19653,-0.80823 -0.57864,-0.97818c0.6649,-1.02364 2.25097,-2.54741 5.08702,-0.36585c0.00063,0.0045 -0.00455,0.01099 -0.00325,0.01747c0.01878,0.09149 1.63985,0.97692 1.92336,2.03561c0.81864,3.0592 -1.18256,5.05584 -2.77443,6.457z" fill="#8395d4"/><path d="M233.60102,204.25034c-0.64869,-0.09468 -1.29543,-0.22509 -1.90327,-0.38594c0.15505,-0.61495 0.21148,-1.56854 1.00481,-1.61003c0.82643,-0.04414 0.77585,1.22535 0.89846,1.99597z" fill="#b7cbe7"/><path d="M237.79538,204.30291c-0.59418,0.11739 -1.35706,0.15892 -2.19579,0.13103c0.0136,-0.77909 -0.1505,-2.02065 0.98728,-2.17052c0.85432,-0.11283 0.98472,1.20787 1.2085,2.03948z" fill="#b7cbe7"/><path d="M240.79882,203.77035c-0.21928,0.81341 -0.57603,1.20327 -0.96463,1.45629c-0.14526,0.09405 -0.29514,0.17189 -0.44369,0.2413c-2.24249,1.05931 -7.0324,0.07459 -9.93588,-1.55102c-1.74822,-0.97949 -2.81203,-2.18993 -2.22303,-3.32775c0.61234,-1.18319 4.75418,-5.04025 3.75585,-8.2376c-0.27567,-0.88549 0.53256,-1.05931 1.13778,-0.79076c0.38211,0.16995 0.68436,0.51697 0.57864,0.97823c0.56175,5.21021 -4.53171,7.25095 -4.35009,9.12047c0.04933,0.50337 0.46445,0.94836 1.10084,1.32719c0.40085,0.23873 0.88738,0.45148 1.43098,0.63509c0.01103,-0.12198 0.02464,-0.26274 0.04085,-0.43071c0.19657,-1.98822 2.73358,-2.06867 3.19415,-0.64544c0.17968,0.55526 0.36585,1.31553 0.27504,1.80205c0.15243,0.01554 0.30486,0.02851 0.45535,0.04148c-0.01036,-0.2277 -0.0136,-0.52283 -0.02464,-0.93346c-0.05838,-2.18669 2.62718,-2.51623 3.30699,-1.01129c0.20175,0.44567 0.42554,1.02364 0.50855,1.5121c0.84332,-0.75446 -0.66422,-2.49808 -1.71705,-3.63915c-0.21535,-0.23351 -0.41387,-0.44369 -0.56693,-0.61297c1.59187,-1.40052 3.59307,-3.39717 2.77443,-6.45637c-0.28351,-1.05931 -1.90458,-1.94412 -1.92336,-2.03624c-0.00131,-0.00455 0.00388,-0.01103 0.00325,-0.01684c-0.01946,-0.19789 0.29837,-0.44045 0.42162,-0.56243c1.13197,0.23418 2.3593,1.73913 2.59019,2.65574c0.87445,3.46852 -1.6457,4.75935 -2.40984,6.41677c0.25752,0.19396 0.53518,0.39891 0.81409,0.61301c0.42036,0.32238 0.84197,0.66877 1.20588,1.0353c0.71747,0.72458 1.20332,1.53219 0.96463,2.417zM233.60102,204.25034c-0.12261,-0.77062 -0.07203,-2.04011 -0.89846,-1.99597c-0.79333,0.04148 -0.84976,0.99508 -1.00481,1.61003c0.60783,0.16085 1.25458,0.29189 1.90327,0.38594zM237.79538,204.30223c-0.22378,-0.83161 -0.35419,-2.15231 -1.2085,-2.03943c-1.13778,0.1505 -0.97368,1.39142 -0.98728,2.17047c0.83873,0.02793 1.60161,-0.0136 2.19579,-0.13103z" fill="#272525"/><path d="M236.83467,196.03219c-0.0363,0.53062 -0.22572,1.51404 -0.9717,1.57174c-0.72003,0.05514 -0.7045,-1.11445 -0.25495,-1.32525c-0.12324,0.48653 -0.11289,0.93283 0.33017,0.84202c0.61301,-0.12523 0.66234,-1.80984 -0.07716,-1.61264c-1.42778,0.38013 -0.879,2.40465 -0.10639,2.596c0.23675,0.05969 0.48454,0.08631 0.74274,-0.33274c0.43982,-0.71292 0.75508,-1.468 0.89453,-2.20619c0.07522,0.64157 -0.35936,2.04074 -0.91917,2.68362c-1.12418,1.28697 -2.3943,-0.34513 -2.05507,-1.59904c0.33604,-1.24093 2.55907,-2.69722 2.417,-0.61751z" fill="#272525"/></g><g><path d="M206.50494,170.88232c0.2353,-0.38197 -0.56673,-1.18536 -0.56673,-1.18536c-1.25298,-1.2086 -2.23131,-1.14737 -3.07754,-0.44548c-2.07477,1.72145 -0.76326,7.51853 -6.07198,6.81186c2.13416,-0.30583 3.01282,-1.61288 3.41745,-3.18829c0.00044,-0.00044 0.00044,-0.00044 0.00048,-0.00136l0.00005,-0.00092c0.62477,-2.43476 0.11554,-5.51042 1.33736,-6.5344c1.55319,-1.44941 3.21095,0.75581 4.71352,2.23281c1.03869,1.06071 1.0129,0.28008 1.07297,-0.63581c0.00097,-0.00087 0.49693,3.08625 -0.82557,2.94694z" fill="#8395d4"/><path d="M206.25851,168.57027c-1.50257,-1.47696 -3.16037,-3.68218 -4.71352,-2.23277c-1.22181,1.02398 -0.71306,4.10007 -1.3374,6.53439c0,0.00092 -0.00048,0.00135 -0.00053,0.00227c-0.40463,1.57541 -1.28324,2.88247 -3.41745,3.1883c5.30876,0.70663 3.9972,-5.09041 6.07197,-6.81186c0.84628,-0.70189 1.82504,-0.76263 3.0776,0.44548c0,0 0.80155,0.80382 0.56669,1.18536c-0.23487,0.38154 -1.3225,-0.13931 -1.3225,-0.13931c-1.31296,-1.18638 -1.64105,3.39561 -4.01666,5.40136c-1.05331,0.88979 -2.85803,1.03807 -4.75486,0.33183c0.08175,0.58295 -0.24406,1.24548 0.1412,1.67827c0.5647,0.63359 0.14275,2.52417 -0.41702,2.3731c-0.6574,-1.08472 -0.83142,-2.51676 -0.25427,-3.87875c-0.91357,0.49853 -2.9561,1.1536 -3.12247,0.72149c0.5664,-0.55875 1.91246,-1.2071 2.96843,-1.43039c-1.49245,-0.29571 -2.59271,-1.28745 -3.10698,-2.47649c0.20147,-0.54379 1.98658,0.20722 2.17599,1.03487c0.15383,0.67449 1.16218,0.71481 1.48979,1.36732c0.06303,-0.0029 0.13355,-0.01282 0.19178,-0.01036c-0.01912,0.02134 -0.02962,0.04622 -0.0424,0.07057c5.71828,-2.67093 1.58044,-8.38849 3.18461,-10.52962c0.86273,-1.15206 3.49616,-2.25209 6.00368,0.29232c0,0 1.76782,1.33058 1.70819,2.2469c-0.05963,0.91632 -0.03519,1.69648 -1.07388,0.63571z" fill="#272525"/></g><g><g><path d="M256.32377,171.82266c-0.70774,2.212 -4.04,3.4341 -5.55927,0.80435c-0.73882,-1.2766 -0.79918,-3.87522 0,-5.13566c2.13615,-3.37379 6.90655,0.12199 5.55927,4.33131zM254.76888,168.07648c-0.68112,-0.83417 -1.67102,-0.8394 -2.18156,-0.70706c-1.60741,0.41774 -1.36935,4.33905 -0.16865,5.13305c3.28622,2.17371 3.39393,-3.14546 2.3502,-4.42598z" fill="#272525"/><path d="M254.76888,168.07716c1.04305,1.27985 0.9354,6.5997 -2.3502,4.42531c-1.20007,-0.794 -1.43876,-4.71531 0.16865,-5.13305c0.51054,-0.13234 1.50043,-0.12712 2.18156,0.70774z" fill="#ffffff"/><path d="M254.46073,169.53993c0.27572,0 0.52544,0.14725 0.70643,0.38594c0.18099,0.23806 0.2932,0.56761 0.2932,0.93089c0,0.36324 -0.11221,0.69278 -0.2932,0.93084c-0.18099,0.23873 -0.43072,0.38599 -0.70643,0.38599c-0.27567,0 -0.52544,-0.14726 -0.70643,-0.38599c-0.18094,-0.23806 -0.29319,-0.5676 -0.29319,-0.93084c0,-0.36328 0.11225,-0.69284 0.29319,-0.93089c0.18099,-0.23869 0.43077,-0.38594 0.70643,-0.38594z" fill="#272525"/></g><g><path d="M255.73346,167.11838c-0.51896,0.06874 -4.57972,1.91363 -5.90953,2.84902c-0.13297,-0.81602 -0.34833,-1.32269 0.13365,-2.17052c0.54553,-0.95616 1.0794,-1.62494 2.22822,-1.86948c1.67813,-0.36135 2.45074,0.14919 3.58721,1.18774c-0.01229,0.00131 -0.02919,0.00194 -0.03955,0.00324z" fill="#b7cbe7"/><path d="M256.18819,167.49982c-0.75963,0.72391 -6.32209,3.69815 -6.77681,2.93266c-0.05189,-0.08757 0.11027,-0.25359 0.41256,-0.46508c1.3285,-0.9367 5.38926,-2.78029 5.90953,-2.84902c0.01036,-0.00131 0.02657,-0.00194 0.03955,-0.00324c0.22059,-0.01883 0.80179,0.01559 0.41518,0.38468z" fill="#272525"/></g></g><g><g><path d="M263.64868,171.21807c-0.68436,2.31453 -3.08447,2.62326 -4.24301,0.61432c-0.56242,-0.97436 -0.60846,-2.95865 0,-3.91999c1.6288,-2.57466 5.19786,0.07328 4.24301,3.30568zM262.46226,168.35932c-0.51959,-0.63702 -1.27597,-0.64158 -1.66583,-0.53905c-1.22472,0.31851 -1.04436,3.31086 -0.12842,3.91738c2.50911,1.65935 2.59213,-2.40208 1.79426,-3.37833z" fill="#272525"/><path d="M262.46289,168.35932c0.79725,0.97625 0.71422,5.03768 -1.79489,3.37833c-0.91593,-0.60653 -1.09692,-3.59887 0.12842,-3.91738c0.38986,-0.10253 1.14625,-0.09797 1.66646,0.53905z" fill="#ffffff"/><path d="M262.46158,169.65538c0.18815,0 0.35873,0.10054 0.48197,0.26337c0.12329,0.16279 0.19982,0.38724 0.19982,0.63503c0,0.24784 -0.07653,0.47225 -0.19982,0.63509c-0.12324,0.16284 -0.29382,0.26337 -0.48197,0.26337c-0.18811,0 -0.35869,-0.10054 -0.48193,-0.26337c-0.12329,-0.16284 -0.19982,-0.38725 -0.19982,-0.63509c0,-0.24779 0.07653,-0.47224 0.19982,-0.63503c0.12324,-0.16284 0.29382,-0.26337 0.48193,-0.26337z" fill="#272525"/></g><g><path d="M263.39378,167.61788c-0.6059,0.144 -3.84023,1.61846 -5.08702,2.44488c-0.45666,-0.67981 -0.14851,-2.20813 1.1099,-3.02938c1.29089,-0.83873 3.39847,-0.76544 3.97712,0.5845z" fill="#b7cbe7"/><path d="M263.8608,167.94414c-0.67589,0.64351 -5.63381,3.29402 -6.03926,2.61164c-0.05252,-0.08825 0.14725,-0.26662 0.48522,-0.49301c1.24679,-0.82837 4.48112,-2.30088 5.08702,-2.44488c0.01946,-0.00324 0.04797,-0.01297 0.06162,-0.01495c0.1641,-0.02203 0.76931,-0.00906 0.40539,0.34121z" fill="#272525"/></g></g></g></g></svg>