<svg version="1.1" xmlns="http://www.w3.org/2000/svg" xmlns:xlink="http://www.w3.org/1999/xlink" width="94.04873" height="62.52265" viewBox="0,0,94.04873,62.52265"><g transform="translate(-192.97563,-148.47618)"><g data-paper-data="{&quot;isPaintingLayer&quot;:true}" fill-rule="evenodd" stroke-linejoin="miter" stroke-miterlimit="10" stroke-dasharray="" stroke-dashoffset="0" style="mix-blend-mode: normal"><g stroke-linecap="butt"><path d="M201.26522,173.81528c-1.81405,-1.62423 -2.31635,-4.24583 -1.22938,-6.41587l1.12287,-2.24189h6.63686c10.95781,0 21.47131,4.29455 29.24634,11.94683l0.34389,0.33874l-24.08319,15.42629c-0.60069,-0.7465 -1.40056,-1.33516 -2.33448,-1.68528l-1.98443,-0.74396c-2.12175,-0.79544 -3.52565,-2.80895 -3.52565,-5.05722v-5.41184c0,-1.52903 -0.65319,-2.98687 -1.79853,-4.01208l-2.3943,-2.14372" fill="#00b27b" stroke="none" stroke-width="1"/><path d="M192.97563,170.94666c0,-3.19742 2.61565,-5.78922 5.842,-5.78922h2.34108l-1.12287,2.24189c-1.08698,2.17004 -0.58467,4.79164 1.22938,6.41587l2.3943,2.14372c1.14534,1.02542 1.79853,2.48304 1.79853,4.01208v5.41213c0,2.24798 1.40389,4.26149 3.52565,5.05715l1.98443,0.74396c0.93392,0.3499 1.73379,0.93885 2.33448,1.68506l-5.22072,3.34388c-2.65669,1.70167 -6.04915,-0.67907 -5.31164,-3.72706l0.43894,-1.81383c0.36245,-1.49771 -0.46395,-3.02726 -1.9228,-3.55871c-1.71493,-0.62498 -2.50059,-2.58875 -1.6834,-4.20871l0.68219,-1.35256c0.74976,-1.48561 0.15617,-3.29211 -1.33226,-4.05529l-2.85419,-1.46385c-1.91845,-0.98402 -3.12311,-2.94605 -3.12311,-5.08651" fill="#19242d" stroke="none" stroke-width="1"/><path d="M214.44368,195.50946c-0.13935,-1.01056 -0.56169,-1.93955 -1.1924,-2.6999l24.13459,-15.61886l0.11876,21.63103c-1.80078,0 -3.2605,1.44674 -3.2605,3.23128v1.86451l-2.53365,-1.91454c-2.41474,-1.82463 -5.46194,-2.62413 -8.4715,-2.22224l-2.66053,0.35549c-2.98252,0.39834 -5.72745,-1.67172 -6.13477,-4.62676" fill="#f2f253" stroke="none" stroke-width="1"/><path d="M214.06107,204.11778c-5.41024,0 -7.50524,-6.97524 -2.97534,-9.90686l2.16555,-1.40136c0.63071,0.76035 1.05312,1.68912 1.19247,2.6999c0.40733,2.95482 3.15218,5.0251 6.1347,4.62676l2.66053,-0.35541c3.00956,-0.40189 6.05683,0.39754 8.4715,2.22224l2.53372,1.91454v2.50196c0,2.64226 -3.0042,4.18848 -5.18555,2.66901l-0.51666,-0.35998c-1.46045,-1.0173 -3.49657,-0.40435 -4.13932,1.24583c-0.32939,0.84569 -1.30174,1.25163 -2.14242,0.89463l-0.04785,-0.02045c-0.78616,-0.33374 -1.18914,-1.20364 -0.93211,-2.0122l0.3755,-1.18116c0.55734,-1.753 -0.76347,-3.53747 -2.61775,-3.53747h-4.97696" fill="#19242d" stroke="none" stroke-width="1"/><path d="M221.25963,175.76367c0,3.06394 -2.50646,5.54771 -5.59824,5.54771c-3.09157,0 -5.59803,-2.48377 -5.59803,-5.54771c0,-3.06387 2.50646,-5.54764 5.59803,-5.54764c3.09178,0 5.59824,2.48377 5.59824,5.54764" fill="#19242d" stroke="none" stroke-width="1"/><path d="M221.25963,175.76367c0,3.06394 -2.50646,5.54771 -5.59824,5.54771c-3.09157,0 -5.59803,-2.48377 -5.59803,-5.54771c0,-3.06387 2.50646,-5.54764 5.59803,-5.54764c3.09178,0 5.59824,2.48377 5.59824,5.54764z" fill="none" stroke="#f2f253" stroke-width="3.5"/><path d="M231.12639,192.25998c0,1.83551 -1.50141,3.32314 -3.35338,3.32314c-1.85226,0 -3.35345,-1.48764 -3.35345,-3.32314c0,-1.83522 1.50119,-3.32314 3.35345,-3.32314c1.85197,0 3.35338,1.48793 3.35338,3.32314" fill="#19242d" stroke="none" stroke-width="1"/></g><g stroke-linecap="butt"><path d="M269.03194,191.18409c-0.93392,0.35019 -1.73379,0.93885 -2.33448,1.68506l-24.08341,-15.42622l0.34389,-0.33852c7.77503,-7.65235 18.28853,-11.9469 29.24655,-11.9469h6.63686l1.12287,2.24197c1.08705,2.16997 0.58438,4.79164 -1.22938,6.4158l-2.39459,2.1438c-1.14505,1.02513 -1.79824,2.48275 -1.79824,4.01208v5.41184c0,2.24827 -1.40389,4.26178 -3.52587,5.05722l-1.98421,0.74389" fill="#00b27b" stroke="none" stroke-width="1"/><path d="M277.22974,192.48605c0.73773,3.04828 -2.65495,5.4288 -5.31164,3.72735l-5.22072,-3.34417c0.60091,-0.74621 1.40056,-1.33516 2.33448,-1.68506l1.98421,-0.74389c2.12197,-0.79544 3.52587,-2.80895 3.52587,-5.05722v-5.41213c0,-1.52903 0.65341,-2.98665 1.79853,-4.01179l2.3943,-2.1438c1.81376,-1.62445 2.31643,-4.24583 1.22938,-6.4158l-1.12287,-2.24197h2.34108c3.22657,0 5.842,2.59187 5.842,5.78907c0,2.14068 -1.20465,4.10263 -3.12311,5.08644l-2.85419,1.46393c-1.48822,0.7631 -2.08202,2.56983 -1.33226,4.05522l0.68241,1.35256c0.81726,1.61995 0.03161,3.58394 -1.68383,4.20878c-1.45842,0.53138 -2.28503,2.06092 -1.92251,3.55864l0.43887,1.81383" fill="#19242d" stroke="none" stroke-width="1"/><path d="M256.76095,199.78088c-3.00927,-0.40189 -6.05647,0.39732 -8.47143,2.22195l-2.53343,1.91483v-1.8648c0,-1.78425 -1.46023,-3.23106 -3.26072,-3.23106l0.11869,-21.63125l24.13467,15.61908c-0.63078,0.76035 -1.05312,1.68912 -1.19247,2.6999c-0.40711,2.95482 -3.15218,5.02488 -6.1347,4.62676l-2.6606,-0.35541" fill="#f2f253" stroke="none" stroke-width="1"/><path d="M250.94142,209.08857c-2.18135,1.51975 -5.18526,-0.02646 -5.18526,-2.66901v-2.50196l2.53343,-1.91454c2.41467,-1.82471 5.46194,-2.62413 8.47143,-2.22224l2.6606,0.35541c2.98252,0.39834 5.72737,-1.67165 6.1347,-4.62676c0.13935,-1.01056 0.56169,-1.93955 1.19247,-2.6999l2.16533,1.40136c4.53004,2.93162 2.43504,9.90686 -2.9752,9.90686h-4.97689c-1.85458,0 -3.17538,1.78447 -2.61804,3.53747l0.3755,1.18116c0.25703,0.80856 -0.14566,1.67847 -0.93182,2.0122l-0.04793,0.02045c-0.8409,0.35701 -1.81296,-0.04894 -2.14264,-0.89463c-0.64246,-1.65019 -2.67858,-2.26314 -4.13903,-1.24583l-0.51666,0.35998" fill="#19242d" stroke="none" stroke-width="1"/><path d="M258.74045,175.76367c0,-3.06387 2.50646,-5.54764 5.59824,-5.54764c3.09157,0 5.59803,2.48377 5.59803,5.54764c0,3.06394 -2.50646,5.54771 -5.59803,5.54771c-3.09178,0 -5.59824,-2.48377 -5.59824,-5.54771" fill="#19242d" stroke="none" stroke-width="1"/><path d="M264.33869,170.21604c3.09157,0 5.59803,2.48377 5.59803,5.54764c0,3.06394 -2.50646,5.54771 -5.59803,5.54771c-3.09178,0 -5.59824,-2.48377 -5.59824,-5.54771c0,-3.06387 2.50646,-5.54764 5.59824,-5.54764z" fill="none" stroke="#f2f253" stroke-width="3.5"/><path d="M255.34647,192.25998c0,1.83551 -1.50148,3.32314 -3.35345,3.32314c-1.85226,0 -3.35345,-1.48764 -3.35345,-3.32314c0,-1.83522 1.50119,-3.32314 3.35345,-3.32314c1.85197,0 3.35345,1.48793 3.35345,3.32314" fill="#19242d" stroke="none" stroke-width="1"/></g><g><path d="M226.78928,149.00118l3.04603,2.1836c5.66444,4.0608 9.24998,10.3764 9.81087,17.28254l0.34621,4.26345" fill="none" stroke="#19242d" stroke-width="1.05" stroke-linecap="round"/><path d="M239.99246,173.4102l0.34621,-4.26352c0.56067,-6.90578 4.14621,-13.22167 9.81065,-17.28247l3.04625,-2.1836" fill="none" stroke="#19242d" stroke-width="1.05" stroke-linecap="round"/><path d="M239.99913,175.17103c-0.67936,0 -1.23525,-0.55081 -1.23525,-1.22387v-5.53582c0,-0.67298 0.55589,-1.22379 1.23525,-1.22379c0.67914,0 1.23503,0.55081 1.23503,1.22379v5.53582c0,0.67305 -0.55589,1.22387 -1.23503,1.22387" fill="#19242d" stroke="none" stroke-width="1" stroke-linecap="butt"/><path d="M243.62875,178.15558c0,10.47841 -1.62503,31.59474 -3.62962,31.59474c-2.00452,0 -3.62984,-21.11633 -3.62984,-31.59474c0,-3.32111 1.62532,-6.3504 3.62984,-6.3504c2.00459,0 3.62962,3.5342 3.62962,6.3504" fill="#19242d" stroke="none" stroke-width="1" stroke-linecap="butt"/><path d="M244.11634,178.62105c0,3.90376 -1.84334,7.06841 -4.11713,7.06841c-2.27409,0 -4.11742,-3.16465 -4.11742,-7.06841c0,-3.90383 1.84334,-7.06841 4.11742,-7.06841c2.2738,0 4.11713,3.16458 4.11713,7.06841" fill="#19242d" stroke="none" stroke-width="1" stroke-linecap="butt"/><path d="M239.28047,170.72095c0,0.79551 -0.65087,1.44051 -1.45334,1.44051c-0.80269,0 -1.45356,-0.64499 -1.45356,-1.44051c0,-0.79544 0.65087,-1.44044 1.45356,-1.44044c0.80247,0 1.45334,0.64499 1.45334,1.44044" fill="#fcf6ed" stroke="none" stroke-width="1" stroke-linecap="butt"/><path d="M243.61106,170.72095c0,0.79551 -0.65087,1.44051 -1.45327,1.44051c-0.80269,0 -1.45356,-0.64499 -1.45356,-1.44051c0,-0.79544 0.65087,-1.44044 1.45356,-1.44044c0.8024,0 1.45327,0.64499 1.45327,1.44044" fill="#fcf6ed" stroke="none" stroke-width="1" stroke-linecap="butt"/><path d="M238.64686,170.72095c0,0.44865 -0.36709,0.81241 -0.8198,0.81241c-0.45264,0 -0.81973,-0.36375 -0.81973,-0.81241c0,-0.44858 0.36709,-0.81233 0.81973,-0.81233c0.45271,0 0.8198,0.36375 0.8198,0.81233" fill="#19242d" stroke="none" stroke-width="1" stroke-linecap="butt"/><path d="M242.97745,170.72095c0,0.44865 -0.36709,0.81241 -0.81973,0.81241c-0.45271,0 -0.8198,-0.36375 -0.8198,-0.81241c0,-0.44858 0.36709,-0.81233 0.8198,-0.81233c0.45264,0 0.81973,0.36375 0.81973,0.81233" fill="#19242d" stroke="none" stroke-width="1" stroke-linecap="butt"/></g></g></g></svg>