<svg version="1.1" xmlns="http://www.w3.org/2000/svg" xmlns:xlink="http://www.w3.org/1999/xlink" width="73.05445" height="95.4348" viewBox="0,0,73.05445,95.4348"><g transform="translate(-199.15199,-128.7826)"><g data-paper-data="{&quot;isPaintingLayer&quot;:true}" fill-rule="nonzero" stroke="none" stroke-width="1" stroke-linecap="butt" stroke-linejoin="miter" stroke-miterlimit="10" stroke-dasharray="" stroke-dashoffset="0" style="mix-blend-mode: normal"><path d="M227.60429,168.03673c0,-2.53486 0.68884,-4.94091 0.99018,-7.43286c0.34445,-2.92157 0,-5.71425 -0.0861,-8.63582c-0.0861,-3.52311 -0.4736,-6.65952 0.34445,-10.82709c1.29152,-6.8743 4.43438,-10.05369 8.39516,-11.42857c3.96078,-1.37482 9.72979,-1.28892 12.4421,0.68744c6.0273,4.38242 7.70639,11.77229 5.25236,18.13107c-1.24847,3.26529 -3.70249,7.56174 -4.69267,10.95591c-0.4736,1.67563 0.21524,7.30398 1.42073,10.74113c0,0 -5.76901,2.57791 -13.30314,2.57791c-7.53419,0 -10.76309,-4.76912 -10.76309,-4.76912z" fill="#dc6629"/><g><g><path d="M234.32044,149.73386c-2.41091,0.68744 -4.08999,-4.38235 -0.77494,-4.98389c2.28176,-0.38664 2.84146,1.54675 2.71231,2.74977c-0.21531,1.58966 -1.93738,2.23412 -1.93738,2.23412z" fill="#d25d24"/><path d="M234.32044,149.73386c-2.06652,0.60155 -3.74554,-3.52305 -0.86103,-4.12459c1.89426,-0.38664 2.497,1.46078 2.36786,2.53493c-0.0861,1.07408 -1.50683,1.58966 -1.50683,1.58966z" fill="#f2b9a0"/><path d="M234.92318,147.15602c0,0.12888 0,0.25776 0,0.34372c-0.04305,0.38664 -0.5597,0.68744 -0.5597,0.68744c-0.73189,0.21478 -1.37768,-1.28899 -0.4736,-1.58973c-0.25829,0.3867 0.12921,1.07415 0.60274,0.94527c0,0 0.34445,-0.12895 0.43055,-0.3867z" fill="#c95320"/></g><g><path d="M248.52766,145.13667c3.14286,-0.42962 4.39133,3.52311 1.24854,4.94091c-3.0567,1.41787 -4.39133,-4.51123 -1.24854,-4.94091z" fill="#d25d24"/><path d="M248.69992,145.86709c1.85121,-0.3867 4.21907,2.79269 1.07628,4.25347c-3.0567,1.37489 -3.87468,-3.69497 -1.07628,-4.25347z" fill="#f2b9a0"/><path d="M249.86229,147.88637c-0.04305,0.3867 -0.55963,0.60155 -0.55963,0.60155c-0.73189,0.21484 -1.29158,-1.11706 -0.5597,-1.46078c-0.0861,0.38664 0.25829,0.9452 0.68884,0.81632c0,0 0.38744,-0.17186 0.43048,-0.42969c0.04305,0.17186 0.04305,0.34372 0,0.4726z" fill="#c95320"/></g><path d="M237.16189,154.63186c0,0 1.85121,0.68738 3.96078,0.85924c2.10957,0.17186 3.8317,-0.68738 3.8317,-0.68738c0,0 -0.68884,2.19114 -3.57335,2.32009c-3.70249,0.17186 -4.21914,-2.49195 -4.21914,-2.49195z" fill="#c34a17"/></g><g><path d="M240.0464,169.88421c0.81799,3.35125 -3.01365,6.7025 -3.65944,9.96779c-1.50683,7.43286 -4.60657,12.07303 -6.71614,19.33403c-1.29158,4.33943 0.55963,9.36624 -0.68884,13.70568c-0.43055,1.50376 -2.23871,4.42533 -3.18591,5.62836c-0.68884,0.90222 -3.53023,3.65199 -4.39133,3.00753c-0.47353,-0.34372 0.04305,-1.54675 0.64579,-2.74977c-0.51658,-0.34372 -0.77494,-0.34372 -0.55963,-0.9452c0.17219,-0.55856 0.60268,-1.4178 0.86103,-1.71861c0.17219,-0.25776 0.64579,0.04298 0.90408,0.25782c0.64579,-1.16004 1.46378,-2.53493 2.02347,-3.86683c-0.25836,-0.21478 -0.34445,-0.51558 -0.25836,-1.3319c0.0861,-0.77334 -0.34439,-0.9452 0.3014,-1.46078c0.17219,-0.12888 0.38744,-0.17186 0.60274,-0.21478c0.12915,-1.97643 -0.08616,-3.60908 -0.3875,-5.11284c-1.63597,-0.0859 -1.16244,-0.90222 -1.20549,-1.84742c-0.04305,-0.90229 -0.38744,-1.50376 0.51665,-1.67563c-0.21524,-1.46078 -0.30134,-3.00753 -0.04305,-4.85502c-1.67902,-0.38664 -0.90408,-1.71854 -0.73189,-2.44897c0.17219,-0.73042 0.21524,-2.01935 1.72207,-1.63264c0.34445,-1.16004 0.73189,-2.32009 1.11939,-3.52311c-0.51665,-0.30074 -1.07634,-0.73036 -1.03323,-1.07408c0.04305,-0.30074 0.38744,-0.64446 0.73189,-1.46078c0.25829,-0.73042 0.68877,-2.10531 1.72207,-1.63271c0.43048,-1.11706 0.81799,-2.19114 1.24854,-3.26529c-1.72213,-0.81632 -0.68884,-1.67563 -0.34445,-2.2771c0.3014,-0.60148 0.43055,-1.89047 1.63597,-0.98818c0.4736,-1.07415 0.90415,-2.10524 1.33463,-3.13641c0.04305,-0.12888 0.12915,-0.30074 0.17219,-0.42962c-1.54987,-0.47267 -0.55963,-1.41787 -0.25829,-2.19121c0.25829,-0.68744 0.12915,-1.67563 1.33463,-1.3319c0.30134,-0.9452 0.60274,-1.84749 1.07628,-2.70679c0,0 4.56359,-2.14823 5.51072,1.97637z" fill="#c44d16"/><path d="M235.09537,173.57919c-1.37768,6.05797 -4.90798,12.03005 -9.34236,16.7991c-9.4715,10.13965 -18.34026,7.7336 -20.70812,15.12354c-1.03323,3.26529 1.63597,6.18685 2.28176,9.23736c0.68884,3.17939 -2.36786,7.30398 -2.84146,5.71425c-0.34439,-1.16004 0.64579,-2.53486 -0.73189,-5.37053v0.21478c-0.94713,0.08596 -1.16237,0.51558 -1.50683,-0.17186c-0.25829,-0.51552 -0.60274,-1.4178 -0.64579,-1.8045c0,-0.30074 0.4736,-0.42962 0.81799,-0.4726c-0.17219,-0.25776 -0.34439,-0.51558 -0.55963,-0.77334c-0.9472,-1.20303 -1.50683,-2.57784 -1.63604,-4.08161c-0.99018,-0.60155 -1.33457,-0.64446 -0.86103,-1.97637c0.3014,-0.73042 -0.12915,-1.03116 0.64579,-1.37489c0.17219,-0.04298 0.3875,-0.04298 0.60274,-0.04298c0.4736,-1.67563 1.42073,-3.35125 2.84146,-4.94091c-1.03329,-1.4178 -0.0861,-1.50376 0.68884,-2.14823c0.77494,-0.68744 1.07628,-1.4178 1.93731,-0.25776c1.54994,-1.11713 3.3581,-2.19121 5.51072,-3.05051c-0.51665,-1.3319 0.86103,-1.58966 1.50683,-1.8904c0.64579,-0.30081 1.63597,-1.07415 2.28176,0.04292c1.72213,-1.07408 3.3581,-2.363 4.90798,-3.86677c-0.3014,-0.4726 -0.60274,-1.11713 -0.43055,-1.41787c0.12915,-0.25776 0.64579,-0.42962 1.29158,-0.98818c0.51665,-0.4726 1.37768,-1.37482 2.06652,-0.90222c1.20549,-1.58973 2.28176,-3.26535 3.22889,-5.02688c-1.16237,-0.60148 -0.38744,-1.4178 -0.17219,-2.01935c0.25829,-0.64446 0.21524,-1.97637 1.63597,-1.11706c0.68884,-1.84749 1.24854,-3.69491 1.54987,-5.54239c-1.42073,0 -0.90408,-1.20303 -0.86103,-1.97637c0.04305,-0.8593 -0.60274,-1.89047 1.37768,-1.71861l0.04305,0.60148c0.25836,-0.60148 0.3875,-0.30074 -0.30134,-2.10524c0,0 3.96078,-3.73789 5.9412,-0.81632c0.90408,1.3319 -0.04305,6.4017 -0.5597,8.1203z" fill="#c44d16"/><path d="M260.15178,214.39548c0,1.4178 -0.17219,2.74971 -0.55963,4.03863c0.30134,0.12895 0.68884,0.30081 0.64573,0.55856c-0.0861,0.34372 -0.55963,1.16004 -0.86103,1.63264c-0.25829,0.3867 -0.43048,0.3867 -0.73189,0.25782c-0.0861,0.17186 -0.17219,0.34365 -0.25829,0.51552c-0.5597,0.98818 -2.41091,3.69497 -2.71231,2.53493c-0.30134,-1.16004 1.54987,-5.41351 1.80823,-7.08914c0.51658,-3.56603 -1.07634,-5.75723 -3.14286,-8.76476c-4.08993,-6.01499 -12.91564,-9.88183 -16.70422,-16.24061c-3.31506,-5.58537 -2.88451,-11.47149 -1.20549,-17.31469c0.5597,-1.8045 -0.4736,-6.3158 1.24854,-7.51876c0.90408,-0.64446 3.96078,-1.03116 5.51065,0c1.54987,1.0311 1.85128,4.29645 1.20549,5.45649c-0.25836,0.51558 -0.51665,0.98818 -0.77494,1.50376c1.46378,0.5585 0.5597,1.20296 0.30134,1.93338c-0.30134,0.73036 -0.25829,2.06226 -1.72207,1.37489c-0.3875,1.11706 -0.64579,2.19114 -0.77494,3.30827c-0.0861,0.73036 -0.12915,1.46078 -0.12915,2.23412v-0.0859c1.98036,-0.42969 1.33457,0.85924 1.33457,1.54668c0,0.64446 0.43055,1.71861 -1.07628,1.76159c0.25829,1.46078 0.73189,2.87858 1.54987,4.12459c0.17219,0.25776 0.3875,0.51552 0.5597,0.77334c0.73189,-0.77334 1.67902,0.25776 2.23871,0.77334c0.64579,0.55856 1.11932,0.73042 1.24854,0.98818c0.21524,0.30074 -0.21531,1.03116 -0.5597,1.46078c1.07628,1.03116 2.28176,2.06233 3.40109,3.05051c1.03329,-1.03116 1.76518,0 2.32488,0.4726c0.55963,0.4726 1.89426,1.16004 0.77494,2.32009c1.11932,1.07408 2.19567,2.32009 3.18584,3.69497c1.46378,-0.90229 1.42073,-0.12895 1.93738,0.81632c0.47353,0.81632 1.29152,1.24594 -0.04305,2.10524c0.77494,1.46078 1.42073,2.92157 1.76512,4.42533c0.21524,-0.04298 0.3875,0 0.5597,0.04298c0.77494,0.30074 0.38744,0.60148 0.64579,1.28892c0.51658,1.28892 0.12915,1.3319 -0.99025,2.01935z" fill="#c44d16"/><path d="M230.27356,172.54802c-3.3581,3.95273 -9.72986,6.65952 -13.4754,10.39741c-3.65944,3.65199 -4.08993,8.07732 -2.79841,12.67458c0.77494,2.8356 2.23871,4.94091 3.22896,7.7336c0.47353,1.4178 1.07628,2.92157 0.94713,4.72607c-0.12915,1.67563 -2.497,6.14394 -6.32871,6.14394c-1.72207,0 2.36793,-2.92157 3.14286,-5.41351c-0.5597,-0.08596 -0.77494,0 -0.90415,-0.51558c-0.12915,-0.51558 -0.21524,-1.3319 -0.17219,-1.63264c0.04305,-0.25782 0.4736,-0.21484 0.81799,-0.17186c-0.68884,-1.8045 -1.59292,-2.74977 -2.75529,-4.81203c-0.17226,-0.25782 -0.3014,-0.55856 -0.4736,-0.81632c-1.03329,0.04298 -1.33463,0.12888 -1.67902,-0.9452c-0.21531,-0.60155 -0.68884,-0.60155 -0.25836,-1.20303c0.0861,-0.17186 0.3014,-0.30074 0.51665,-0.3867c-0.77494,-1.46078 -1.50683,-2.92157 -2.02347,-4.42533c-1.54987,0 -1.11932,-0.68744 -1.24854,-1.46078c-0.12915,-0.81632 -0.51658,-1.3319 0.60274,-1.46078c-0.04305,-0.55856 -0.0861,-1.11713 -0.04305,-1.71861c0.04305,-0.90229 0.21531,-1.84749 0.51665,-2.74971c-1.37768,-0.64446 -0.34445,-1.50376 0,-2.06233c0.34439,-0.4726 0.64579,-1.3319 1.63597,-1.11706c0.77494,-1.16004 1.72213,-2.19121 2.79841,-3.09343c0.0861,-0.08596 0.17219,-0.12895 0.25829,-0.21484c-0.21524,-0.34372 -0.34439,-0.68744 -0.21524,-0.90229c0.12915,-0.17186 0.60274,-0.30074 1.29158,-0.77334c0.60274,-0.42962 1.67902,-1.3319 2.36786,-0.42962c1.37768,-0.73042 2.75536,-1.41787 3.96078,-2.32009c-0.94713,-0.90229 0.12921,-1.28892 0.60274,-1.67563c0.4736,-0.3867 0.9472,-1.41787 1.85128,-0.3867c1.29158,-1.16004 2.41091,-2.363 3.31499,-3.65199c-1.03323,-0.4726 -0.17219,-1.16004 0.17226,-1.71854c0.30134,-0.55856 0.21524,-1.41787 1.37761,-1.07415c0.3875,-0.98818 0.68884,-2.01935 0.90415,-3.13641c0.99018,1.16004 3.0567,2.49195 3.57335,3.90981c0.51658,1.4178 -0.4736,3.39417 -1.50683,4.68309z" fill="#da6629"/><g><path d="M236.38696,174.35253c-0.12915,0.30074 -0.3014,0.64446 -0.51665,0.98818c0.12915,0.17186 0.12915,0.4726 0,0.81632c-0.43048,1.24601 -0.94713,2.44903 -1.98042,2.19121c-0.04305,0 -0.0861,0 -0.12915,-0.04298c-1.29152,1.58973 -2.92755,3.30827 -4.69267,4.85502c0.0861,0.21484 0.04305,0.51558 -0.25829,0.81632c-0.81805,0.90229 -1.67909,1.8045 -2.49707,1.3319c-1.72207,1.20303 -3.5303,2.10524 -5.16627,2.44897c-7.49108,1.54675 -9.1701,-7.43286 -8.13687,-12.80339c0.77494,-3.86683 3.4442,-8.46402 5.12322,-12.03012c2.15262,-4.55421 1.80816,-6.27282 1.67902,-10.31144c-0.04305,-1.54675 -2.54005,-4.12459 -1.63597,-5.28463c0.90408,-1.16004 4.21914,0.81632 5.16627,3.86677c0.90408,2.96461 0.86103,4.4254 0.12915,10.01077c-0.5597,4.29645 -3.27194,9.83884 -3.87468,14.1353c-0.17219,1.46078 -0.0861,3.90981 1.80816,4.08168c3.22896,0.34365 5.33853,-5.54246 6.24261,-7.81956c0.94713,-2.40605 0.34439,-5.9291 1.67902,-8.16328c0.17219,-0.30074 2.06652,-0.81632 2.28176,-0.9452c0.90415,-0.55856 3.9178,-0.30074 4.64969,0.04298c2.41091,1.11706 4.00383,2.57784 4.26219,4.08161c0,0 -3.31506,6.10096 -4.13304,7.7336z" fill="#dc6629"/><g><path d="M219.68267,155.06148c-0.21524,-0.68744 -0.0861,-2.10524 0.5597,-2.66381c0,0 0.17219,-0.04298 0.34439,-0.0859c1.07634,-0.12895 1.16244,2.92157 0.3014,3.43715c-0.25836,0.17186 -0.60274,0.17186 -0.77494,0.17186c-0.25836,0 -0.25836,-0.34372 -0.43055,-0.8593z" fill="#e58961"/><path d="M219.38133,155.10446c-0.3014,-0.8593 -0.04305,-2.62083 1.03323,-2.74977c1.07634,-0.12888 0.99018,2.79275 0.30134,3.30827c-0.77494,0.51558 -1.07628,0.30081 -1.33457,-0.5585z" fill="#ed996d"/><path d="M219.76876,154.67477c-0.17219,-0.4726 0,-1.4178 0.5597,-1.50376c0.60274,-0.0859 0.5597,1.54675 0.17219,1.80457c-0.38744,0.25776 -0.60274,0.17186 -0.73189,-0.30081z" fill="#dc6629"/></g><g><path d="M218.00365,163.22476c0,-0.81632 0.60274,-2.27717 1.54987,-2.32009c0,0 0.21524,0.04292 0.30134,0.0859c1.07634,0.21484 0.04305,3.05051 -0.81799,3.26529c-0.30134,0.08596 -0.90408,-0.0859 -0.90408,-0.0859c-0.25829,-0.08596 -0.12915,-0.3867 -0.12915,-0.9452z" fill="#e58961"/><path d="M217.70224,163.18178c0,-0.90229 0.81799,-2.49195 1.85128,-2.2771c1.07628,0.21478 0.04305,2.96455 -0.77494,3.22231c-0.86103,0.21484 -1.07634,-0.0859 -1.07634,-0.9452z" fill="#ed996d"/><path d="M218.21889,162.88104c0,-0.4726 0.43055,-1.37489 1.03323,-1.24601c0.60274,0.12888 0.04311,1.63264 -0.43048,1.76159c-0.4736,0.12888 -0.60274,0 -0.60274,-0.51558z" fill="#dc6629"/></g><g><path d="M213.56927,173.02062c-0.21531,-0.81632 0.12915,-2.40598 1.03323,-2.70672c0.0861,-0.04298 0.21524,0.04292 0.34445,0.04292c1.07628,0.21484 0.64573,2.87865 -0.08616,3.30827c-0.38744,0.21484 -0.77494,0.25782 -0.94713,0.12895c-0.21524,-0.04298 -0.21524,-0.30081 -0.34439,-0.77341z" fill="#e58961"/><path d="M213.35396,172.97771c-0.21524,-0.8593 0.17226,-2.62089 1.24854,-2.66381c1.07634,-0.04298 0.77494,2.87858 0.04305,3.30827c-0.73189,0.42962 -1.07628,0.21478 -1.29158,-0.64446z" fill="#ed996d"/><path d="M213.78451,172.591c-0.12915,-0.4726 0.0861,-1.4178 0.68884,-1.46078c0.60274,0 0.43055,1.58966 0,1.8045c-0.3875,0.25776 -0.5597,0.12888 -0.68884,-0.34372z" fill="#dc6629"/></g><g><path d="M213.31091,182.47283c-0.43048,-0.68744 -0.55963,-2.36307 0.17226,-2.92157c0.0861,-0.04298 0.17219,-0.04298 0.25829,-0.08596c0.99018,-0.12888 1.54987,2.57791 0.99018,3.22237c-0.25829,0.25776 -0.64579,0.42962 -0.86103,0.42962c-0.25829,0 -0.30134,-0.21478 -0.5597,-0.64446z" fill="#e58961"/><path d="M213.09567,182.42985c-0.4736,-0.77334 -0.64579,-2.53486 0.3875,-2.92157c1.03323,-0.34372 1.63597,2.49195 1.03323,3.13641c-0.60274,0.68744 -0.94713,0.55856 -1.42073,-0.21484z" fill="#ed996d"/><path d="M213.39701,181.91427c-0.25829,-0.42962 -0.34439,-1.4178 0.21531,-1.58966c0.5597,-0.21484 0.90408,1.37489 0.5597,1.71861c-0.3014,0.38664 -0.51665,0.30074 -0.775,-0.12895z" fill="#dc6629"/></g><g><path d="M219.76876,188.31603c-0.90408,0.12888 -2.5831,-0.3867 -2.54005,-1.46078c0.04305,-1.07415 2.92755,-0.55856 3.31499,0.25776c0.21531,0.4726 0.25836,0.90229 0,1.07415c-0.12915,0.12888 -0.38744,0.0859 -0.77494,0.12888z" fill="#e58961"/><path d="M219.72571,188.5308c-0.90408,0.12895 -2.5831,-0.38664 -2.54005,-1.46078c0.04305,-1.07408 2.92755,-0.5585 3.31499,0.25782c0.3875,0.81632 0.12915,1.07408 -0.77494,1.20296z" fill="#ed996d"/><path d="M219.38133,188.0582c-0.4736,0.08596 -1.42073,-0.21478 -1.37768,-0.81632c0.04305,-0.60148 1.59292,-0.30074 1.80816,0.12888c0.17219,0.47267 0.04305,0.64453 -0.43048,0.68744z" fill="#dc6629"/></g></g><path d="M272.20644,219.68011c-2.45402,1.07408 -4.60657,-3.73795 -5.08017,-5.3706c-1.33463,-4.33937 0.04305,-9.19438 -0.0861,-13.6627c-0.17219,-4.89793 -1.20549,-8.89364 -4.69274,-12.54563c-2.54005,-2.66381 -5.9412,-4.38235 -8.91181,-6.44468c-4.60657,-3.17939 -9.21315,-9.36624 -8.61047,-13.79157c0.60274,-4.46831 5.16627,-3.73795 5.16627,-3.73795c-0.12915,1.46078 0.81805,3.69497 1.54994,4.94091c1.42073,-0.90222 1.42073,0.21484 1.85121,0.90229c0.43055,0.64446 1.50683,1.4178 0.3014,2.10524c0.90408,1.07415 1.85121,2.10524 2.84139,3.09343c0.81805,-0.85924 1.29158,0.21484 1.72213,0.68744c0.43048,0.42969 1.42073,0.8593 0.77494,1.8045c1.03323,1.03116 2.10957,2.10524 3.09975,3.17939c0.94713,-1.24594 1.85128,0.17186 2.36786,0.81632c0.5597,0.68744 1.03329,0.9452 1.11939,1.20303c0.12915,0.30074 -0.25836,0.8593 -0.64579,1.28892c0.77494,0.98818 1.50683,2.01935 2.15262,3.09343c0.21524,0.34372 0.43048,0.68744 0.60274,1.07415c1.24847,-0.42969 1.46378,0.81632 1.76512,1.46078c0.3014,0.68744 1.20549,1.84749 -0.21524,2.49195c0.34439,1.07408 0.64579,2.10524 0.94713,3.17939c0.17219,0.5585 0.3014,1.16004 0.43055,1.76152c1.42073,-0.08596 1.07628,0.60148 1.07628,1.63264c0.04305,0.8593 0.4736,1.58966 -0.64579,1.84749c0.04305,1.58966 0,3.17939 -0.0861,4.81203c0.3014,0.0859 0.5597,0.17186 0.68884,0.30074c0.64579,0.60148 0.17219,0.73036 0.17219,1.50376c0,1.24594 -0.25829,1.3319 -1.03323,1.50376c-0.0861,1.50376 -0.17219,3.00746 -0.12915,4.51123c0.25829,-0.0859 0.5597,-0.12888 0.64579,0.08596c0.12915,0.34372 0.30134,1.3319 0.34439,1.8904c0.04305,0.60155 -0.21524,0.55856 -0.73189,0.73042c0.3875,1.28892 1.11939,2.32009 1.24854,3.65199z" fill="#dc6629"/><path d="M257.52563,189.51899c-0.0861,0.25782 -0.4736,0.42969 -0.90408,0.51558c-0.04311,1.8045 -0.43055,3.52311 -1.07634,5.19874c0.68884,0.64446 0.04305,1.46078 -0.21524,2.06226c-0.3014,0.60155 -0.5597,1.93345 -1.76518,1.54675c-1.03323,1.46078 -2.32481,2.57784 -3.70249,3.65199c0.3875,0.64446 -0.21524,0.8593 -0.86103,1.46078c-0.64579,0.64446 -0.86103,1.46078 -1.89426,0.73042c-1.11939,0.9452 -2.10957,2.01928 -2.88451,3.35118c0.0861,0.04298 0.17219,0.08596 0.21524,0.17186c0.51665,0.68744 0.04305,0.73042 -0.0861,1.50376c-0.17219,1.16004 -0.43055,1.24601 -1.20549,1.28892c-0.34439,1.89047 0.04305,3.78094 1.76518,5.06986c0.0861,-0.30074 0.25829,-0.81632 0.55963,-0.77341c0.3875,0.04298 1.24854,0.47267 1.76518,0.77341c0.60274,0.34372 0.34439,0.5585 0.17219,1.16004c0.4736,0.12888 0.99018,0.21478 1.54987,0.30074c0.3875,0.0859 0.3875,0.90222 -1.16244,1.20303c-3.31499,0.64446 -4.86486,-0.73042 -6.1134,-1.84749c-1.63597,-1.46078 -2.10957,-3.26529 -1.85121,-5.41351c0.25829,-2.01935 0.64573,-4.33943 1.98036,-6.10102c1.42073,-1.8904 3.22896,-4.16751 4.95103,-5.75723c1.72207,-1.63264 4.17609,-3.35118 4.82188,-5.80022c0.86103,-3.17932 -0.43055,-6.53057 -1.63604,-9.28028c-0.77494,-1.76159 -3.40109,-5.97208 -5.29541,-9.19445c-1.67902,-2.87858 -3.35804,-2.363 -3.70249,-5.11277c-0.34439,-2.74971 4.26219,-2.06226 4.26219,-2.06226c0.68884,0.38664 1.20549,1.20296 2.75536,3.00753c1.24847,-1.03116 1.42073,0.0859 1.93731,0.68738c0.51665,0.60155 1.67909,1.16004 0.5597,2.06233c0.99018,1.20303 1.93738,2.66381 2.71231,4.16757c0.94713,-0.60155 1.11932,0.5585 1.46378,1.07408c0.34439,0.60148 1.33463,1.28892 0,2.19121c0.64579,1.63264 1.16237,3.22231 1.50683,4.51129c1.67902,-0.47267 1.46378,1.24594 1.42073,2.10524c0,0.90222 0.17219,1.37482 -0.04305,1.54668z" fill="#d15a22"/><g><path d="M267.16932,166.61893c-2.36786,0.17186 -3.4442,-2.92157 -6.67309,2.40605c-3.74554,6.18685 -0.90408,14.1353 -4.82188,19.97849c-2.75536,4.12459 -8.61047,4.76905 -11.62412,0.90222c-0.81799,-1.03116 -1.46378,-2.2771 -1.98036,-3.65199c-0.0861,0.04298 -0.17226,0.04298 -0.25836,0.04298c-1.07628,0 -1.24847,-1.28892 -1.29152,-2.62083c0,-0.55856 0.21524,-0.81632 0.55963,-0.8593c-0.30134,-1.46078 -0.55963,-3.00753 -0.73189,-4.51129c-0.55963,-0.4726 -0.64579,-1.63264 -0.51658,-2.32009c0.04305,-0.21478 0.0861,-0.42962 0.17219,-0.5585c-0.34445,-2.83567 -0.64579,-5.58537 -1.33463,-7.77658c0,0 0.17219,-2.66381 4.13304,-2.66381c3.96078,0 4.17602,1.89047 4.17602,1.89047c0,0 0.0861,16.92798 2.41097,17.31469c4.04688,0.64446 4.60657,-14.17828 7.36193,-17.70139c6.24254,-7.94844 14.46551,-0.08596 10.41863,0.12888z" fill="#dc6629"/><g><path d="M260.58233,168.85312c-0.12915,-0.08596 -0.34445,-0.25782 -0.43055,-0.51558c-0.25829,-0.81632 1.37768,-2.70679 2.02347,-2.06233c0.0861,0.12888 0.17219,0.25782 0.17219,0.25782c0.0861,0.64446 -0.55963,1.67556 -1.07628,1.97637c-0.43055,0.25776 -0.5597,0.4726 -0.68884,0.34372z" fill="#e58961"/><path d="M260.32404,168.38045c-0.21531,-0.73036 1.29152,-2.62083 1.93731,-1.97637c0.60274,0.64446 -0.17219,1.93345 -0.81799,2.32009c-0.64579,0.3867 -0.94713,0.34372 -1.11932,-0.34372z" fill="#ed996d"/><path d="M260.75452,168.07971c-0.0861,-0.38664 0.73189,-1.4178 1.07634,-1.07408c0.34439,0.34372 -0.0861,1.0311 -0.43055,1.24594c-0.34439,0.21484 -0.51665,0.17186 -0.64579,-0.17186z" fill="#dc6629"/></g><g><path d="M258.7741,176.37187c0,0 -0.64573,-0.17186 -0.86103,-0.3867c-0.64579,-0.60148 -0.17219,-3.56603 0.86103,-3.26529c0.08616,0.04298 0.3014,0.08596 0.3014,0.08596c0.77494,0.4726 0.60274,2.06226 0.21524,2.79269c-0.25829,0.51558 -0.25829,0.81632 -0.51665,0.77334z" fill="#e58961"/><path d="M258.21447,175.98517c-0.60274,-0.60148 -0.17226,-3.48013 0.86103,-3.17932c1.03323,0.30074 0.99018,2.10524 0.5597,2.87858c-0.43055,0.81632 -0.77494,0.9452 -1.42073,0.30074z" fill="#ed996d"/><path d="M258.51581,175.38369c-0.34439,-0.34372 -0.0861,-1.93338 0.4736,-1.76152c0.5597,0.17186 0.51658,1.16004 0.30134,1.58966c-0.21524,0.42962 -0.43048,0.4726 -0.77494,0.17186z" fill="#dc6629"/></g><g><path d="M257.69782,184.53516c-0.25829,0.0859 -0.60274,-0.08596 -0.90408,-0.3867c-0.60274,-0.60148 -0.25836,-3.26529 0.81799,-3.17939c0.12915,0 0.25829,0 0.34439,0.04298c0.73189,0.51558 0.60274,2.14823 0.21531,2.87865c-0.21531,0.38664 -0.3014,0.64446 -0.4736,0.64446z" fill="#e58961"/><path d="M257.00898,184.19144c-0.60274,-0.64446 -0.0861,-3.52311 0.94713,-3.17939c1.03329,0.30074 0.90415,2.10524 0.4736,2.87865c-0.4736,0.77334 -0.81799,0.90222 -1.42073,0.30074z" fill="#ed996d"/><path d="M257.35343,183.50399c-0.34445,-0.30074 -0.04311,-1.89047 0.51658,-1.71861c0.5597,0.17186 0.51665,1.16004 0.25836,1.58973c-0.25836,0.42962 -0.4736,0.51558 -0.77494,0.12888z" fill="#dc6629"/></g><g><path d="M252.78984,191.58132c-0.12915,-0.12888 -0.34439,-0.4726 -0.38744,-0.8593c-0.0861,-0.90222 2.06652,-2.62083 2.75536,-1.93338c0.0861,0.04298 0.12915,0.12888 0.17219,0.21484c0.25829,0.90222 -0.90408,2.10524 -1.67909,2.40598c-0.47353,0.17186 -0.64573,0.34372 -0.86103,0.17186z" fill="#e58961"/><path d="M252.5746,190.85089c-0.0861,-0.85924 2.19567,-2.70672 2.75536,-1.8045c0.5597,0.90229 -0.64579,2.19121 -1.50683,2.49195c-0.81799,0.30074 -1.16244,0.17186 -1.24854,-0.68744z" fill="#ed996d"/><path d="M253.22039,190.55015c-0.04305,-0.4726 1.20549,-1.50376 1.50683,-0.98818c0.30134,0.4726 -0.34445,1.20303 -0.81799,1.37489c-0.43055,0.17186 -0.64579,0.0859 -0.68884,-0.3867z" fill="#dc6629"/></g><g><path d="M243.92108,190.59313c-0.04305,-0.25776 0.21524,-0.60148 0.68884,-0.81632c0.77494,-0.3867 3.40115,0.9452 2.75536,1.84749c-0.60274,0.8593 -2.28176,0.21478 -2.88451,-0.42969c-0.21524,-0.25776 -0.4736,-0.38664 -0.5597,-0.60148z" fill="#e58961"/><path d="M244.52383,189.99165c0.77494,-0.3867 3.40115,0.9452 2.75536,1.84742c-0.60274,0.8593 -2.28176,0.21484 -2.88451,-0.42962c-0.60274,-0.68744 -0.60274,-1.03116 0.12915,-1.4178z" fill="#ed996d"/><path d="M245.08352,190.50717c0.43048,-0.21478 1.85121,0.55856 1.50683,1.03116c-0.34445,0.4726 -1.24854,0.08596 -1.59292,-0.25776c-0.34445,-0.3867 -0.34445,-0.55856 0.0861,-0.77341z" fill="#dc6629"/></g></g></g></g></g></svg>