<svg version="1.1" xmlns="http://www.w3.org/2000/svg" xmlns:xlink="http://www.w3.org/1999/xlink" width="92.84185" height="40.21827" viewBox="0,0,92.84185,40.21827"><g transform="translate(-193.57907,-159.92929)"><g data-paper-data="{&quot;isPaintingLayer&quot;:true}" fill-rule="evenodd" stroke-linecap="butt" stroke-linejoin="miter" stroke-miterlimit="10" stroke-dasharray="" stroke-dashoffset="0" style="mix-blend-mode: normal"><path d="M221.94481,171.28836c2.21713,-0.99019 0.67577,4.15013 0.67577,4.15013c0,0 -7.37989,7.13084 -16.10067,7.13084c-8.72082,0 -11.52912,-5.41411 -12.26823,-7.73122c-0.73887,-2.31738 -0.44799,-4.02881 0.40136,-4.11852c0.69681,-0.07383 0.85517,1.31654 1.09793,2.22256c0.24273,0.90578 1.93206,7.69965 10.73725,7.17306c8.80519,-0.52682 15.45658,-8.82685 15.45658,-8.82685" fill="#493c59" stroke="none" stroke-width="1"/><path d="M222.62058,175.43849c0,0 -7.37989,7.13084 -16.10067,7.13084c-8.72082,0 -11.52912,-5.41411 -12.26823,-7.73122c-0.73887,-2.31738 -0.44799,-4.02881 0.40136,-4.11852c0.69681,-0.07383 0.85517,1.31654 1.09793,2.22256c0.24273,0.90578 1.93206,7.69965 10.73725,7.17306c8.80519,-0.52682 15.45658,-8.82685 15.45658,-8.82685c2.21713,-0.99019 0.67577,4.15013 0.67577,4.15013z" fill="none" stroke="#2a0d37" stroke-width="0.5"/><g><path d="M271.09121,174.23226c0,0 -4.25994,3.85515 -4.33924,10.69655c0,0 -0.07906,7.97871 2.05873,11.21752c0,0 0.26938,0.63199 1.67872,0.36351c1.40957,-0.26872 2.72108,-0.7379 3.18328,-0.09479c0.68085,0.94796 -1.31455,3.48123 -1.31455,3.48123h-5.47951c0,0 -0.44343,-0.1317 -1.66272,-3.19682c-1.1121,-2.79519 -5.41637,-12.07097 -5.41637,-12.07097c0,0 1.04521,-4.85065 -0.36413,-8.35794" fill="#3a314f" stroke="none" stroke-width="1"/><path d="M271.09121,174.23226c0,0 -4.25994,3.85515 -4.33924,10.69655c0,0 -0.07906,7.97871 2.05873,11.21752c0,0 0.26938,0.63199 1.67872,0.36351c1.40957,-0.26872 2.72108,-0.7379 3.18328,-0.09479c0.68085,0.94796 -1.31455,3.48123 -1.31455,3.48123h-5.47951c0,0 -0.44343,-0.1317 -1.66272,-3.19682c-1.1121,-2.79519 -5.41637,-12.07097 -5.41637,-12.07097c0,0 1.04521,-4.85065 -0.36413,-8.35794" fill="none" stroke="#2a0d37" stroke-width="0.5"/></g><path d="M270.6161,197.63161c0.15129,-0.08644 0.30989,-0.15851 0.47055,-0.227c0.16066,-0.06927 0.32663,-0.12667 0.49814,-0.17241c0.08542,-0.02451 0.17408,-0.03996 0.26431,-0.05358c0.09069,-0.01139 0.18447,-0.0167 0.28355,-0.00632c0.05143,0.01339 0.10084,0.01112 0.15352,0.04218l0.07731,0.04019c0.02256,0.0215 0.04511,0.04476 0.06638,0.06853c0.01167,0.01592 0.01799,0.01518 0.03321,0.04527l0.01417,0.02907c0.0094,0.02045 0.01928,0.03637 0.02814,0.06064c0.01444,0.05132 0.03625,0.11223 0.03801,0.15777c0.02685,0.19613 -0.00355,0.37966 -0.04105,0.55589c-0.03824,0.17693 -0.09604,0.34579 -0.16316,0.50988c-0.13077,0.32913 -0.30029,0.63882 -0.49642,0.93153l-0.00734,0.01139l-0.00203,0.00148c-0.05674,0.04375 -0.10845,0.09986 -0.17053,0.1287c-0.06158,0.03032 -0.12136,0.06622 -0.18548,0.08164c-0.12616,0.04222 -0.25361,0.06244 -0.37982,0.07535c-0.12667,0.01237 -0.25264,0.01136 -0.37755,0.00983c-0.12491,-0.00226 -0.24932,-0.01163 -0.37299,-0.02552c0.24706,-0.03009 0.49412,-0.05256 0.72978,-0.11172c0.11781,-0.02607 0.2341,-0.05916 0.33802,-0.10845c0.056,-0.01846 0.09982,-0.0526 0.14747,-0.08015c0.0489,-0.02704 0.07676,-0.0713 0.11703,-0.10365l-0.00937,0.01292c0.168,-0.29377 0.31597,-0.60065 0.43785,-0.91386c0.06006,-0.15699 0.11227,-0.31625 0.15153,-0.47554c0.019,-0.07988 0.03598,-0.16027 0.04359,-0.23914c0.01015,-0.07937 0.01139,-0.15746 0.00507,-0.23079c0,-0.04144 -0.01167,-0.06193 -0.01393,-0.09506c-0.00433,-0.01694 -0.01573,-0.03891 -0.02334,-0.05815l-0.01264,-0.02958c0.00632,0.01011 -0.00558,-0.00402 -0.0071,-0.0048c-0.01647,-0.04121 -0.08566,-0.06041 -0.15153,-0.07961c-0.07223,-0.01393 -0.15204,-0.01694 -0.23363,-0.01366c-0.08183,0.00531 -0.16445,0.01389 -0.24803,0.02654c-0.33396,0.05182 -0.66922,0.14056 -1.00166,0.24015" fill="#2a0d37" stroke="none" stroke-width="1"/><g><path d="M243.17831,176.19676c0,0 -2.71324,5.55744 -7.2988,8.63723c-4.56374,3.06516 -6.31716,3.68856 -6.72058,3.8971c-0.32027,0.16558 -0.65751,0.42797 -0.74289,0.84939c-0.10415,0.51367 0.02938,1.24677 0.52272,2.59492c0.29798,0.81528 1.56364,3.69714 1.56364,3.69714c0,0 0.33525,0.84256 0.7713,0.948c0.43586,0.1054 2.243,-0.35976 2.243,-0.35976c0,0 1.62545,-0.46185 2.13401,-0.10365c0.61853,0.43531 0.62485,1.64446 -0.19766,3.54042h-6.56675l-5.42402,-10.95563c0,0 -0.47,-0.90453 -0.35016,-1.47408c0.11984,-0.56951 1.19623,-1.43307 1.74963,-2.25467c0.5534,-0.82157 3.91482,-5.48919 3.29301,-13.1911" fill="#3a314f" stroke="none" stroke-width="1"/><path d="M243.17831,176.19676c0,0 -2.71324,5.55744 -7.2988,8.63723c-4.56374,3.06516 -6.31716,3.68856 -6.72058,3.8971c-0.32027,0.16558 -0.65751,0.42797 -0.74289,0.84939c-0.10415,0.51367 0.02938,1.24677 0.52272,2.59492c0.29798,0.81528 1.56364,3.69714 1.56364,3.69714c0,0 0.33525,0.84256 0.7713,0.948c0.43586,0.1054 2.243,-0.35976 2.243,-0.35976c0,0 1.62545,-0.46185 2.13401,-0.10365c0.61853,0.43531 0.62485,1.64446 -0.19766,3.54042h-6.56675l-5.42402,-10.95563c0,0 -0.47,-0.90453 -0.35016,-1.47408c0.11984,-0.56951 1.19623,-1.43307 1.74963,-2.25467c0.5534,-0.82157 3.91482,-5.48919 3.29301,-13.1911" fill="none" stroke="#2a0d37" stroke-width="0.5"/></g><path d="M233.20791,197.61062c0,0 0.05779,-0.02552 0.16218,-0.0599c0.10462,-0.03161 0.25412,-0.08214 0.44038,-0.11879c0.09299,-0.01897 0.19512,-0.0359 0.30532,-0.04554c0.11048,-0.00808 0.22907,-0.01463 0.35804,0.00484c0.06536,0.01237 0.13354,0.02857 0.2055,0.06572c0.03723,0.02275 0.06739,0.04449 0.10868,0.08897l0.05346,0.07356c0.07781,0.12211 0.12772,0.27582 0.13252,0.41205c0.0094,0.28163 -0.07247,0.53392 -0.16113,0.75437c-0.08995,0.22091 -0.19336,0.41381 -0.28507,0.57685c-0.08995,0.16382 -0.17533,0.29451 -0.2293,0.38907c-0.056,0.09354 -0.09124,0.14587 -0.09124,0.14587c0,0 0.01471,-0.06119 0.04613,-0.16585c0.03418,-0.10365 0.07805,-0.25432 0.14216,-0.42899c0.06131,-0.17545 0.13857,-0.37744 0.20776,-0.59281c0.06513,-0.21463 0.131,-0.44795 0.11781,-0.66383c-0.00355,-0.11223 -0.03294,-0.20097 -0.08008,-0.2869l-0.05116,-0.07535c-0.0023,0.00355 -0.01725,-0.01666 -0.03017,-0.02501c-0.03372,-0.02072 -0.07957,-0.03668 -0.12769,-0.04979c-0.20398,-0.04222 -0.42243,-0.0382 -0.60487,-0.03364c-0.18345,0.00757 -0.33951,0.01288 -0.44772,0.02326c-0.10923,0.00757 -0.17155,0.01186 -0.17155,0.01186" fill="#2a0d37" stroke="none" stroke-width="1"/><path d="M277.01107,162.63239c0.52932,-0.03664 0.93423,0.20097 1.26999,0.42169c0.20928,0.13752 1.97159,1.49679 3.06953,2.29713c1.09817,0.80061 1.23803,1.06023 1.28037,1.30265c0.0423,0.24218 0.22169,2.29615 0.22169,2.29615c0,0 2.26985,1.72734 2.92436,2.20183c0.65474,0.47449 0.29568,1.04228 0.29568,1.04228c0,0 -0.91245,1.31147 -1.47139,1.84996c-0.38669,0.3726 -2.23438,0.478 -2.6355,0.478c-0.42239,-0.00023 -1.81601,-0.42138 -3.34698,-0.72678c-1.5307,-0.30563 -3.47771,-0.55562 -4.50798,-1.67474c-1.54163,-1.67478 -1.21426,-4.43454 -1.21426,-4.43454" fill="#493c59" stroke="none" stroke-width="1"/><path d="M273.00213,165.12897c0.21108,-1.45359 -1.41465,-3.99216 0.25338,-4.86633c1.66803,-0.87417 3.78838,2.38439 4.17023,2.8915c0.55976,0.74243 0.98188,0.60038 0.98188,0.60038l-0.05268,0.52908c0,0 -1.30597,1.27007 -1.33028,1.3062c-2.20652,3.30554 -3.71642,0.43176 -3.75849,0.40019c-0.04234,-0.03161 -0.26403,-0.86102 -0.26403,-0.86102" fill="#493c59" stroke="none" stroke-width="1"/><path d="M279.13724,163.71093c0,0 -0.3388,-0.05916 -0.65552,0.499c-0.31676,0.55819 -2.68159,-0.02096 -2.83995,-0.61072c-0.1584,-0.59004 -0.0137,-3.08814 0.96057,-3.15994c1.4253,-0.1054 2.5349,3.27167 2.5349,3.27167" fill="#493c59" stroke="none" stroke-width="1"/><path d="M276.43047,173.33456c-3.02722,-0.66637 -11.76908,6.11158 -13.11504,6.90157c-1.29863,0.76217 -8.95824,5.35624 -14.57508,5.35624c-5.61656,0 -9.14294,-2.6124 -14.37969,-5.77235c-2.1794,-1.31529 -4.96865,1.49531 -9.82937,0.21085c-4.78267,-1.26398 -3.43998,-8.84581 -3.30441,-9.22704c0.23207,-0.65322 2.34329,-2.41748 2.34329,-2.41748c0,0 2.66106,-2.74383 5.06824,-3.1018c6.14717,-0.9146 15.1186,1.85374 19.23611,1.85374c4.11755,0 9.04819,-0.86379 12.07819,-1.95915c3.03027,-1.09563 4.09651,-1.10597 4.09651,-1.10597c1.7314,0 1.68906,1.26398 4.68764,1.26398c1.626,0 4.11122,-1.62623 4.11122,-1.62623" fill="#493c59" stroke="none" stroke-width="1"/><path d="M276.30618,165.29732c-0.85517,0.54325 -2.25288,-0.11933 -3.12174,-1.47986c-0.86886,-1.36107 -0.87975,-2.90488 -0.02482,-3.44837c0.85544,-0.54329 2.25288,0.11957 3.12174,1.48009c0.86886,1.36056 0.87998,2.90488 0.02482,3.44813" fill="#6c5e7f" stroke="none" stroke-width="1"/><path d="M277.01107,162.63239c0.52932,-0.03664 0.93423,0.20097 1.26999,0.42169c0.20928,0.13752 1.97159,1.49679 3.06953,2.29713c1.09817,0.80061 1.23803,1.06023 1.28037,1.30265c0.0423,0.24218 0.22169,2.29615 0.22169,2.29615c0,0 2.26985,1.72734 2.92436,2.20183c0.65474,0.47449 0.29568,1.04228 0.29568,1.04228c0,0 -0.91245,1.31147 -1.47139,1.84996c-0.38669,0.3726 -2.23438,0.478 -2.6355,0.478c-0.42239,-0.00023 -1.81601,-0.42138 -3.34698,-0.72678c-1.5307,-0.30563 -3.47771,-0.55562 -4.50798,-1.67474c-1.54163,-1.67478 -1.21426,-4.43454 -1.21426,-4.43454" fill="none" stroke="#2a0d37" stroke-width="0.5"/><path d="M273.1078,165.64256c0,0 0.00402,-0.04777 0.01163,-0.13779c0.00254,-0.08999 0.00433,-0.2222 -0.01417,-0.3893c-0.03017,-0.33521 -0.1376,-0.80412 -0.27976,-1.36306c-0.13377,-0.55995 -0.32483,-1.21239 -0.35675,-1.94576c-0.00738,-0.36226 0.03063,-0.76295 0.24858,-1.10523c0.10845,-0.16886 0.26048,-0.31117 0.43328,-0.41482c0.03902,-0.02579 0.09171,-0.05561 0.13354,-0.07559c0.04484,-0.02049 0.08058,-0.04753 0.13455,-0.0622c0.10107,-0.0384 0.20398,-0.05358 0.30583,-0.06646c0.41478,-0.03364 0.81208,0.10946 1.14683,0.30259c0.33876,0.19336 0.63398,0.43582 0.90078,0.68506c0.53236,0.50204 0.95604,1.03545 1.30292,1.50007c0.17408,0.23032 0.32433,0.45556 0.46345,0.63328c0.14341,0.18099 0.28405,0.31196 0.41681,0.39816c0.06462,0.04523 0.13124,0.06193 0.17916,0.1006c0.05042,0.03461 0.0983,0.05916 0.13908,0.07305c0.08211,0.03009 0.13432,0.02931 0.13432,0.02931c0,0 -0.04234,0.03313 -0.14115,0.04577c-0.04917,0.00734 -0.11122,0.00808 -0.18447,-0.00051c-0.07676,-0.00277 -0.14369,-0.05713 -0.22298,-0.09935c-0.15102,-0.09682 -0.31164,-0.24975 -0.45939,-0.43656c-0.15001,-0.19188 -0.29319,-0.40803 -0.46723,-0.63858c-0.34337,-0.45982 -0.76244,-0.9864 -1.28189,-1.47631c-0.25998,-0.24296 -0.54657,-0.47753 -0.86734,-0.66032c-0.3175,-0.18376 -0.68186,-0.30965 -1.04221,-0.28007c-0.08968,0.01288 -0.17658,0.03083 -0.25818,0.05561c-0.04055,0.00706 -0.08843,0.03032 -0.1328,0.0455c-0.04812,0.01541 -0.0793,0.03212 -0.12109,0.05838c-0.15812,0.08952 -0.29521,0.21108 -0.39605,0.35925c-0.20296,0.29955 -0.25315,0.67597 -0.25467,1.02761c0.0119,0.71312 0.18497,1.37164 0.30435,1.93413c0.12745,0.56272 0.21865,1.03772 0.23894,1.37492c0.01342,0.16839 0.00706,0.30134 0.00203,0.39133c-0.01042,0.08952 -0.01596,0.13729 -0.01596,0.13729" fill="#2a0d37" stroke="none" stroke-width="1"/><path d="M276.30618,165.29732c-0.85517,0.54325 -2.25288,-0.11933 -3.12174,-1.47986c-0.86886,-1.36107 -0.87975,-2.90488 -0.02482,-3.44837c0.85544,-0.54329 2.25288,0.11957 3.12174,1.48009c0.86886,1.36056 0.87998,2.90488 0.02482,3.44813z" fill="none" stroke="#2a0d37" stroke-width="0.5"/><path d="M281.52755,169.23957c-0.38107,-0.28007 -0.64155,-0.34786 -1.29859,-0.60569c-0.98035,-0.3845 -0.70972,-1.68539 -0.70972,-1.68539c0.11325,0.24776 0.42567,0.4773 0.6147,0.57942c0.28429,0.15344 0.15204,0.0766 0.85013,0.42594c0.75382,0.37693 0.54348,1.28571 0.54348,1.28571" fill="#fcbe8d" stroke="none" stroke-width="1"/><path d="M275.84555,161.19558c0,0 0.2501,-0.67749 0.75686,-0.75636c0.50676,-0.07914 1.56364,0.45958 2.5349,3.27167" fill="none" stroke="#2a0d37" stroke-width="0.5"/><path d="M276.43047,173.33456c-3.02722,-0.66637 -11.76908,6.11158 -13.11504,6.90157c-1.29863,0.76217 -8.95824,5.35624 -14.57508,5.35624c-5.61656,0 -9.14294,-2.6124 -14.37969,-5.77235c-2.1794,-1.31529 -4.96865,1.49531 -9.82937,0.21085c-4.78267,-1.26398 -3.43998,-8.84581 -3.30441,-9.22704c0.23207,-0.65322 2.34329,-2.41748 2.34329,-2.41748c0,0 2.66106,-2.74383 5.06824,-3.1018c6.14717,-0.9146 15.1186,1.85374 19.23611,1.85374c4.11755,0 9.04819,-0.86379 12.07819,-1.95915c3.03027,-1.09563 4.09651,-1.10597 4.09651,-1.10597c1.7314,0 1.68906,1.26398 4.68764,1.26398c1.626,0 4.11122,-1.62623 4.11122,-1.62623" fill="none" stroke="#2a0d37" stroke-width="0.5"/><path d="M281.25712,168.51319c-0.06259,0.25202 -0.26048,0.41989 -0.44218,0.3749c-0.18169,-0.04476 -0.2782,-0.28542 -0.21564,-0.53747c0.06259,-0.25202 0.26076,-0.41989 0.44218,-0.3749c0.18169,0.04476 0.2782,0.28542 0.21564,0.53747" fill="#2a0d37" stroke="none" stroke-width="1"/><path d="M280.22896,168.63389c-0.98035,-0.3845 -0.70972,-1.68539 -0.70972,-1.68539c0.11325,0.24776 0.42567,0.4773 0.6147,0.57942c0.28429,0.15344 0.19434,0.10287 0.8947,0.44768c0.60967,0.30009 0.49892,1.26398 0.49892,1.26398c-0.38107,-0.28007 -0.64155,-0.34786 -1.29859,-0.60569z" fill="none" stroke="#2a0d37" stroke-width="0.5"/><path d="M286.00318,171.36406c0,0 0.19079,0.23508 0.11703,0.56674c-0.05725,0.25736 -0.42696,0.79 -0.42696,0.79c-0.06334,-0.04195 -1.13032,-0.44241 -0.92966,-1.10597c0.16292,-0.53896 1.23959,-0.25077 1.23959,-0.25077" fill="#2a0d37" stroke="none" stroke-width="1"/><g><path d="M270.6161,175.03806c0,0 -7.23722,6.39875 -10.11974,10.33301c-1.98506,2.70969 -4.31825,8.08161 -4.64788,9.18758c-0.32156,1.07741 -0.58204,2.08277 0.39578,2.09339c1.46483,0.01569 3.47623,-0.29225 3.99084,-0.06322c0.56557,0.25182 -0.25541,1.63486 -0.60963,2.24359c-0.48296,0.82941 -0.61778,1.06375 -2.24882,1.06375h-4.29187c0,0 -0.63347,0.07383 -1.15596,-0.85848c-0.38235,-0.68206 -0.29038,-1.02687 0.04737,-2.67004c0.33779,-1.64317 1.30394,-8.12103 1.15623,-12.20798c0,0 3.9275,-4.97146 4.51863,-8.95297" fill="#493c59" stroke="none" stroke-width="1"/><path d="M270.6161,175.03806c0,0 -7.23722,6.39875 -10.11974,10.33301c-1.98506,2.70969 -4.31825,8.08161 -4.64788,9.18758c-0.32156,1.07741 -0.58204,2.08277 0.39578,2.09339c1.46483,0.01569 3.47623,-0.29225 3.99084,-0.06322c0.56557,0.25182 -0.25541,1.63486 -0.60963,2.24359c-0.48296,0.82941 -0.61778,1.06375 -2.24882,1.06375h-4.29187c0,0 -0.63347,0.07383 -1.15596,-0.85848c-0.38235,-0.68206 -0.29038,-1.02687 0.04737,-2.67004c0.33779,-1.64317 1.30394,-8.12103 1.15623,-12.20798c0,0 3.9275,-4.97146 4.51863,-8.95297" fill="none" stroke="#2a0d37" stroke-width="0.5"/></g><path d="M256.95437,197.46315c0,0 0.09377,-0.02759 0.25795,-0.07586c0.16472,-0.04472 0.40034,-0.10868 0.68288,-0.18556c0.14189,-0.03563 0.29545,-0.07457 0.45814,-0.11551c0.15762,-0.04222 0.34993,-0.08597 0.55515,-0.06068c0.10162,0.01315 0.22146,0.04804 0.31168,0.14689c0.09198,0.09935 0.11325,0.23559 0.1072,0.34583c-0.01015,0.10767 -0.01701,0.19414 -0.02915,0.29424l-0.05729,0.2983l-0.07044,0.28819c-0.02888,0.09405 -0.05776,0.18782 -0.0864,0.28062c-0.06131,0.18454 -0.12616,0.36475 -0.20195,0.53466c-0.0798,0.17416 -0.14115,0.32585 -0.27215,0.49115c-0.1728,0.14361 -0.33697,0.15574 -0.48624,0.18482c-0.29822,0.04449 -0.54454,0.02958 -0.71581,0.02654c-0.17155,-0.00734 -0.26883,-0.02049 -0.26883,-0.02049c0,0 0.09705,-0.01112 0.26681,-0.03059c0.16874,-0.01869 0.4115,-0.05459 0.68768,-0.12234c0.13077,-0.03614 0.29572,-0.08823 0.37502,-0.17088c0.06462,-0.1049 0.13963,-0.28339 0.20043,-0.4444c0.06135,-0.16811 0.1214,-0.34356 0.17814,-0.52331c0.05424,-0.18076 0.10517,-0.36452 0.15227,-0.54934l0.05779,-0.27274c0.01444,-0.09354 0.02888,-0.18657 0.04308,-0.2791c0.01721,-0.16253 -0.06135,-0.24444 -0.22376,-0.2748c-0.15863,-0.02806 -0.32105,-0.00351 -0.48752,0.03036c-0.16569,0.0263 -0.3223,0.05104 -0.46672,0.07379c-0.29014,0.0407 -0.53162,0.07457 -0.70087,0.09834c-0.17003,0.02025 -0.26708,0.03188 -0.26708,0.03188" fill="#2a0d37" stroke="none" stroke-width="1"/><g><path d="M235.5432,176.19676c0,0 -3.3974,5.55744 -8.36176,8.63723c-4.94102,3.06516 -6.77151,3.68856 -7.2005,3.8971c-0.34056,0.16558 -0.71,0.42797 -0.84732,0.84939c-0.16722,0.51367 -0.1239,1.24677 0.20347,2.59492c0.19766,0.81528 1.10859,3.69714 1.10859,3.69714c0,0 0.23157,0.84256 0.65447,0.948c0.4229,0.1054 2.28733,-0.35976 2.28733,-0.35976c0,0 1.68251,-0.46185 2.14693,-0.10365c0.56483,0.43531 0.42243,1.64446 -0.63343,3.54042h-6.56702l-4.07524,-10.95563c0,0 -0.35906,-0.90453 -0.16901,-1.47408c0.19005,-0.56951 1.37262,-1.43307 2.02712,-2.25467c0.65474,-0.82157 4.59032,-5.48919 4.91644,-13.1911" fill="#493c59" stroke="none" stroke-width="1"/><path d="M235.5432,176.19676c0,0 -3.3974,5.55744 -8.36176,8.63723c-4.94102,3.06516 -6.77151,3.68856 -7.2005,3.8971c-0.34056,0.16558 -0.71,0.42797 -0.84732,0.84939c-0.16722,0.51367 -0.1239,1.24677 0.20347,2.59492c0.19766,0.81528 1.10859,3.69714 1.10859,3.69714c0,0 0.23157,0.84256 0.65447,0.948c0.4229,0.1054 2.28733,-0.35976 2.28733,-0.35976c0,0 1.68251,-0.46185 2.14693,-0.10365c0.56483,0.43531 0.42243,1.64446 -0.63343,3.54042h-6.56702l-4.07524,-10.95563c0,0 -0.35906,-0.90453 -0.16901,-1.47408c0.19005,-0.56951 1.37262,-1.43307 2.02712,-2.25467c0.65474,-0.82157 4.59032,-5.48919 4.91644,-13.1911" fill="none" stroke="#2a0d37" stroke-width="0.5"/></g><path d="M222.93722,197.61062c0,0 0.05904,-0.02525 0.16519,-0.05963c0.10692,-0.03161 0.25923,-0.08218 0.44877,-0.11883c0.09452,-0.01897 0.19863,-0.03614 0.31063,-0.04577c0.11251,-0.00808 0.23313,-0.01491 0.36565,0.0071l0.10337,0.02552c0.03676,0.01744 0.07348,0.02935 0.11024,0.05537c0.01822,0.01541 0.03672,0.03184 0.05397,0.04878l0.01292,0.01288l0.00328,0.00332c0.00332,0.00503 -0.00558,-0.00913 0.00812,0.01186l0.00074,0.00129l0.00304,0.0048l0.01218,0.01943c0.01623,0.02732 0.03192,0.05057 0.04737,0.08191c0.07173,0.15727 0.07375,0.29982 0.06283,0.44241c-0.01619,0.1413 -0.05978,0.26895 -0.10412,0.39184c-0.04636,0.12183 -0.10517,0.23383 -0.16168,0.34048c-0.11578,0.21213 -0.23894,0.39765 -0.3479,0.5534c-0.1072,0.15699 -0.20624,0.28136 -0.27012,0.37186c-0.0656,0.08948 -0.10665,0.13904 -0.10665,0.13904c0,0 0.02127,-0.06041 0.06361,-0.16331c0.04535,-0.10138 0.1049,-0.24952 0.18724,-0.42013c0.08008,-0.16964 0.17358,-0.36756 0.27391,-0.57966c0.04839,-0.10517 0.09022,-0.21615 0.13202,-0.32636c0.0375,-0.11098 0.07196,-0.22501 0.08211,-0.33549c0.01393,-0.10665 0.00304,-0.22322 -0.02486,-0.29576c-0.01089,-0.02451 -0.02938,-0.05307 -0.04332,-0.07965l-0.01065,-0.02045l-0.00277,-0.00507l-0.00074,-0.00125c0.01315,0.01998 0.00328,0.00531 0.00632,0.0096l-0.00129,-0.00051l-0.00379,-0.00277c-0.0048,-0.00406 -0.00862,-0.00835 -0.01241,-0.01417c-0.01139,-0.01038 -0.03372,-0.01846 -0.04917,-0.02981l-0.06942,-0.02228c-0.20448,-0.04499 -0.42899,-0.03918 -0.61396,-0.03485c-0.187,0.00757 -0.34563,0.01311 -0.45611,0.02322c-0.11098,0.00734 -0.17455,0.01163 -0.17455,0.01163" fill="#2a0d37" stroke="none" stroke-width="1"/></g></g></svg>