<svg version="1.1" xmlns="http://www.w3.org/2000/svg" xmlns:xlink="http://www.w3.org/1999/xlink" width="87.91184" height="78.90523" viewBox="0,0,87.91184,78.90523"><g transform="translate(-196.04408,-140.54738)"><g data-paper-data="{&quot;isPaintingLayer&quot;:true}" fill-rule="nonzero" stroke="none" stroke-width="1" stroke-linecap="butt" stroke-linejoin="miter" stroke-miterlimit="10" stroke-dasharray="" stroke-dashoffset="0" style="mix-blend-mode: normal"><g><path d="M238.91058,180.05087c0,0 1.04206,10.13639 -5.58922,21.83586c-3.31564,5.82605 -4.16823,10.04165 -3.36301,11.17845c0.75786,1.13679 3.26827,1.98938 2.60515,2.69988c-0.66313,0.71049 -9.28379,1.61045 -11.27318,0.71049c-0.80523,-0.37893 -3.12618,-13.0731 -2.51041,-18.66232c0.61576,-5.58922 1.51572,-7.43651 1.08942,-11.51001c-0.4263,-4.0735 -2.98408,-10.98898 -1.51572,-14.16252c1.46836,-3.17354 5.73132,-8.38383 12.97836,-5.58922c7.24704,2.79461 7.72071,10.75215 7.57861,13.49939z" fill="#856045"/><path d="M228.77419,216.14399c-0.09473,-0.1421 -0.2842,-0.37893 -0.47366,-0.5684c-0.18947,-0.23683 -0.37893,-0.4263 -0.52103,-0.5684c-0.09473,-0.09473 -0.1421,-0.1421 -0.18947,-0.18947c-0.04737,-0.04737 -0.04737,-0.09473 -0.04737,-0.09473c0,0 0.1421,0.04737 0.33156,0.1421c0.23683,0.09473 0.47366,0.23683 0.66313,0.47366c0.18947,0.23683 0.37893,0.52103 0.4263,0.71049c0.04737,0.23683 0.04737,0.37893 0.04737,0.37893c0,0 -0.09473,-0.09473 -0.23683,-0.2842z" fill="#59402f"/><path d="M231.18987,215.76506c-0.1421,-0.18947 -0.37893,-0.37893 -0.61576,-0.61576c-0.23683,-0.23683 -0.47366,-0.4263 -0.66313,-0.5684c-0.09473,-0.09473 -0.18947,-0.1421 -0.23683,-0.18947c-0.04737,0 -0.09473,-0.04737 -0.09473,-0.04737c0,0 0,0 0.09473,0c0.04737,0.04737 0.1421,0.04737 0.2842,0.09473c0.09473,0.04737 0.23683,0.09473 0.37893,0.18947c0.1421,0.04737 0.2842,0.18947 0.4263,0.2842c0.23683,0.23683 0.47366,0.52103 0.5684,0.75786c0.09473,0.23683 0.1421,0.4263 0.1421,0.4263c0,0 -0.1421,-0.1421 -0.2842,-0.33156z" fill="#59402f"/><path d="M227.82686,216.57028c-0.2842,-0.2842 -0.66313,-0.71049 -0.18947,-0.80523c0.47366,-0.09473 0.99469,1.04206 1.04206,1.32626c0,0.1421 -0.61576,-0.23683 -0.85259,-0.52103z" fill="#665a52"/><path d="M230.19518,216.04926c-0.2842,-0.2842 -0.66313,-0.71049 -0.18947,-0.80523c0.47366,-0.09473 0.99469,1.04206 1.04206,1.32626c0,0.1421 -0.61576,-0.23683 -0.85259,-0.52103z" fill="#665a52"/><path d="M231.7109,215.76506c-0.2842,-0.2842 -0.66313,-0.71049 -0.18947,-0.80523c0.47366,-0.09473 0.99469,1.04206 1.04206,1.32626c0,0.1421 -0.66313,-0.2842 -0.85259,-0.52103z" fill="#665a52"/><g><path d="M219.3483,202.73933c-2.17885,-1.18416 -1.32626,-4.26297 -1.32626,-4.26297l-0.94733,1.61045c-0.5684,-1.79992 0.61576,-4.92609 0.61576,-4.92609l-1.18416,0.66313c0.04737,-2.03675 1.79992,-3.22091 1.79992,-3.22091c-0.61576,0.80523 -1.75255,0.23683 -1.75255,0.23683c1.04206,-0.09473 3.55247,-5.21029 3.55247,-5.21029" fill="#856045"/><path d="M216.83788,192.69767c0.09473,-0.09473 0.23683,-0.23683 0.37893,-0.4263c0.33156,-0.37893 0.71049,-0.94733 1.04206,-1.51572c0.33156,-0.5684 0.66313,-1.13679 0.94733,-1.56309c0.2842,-0.4263 0.47366,-0.71049 0.47366,-0.71049c0,0 -0.1421,0.2842 -0.33156,0.75786c-0.09473,0.18947 -0.23683,0.47366 -0.37893,0.75786c-0.1421,0.2842 -0.2842,0.5684 -0.47366,0.85259c-0.33156,0.5684 -0.75786,1.13679 -1.13679,1.46836c-0.1421,0.18947 -0.33156,0.2842 -0.47366,0.37893c-0.1421,0.09473 -0.23683,0.09473 -0.23683,0.09473c0,0 0.09473,0 0.18947,-0.09473z" fill="#59402f"/><path d="M216.50632,195.25545c0.04737,-0.1421 0.04737,-0.33156 0.09473,-0.52103c0.04737,-0.18947 0.09473,-0.37893 0.18947,-0.5684c0.09473,-0.18947 0.18947,-0.37893 0.33156,-0.52103c0.1421,-0.1421 0.23683,-0.2842 0.37893,-0.37893c0.1421,-0.09473 0.23683,-0.1421 0.33156,-0.18947c0.09473,-0.04737 0.1421,-0.04737 0.1421,-0.04737c0,0 -0.04737,0.04737 -0.09473,0.09473c-0.09473,0.04737 -0.1421,0.18947 -0.23683,0.2842c-0.09473,0.1421 -0.18947,0.2842 -0.2842,0.4263c-0.09473,0.1421 -0.1421,0.2842 -0.23683,0.47366c-0.18947,0.33156 -0.2842,0.71049 -0.37893,0.99469c-0.09473,0.2842 -0.1421,0.47366 -0.1421,0.47366c0,0 -0.04737,-0.23683 -0.09473,-0.52103z" fill="#59402f"/><path d="M217.12208,199.75525c-0.04737,-0.09473 -0.1421,-0.2842 -0.18947,-0.52103c-0.04737,-0.23683 -0.09473,-0.52103 -0.09473,-0.80523c0,-0.2842 0.04737,-0.61576 0.09473,-0.89996c0.04737,-0.33156 0.09473,-0.61576 0.18947,-0.89996c0.09473,-0.2842 0.18947,-0.5684 0.2842,-0.75786c0.09473,-0.23683 0.18947,-0.37893 0.23683,-0.52103c0.04737,-0.1421 0.09473,-0.18947 0.09473,-0.18947c0,0 0,0.04737 -0.04737,0.18947c-0.04737,0.09473 -0.09473,0.2842 -0.1421,0.52103c-0.04737,0.23683 -0.1421,0.47366 -0.18947,0.75786c-0.09473,0.2842 -0.1421,0.5684 -0.18947,0.85259c-0.04737,0.2842 -0.09473,0.5684 -0.09473,0.85259c0,0.2842 0,0.52103 0,0.75786c0,0.47366 0.09473,0.75786 0.09473,0.75786c0,0 -0.04737,-0.04737 -0.04737,-0.09473z" fill="#59402f"/><path d="M218.6378,202.17093c-0.09473,-0.04737 -0.23683,-0.18947 -0.33156,-0.33156c-0.09473,-0.18947 -0.23683,-0.37893 -0.2842,-0.61576c-0.09473,-0.18947 -0.09473,-0.47366 -0.1421,-0.71049c0,-0.1421 0,-0.23683 0,-0.37893c0,-0.1421 0,-0.2842 0,-0.37893c0.04737,-0.23683 0.04737,-0.4263 0.09473,-0.61576c0.04737,-0.37893 0.1421,-0.61576 0.1421,-0.61576c0,0 0.04737,0.23683 0.04737,0.61576c0,0.37893 0,0.85259 0.04737,1.32626c0.04737,0.47366 0.1421,0.94733 0.2842,1.27889c0.04737,0.1421 0.1421,0.2842 0.18947,0.37893c0.04737,0.09473 0.09473,0.1421 0.09473,0.1421c0,0 -0.09473,0 -0.1421,-0.09473z" fill="#59402f"/></g><path d="M218.922,202.64459c0.09473,0.85259 0.18947,1.84729 0.33156,2.88934c0.1421,1.04206 0.2842,2.17885 0.4263,3.31564c0.1421,1.13679 0.2842,2.27358 0.47366,3.31564c0.18947,1.04206 0.37893,2.03675 0.61576,2.84198c0.09473,0.4263 0.23683,0.80523 0.37893,1.08942c0.04737,0.09473 0.09473,0.18947 0.1421,0.23683l0.04737,0.09473c0.04737,0 0.04737,0.04737 0.09473,0.04737c0.1421,0.09473 0.23683,0.09473 0.37893,0.1421c0.47366,0.09473 0.75786,0.1421 0.75786,0.1421c0,0 -0.2842,0 -0.75786,-0.09473c-0.1421,0 -0.2842,-0.04737 -0.4263,-0.09473c-0.04737,0 -0.04737,0 -0.09473,-0.04737l-0.09473,-0.09473c-0.04737,-0.09473 -0.09473,-0.1421 -0.1421,-0.23683c-0.18947,-0.2842 -0.33156,-0.66313 -0.47366,-1.08942c-0.2842,-0.80523 -0.52103,-1.79992 -0.71049,-2.84198c-0.18947,-1.04206 -0.37893,-2.17885 -0.52103,-3.31564c-0.1421,-1.13679 -0.2842,-2.27358 -0.37893,-3.31564c-0.09473,-1.08942 -0.18947,-2.08412 -0.23683,-2.93671c-0.09473,-1.70519 -0.1421,-2.84198 -0.1421,-2.84198c0,0 0.09473,1.13679 0.33156,2.79461z" fill="#59402f"/><path d="M239.05267,186.20849c-0.1421,0.85259 -0.37893,2.08412 -0.71049,3.55247c-0.1421,0.75786 -0.33156,1.51572 -0.5684,2.36831c-0.23683,0.85259 -0.47366,1.70519 -0.75786,2.60515c-0.2842,0.89996 -0.61576,1.79992 -1.04206,2.69988c-0.23683,0.4263 -0.52103,0.85259 -0.75786,1.27889c-0.2842,0.4263 -0.52103,0.85259 -0.75786,1.27889c-0.99469,1.70519 -1.84729,3.50511 -2.60515,5.21029c-0.75786,1.70519 -1.42099,3.31564 -1.84729,4.73663c-0.1421,0.37893 -0.18947,0.71049 -0.23683,1.04206c-0.09473,0.33156 -0.1421,0.66313 -0.1421,0.94733c0,0.2842 0.04737,0.5684 0.1421,0.80523c0.09473,0.23683 0.23683,0.4263 0.37893,0.5684c0.2842,0.2842 0.5684,0.47366 0.75786,0.61576c0.18947,0.1421 0.2842,0.18947 0.2842,0.18947c0,0 -0.09473,-0.04737 -0.2842,-0.18947c-0.18947,-0.1421 -0.47366,-0.33156 -0.80523,-0.61576c-0.1421,-0.1421 -0.33156,-0.33156 -0.4263,-0.5684c-0.09473,-0.23683 -0.1421,-0.5684 -0.1421,-0.85259c0,-0.2842 0.04737,-0.61576 0.09473,-0.94733c0.04737,-0.33156 0.09473,-0.66313 0.18947,-1.04206c0.18947,-0.71049 0.47366,-1.46836 0.75786,-2.27358c0.33156,-0.80523 0.66313,-1.65782 1.04206,-2.51041c0.75786,-1.70519 1.61045,-3.50511 2.55778,-5.25766c0.23683,-0.4263 0.52103,-0.85259 0.75786,-1.27889c0.2842,-0.4263 0.52103,-0.85259 0.75786,-1.27889c0.4263,-0.85259 0.75786,-1.79992 1.04206,-2.65251c0.5684,-1.75255 0.99469,-3.41037 1.37362,-4.87873c0.71049,-2.88934 1.08942,-4.83136 1.08942,-4.83136c0,0 -0.09473,0.47366 -0.1421,1.27889z" fill="#59402f"/></g><g><g fill="#856045"><path d="M269.17764,181.89816c-1.42099,9.99429 -4.12087,12.55207 -4.45243,15.39405c-0.33156,2.84198 0,13.49939 0.61576,14.77828c0.61576,1.27889 2.55778,2.22622 2.84198,3.6472c0.33156,1.42099 -10.46795,0.80523 -11.74684,0c-1.27889,-0.80523 -8.09964,-18.75705 -7.62597,-28.94081c2.27358,-20.60434 21.78849,-14.87302 20.36751,-4.87873z"/><path d="M249.33116,192.50821c-1.98938,-1.46836 -0.71049,-4.40507 -0.71049,-4.40507l-1.13679,1.46836c-0.2842,-1.89465 1.27889,-4.83136 1.27889,-4.83136l-1.27889,0.52103c0.2842,-1.98938 2.17885,-2.93671 2.17885,-2.93671c-0.75786,0.71049 -1.79992,0 -1.79992,0c1.08942,0 4.2156,-4.73663 4.2156,-4.73663"/></g><path d="M248.09964,182.22972c0.1421,-0.04737 0.2842,-0.18947 0.47366,-0.37893c0.37893,-0.37893 0.80523,-0.85259 1.23152,-1.37362c0.4263,-0.52103 0.85259,-1.04206 1.18416,-1.42099c0.33156,-0.37893 0.5684,-0.61576 0.5684,-0.61576c0,0 -0.18947,0.2842 -0.4263,0.71049c-0.1421,0.18947 -0.2842,0.47366 -0.47366,0.71049c-0.18947,0.2842 -0.37893,0.5684 -0.61576,0.80523c-0.4263,0.52103 -0.89996,0.99469 -1.32626,1.27889c-0.18947,0.1421 -0.37893,0.23683 -0.52103,0.2842c-0.1421,0.04737 -0.23683,0.04737 -0.23683,0.04737c0,0 0.09473,0 0.1421,-0.04737z" fill="#59402f"/><path d="M247.48387,184.59804c0.04737,-0.18947 0.09473,-0.33156 0.1421,-0.52103c0.09473,-0.1421 0.18947,-0.33156 0.2842,-0.52103c0.09473,-0.18947 0.23683,-0.33156 0.37893,-0.47366c0.1421,-0.1421 0.2842,-0.23683 0.4263,-0.33156c0.1421,-0.04737 0.23683,-0.09473 0.33156,-0.1421c0.09473,-0.04737 0.1421,-0.04737 0.1421,-0.04737c0,0 -0.04737,0.04737 -0.09473,0.09473c-0.04737,0.04737 -0.1421,0.1421 -0.23683,0.23683c-0.09473,0.09473 -0.23683,0.23683 -0.33156,0.37893c-0.1421,0.1421 -0.23683,0.33156 -0.33156,0.47366c-0.18947,0.33156 -0.33156,0.66313 -0.47366,0.94733c-0.09473,0.2842 -0.18947,0.47366 -0.18947,0.47366c0,0 0,-0.18947 -0.04737,-0.5684z" fill="#59402f"/><path d="M247.43651,189.19257c-0.04737,-0.1421 -0.09473,-0.33156 -0.09473,-0.5684c0,-0.23683 0,-0.52103 0.04737,-0.80523c0.04737,-0.2842 0.09473,-0.61576 0.18947,-0.89996c0.09473,-0.2842 0.18947,-0.61576 0.33156,-0.85259c0.1421,-0.2842 0.2842,-0.52103 0.37893,-0.71049c0.09473,-0.18947 0.18947,-0.37893 0.2842,-0.47366c0.09473,-0.1421 0.1421,-0.18947 0.1421,-0.18947c0,0 0,0.04737 -0.04737,0.18947c-0.04737,0.1421 -0.09473,0.33156 -0.18947,0.52103c-0.09473,0.18947 -0.18947,0.4263 -0.2842,0.71049c-0.09473,0.2842 -0.18947,0.5684 -0.2842,0.85259c-0.09473,0.2842 -0.18947,0.5684 -0.23683,0.85259c-0.09473,0.2842 -0.1421,0.52103 -0.1421,0.75786c-0.04737,0.47366 0,0.75786 0,0.75786c0,0 -0.04737,-0.09473 -0.09473,-0.1421z" fill="#59402f"/><path d="M257.09923,216.00189c-0.18947,-0.09473 -0.52103,-0.1421 -0.75786,-0.47366c-0.2842,-0.33156 -0.52103,-0.71049 -0.75786,-1.18416c-0.23683,-0.47366 -0.4263,-1.04206 -0.66313,-1.65782c-0.47366,-1.23152 -0.99469,-2.65251 -1.61045,-4.16823c-0.5684,-1.51572 -1.18416,-3.17354 -1.70519,-4.83136c-0.2842,-0.85259 -0.52103,-1.65782 -0.75786,-2.51041c-0.1421,-0.4263 -0.23683,-0.80523 -0.33156,-1.23152c-0.09473,-0.4263 -0.18947,-0.85259 -0.2842,-1.23152c-0.1421,-0.80523 -0.2842,-1.56309 -0.37893,-2.32095c-0.09473,-0.75786 -0.18947,-1.42099 -0.2842,-2.08412c-0.18947,-1.27889 -0.2842,-2.36831 -0.33156,-3.12618c-0.04737,-0.75786 -0.04737,-1.18416 -0.04737,-1.18416c0,0 0,0.4263 0.09473,1.18416c0.09473,0.75786 0.23683,1.84729 0.4263,3.12618c0.09473,0.66313 0.23683,1.32626 0.33156,2.08412c0.09473,0.75786 0.23683,1.51572 0.4263,2.32095c0.09473,0.37893 0.18947,0.75786 0.2842,1.18416c0.09473,0.4263 0.23683,0.80523 0.33156,1.23152c0.23683,0.80523 0.47366,1.65782 0.75786,2.46305c0.52103,1.65782 1.08942,3.31564 1.65782,4.83136c0.52103,1.56309 1.08942,2.98408 1.51572,4.2156c0.23683,0.61576 0.37893,1.18416 0.61576,1.65782c0.18947,0.47366 0.4263,0.89996 0.66313,1.18416c0.18947,0.33156 0.52103,0.4263 0.71049,0.47366c0.18947,0.04737 0.2842,0.04737 0.2842,0.04737c0,0 -0.1421,0 -0.18947,0z" fill="#59402f"/><path d="M248.95223,192.22401c-0.09473,-0.09473 -0.23683,-0.18947 -0.37893,-0.37893c-0.04737,-0.04737 -0.1421,-0.18947 -0.18947,-0.2842c-0.04737,-0.1421 -0.09473,-0.23683 -0.1421,-0.37893c-0.09473,-0.2842 -0.1421,-0.5684 -0.1421,-0.85259c0,-0.1421 0,-0.2842 0,-0.4263c0,-0.1421 0.04737,-0.2842 0.04737,-0.4263c0,-0.2842 0.09473,-0.52103 0.1421,-0.71049c0.09473,-0.18947 0.1421,-0.37893 0.18947,-0.47366c0.04737,-0.1421 0.09473,-0.18947 0.09473,-0.18947c0,0 0,0.04737 0,0.18947c0,0.1421 -0.04737,0.33156 -0.04737,0.52103c0,0.23683 -0.04737,0.47366 -0.04737,0.71049c0,0.09473 0,0.23683 0,0.37893c0,0.1421 0,0.2842 0,0.4263c0,0.2842 0.04737,0.5684 0.09473,0.80523c0.04737,0.2842 0.1421,0.47366 0.23683,0.66313c0.18947,0.37893 0.4263,0.5684 0.4263,0.5684c0,0 -0.09473,-0.04737 -0.2842,-0.1421z" fill="#59402f"/><path d="M264.81994,216.09662c-0.1421,-0.1421 -0.2842,-0.37893 -0.4263,-0.61576c-0.1421,-0.23683 -0.2842,-0.4263 -0.4263,-0.61576c-0.04737,-0.04737 -0.09473,-0.1421 -0.1421,-0.18947c-0.04737,-0.04737 -0.04737,-0.09473 -0.04737,-0.09473c0,0 0.1421,0.04737 0.33156,0.18947c0.18947,0.09473 0.37893,0.33156 0.5684,0.5684c0.18947,0.23683 0.2842,0.52103 0.33156,0.75786c0,0.23683 0,0.37893 0,0.37893c0,0 -0.09473,-0.1421 -0.18947,-0.37893z" fill="#59402f"/><path d="M267.23562,215.95452c-0.1421,-0.18947 -0.33156,-0.47366 -0.52103,-0.71049c-0.23683,-0.2842 -0.4263,-0.47366 -0.61576,-0.66313c-0.09473,-0.04737 -0.18947,-0.1421 -0.23683,-0.18947c-0.04737,-0.04737 -0.09473,-0.09473 -0.09473,-0.09473c0,0 0,0.04737 0.09473,0.04737c0.04737,0 0.18947,0.04737 0.2842,0.09473c0.1421,0.04737 0.23683,0.1421 0.37893,0.23683c0.1421,0.09473 0.2842,0.18947 0.37893,0.33156c0.23683,0.23683 0.37893,0.5684 0.47366,0.80523c0.09473,0.23683 0.09473,0.4263 0.09473,0.4263c0,0 -0.09473,-0.1421 -0.23683,-0.2842z" fill="#59402f"/><path d="M266.57249,213.53884c-0.18947,-0.09473 -0.4263,-0.2842 -0.66313,-0.5684c-0.2842,-0.2842 -0.52103,-0.71049 -0.71049,-1.18416c-0.09473,-0.23683 -0.18947,-0.52103 -0.23683,-0.80523c-0.04737,-0.33156 -0.09473,-0.61576 -0.09473,-0.94733c-0.09473,-1.27889 -0.2842,-2.74725 -0.37893,-4.3577c-0.1421,-1.61045 -0.23683,-3.36301 -0.18947,-5.06819c0,-0.85259 0.04737,-1.70519 0.18947,-2.55778c0.09473,-0.85259 0.33156,-1.65782 0.5684,-2.41568c0.47366,-1.56309 1.08942,-2.93671 1.56309,-4.12087c0.2842,-0.5684 0.47366,-1.13679 0.66313,-1.61045c0.18947,-0.47366 0.33156,-0.89996 0.4263,-1.27889c0.09473,-0.37893 0.18947,-0.66313 0.23683,-0.85259c0.04737,-0.18947 0.09473,-0.2842 0.09473,-0.2842c0,0 0,0.09473 -0.04737,0.2842c-0.04737,0.18947 -0.09473,0.47366 -0.18947,0.85259c-0.18947,0.75786 -0.47366,1.79992 -0.94733,2.98408c-0.4263,1.18416 -0.99469,2.60515 -1.46836,4.12087c-0.23683,0.75786 -0.47366,1.56309 -0.5684,2.36831c-0.1421,0.80523 -0.1421,1.65782 -0.18947,2.51041c-0.04737,1.70519 0.04737,3.41037 0.1421,5.02083c0.09473,1.61045 0.23683,3.12618 0.2842,4.40507c0,0.66313 0.04737,1.23152 0.23683,1.70519c0.1421,0.52103 0.37893,0.89996 0.61576,1.18416c0.23683,0.2842 0.47366,0.47366 0.61576,0.61576c0.1421,0.1421 0.23683,0.18947 0.23683,0.18947c0,0 -0.09473,-0.04737 -0.18947,-0.18947z" fill="#59402f"/><path d="M263.73051,216.38082c-0.23683,-0.2842 -0.5684,-0.80523 -0.04737,-0.80523c0.52103,0 0.89996,1.18416 0.89996,1.46836c0,0.18947 -0.5684,-0.33156 -0.85259,-0.66313z" fill="#665a52"/><path d="M266.14619,216.19135c-0.23683,-0.2842 -0.5684,-0.80523 -0.04737,-0.80523c0.52103,0 0.89996,1.18416 0.89996,1.46836c0,0.18947 -0.5684,-0.33156 -0.85259,-0.66313z" fill="#665a52"/><path d="M267.66192,215.81242c-0.23683,-0.2842 -0.5684,-0.80523 -0.04737,-0.80523c0.52103,0 0.89996,1.18416 0.89996,1.46836c0,0.1421 -0.5684,-0.33156 -0.85259,-0.66313z" fill="#665a52"/></g><g><path d="M271.21439,176.11947c0,0 0,4.59453 -1.61045,6.11025l-0.09473,-1.32626c0,0 -0.47366,4.16823 -3.55247,5.39976l0.37893,-1.23152c0,0 -3.50511,2.17885 -3.45774,3.7893l-0.5684,-0.94733c0,0 -3.22091,2.74725 -4.6419,1.79992" fill="#8d674a"/><g><path d="M272.11435,171.43021c-0.5684,12.931 -13.02573,17.76236 -13.02573,17.76236c-6.67865,13.45203 -44.33485,13.40466 -54.99227,4.87873c-9.52062,-7.62597 -12.0784,-23.20948 0.66313,-33.63007c12.74153,-10.42058 22.12006,-2.84198 29.88813,-5.73132c5.35239,-1.98938 16.5782,-6.44182 25.10414,-3.7893" fill="#8d674a"/><path d="M271.30912,177.49309c-0.04737,0.52103 -0.09473,1.27889 -0.23683,1.98938c-0.09473,0.37893 -0.18947,0.71049 -0.2842,1.04206c-0.04737,0.18947 -0.1421,0.33156 -0.18947,0.47366c-0.04737,0.1421 -0.09473,0.2842 -0.18947,0.37893c-0.09473,0.1421 -0.1421,0.23683 -0.23683,0.33156c-0.04737,0.09473 -0.1421,0.18947 -0.18947,0.23683c-0.09473,0.09473 -0.18947,0.1421 -0.18947,0.1421c0,0 0.04737,-0.04737 0.1421,-0.18947c0.04737,-0.04737 0.09473,-0.1421 0.1421,-0.23683c0.04737,-0.09473 0.09473,-0.18947 0.1421,-0.33156c0.04737,-0.1421 0.09473,-0.2842 0.1421,-0.4263c0.04737,-0.1421 0.09473,-0.33156 0.1421,-0.47366c0.09473,-0.33156 0.18947,-0.71049 0.23683,-1.04206c0.1421,-0.71049 0.23683,-1.42099 0.33156,-1.94202c0.09473,-0.52103 0.1421,-0.89996 0.1421,-0.89996c0,0 0.04737,0.37893 0.09473,0.94733z" fill="#59402f"/><path d="M269.46183,181.99289c-0.04737,0.2842 -0.1421,0.66313 -0.2842,1.04206c-0.1421,0.37893 -0.33156,0.75786 -0.52103,1.13679c-0.1421,0.1421 -0.23683,0.33156 -0.37893,0.52103c-0.1421,0.1421 -0.2842,0.33156 -0.4263,0.47366c-0.1421,0.1421 -0.2842,0.2842 -0.4263,0.37893c-0.1421,0.09473 -0.2842,0.18947 -0.4263,0.2842c-0.1421,0.09473 -0.2842,0.18947 -0.37893,0.23683c-0.1421,0.04737 -0.23683,0.09473 -0.33156,0.1421c-0.18947,0.04737 -0.2842,0.09473 -0.2842,0.09473c0,0 0.09473,-0.04737 0.23683,-0.1421c0.09473,-0.04737 0.18947,-0.1421 0.2842,-0.18947c0.09473,-0.09473 0.18947,-0.18947 0.33156,-0.2842c0.1421,-0.09473 0.23683,-0.23683 0.37893,-0.33156c0.1421,-0.1421 0.23683,-0.2842 0.37893,-0.4263c0.1421,-0.1421 0.23683,-0.33156 0.37893,-0.47366c0.1421,-0.1421 0.23683,-0.33156 0.33156,-0.52103c0.09473,-0.1421 0.18947,-0.33156 0.2842,-0.52103c0.04737,-0.18947 0.18947,-0.37893 0.23683,-0.5684c0.1421,-0.33156 0.2842,-0.71049 0.37893,-0.99469c0.18947,-0.5684 0.2842,-0.99469 0.2842,-0.99469c0,0 0,0.4263 -0.04737,1.13679z" fill="#59402f"/><path d="M265.67253,185.6401c-0.18947,0.1421 -0.4263,0.33156 -0.66313,0.52103c-0.23683,0.23683 -0.47366,0.4263 -0.71049,0.66313c-0.23683,0.23683 -0.47366,0.47366 -0.66313,0.71049c-0.09473,0.09473 -0.18947,0.23683 -0.2842,0.33156c-0.09473,0.1421 -0.18947,0.23683 -0.23683,0.33156c-0.04737,0.09473 -0.09473,0.18947 -0.1421,0.2842c-0.04737,0.09473 -0.04737,0.18947 -0.09473,0.23683c-0.04737,0.09473 -0.09473,0.18947 -0.09473,0.18947c0,0 0,-0.09473 0.04737,-0.23683c0,-0.04737 0,-0.1421 0.04737,-0.23683c0,-0.09473 0.04737,-0.18947 0.09473,-0.33156c0.09473,-0.23683 0.23683,-0.52103 0.4263,-0.75786c0.18947,-0.2842 0.4263,-0.52103 0.66313,-0.75786c0.23683,-0.23683 0.52103,-0.4263 0.75786,-0.61576c0.23683,-0.18947 0.47366,-0.33156 0.71049,-0.47366c0.4263,-0.2842 0.75786,-0.37893 0.75786,-0.37893c0,0 -0.23683,0.18947 -0.61576,0.52103z" fill="#59402f"/><path d="M261.6464,188.52944c-0.23683,0.1421 -0.4263,0.33156 -0.71049,0.52103c-0.23683,0.18947 -0.5684,0.37893 -0.85259,0.52103c-0.33156,0.1421 -0.61576,0.2842 -0.94733,0.37893c-0.2842,0.09473 -0.61576,0.1421 -0.85259,0.1421c-0.09473,0 -0.23683,0 -0.33156,0c-0.1421,0 -0.18947,-0.04737 -0.2842,-0.04737c-0.1421,-0.04737 -0.23683,-0.04737 -0.23683,-0.04737c0,0 0.09473,0 0.23683,0c0.09473,0 0.18947,0 0.2842,0c0.09473,0 0.18947,-0.04737 0.33156,-0.04737c0.09473,-0.04737 0.23683,-0.04737 0.37893,-0.09473c0.1421,-0.04737 0.2842,-0.09473 0.4263,-0.1421c0.2842,-0.09473 0.61576,-0.23683 0.89996,-0.37893c0.2842,-0.1421 0.5684,-0.33156 0.85259,-0.47366c0.23683,-0.1421 0.47366,-0.2842 0.71049,-0.4263c0.4263,-0.2842 0.71049,-0.47366 0.71049,-0.47366c0,0 -0.23683,0.23683 -0.61576,0.5684z" fill="#59402f"/><path d="M249.42589,150.49431c-0.61576,0.1421 -1.51572,0.33156 -2.60515,0.5684c-1.08942,0.23683 -2.32095,0.52103 -3.6472,0.89996c-0.66313,0.18947 -1.32626,0.37893 -2.03675,0.5684c-0.71049,0.23683 -1.42099,0.4263 -2.08412,0.66313c-1.37362,0.47366 -2.69988,1.08942 -4.02613,1.51572c-0.66313,0.23683 -1.32626,0.37893 -1.94202,0.52103c-0.61576,0.09473 -1.18416,0.18947 -1.75255,0.23683c-0.5684,0.04737 -1.08942,0.04737 -1.51572,0.04737c-0.47366,0 -0.85259,0 -1.18416,-0.04737c-0.61576,-0.04737 -0.99469,-0.09473 -0.99469,-0.09473c0,0 0.33156,0 0.99469,0.04737c0.2842,0 0.71049,0 1.13679,0c0.47366,0 0.94733,-0.04737 1.51572,-0.09473c0.5684,-0.04737 1.13679,-0.1421 1.75255,-0.2842c0.61576,-0.1421 1.23152,-0.33156 1.89465,-0.5684c1.27889,-0.4263 2.65251,-1.04206 4.02613,-1.56309c0.66313,-0.23683 1.37362,-0.47366 2.08412,-0.66313c0.66313,-0.18947 1.37362,-0.37893 2.03675,-0.5684c1.32626,-0.37893 2.60515,-0.66313 3.69457,-0.85259c2.17885,-0.4263 3.6472,-0.52103 3.6472,-0.52103c0,0 -0.33156,0.09473 -0.99469,0.18947z" fill="#59402f"/><path d="M213.94854,155.60987c-0.94733,0.33156 -2.27358,0.85259 -3.83667,1.61045c-1.51572,0.75786 -3.26827,1.75255 -4.97346,3.07881c-1.70519,1.32626 -3.36301,2.93671 -4.6419,4.83136c-0.66313,0.94733 -1.23152,1.94202 -1.70519,2.98408c-0.52103,0.99469 -0.94733,2.03675 -1.32626,3.03144c-0.37893,1.04206 -0.71049,2.03675 -0.89996,2.98408c-0.18947,0.94733 -0.2842,1.89465 -0.33156,2.74725c-0.04737,1.75255 0.18947,3.17354 0.33156,4.16823c0.1421,0.99469 0.23683,1.56309 0.23683,1.56309c0,0 -0.09473,-0.5684 -0.2842,-1.56309c-0.18947,-0.99469 -0.47366,-2.41568 -0.47366,-4.16823c0,-0.85259 0.09473,-1.79992 0.2842,-2.79461c0.18947,-0.99469 0.47366,-1.98938 0.85259,-3.03144c0.37893,-0.99469 0.85259,-2.03675 1.32626,-3.07881c0.47366,-1.04206 1.04206,-2.08412 1.70519,-3.03144c1.32626,-1.94202 2.98408,-3.55247 4.73663,-4.87873c1.70519,-1.32626 3.50511,-2.27358 5.06819,-3.03144c1.56309,-0.75786 2.93671,-1.23152 3.88404,-1.51572c0.94733,-0.2842 1.51572,-0.4263 1.51572,-0.4263c0,0 -0.5684,0.1421 -1.46836,0.52103z" fill="#59402f"/><path d="M254.73092,194.02393c-1.23152,0.80523 -3.03144,1.84729 -5.30502,2.79461c-2.27358,0.99469 -5.06819,1.84729 -8.09964,2.46305c-3.03144,0.61576 -6.34708,0.89996 -9.66272,0.94733c-1.65782,0 -3.31564,-0.04737 -4.92609,-0.18947c-1.61045,-0.09473 -3.17354,-0.23683 -4.73663,-0.37893c-0.75786,-0.09473 -1.51572,-0.18947 -2.27358,-0.2842c-0.75786,-0.09473 -1.46836,-0.23683 -2.17885,-0.33156c-1.42099,-0.23683 -2.74725,-0.47366 -3.9314,-0.75786c-1.23152,-0.2842 -2.32095,-0.5684 -3.26827,-0.89996c-0.47366,-0.1421 -0.89996,-0.33156 -1.32626,-0.47366c-0.37893,-0.18947 -0.75786,-0.33156 -1.08942,-0.47366c-0.66313,-0.2842 -1.13679,-0.61576 -1.46836,-0.80523c-0.33156,-0.23683 -0.47366,-0.37893 -0.47366,-0.37893c0,0 0.1421,0.1421 0.47366,0.33156c0.33156,0.18947 0.80523,0.47366 1.46836,0.75786c0.33156,0.1421 0.71049,0.2842 1.08942,0.4263c0.4263,0.1421 0.85259,0.2842 1.32626,0.4263c0.94733,0.2842 2.08412,0.5684 3.26827,0.85259c1.23152,0.23683 2.51041,0.52103 3.9314,0.71049c0.71049,0.09473 1.42099,0.18947 2.17885,0.2842c0.75786,0.04737 1.51572,0.1421 2.27358,0.23683c1.51572,0.1421 3.12618,0.2842 4.73663,0.37893c1.65782,0.09473 3.26827,0.1421 4.92609,0.1421c3.31564,0 6.58391,-0.2842 9.61536,-0.89996c3.03144,-0.5684 5.82605,-1.37362 8.09964,-2.32095c2.27358,-0.89996 4.0735,-1.89465 5.30502,-2.65251c1.23152,-0.75786 1.84729,-1.27889 1.84729,-1.27889c0,0 -0.61576,0.5684 -1.79992,1.37362z" fill="#59402f"/></g></g><g><g fill="#8d674a"><path d="M254.20989,184.26647c-1.42099,9.99429 -4.12087,12.55207 -4.45243,15.39405c-0.33156,2.84198 0,13.49939 0.61576,14.77828c0.61576,1.27889 2.55778,2.22622 2.84198,3.6472c0.2842,1.42099 -10.46795,0.80523 -11.74684,0c-1.27889,-0.80523 -8.09964,-18.75705 -7.62597,-28.94081c2.22622,-20.60434 21.78849,-14.87302 20.36751,-4.87873z"/><path d="M234.31604,194.87652c-1.98938,-1.46836 -0.71049,-4.40507 -0.71049,-4.40507l-1.13679,1.46836c-0.2842,-1.89465 1.27889,-4.83136 1.27889,-4.83136l-1.27889,0.52103c0.2842,-1.98938 2.17885,-2.93671 2.17885,-2.93671c-0.75786,0.71049 -1.79992,0 -1.79992,0c1.08942,0 4.2156,-4.73663 4.2156,-4.73663"/></g><path d="M233.13189,184.59804c0.1421,-0.04737 0.2842,-0.18947 0.47366,-0.37893c0.37893,-0.37893 0.80523,-0.85259 1.23152,-1.37362c0.4263,-0.52103 0.85259,-1.04206 1.18416,-1.42099c0.33156,-0.37893 0.5684,-0.61576 0.5684,-0.61576c0,0 -0.18947,0.2842 -0.4263,0.71049c-0.1421,0.18947 -0.2842,0.47366 -0.47366,0.71049c-0.18947,0.2842 -0.37893,0.5684 -0.61576,0.80523c-0.4263,0.52103 -0.89996,0.99469 -1.32626,1.27889c-0.18947,0.1421 -0.37893,0.23683 -0.52103,0.2842c-0.1421,0.04737 -0.23683,0.04737 -0.23683,0.04737c0,0 0.04737,0 0.1421,-0.04737z" fill="#59402f"/><path d="M232.51613,186.96635c0.04737,-0.18947 0.09473,-0.33156 0.1421,-0.52103c0.09473,-0.1421 0.18947,-0.33156 0.2842,-0.52103c0.09473,-0.18947 0.23683,-0.33156 0.37893,-0.47366c0.1421,-0.1421 0.2842,-0.23683 0.4263,-0.33156c0.1421,-0.04737 0.23683,-0.09473 0.33156,-0.1421c0.09473,-0.04737 0.1421,-0.04737 0.1421,-0.04737c0,0 -0.04737,0.04737 -0.09473,0.09473c-0.04737,0.04737 -0.1421,0.1421 -0.23683,0.23683c-0.09473,0.09473 -0.23683,0.23683 -0.33156,0.37893c-0.1421,0.1421 -0.23683,0.33156 -0.33156,0.47366c-0.18947,0.33156 -0.33156,0.66313 -0.47366,0.94733c-0.09473,0.2842 -0.18947,0.47366 -0.18947,0.47366c0,0 -0.04737,-0.18947 -0.04737,-0.5684z" fill="#59402f"/><path d="M232.46876,191.56088c-0.04737,-0.1421 -0.09473,-0.33156 -0.09473,-0.5684c0,-0.23683 0,-0.52103 0.04737,-0.80523c0.04737,-0.2842 0.09473,-0.61576 0.18947,-0.89996c0.09473,-0.2842 0.18947,-0.61576 0.33156,-0.85259c0.1421,-0.2842 0.2842,-0.52103 0.37893,-0.71049c0.09473,-0.18947 0.18947,-0.37893 0.2842,-0.47366c0.09473,-0.1421 0.1421,-0.18947 0.1421,-0.18947c0,0 0,0.04737 -0.04737,0.18947c-0.04737,0.1421 -0.09473,0.33156 -0.18947,0.52103c-0.09473,0.18947 -0.18947,0.4263 -0.2842,0.71049c-0.09473,0.2842 -0.18947,0.5684 -0.2842,0.85259c-0.09473,0.2842 -0.18947,0.5684 -0.23683,0.85259c-0.09473,0.2842 -0.1421,0.52103 -0.1421,0.75786c-0.04737,0.47366 0,0.75786 0,0.75786c0,0 -0.04737,-0.09473 -0.09473,-0.1421z" fill="#59402f"/><path d="M241.98938,218.27547c-0.23683,-0.04737 -0.52103,-0.1421 -0.75786,-0.47366c-0.23683,-0.2842 -0.52103,-0.66313 -0.75786,-1.13679c-0.2842,-0.47366 -0.47366,-1.04206 -0.71049,-1.65782c-0.47366,-1.23152 -1.04206,-2.65251 -1.61045,-4.16823c-0.5684,-1.51572 -1.18416,-3.17354 -1.70519,-4.83136c-0.23683,-0.85259 -0.47366,-1.65782 -0.71049,-2.51041c-0.1421,-0.4263 -0.23683,-0.80523 -0.33156,-1.23152c-0.09473,-0.4263 -0.18947,-0.80523 -0.2842,-1.23152c-0.1421,-0.80523 -0.2842,-1.56309 -0.37893,-2.32095c-0.09473,-0.71049 -0.18947,-1.42099 -0.2842,-2.08412c-0.18947,-1.32626 -0.2842,-2.41568 -0.33156,-3.17354c-0.04737,-0.75786 -0.04737,-1.18416 -0.04737,-1.18416c0,0 0,0.4263 0.09473,1.18416c0.09473,0.75786 0.23683,1.84729 0.4263,3.12618c0.09473,0.66313 0.23683,1.32626 0.33156,2.08412c0.04737,0.37893 0.09473,0.75786 0.18947,1.13679c0.09473,0.37893 0.1421,0.80523 0.23683,1.18416c0.09473,0.4263 0.18947,0.80523 0.2842,1.23152c0.09473,0.4263 0.23683,0.80523 0.33156,1.23152c0.23683,0.85259 0.47366,1.65782 0.75786,2.51041c0.52103,1.65782 1.08942,3.31564 1.65782,4.83136c0.5684,1.56309 1.08942,2.98408 1.56309,4.2156c0.18947,0.61576 0.37893,1.18416 0.61576,1.65782c0.23683,0.47366 0.47366,0.89996 0.71049,1.18416c0.18947,0.33156 0.52103,0.4263 0.71049,0.47366c0.23683,0.04737 0.33156,0.04737 0.33156,0.04737c0,0 -0.09473,0.04737 -0.33156,-0.09473z" fill="#59402f"/><path d="M233.93711,194.59232c-0.09473,-0.09473 -0.23683,-0.18947 -0.37893,-0.37893c-0.04737,-0.04737 -0.1421,-0.18947 -0.18947,-0.2842c-0.04737,-0.1421 -0.09473,-0.23683 -0.1421,-0.37893c-0.09473,-0.2842 -0.1421,-0.5684 -0.1421,-0.85259c0,-0.1421 0,-0.2842 0,-0.4263c0,-0.1421 0.04737,-0.2842 0.04737,-0.4263c0,-0.2842 0.09473,-0.52103 0.1421,-0.71049c0.09473,-0.18947 0.1421,-0.37893 0.18947,-0.47366c0.04737,-0.1421 0.09473,-0.18947 0.09473,-0.18947c0,0 0,0.04737 0,0.18947c0,0.1421 -0.04737,0.33156 -0.04737,0.52103c0,0.23683 -0.04737,0.47366 -0.04737,0.71049c0,0.09473 0,0.23683 0,0.37893c0,0.1421 0,0.2842 0,0.4263c0,0.2842 0.04737,0.5684 0.09473,0.80523c0.04737,0.2842 0.1421,0.47366 0.23683,0.66313c0.18947,0.37893 0.4263,0.5684 0.4263,0.5684c0,0 -0.04737,-0.04737 -0.2842,-0.1421z" fill="#59402f"/><path d="M249.80482,218.46494c-0.1421,-0.1421 -0.2842,-0.37893 -0.4263,-0.61576c-0.1421,-0.23683 -0.2842,-0.4263 -0.4263,-0.61576c-0.04737,-0.04737 -0.09473,-0.1421 -0.1421,-0.18947c-0.04737,-0.04737 -0.04737,-0.09473 -0.04737,-0.09473c0,0 0.1421,0.04737 0.33156,0.18947c0.18947,0.09473 0.37893,0.33156 0.5684,0.5684c0.18947,0.23683 0.2842,0.52103 0.33156,0.75786c0,0.23683 0,0.37893 0,0.37893c0,0 -0.04737,-0.1421 -0.18947,-0.37893z" fill="#59402f"/><path d="M252.26787,218.32284c-0.1421,-0.18947 -0.33156,-0.47366 -0.52103,-0.71049c-0.23683,-0.2842 -0.4263,-0.47366 -0.61576,-0.66313c-0.09473,-0.04737 -0.18947,-0.1421 -0.23683,-0.18947c-0.04737,-0.04737 -0.09473,-0.09473 -0.09473,-0.09473c0,0 0,0.04737 0.09473,0.04737c0.04737,0 0.18947,0.04737 0.2842,0.09473c0.1421,0.04737 0.23683,0.1421 0.37893,0.23683c0.1421,0.09473 0.2842,0.18947 0.37893,0.33156c0.23683,0.23683 0.37893,0.5684 0.47366,0.80523c0.09473,0.23683 0.09473,0.4263 0.09473,0.4263c0,0 -0.09473,-0.1421 -0.23683,-0.2842z" fill="#59402f"/><path d="M251.55738,215.90716c-0.18947,-0.09473 -0.4263,-0.2842 -0.66313,-0.5684c-0.2842,-0.2842 -0.52103,-0.71049 -0.71049,-1.18416c-0.09473,-0.23683 -0.18947,-0.52103 -0.23683,-0.80523c-0.04737,-0.33156 -0.09473,-0.61576 -0.09473,-0.94733c-0.09473,-1.27889 -0.2842,-2.74725 -0.37893,-4.3577c-0.1421,-1.61045 -0.23683,-3.36301 -0.18947,-5.06819c0,-0.85259 0.04737,-1.70519 0.18947,-2.55778c0.09473,-0.85259 0.33156,-1.65782 0.5684,-2.41568c0.47366,-1.56309 1.08942,-2.93671 1.56309,-4.12087c0.2842,-0.5684 0.47366,-1.13679 0.66313,-1.61045c0.18947,-0.47366 0.33156,-0.89996 0.4263,-1.27889c0.09473,-0.37893 0.18947,-0.66313 0.23683,-0.85259c0.04737,-0.18947 0.09473,-0.2842 0.09473,-0.2842c0,0 0,0.09473 -0.04737,0.2842c-0.04737,0.18947 -0.09473,0.47366 -0.18947,0.85259c-0.18947,0.75786 -0.47366,1.79992 -0.94733,2.98408c-0.4263,1.18416 -0.99469,2.60515 -1.46836,4.12087c-0.23683,0.75786 -0.47366,1.56309 -0.5684,2.36831c-0.1421,0.80523 -0.1421,1.65782 -0.18947,2.51041c-0.04737,1.70519 0.04737,3.41037 0.1421,5.02083c0.09473,1.61045 0.23683,3.12618 0.2842,4.40507c0,0.66313 0.04737,1.23152 0.23683,1.70519c0.1421,0.52103 0.37893,0.89996 0.61576,1.18416c0.23683,0.2842 0.47366,0.47366 0.61576,0.61576c0.1421,0.1421 0.23683,0.18947 0.23683,0.18947c0,0 -0.09473,-0.04737 -0.18947,-0.18947z" fill="#59402f"/><path d="M248.76276,218.74913c-0.23683,-0.2842 -0.5684,-0.80523 -0.04737,-0.80523c0.52103,0 0.89996,1.18416 0.89996,1.46836c0,0.18947 -0.61576,-0.33156 -0.85259,-0.66313z" fill="#6c5f57"/><path d="M251.17845,218.55967c-0.23683,-0.2842 -0.5684,-0.80523 -0.04737,-0.80523c0.52103,0 0.89996,1.18416 0.89996,1.46836c0,0.18947 -0.5684,-0.33156 -0.85259,-0.66313z" fill="#6c5f57"/><path d="M252.69417,218.18074c-0.23683,-0.2842 -0.5684,-0.80523 -0.04737,-0.80523c0.52103,0 0.89996,1.18416 0.89996,1.46836c0,0.1421 -0.5684,-0.33156 -0.85259,-0.66313z" fill="#6c5f57"/></g><g><path d="M221.05348,182.79812c0,0 -0.37893,10.79951 -8.2891,20.60434c-1.42099,1.75255 -2.36831,3.55247 -3.17354,5.02083c-1.61045,2.98408 -2.27358,5.02083 -1.98938,5.73132c0.52103,1.27889 3.12618,2.60515 2.41568,3.22091c-0.75786,0.61576 -9.42589,0.37893 -11.27318,-0.80523c-0.75786,-0.47366 -1.37362,-13.35729 0,-18.80442c1.37362,-5.44712 2.46305,-7.19968 2.60515,-11.27318c0.1421,-4.0735 -1.46836,-11.27318 0.37893,-14.25725c1.84729,-2.98408 6.82075,-7.53124 13.64149,-3.83667c6.82075,3.74194 6.20498,11.65211 5.68396,14.39935z" fill="#8d674a"/><path d="M206.22783,217.13868c-0.1421,-0.1421 -0.2842,-0.37893 -0.4263,-0.61576c-0.1421,-0.23683 -0.2842,-0.4263 -0.4263,-0.61576c-0.04737,-0.04737 -0.09473,-0.1421 -0.1421,-0.18947c-0.04737,-0.04737 -0.04737,-0.09473 -0.04737,-0.09473c0,0 0.1421,0.04737 0.33156,0.18947c0.18947,0.09473 0.37893,0.33156 0.5684,0.5684c0.18947,0.23683 0.2842,0.52103 0.33156,0.75786c0,0.23683 0,0.37893 0,0.37893c0,0 -0.04737,-0.09473 -0.18947,-0.37893z" fill="#59402f"/><path d="M208.69088,217.23341c-0.1421,-0.18947 -0.33156,-0.47366 -0.52103,-0.71049c-0.23683,-0.2842 -0.4263,-0.47366 -0.61576,-0.66313c-0.09473,-0.04737 -0.18947,-0.1421 -0.23683,-0.18947c-0.04737,-0.04737 -0.09473,-0.09473 -0.09473,-0.09473c0,0 0,0.04737 0.09473,0.04737c0.04737,0 0.18947,0.04737 0.2842,0.09473c0.1421,0.04737 0.23683,0.1421 0.37893,0.23683c0.1421,0.09473 0.2842,0.18947 0.37893,0.33156c0.23683,0.23683 0.37893,0.5684 0.47366,0.80523c0.09473,0.23683 0.09473,0.4263 0.09473,0.4263c0,0 -0.09473,-0.1421 -0.23683,-0.2842z" fill="#59402f"/><path d="M205.13841,217.47024c-0.23683,-0.2842 -0.5684,-0.80523 -0.04737,-0.80523c0.52103,0 0.89996,1.18416 0.89996,1.46836c0,0.18947 -0.5684,-0.33156 -0.85259,-0.66313z" fill="#6c5f57"/><path d="M207.60146,217.28078c-0.23683,-0.2842 -0.5684,-0.80523 -0.04737,-0.80523c0.52103,0 0.89996,1.18416 0.89996,1.46836c0,0.1421 -0.61576,-0.33156 -0.85259,-0.66313z" fill="#6c5f57"/><path d="M209.11718,217.18605c-0.23683,-0.2842 -0.5684,-0.80523 -0.04737,-0.80523c0.52103,0 0.89996,1.18416 0.89996,1.46836c0,0.1421 -0.5684,-0.33156 -0.85259,-0.66313z" fill="#6c5f57"/><g><path d="M198.64923,202.69196c-1.98938,-1.46836 -0.71049,-4.40507 -0.71049,-4.40507l-1.13679,1.46836c-0.2842,-1.89465 1.27889,-4.83136 1.27889,-4.83136l-1.27889,0.52103c0.2842,-1.98938 2.17885,-2.93671 2.17885,-2.93671c-0.75786,0.71049 -1.79992,0 -1.79992,0c1.08942,0 4.2156,-4.73663 4.2156,-4.73663" fill="#8d674a"/><path d="M197.46507,192.46084c0.1421,-0.04737 0.2842,-0.18947 0.47366,-0.37893c0.37893,-0.37893 0.80523,-0.85259 1.23152,-1.37362c0.4263,-0.52103 0.85259,-1.04206 1.18416,-1.42099c0.33156,-0.37893 0.5684,-0.61576 0.5684,-0.61576c0,0 -0.18947,0.2842 -0.4263,0.71049c-0.1421,0.18947 -0.2842,0.47366 -0.47366,0.71049c-0.18947,0.2842 -0.37893,0.5684 -0.61576,0.80523c-0.4263,0.52103 -0.89996,0.99469 -1.32626,1.27889c-0.18947,0.1421 -0.37893,0.23683 -0.52103,0.2842c-0.1421,0.04737 -0.23683,0.04737 -0.23683,0.04737c0,0 0.04737,-0.04737 0.1421,-0.04737z" fill="#59402f"/><path d="M196.84931,194.82916c0.04737,-0.18947 0.09473,-0.33156 0.1421,-0.52103c0.09473,-0.1421 0.18947,-0.33156 0.2842,-0.52103c0.09473,-0.18947 0.23683,-0.33156 0.37893,-0.47366c0.1421,-0.1421 0.2842,-0.23683 0.4263,-0.33156c0.1421,-0.04737 0.23683,-0.09473 0.33156,-0.1421c0.09473,-0.04737 0.1421,-0.04737 0.1421,-0.04737c0,0 -0.04737,0.04737 -0.09473,0.09473c-0.04737,0.04737 -0.1421,0.1421 -0.23683,0.23683c-0.09473,0.09473 -0.23683,0.23683 -0.33156,0.37893c-0.1421,0.1421 -0.23683,0.33156 -0.33156,0.47366c-0.18947,0.33156 -0.33156,0.66313 -0.47366,0.94733c-0.09473,0.2842 -0.18947,0.47366 -0.18947,0.47366c0,0 -0.04737,-0.18947 -0.04737,-0.5684z" fill="#59402f"/><path d="M196.80194,199.37632c-0.04737,-0.1421 -0.09473,-0.33156 -0.09473,-0.5684c0,-0.23683 0,-0.52103 0.04737,-0.80523c0.04737,-0.2842 0.09473,-0.61576 0.18947,-0.89996c0.09473,-0.2842 0.18947,-0.61576 0.33156,-0.85259c0.1421,-0.2842 0.2842,-0.52103 0.37893,-0.71049c0.09473,-0.18947 0.18947,-0.37893 0.2842,-0.47366c0.09473,-0.1421 0.1421,-0.18947 0.1421,-0.18947c0,0 0,0.04737 -0.04737,0.18947c-0.04737,0.1421 -0.09473,0.33156 -0.18947,0.52103c-0.09473,0.18947 -0.18947,0.4263 -0.2842,0.71049c-0.09473,0.2842 -0.18947,0.5684 -0.2842,0.85259c-0.09473,0.2842 -0.18947,0.5684 -0.23683,0.85259c-0.09473,0.2842 -0.1421,0.52103 -0.1421,0.75786c-0.04737,0.47366 0,0.75786 0,0.75786c0,0 -0.04737,-0.04737 -0.09473,-0.1421z" fill="#59402f"/><path d="M198.03346,202.0762c-0.09473,-0.09473 -0.18947,-0.18947 -0.2842,-0.37893c-0.09473,-0.1421 -0.1421,-0.37893 -0.18947,-0.61576c-0.04737,-0.23683 -0.04737,-0.52103 -0.04737,-0.75786c0,-0.1421 0.04737,-0.23683 0.04737,-0.37893c0,-0.1421 0.04737,-0.2842 0.04737,-0.37893c0,-0.23683 0.09473,-0.4263 0.1421,-0.61576c0.1421,-0.33156 0.23683,-0.5684 0.23683,-0.5684c0,0 0,0.23683 -0.04737,0.61576c0,0.37893 -0.09473,0.85259 -0.09473,1.32626c-0.04737,0.47366 0,0.94733 0.09473,1.27889c0.04737,0.1421 0.09473,0.2842 0.1421,0.37893c0.04737,0.09473 0.09473,0.1421 0.09473,0.1421c0,0 -0.09473,0 -0.1421,-0.04737z" fill="#59402f"/></g><path d="M198.1282,202.54986c0,0.85259 -0.04737,1.84729 -0.04737,2.93671c0,1.08942 0,2.22622 0,3.36301c0,1.13679 0,2.27358 0.04737,3.36301c0.04737,1.04206 0.09473,2.03675 0.23683,2.88934c0.04737,0.4263 0.1421,0.80523 0.23683,1.13679c0.04737,0.09473 0.04737,0.1421 0.09473,0.23683l0.04737,0.09473c0.04737,0 0.09473,0.04737 0.09473,0.04737c0.1421,0.09473 0.2842,0.1421 0.37893,0.18947c0.47366,0.18947 0.75786,0.2842 0.75786,0.2842c0,0 -0.2842,-0.04737 -0.75786,-0.18947c-0.09473,-0.04737 -0.23683,-0.09473 -0.37893,-0.18947c-0.04737,-0.04737 -0.09473,-0.04737 -0.09473,-0.09473l-0.04737,-0.09473c0,-0.09473 -0.04737,-0.1421 -0.09473,-0.23683c-0.1421,-0.33156 -0.23683,-0.71049 -0.33156,-1.13679c-0.1421,-0.85259 -0.2842,-1.84729 -0.33156,-2.93671c-0.04737,-1.08942 -0.09473,-2.22622 -0.09473,-3.36301c0,-1.13679 0,-2.27358 0.04737,-3.36301c0.04737,-1.08942 0.09473,-2.08412 0.1421,-2.93671c0.1421,-1.70519 0.23683,-2.84198 0.23683,-2.84198c0,0 0,1.13679 -0.1421,2.84198z" fill="#59402f"/><path d="M220.29562,188.861c-0.2842,0.80523 -0.66313,1.98938 -1.18416,3.41037c-0.23683,0.71049 -0.52103,1.46836 -0.85259,2.27358c-0.33156,0.80523 -0.71049,1.61045 -1.08942,2.46305c-0.37893,0.85259 -0.80523,1.75255 -1.37362,2.55778c-0.2842,0.4263 -0.5684,0.80523 -0.89996,1.18416c-0.33156,0.37893 -0.61576,0.75786 -0.89996,1.18416c-1.18416,1.56309 -2.27358,3.26827 -3.26827,4.83136c-0.94733,1.61045 -1.84729,3.07881 -2.46305,4.45243c-0.18947,0.33156 -0.2842,0.66313 -0.37893,0.99469c-0.09473,0.33156 -0.18947,0.66313 -0.23683,0.94733c-0.04737,0.2842 -0.09473,0.5684 0,0.80523c0.09473,0.23683 0.18947,0.4263 0.33156,0.61576c0.2842,0.37893 0.52103,0.61576 0.71049,0.75786c0.18947,0.1421 0.2842,0.23683 0.2842,0.23683c0,0 -0.09473,-0.09473 -0.2842,-0.23683c-0.1421,-0.1421 -0.4263,-0.37893 -0.71049,-0.71049c-0.1421,-0.1421 -0.2842,-0.37893 -0.37893,-0.61576c-0.09473,-0.23683 -0.09473,-0.5684 -0.04737,-0.85259c0.04737,-0.2842 0.1421,-0.61576 0.23683,-0.94733c0.09473,-0.33156 0.18947,-0.71049 0.33156,-1.04206c0.2842,-0.71049 0.61576,-1.42099 1.04206,-2.17885c0.37893,-0.75786 0.85259,-1.51572 1.32626,-2.32095c0.94733,-1.61045 2.03675,-3.26827 3.22091,-4.87873c0.2842,-0.37893 0.5684,-0.80523 0.89996,-1.18416c0.33156,-0.37893 0.61576,-0.75786 0.89996,-1.13679c0.52103,-0.80523 0.94733,-1.70519 1.37362,-2.51041c0.80523,-1.70519 1.46836,-3.31564 2.03675,-4.68926c1.08942,-2.74725 1.75255,-4.6419 1.75255,-4.6419c0,0 -0.1421,0.47366 -0.37893,1.23152z" fill="#59402f"/></g><g><g><g fill="#8d674a"><path d="M257.0045,174.41428c-5.16293,-0.4263 -5.58922,-3.17354 -5.58922,-3.17354l-0.1421,1.46836c-2.93671,-2.08412 -2.93671,-5.16293 -2.93671,-5.16293l-0.5684,1.13679c-1.13679,-2.13148 -0.5684,-4.54716 -0.5684,-4.54716l-0.66313,1.13679c-0.80523,-3.36301 0.33156,-4.3577 0.33156,-4.3577c-0.37893,0.61576 -1.51572,0.71049 -1.51572,0.71049c1.37362,-1.46836 2.51041,-5.58922 2.51041,-5.58922"/><path d="M281.44551,156.03616c0,0 1.13679,4.12087 2.51041,5.58922c0,0 -1.13679,-0.09473 -1.51572,-0.71049c0,0 1.13679,0.99469 0.33156,4.3577l-0.66313,-1.13679c0,0 0.5684,2.41568 -0.5684,4.54716l-0.5684,-1.13679c0,0 0,3.07881 -2.93671,5.16293l-0.1421,-1.46836c0,0 -0.4263,2.74725 -5.58922,3.17354"/><path d="M256.34137,174.41428c-5.25766,-1.70519 -13.2152,-8.62067 -7.43651,-21.6464c5.77869,-13.02573 18.09392,-11.36791 23.68315,-8.81013c4.2156,1.89465 7.95754,9.14169 9.14169,13.02573c1.18416,3.88404 0.52103,12.31524 -4.2156,15.53614c-5.39976,3.6472 -15.91507,3.59984 -21.17273,1.89465z"/></g><path d="M264.01471,156.27299c0.09473,-0.04737 0.18947,-0.1421 0.33156,-0.18947c0.1421,-0.04737 0.33156,-0.09473 0.52103,-0.1421c0.18947,-0.04737 0.4263,-0.04737 0.61576,-0.04737c0.4263,0 0.85259,0.09473 1.13679,0.18947c0.2842,0.09473 0.47366,0.18947 0.47366,0.18947c0,0 -0.18947,0 -0.52103,0c-0.2842,-0.04737 -0.71049,-0.04737 -1.08942,-0.04737c-0.4263,0 -0.80523,0.04737 -1.08942,0.09473c-0.1421,0.04737 -0.2842,0.04737 -0.37893,0.09473c-0.09473,0.04737 -0.1421,0.04737 -0.1421,0.04737c0,0 0.04737,-0.04737 0.1421,-0.18947z" fill="#59402f"/><path d="M266.43039,155.60987c-0.23683,0 -0.47366,0 -0.75786,0c-0.2842,0 -0.5684,0 -0.75786,0c-0.09473,0 -0.18947,0 -0.23683,0c-0.04737,0 -0.09473,0 -0.09473,0c0,0 0.1421,-0.09473 0.33156,-0.18947c0.18947,-0.09473 0.47366,-0.1421 0.75786,-0.1421c0.2842,0 0.5684,0.04737 0.75786,0.09473c0.18947,0.04737 0.33156,0.1421 0.33156,0.1421c0,0 -0.18947,0.04737 -0.33156,0.09473z" fill="#59402f"/><path d="M251.98367,163.2832c0,0.61576 0.04737,1.18416 0.09473,1.61045c0,0.18947 0.04737,0.37893 0.04737,0.52103c0,0.09473 0,0.18947 0,0.18947c0,0 -0.04737,-0.04737 -0.09473,-0.18947c-0.04737,-0.1421 -0.1421,-0.2842 -0.18947,-0.52103c-0.04737,-0.09473 -0.09473,-0.18947 -0.09473,-0.33156c0,-0.09473 -0.04737,-0.23683 -0.04737,-0.37893c0,-0.1421 -0.04737,-0.2842 -0.04737,-0.4263c0,-0.1421 0,-0.2842 0,-0.4263c0,-0.5684 0.09473,-1.18416 0.18947,-1.61045c0.09473,-0.4263 0.23683,-0.71049 0.23683,-0.71049c0,0 -0.1421,1.18416 -0.09473,2.27358z" fill="#59402f"/><g fill="#59402f"><path d="M252.69417,165.98308c0.04737,0.1421 0.1421,0.2842 0.1421,0.4263c0,0.1421 0,0.33156 0,0.4263c0,0.09473 -0.04737,0.18947 -0.04737,0.18947c0,0 -0.04737,-0.09473 -0.09473,-0.18947c-0.04737,-0.1421 -0.1421,-0.2842 -0.1421,-0.4263c0,-0.1421 0,-0.33156 0,-0.4263c0,-0.09473 0.04737,-0.18947 0.04737,-0.18947c0,0 0.04737,0.04737 0.09473,0.18947z"/><path d="M253.49939,166.97778c0.04737,0.09473 0.09473,0.23683 0.1421,0.37893c0.04737,0.1421 0.04737,0.2842 0.04737,0.37893c-0.04737,0.09473 -0.04737,0.18947 -0.04737,0.18947c0,0 -0.04737,-0.04737 -0.09473,-0.1421c-0.04737,-0.09473 -0.09473,-0.23683 -0.1421,-0.37893c-0.04737,-0.1421 -0.04737,-0.2842 -0.04737,-0.37893c0.04737,-0.09473 0.04737,-0.18947 0.04737,-0.18947c0,0 0.04737,0.09473 0.09473,0.1421z"/></g><path d="M254.39935,168.4935c0.09473,0.1421 0.18947,0.33156 0.33156,0.52103c0.1421,0.18947 0.2842,0.37893 0.4263,0.5684c0.33156,0.37893 0.66313,0.75786 0.94733,0.99469c0.1421,0.09473 0.23683,0.23683 0.33156,0.2842c0.09473,0.09473 0.1421,0.1421 0.1421,0.1421c0,0 -0.04737,0 -0.1421,-0.04737c-0.09473,-0.04737 -0.2842,-0.1421 -0.4263,-0.23683c-0.1421,-0.09473 -0.33156,-0.23683 -0.52103,-0.37893c-0.18947,-0.18947 -0.37893,-0.37893 -0.52103,-0.5684c-0.33156,-0.37893 -0.5684,-0.85259 -0.71049,-1.23152c-0.1421,-0.37893 -0.1421,-0.61576 -0.1421,-0.61576c0,0 0.09473,0.23683 0.2842,0.5684z" fill="#59402f"/><path d="M276.85098,160.67806c0.1421,0.2842 0.23683,0.66313 0.2842,1.04206c0.04737,0.18947 0.04737,0.37893 0.04737,0.5684c0,0.18947 0,0.37893 -0.04737,0.52103c-0.04737,0.2842 -0.1421,0.47366 -0.1421,0.47366c0,0 0,-0.04737 0,-0.1421c0,-0.04737 -0.04737,-0.18947 -0.04737,-0.33156c0,-0.2842 -0.04737,-0.66313 -0.09473,-1.04206c-0.04737,-0.37893 -0.09473,-0.75786 -0.1421,-1.04206c-0.04737,-0.2842 -0.04737,-0.47366 -0.04737,-0.47366c0,0 0.09473,0.18947 0.18947,0.4263z" fill="#59402f"/><path d="M276.66151,163.66214c0.04737,0.09473 0.09473,0.23683 0.1421,0.37893c0.04737,0.1421 0.04737,0.2842 0.04737,0.37893c-0.04737,0.09473 -0.04737,0.18947 -0.04737,0.18947c0,0 -0.04737,-0.04737 -0.09473,-0.1421c-0.04737,-0.09473 -0.09473,-0.23683 -0.1421,-0.37893c-0.04737,-0.1421 -0.04737,-0.2842 -0.04737,-0.37893c0.04737,-0.09473 0.04737,-0.18947 0.04737,-0.18947c0,0 0.04737,0.04737 0.09473,0.1421z" fill="#59402f"/><path d="M276.37731,165.60415c0.04737,0.18947 0.04737,0.4263 0.04737,0.71049c0,0.2842 -0.04737,0.5684 -0.09473,0.85259c-0.04737,0.2842 -0.1421,0.5684 -0.23683,0.80523c-0.04737,0.09473 -0.1421,0.23683 -0.18947,0.33156c-0.04737,0.09473 -0.1421,0.18947 -0.18947,0.2842c-0.09473,0.1421 -0.23683,0.2842 -0.33156,0.37893c-0.09473,0.09473 -0.1421,0.1421 -0.1421,0.1421c0,0 0.04737,-0.09473 0.09473,-0.18947c0.04737,-0.09473 0.1421,-0.23683 0.23683,-0.4263c0.18947,-0.37893 0.37893,-0.89996 0.47366,-1.42099c0.09473,-0.2842 0.09473,-0.5684 0.1421,-0.80523c0.04737,-0.2842 0.04737,-0.52103 0.04737,-0.71049c0,-0.4263 0,-0.71049 0,-0.71049c0,0 0.09473,0.2842 0.1421,0.75786z" fill="#59402f"/><path d="M251.17845,148.74175c-0.2842,0.33156 -0.61576,0.80523 -0.94733,1.37362c-0.1421,0.33156 -0.33156,0.66313 -0.52103,0.99469c-0.18947,0.37893 -0.33156,0.75786 -0.52103,1.13679c-0.1421,0.37893 -0.33156,0.80523 -0.47366,1.23152c-0.1421,0.4263 -0.2842,0.89996 -0.4263,1.32626c-0.09473,0.4263 -0.23683,0.89996 -0.37893,1.32626c-0.1421,0.4263 -0.2842,0.85259 -0.4263,1.27889c-0.2842,0.85259 -0.5684,1.61045 -0.85259,2.22622c-0.2842,0.61576 -0.5684,1.13679 -0.80523,1.46836c-0.1421,0.1421 -0.23683,0.2842 -0.33156,0.33156c-0.09473,0.09473 -0.1421,0.09473 -0.1421,0.09473c0,0 0.04737,0 0.1421,-0.09473c0.09473,-0.09473 0.18947,-0.18947 0.2842,-0.37893c0.23683,-0.33156 0.47366,-0.85259 0.71049,-1.51572c0.23683,-0.61576 0.47366,-1.42099 0.75786,-2.22622c0.1421,-0.4263 0.23683,-0.85259 0.37893,-1.27889c0.1421,-0.4263 0.23683,-0.89996 0.37893,-1.32626c0.09473,-0.47366 0.2842,-0.89996 0.4263,-1.32626c0.18947,-0.4263 0.33156,-0.85259 0.52103,-1.23152c0.18947,-0.4263 0.37893,-0.80523 0.5684,-1.13679c0.18947,-0.33156 0.37893,-0.66313 0.5684,-0.94733c0.37893,-0.5684 0.75786,-1.04206 1.04206,-1.32626c0.2842,-0.2842 0.47366,-0.4263 0.47366,-0.4263c0,0 -0.1421,0.1421 -0.4263,0.4263z" fill="#59402f"/><path d="M246.58391,161.86222c-0.04737,0.37893 -0.1421,0.89996 -0.1421,1.42099c0,0.23683 0,0.52103 0,0.75786c0,0.23683 0.04737,0.47366 0.04737,0.66313c0,0.18947 0.04737,0.37893 0.04737,0.47366c0,0.1421 0,0.18947 0,0.18947c0,0 0,-0.09473 -0.04737,-0.18947c0,-0.1421 -0.09473,-0.2842 -0.1421,-0.47366c-0.04737,-0.18947 -0.09473,-0.4263 -0.1421,-0.66313c-0.04737,-0.2842 -0.04737,-0.52103 -0.04737,-0.80523c0,-0.2842 0.04737,-0.5684 0.09473,-0.80523c0.04737,-0.23683 0.09473,-0.47366 0.18947,-0.66313c0.18947,-0.37893 0.33156,-0.61576 0.33156,-0.61576c0,0 -0.09473,0.23683 -0.18947,0.71049z" fill="#59402f"/><path d="M247.29441,164.84629c0,0.4263 0.04737,0.94733 0.09473,1.51572c0.04737,0.5684 0.09473,1.13679 0.18947,1.51572c0.04737,0.18947 0.09473,0.37893 0.1421,0.47366c0.04737,0.1421 0.04737,0.18947 0.04737,0.18947c0,0 -0.04737,-0.04737 -0.09473,-0.1421c-0.04737,-0.1421 -0.1421,-0.2842 -0.23683,-0.47366c-0.1421,-0.37893 -0.2842,-0.94733 -0.33156,-1.51572c-0.04737,-0.5684 -0.04737,-1.13679 0,-1.56309c0.09473,-0.4263 0.1421,-0.71049 0.1421,-0.71049c0,0 0.04737,0.2842 0.04737,0.71049z" fill="#59402f"/><path d="M248.7154,168.4935c0.09473,0.2842 0.18947,0.5684 0.33156,0.89996c0.04737,0.1421 0.1421,0.2842 0.18947,0.47366c0.09473,0.18947 0.1421,0.33156 0.23683,0.52103c0.1421,0.33156 0.33156,0.66313 0.52103,0.94733c0.09473,0.09473 0.18947,0.23683 0.2842,0.37893c0.09473,0.09473 0.18947,0.23683 0.2842,0.33156c0.09473,0.09473 0.18947,0.18947 0.2842,0.2842c0.09473,0.09473 0.18947,0.1421 0.23683,0.18947c0.09473,0.09473 0.18947,0.1421 0.18947,0.1421c0,0 -0.09473,-0.04737 -0.23683,-0.09473c-0.09473,-0.04737 -0.18947,-0.09473 -0.2842,-0.1421c-0.09473,-0.09473 -0.23683,-0.1421 -0.33156,-0.23683c-0.09473,-0.09473 -0.18947,-0.23683 -0.33156,-0.33156c-0.09473,-0.09473 -0.23683,-0.23683 -0.33156,-0.37893c-0.1421,-0.1421 -0.23683,-0.33156 -0.33156,-0.47366c-0.09473,-0.18947 -0.18947,-0.33156 -0.2842,-0.52103c-0.18947,-0.33156 -0.33156,-0.71049 -0.4263,-1.04206c-0.09473,-0.33156 -0.18947,-0.66313 -0.23683,-0.94733c-0.09473,-0.5684 -0.09473,-0.94733 -0.09473,-0.94733c0,0 0.09473,0.37893 0.33156,0.94733z" fill="#59402f"/><path d="M277.41937,148.69439c0.2842,0.2842 0.66313,0.75786 1.08942,1.32626c0.23683,0.2842 0.4263,0.61576 0.66313,0.94733c0.23683,0.33156 0.4263,0.71049 0.66313,1.08942c0.18947,0.37893 0.4263,0.80523 0.61576,1.23152c0.18947,0.4263 0.37893,0.89996 0.5684,1.32626c0.37893,0.85259 0.66313,1.75255 0.94733,2.60515c0.2842,0.80523 0.5684,1.61045 0.80523,2.27358c0.23683,0.66313 0.47366,1.18416 0.66313,1.56309c0.09473,0.18947 0.18947,0.2842 0.2842,0.37893c0.09473,0.09473 0.1421,0.09473 0.1421,0.09473c0,0 -0.04737,-0.04737 -0.1421,-0.09473c-0.09473,-0.09473 -0.23683,-0.18947 -0.33156,-0.37893c-0.18947,-0.37893 -0.47366,-0.89996 -0.75786,-1.56309c-0.2842,-0.66313 -0.61576,-1.42099 -0.89996,-2.27358c-0.2842,-0.80523 -0.61576,-1.70519 -0.94733,-2.60515c-0.18947,-0.4263 -0.37893,-0.85259 -0.5684,-1.27889c-0.1421,-0.4263 -0.37893,-0.85259 -0.5684,-1.23152c-0.37893,-0.75786 -0.80523,-1.46836 -1.18416,-2.08412c-0.37893,-0.5684 -0.71049,-1.04206 -0.99469,-1.37362c-0.2842,-0.2842 -0.4263,-0.47366 -0.4263,-0.47366c0,0 0.18947,0.1421 0.37893,0.52103z" fill="#59402f"/><path d="M282.8665,161.72012c0.04737,0.18947 0.1421,0.4263 0.18947,0.66313c0.04737,0.2842 0.09473,0.52103 0.09473,0.80523c0,0.2842 0,0.5684 -0.04737,0.80523c-0.04737,0.23683 -0.09473,0.47366 -0.1421,0.66313c-0.04737,0.18947 -0.09473,0.37893 -0.1421,0.47366c0,0.1421 -0.04737,0.18947 -0.04737,0.18947c0,0 0,-0.09473 0,-0.18947c0,-0.09473 0.04737,-0.2842 0.04737,-0.47366c0,-0.18947 0.04737,-0.4263 0.04737,-0.66313c0,-0.23683 0,-0.52103 0,-0.75786c0,-0.52103 -0.09473,-1.04206 -0.1421,-1.42099c-0.04737,-0.4263 -0.1421,-0.66313 -0.1421,-0.66313c0,0 0.18947,0.18947 0.2842,0.5684z" fill="#59402f"/><path d="M282.25073,164.84629c0.04737,0.4263 0.04737,0.99469 0,1.56309c-0.04737,0.5684 -0.1421,1.13679 -0.33156,1.51572c-0.09473,0.23683 -0.1421,0.37893 -0.23683,0.47366c-0.04737,0.09473 -0.09473,0.1421 -0.09473,0.1421c0,0 0,-0.09473 0.04737,-0.18947c0.04737,-0.09473 0.09473,-0.2842 0.1421,-0.47366c0.09473,-0.4263 0.1421,-0.94733 0.18947,-1.51572c0.04737,-0.5684 0.04737,-1.08942 0.09473,-1.51572c0.04737,-0.4263 0.04737,-0.71049 0.04737,-0.71049c0,0 0.04737,0.2842 0.1421,0.71049z" fill="#59402f"/><path d="M280.92448,168.44613c-0.04737,0.2842 -0.1421,0.61576 -0.23683,0.94733c-0.09473,0.33156 -0.2842,0.71049 -0.4263,1.04206c-0.09473,0.18947 -0.18947,0.37893 -0.2842,0.52103c-0.1421,0.18947 -0.23683,0.33156 -0.33156,0.47366c-0.09473,0.1421 -0.18947,0.2842 -0.33156,0.37893c-0.09473,0.1421 -0.23683,0.23683 -0.33156,0.33156c-0.1421,0.09473 -0.23683,0.18947 -0.33156,0.23683c-0.09473,0.04737 -0.18947,0.09473 -0.2842,0.1421c-0.1421,0.04737 -0.23683,0.09473 -0.23683,0.09473c0,0 0.04737,-0.04737 0.18947,-0.1421c0.09473,-0.04737 0.1421,-0.09473 0.23683,-0.18947c0.09473,-0.09473 0.18947,-0.18947 0.2842,-0.2842c0.09473,-0.09473 0.18947,-0.23683 0.2842,-0.33156c0.09473,-0.09473 0.18947,-0.23683 0.2842,-0.37893c0.18947,-0.2842 0.37893,-0.61576 0.52103,-0.94733c0.09473,-0.18947 0.18947,-0.33156 0.23683,-0.52103c0.04737,-0.1421 0.1421,-0.33156 0.18947,-0.47366c0.1421,-0.33156 0.23683,-0.61576 0.33156,-0.89996c0.18947,-0.52103 0.2842,-0.89996 0.2842,-0.89996c0,0 0,0.37893 -0.04737,0.89996z" fill="#59402f"/><path d="M276.09312,173.56169c-0.37893,0.23683 -0.80523,0.47366 -1.32626,0.66313c-0.52103,0.18947 -1.04206,0.4263 -1.61045,0.5684c-0.2842,0.09473 -0.5684,0.1421 -0.85259,0.18947c-0.2842,0.04737 -0.5684,0.09473 -0.85259,0.1421c-0.2842,0.04737 -0.5684,0.04737 -0.80523,0.09473c-0.23683,0.04737 -0.47366,0.04737 -0.71049,0.04737c-0.4263,0 -0.80523,-0.04737 -1.04206,-0.04737c-0.23683,-0.04737 -0.37893,-0.04737 -0.37893,-0.04737c0,0 0.1421,-0.04737 0.37893,-0.04737c0.1421,-0.04737 0.2842,-0.04737 0.47366,-0.04737c0.1421,0 0.33156,-0.04737 0.5684,-0.04737c0.23683,-0.04737 0.47366,-0.04737 0.71049,-0.09473c0.23683,-0.04737 0.47366,-0.09473 0.75786,-0.1421c0.23683,-0.04737 0.52103,-0.04737 0.80523,-0.1421c0.23683,-0.09473 0.52103,-0.1421 0.80523,-0.23683c0.5684,-0.1421 1.08942,-0.33156 1.61045,-0.52103c0.52103,-0.18947 0.99469,-0.37893 1.37362,-0.5684c0.75786,-0.37893 1.27889,-0.66313 1.27889,-0.66313c0,0 -0.4263,0.37893 -1.18416,0.89996z" fill="#59402f"/><path d="M270.93019,143.29463c-0.37893,-0.1421 -0.94733,-0.2842 -1.61045,-0.4263c-0.33156,-0.04737 -0.71049,-0.1421 -1.08942,-0.18947c-0.37893,-0.09473 -0.80523,-0.1421 -1.23152,-0.18947c-0.4263,-0.04737 -0.89996,-0.09473 -1.32626,-0.1421c-0.47366,-0.04737 -0.89996,-0.04737 -1.37362,-0.04737h-0.66313c-0.18947,0 -0.4263,0.04737 -0.66313,0.04737c-0.23683,0 -0.4263,0.04737 -0.66313,0.04737c-0.23683,0.04737 -0.47366,0.04737 -0.66313,0.09473c-0.18947,0.04737 -0.4263,0.04737 -0.61576,0.09473c-0.23683,0.04737 -0.4263,0.09473 -0.61576,0.1421c-0.18947,0 -0.37893,0.04737 -0.5684,0.09473c-0.18947,0.04737 -0.37893,0.09473 -0.52103,0.1421c-0.33156,0.09473 -0.61576,0.18947 -0.89996,0.2842c-0.23683,0.09473 -0.47366,0.1421 -0.66313,0.23683c-0.37893,0.1421 -0.61576,0.23683 -0.61576,0.23683c0,0 0.18947,-0.09473 0.5684,-0.2842c0.18947,-0.09473 0.4263,-0.18947 0.66313,-0.33156c0.2842,-0.09473 0.5684,-0.23683 0.89996,-0.33156c0.18947,-0.09473 0.33156,-0.1421 0.52103,-0.18947c0.18947,-0.04737 0.37893,-0.09473 0.5684,-0.1421c0.23683,-0.04737 0.4263,-0.09473 0.61576,-0.1421c0.18947,-0.04737 0.37893,-0.04737 0.61576,-0.09473c0.23683,-0.04737 0.4263,-0.04737 0.66313,-0.09473c0.18947,0 0.4263,-0.04737 0.66313,-0.04737c0.23683,0 0.47366,-0.04737 0.71049,-0.04737h0.71049c0.47366,0 0.89996,0.04737 1.37362,0.04737c0.4263,0.04737 0.89996,0.09473 1.32626,0.1421c0.4263,0.09473 0.85259,0.1421 1.23152,0.23683c0.37893,0.09473 0.75786,0.18947 1.08942,0.2842c0.71049,0.18947 1.23152,0.37893 1.61045,0.52103c0.37893,0.1421 0.5684,0.23683 0.5684,0.23683c0,0 -0.18947,-0.09473 -0.61576,-0.18947z" fill="#59402f"/></g><path d="M259.08862,157.97818c-0.41855,0 -0.75786,-0.53017 -0.75786,-1.18416c0,-0.65399 0.33931,-1.18416 0.75786,-1.18416c0.41855,0 0.75786,0.53017 0.75786,1.18416c0,0.65399 -0.33931,1.18416 -0.75786,1.18416z" fill="#332010"/><path d="M270.55126,157.97818c-0.41855,0 -0.75786,-0.53017 -0.75786,-1.18416c0,-0.65399 0.33931,-1.18416 0.75786,-1.18416c0.41855,0 0.75786,0.53017 0.75786,1.18416c0,0.65399 -0.33931,1.18416 -0.75786,1.18416z" fill="#332010"/><g><path d="M269.55657,170.81445c0,0 -2.88934,3.59984 -5.82605,0.1421c0,0 -3.03144,-0.4263 -3.03144,-3.31564c0,-2.88934 1.51572,-10.79951 5.25766,-10.65742c2.36831,0.09473 5.82605,6.34708 5.82605,10.08902c0,3.74194 -2.22622,3.74194 -2.22622,3.74194z" fill="#9e7b5c"/><path d="M266.76196,167.83037c0,0.23683 0.04737,0.5684 0.04737,0.89996c0,0.33156 0,0.66313 -0.04737,0.89996c-0.04737,0.2842 -0.09473,0.4263 -0.09473,0.4263c0,0 -0.04737,-0.18947 -0.09473,-0.4263c0,-0.23683 -0.04737,-0.5684 -0.04737,-0.89996c0,-0.33156 0,-0.66313 0.04737,-0.89996c0.04737,-0.2842 0.09473,-0.4263 0.09473,-0.4263c0,0 0.04737,0.1421 0.09473,0.4263z" fill="#59402f"/><path d="M267.99348,170.19868c-0.37893,-0.04737 -0.89996,-0.09473 -1.42099,-0.09473c-0.52103,0 -1.04206,0.04737 -1.42099,0.09473c-0.18947,0.04737 -0.37893,0.04737 -0.47366,0.09473c-0.1421,0.04737 -0.18947,0.04737 -0.18947,0.04737c0,0 0.04737,-0.04737 0.1421,-0.09473c0.1421,-0.04737 0.2842,-0.1421 0.47366,-0.18947c0.18947,-0.04737 0.4263,-0.09473 0.66313,-0.1421c0.23683,-0.04737 0.52103,-0.04737 0.80523,-0.04737c0.2842,0.04737 0.5684,0.04737 0.80523,0.09473c0.23683,0.04737 0.47366,0.09473 0.66313,0.1421c0.37893,0.09473 0.61576,0.23683 0.61576,0.23683c0,0 -0.23683,0 -0.66313,-0.1421z" fill="#59402f"/><path d="M269.3671,165.88835c0,0.47366 -0.5684,1.08942 -0.99469,1.08942c-0.4263,0 -0.5684,1.13679 -1.32626,1.18416c-1.32626,0.04737 -1.27889,-0.80523 -1.70519,-1.13679c-0.4263,-0.33156 -1.70519,-0.04737 -1.51572,-1.18416c0.1421,-1.13679 1.70519,-1.27889 2.74725,-1.32626c1.98938,-0.1421 2.74725,0.89996 2.79461,1.37362z" fill="#332721"/><path d="M267.75665,172.23543c-0.33156,0.18947 -0.80523,0.33156 -1.27889,0.33156c-0.23683,0.04737 -0.47366,0 -0.71049,-0.04737c-0.1421,0 -0.23683,-0.04737 -0.33156,-0.09473c-0.09473,-0.04737 -0.1421,-0.09473 -0.23683,-0.1421c-0.1421,-0.09473 -0.2842,-0.18947 -0.33156,-0.2842c-0.04737,-0.09473 -0.09473,-0.1421 -0.09473,-0.1421c0,0 0.04737,0.04737 0.1421,0.09473c0.09473,0.04737 0.23683,0.1421 0.37893,0.18947c0.04737,0.04737 0.1421,0.04737 0.23683,0.09473c0.09473,0 0.18947,0 0.2842,0.04737c0.18947,0.04737 0.37893,0.04737 0.61576,0.04737c0.23683,0 0.47366,0 0.66313,-0.04737c0.18947,0 0.37893,-0.04737 0.5684,-0.09473c0.33156,-0.09473 0.5684,-0.1421 0.5684,-0.1421c0,0 -0.18947,0.1421 -0.47366,0.18947z" fill="#59402f"/></g><path d="M259.37281,152.72052c0.66313,0 1.18416,0.4263 1.18416,0.89996c0,0.52103 -0.52103,0.89996 -1.18416,0.89996c-0.61576,0 -2.08412,-0.23683 -2.08412,-0.71049c0,-0.47366 1.46836,-1.08942 2.08412,-1.08942z" fill="#9e7b5c"/><path d="M271.87752,153.80995c0,0.47366 -1.46836,0.71049 -2.08412,0.71049c-0.66313,0 -1.18416,-0.37893 -1.18416,-0.89996c0,-0.47366 0.52103,-0.89996 1.18416,-0.89996c0.66313,0 2.08412,0.61576 2.08412,1.08942z" fill="#9e7b5c"/><g><path d="M251.65211,148.50492c-4.2156,-5.44712 0.52103,-7.95754 2.60515,-7.8628c2.08412,0.09473 3.22091,3.74194 3.22091,3.74194" fill="#8d674a"/><path d="M254.06779,142.53677c0,0.23683 -0.04737,0.47366 -0.04737,0.75786c-0.04737,0.2842 0,0.5684 0,0.85259c0.04737,0.2842 0.09473,0.5684 0.1421,0.80523c0.04737,0.1421 0.09473,0.2842 0.1421,0.37893c0.04737,0.1421 0.09473,0.23683 0.1421,0.33156c0.04737,0.04737 0.09473,0.1421 0.1421,0.23683c0.04737,0.09473 0.09473,0.1421 0.1421,0.18947c0.09473,0.1421 0.1421,0.18947 0.1421,0.18947c0,0 -0.04737,-0.04737 -0.1421,-0.1421c-0.09473,-0.04737 -0.23683,-0.18947 -0.37893,-0.37893c-0.04737,-0.09473 -0.1421,-0.23683 -0.18947,-0.33156c-0.09473,-0.09473 -0.1421,-0.23683 -0.18947,-0.37893c-0.09473,-0.1421 -0.09473,-0.2842 -0.1421,-0.4263c0,-0.18947 -0.04737,-0.33156 -0.04737,-0.47366c0,-0.33156 0,-0.61576 0.04737,-0.89996c0,-0.2842 0.09473,-0.52103 0.1421,-0.75786c0.1421,-0.4263 0.2842,-0.71049 0.2842,-0.71049c0,0 -0.04737,0.33156 -0.18947,0.75786z" fill="#59402f"/><g fill="#59402f"><path d="M253.73623,146.04187c0.09473,0.04737 0.18947,0.09473 0.2842,0.18947c0.09473,0.09473 0.18947,0.18947 0.23683,0.2842c0.04737,0.09473 0.04737,0.1421 0.04737,0.1421c0,0 -0.04737,0 -0.1421,-0.04737c-0.09473,-0.04737 -0.18947,-0.09473 -0.2842,-0.18947c-0.09473,-0.09473 -0.18947,-0.18947 -0.23683,-0.2842c-0.04737,-0.09473 -0.04737,-0.1421 -0.04737,-0.1421c0,0 0.09473,0.04737 0.1421,0.04737z"/><path d="M253.49939,146.79973c0.1421,0.09473 0.18947,0.33156 0.18947,0.33156c-0.04737,0 -0.23683,0 -0.37893,-0.1421c-0.1421,-0.09473 -0.18947,-0.33156 -0.18947,-0.33156c0,0 0.23683,0 0.37893,0.1421z"/></g><path d="M256.90977,143.48409c-0.1421,-0.37893 -0.33156,-0.75786 -0.61576,-1.18416c-0.2842,-0.4263 -0.61576,-0.80523 -1.04206,-1.08942c-0.18947,-0.1421 -0.4263,-0.23683 -0.66313,-0.33156c-0.23683,-0.04737 -0.47366,-0.09473 -0.71049,-0.09473c-0.23683,0 -0.4263,0.04737 -0.66313,0.09473c-0.23683,0.04737 -0.4263,0.09473 -0.61576,0.18947c-0.33156,0.1421 -0.66313,0.2842 -0.85259,0.4263c-0.23683,0.1421 -0.33156,0.18947 -0.33156,0.18947c0,0 0.09473,-0.09473 0.2842,-0.23683c0.09473,-0.04737 0.18947,-0.1421 0.33156,-0.23683c0.1421,-0.09473 0.2842,-0.18947 0.47366,-0.2842c0.18947,-0.09473 0.37893,-0.18947 0.61576,-0.23683c0.23683,-0.09473 0.47366,-0.1421 0.75786,-0.1421c0.2842,0 0.52103,0.04737 0.80523,0.09473c0.2842,0.04737 0.52103,0.18947 0.75786,0.33156c0.47366,0.33156 0.80523,0.75786 1.08942,1.18416c0.2842,0.47366 0.4263,0.89996 0.5684,1.27889c0.23683,0.80523 0.2842,1.32626 0.2842,1.32626c0,0 -0.1421,-0.52103 -0.47366,-1.27889z" fill="#59402f"/></g><g><path d="M271.16702,144.38405c0,0 1.13679,-3.6472 3.22091,-3.74194c2.08412,-0.09473 6.82075,2.41568 2.60515,7.8628" fill="#8d674a"/><path d="M274.57739,142.4894c0.04737,0.23683 0.09473,0.47366 0.1421,0.75786c0.04737,0.2842 0.04737,0.61576 0.04737,0.89996c0,0.18947 -0.04737,0.33156 -0.04737,0.47366c-0.04737,0.1421 -0.09473,0.2842 -0.1421,0.4263c-0.09473,0.1421 -0.09473,0.2842 -0.18947,0.37893c-0.04737,0.1421 -0.09473,0.23683 -0.18947,0.33156c-0.1421,0.18947 -0.2842,0.2842 -0.37893,0.37893c-0.09473,0.09473 -0.1421,0.1421 -0.1421,0.1421c0,0 0.04737,-0.09473 0.1421,-0.18947c0.04737,-0.04737 0.09473,-0.09473 0.1421,-0.18947c0.04737,-0.04737 0.09473,-0.1421 0.1421,-0.23683c0.04737,-0.09473 0.09473,-0.23683 0.1421,-0.33156c0.09473,-0.1421 0.09473,-0.23683 0.1421,-0.37893c0.09473,-0.23683 0.1421,-0.52103 0.1421,-0.80523c0,-0.2842 0,-0.5684 0,-0.85259c0,-0.2842 -0.04737,-0.52103 -0.04737,-0.75786c-0.04737,-0.47366 -0.09473,-0.75786 -0.09473,-0.75786c0,0 0.1421,0.2842 0.18947,0.71049z" fill="#59402f"/><g fill="#59402f"><path d="M275.00369,146.13661c-0.04737,0.09473 -0.1421,0.18947 -0.23683,0.2842c-0.09473,0.09473 -0.18947,0.1421 -0.2842,0.18947c-0.09473,0.04737 -0.1421,0.04737 -0.1421,0.04737c0,0 0,-0.04737 0.04737,-0.1421c0.04737,-0.09473 0.1421,-0.18947 0.23683,-0.2842c0.09473,-0.09473 0.18947,-0.1421 0.2842,-0.18947c0.09473,-0.04737 0.1421,-0.04737 0.1421,-0.04737c0,0 0,0.09473 -0.04737,0.1421z"/><path d="M275.33525,146.9892c-0.1421,0.09473 -0.37893,0.1421 -0.37893,0.1421c0,0 0.04737,-0.23683 0.18947,-0.33156c0.1421,-0.09473 0.37893,-0.1421 0.37893,-0.1421c0,0 -0.04737,0.23683 -0.18947,0.33156z"/></g><path d="M277.08781,141.54208c-0.23683,-0.1421 -0.52103,-0.2842 -0.89996,-0.4263c-0.09473,-0.04737 -0.18947,-0.04737 -0.2842,-0.09473c-0.09473,-0.04737 -0.23683,-0.04737 -0.33156,-0.09473c-0.09473,-0.04737 -0.23683,-0.04737 -0.33156,-0.04737c-0.1421,-0.04737 -0.23683,-0.04737 -0.37893,-0.04737c-0.1421,0 -0.23683,0 -0.37893,0c-0.1421,0.04737 -0.23683,0.04737 -0.37893,0.09473c-0.1421,0.04737 -0.2842,0.09473 -0.37893,0.1421c-0.09473,0.09473 -0.23683,0.09473 -0.33156,0.18947c-0.23683,0.1421 -0.47366,0.2842 -0.61576,0.47366c-0.1421,0.18947 -0.33156,0.33156 -0.47366,0.5684c-0.09473,0.23683 -0.2842,0.4263 -0.37893,0.61576c-0.09473,0.18947 -0.18947,0.37893 -0.2842,0.5684c-0.09473,0.18947 -0.18947,0.37893 -0.23683,0.52103c-0.09473,0.1421 -0.1421,0.2842 -0.18947,0.37893c-0.09473,0.18947 -0.1421,0.33156 -0.1421,0.33156c0,0 0.04737,-0.1421 0.09473,-0.37893c0,-0.1421 0.04737,-0.2842 0.09473,-0.4263c0.04737,-0.1421 0.09473,-0.33156 0.18947,-0.52103c0.09473,-0.18947 0.18947,-0.37893 0.2842,-0.61576c0.09473,-0.23683 0.23683,-0.4263 0.37893,-0.66313c0.1421,-0.23683 0.33156,-0.4263 0.52103,-0.61576c0.18947,-0.18947 0.4263,-0.33156 0.66313,-0.52103c0.09473,-0.09473 0.23683,-0.1421 0.37893,-0.18947c0.09473,-0.04737 0.23683,-0.1421 0.37893,-0.1421c0.1421,-0.04737 0.2842,-0.09473 0.4263,-0.09473c0.1421,0 0.2842,0 0.4263,0c0.1421,0 0.23683,0.04737 0.37893,0.04737c0.1421,0.04737 0.2842,0.04737 0.37893,0.09473c0.09473,0.04737 0.23683,0.04737 0.33156,0.09473c0.09473,0.04737 0.18947,0.09473 0.2842,0.1421c0.18947,0.09473 0.33156,0.18947 0.47366,0.2842c0.09473,0.09473 0.23683,0.1421 0.33156,0.23683c0.18947,0.1421 0.2842,0.23683 0.2842,0.23683c0,0 -0.1421,-0.04737 -0.2842,-0.1421z" fill="#59402f"/></g></g></g></g></svg>