<svg version="1.1" xmlns="http://www.w3.org/2000/svg" xmlns:xlink="http://www.w3.org/1999/xlink" width="86.15326" height="79.412" viewBox="0,0,86.15326,79.412"><g transform="translate(-196.92337,-140.294)"><g data-paper-data="{&quot;isPaintingLayer&quot;:true}" fill-rule="evenodd" stroke="none" stroke-width="1" stroke-linecap="butt" stroke-linejoin="miter" stroke-miterlimit="10" stroke-dasharray="" stroke-dashoffset="0" style="mix-blend-mode: normal"><g><g><path d="M273.69897,185.6103c0,0 -0.60701,-0.55601 -0.2629,-0.67611c0.19494,-0.0719 0.22024,0.08904 0.22261,0.26189c-0.04417,0.13889 -0.06627,0.20834 0.04029,0.41423z" fill="#a1af93"/><path d="M276.91915,184.26262c0.19105,0.48126 0.64335,0.68227 0.68442,1.1541c0.0822,0.94371 0.17145,1.56468 0.63875,2.01897c0.45548,0.43145 -0.4158,1.60759 -0.77731,1.30158c-0.32682,-0.29496 -0.23683,-0.45756 -0.19664,-0.88448c0,0 -0.14437,0.39383 -0.38433,0.54703c-0.29674,0.2116 -0.59908,0.01999 -0.78695,-0.23083c-0.17682,-0.28558 -0.06715,-0.69042 -0.06715,-0.69042c0,0 -0.31804,0.33865 -0.68984,0.12498c-0.44123,-0.23574 -0.29285,-0.34155 -0.1966,-0.88446c0.0631,-0.43877 -0.00089,-0.89878 -0.32849,-1.25135c-0.39784,-0.43224 -0.42711,-0.88121 -0.83521,-1.22112c-0.22179,-0.20426 -0.05751,0.84199 -0.3109,0.85709c-0.36859,0.01675 -0.5675,-0.19935 -0.54938,-0.55683c0.03703,-0.65733 0.16013,-0.92408 0.35109,-1.28401c0.31568,-0.51146 -0.14305,-2.01446 0.7836,-1.68191c0.99612,0.35461 2.33019,1.81065 2.66492,2.68166z" fill="#69b229"/><path d="M277.13503,188.21191c0.0221,-0.06945 0.08996,-0.16258 0.11124,-0.28966c0.02133,-0.12706 0.00788,-0.26512 -0.04026,-0.41424c-0.03552,-0.06863 -0.07106,-0.13729 -0.10658,-0.20592c-0.04736,-0.09151 -0.10579,-0.14828 -0.15316,-0.23979c-0.17763,-0.34318 -0.19423,-0.7117 -0.16347,-0.98866c0.00946,-0.14992 0.06548,-0.26598 0.08756,-0.33541c0.0221,-0.06945 0.05604,-0.11602 0.05604,-0.11602c0,0 0.00081,0.05759 -0.0213,0.12704c-0.01025,0.09236 -0.02051,0.18468 -0.00705,0.32275c0.015,0.25328 0.0545,0.60995 0.20845,0.90737c0.03552,0.06863 0.09392,0.12542 0.14129,0.21692c0.04736,0.09151 0.09474,0.18304 0.10739,0.26351c0.04736,0.09151 0.0371,0.18383 0.04975,0.2643c0.01262,0.08049 -0.00946,0.14992 -0.03154,0.2194c-0.06708,0.15074 -0.14681,0.22101 -0.20363,0.27943c-0.05682,0.05842 -0.1026,0.08211 -0.1026,0.08211c0,0 0.03394,-0.04657 0.06789,-0.09315z" fill="#519b3d"/><path d="M276.10646,187.17789c0.07815,-0.18548 0.09704,-0.48535 0.04729,-0.74965c-0.07264,-0.25249 -0.14607,-0.56255 -0.17215,-0.78113c-0.02446,-0.10336 0.00868,-0.20753 0.00788,-0.26512c0.0221,-0.06945 0.03314,-0.10417 0.03314,-0.10417c0,0 -0.00946,0.14992 0.06241,0.3448c0.04736,0.09151 0.08366,0.21775 0.11999,0.34397c0.03552,0.06863 0.0592,0.11438 0.07187,0.19488c0.00077,0.05761 0.0363,0.12624 0.04894,0.20671c0.02526,0.16096 0.01582,0.31091 0.00637,0.46083c-0.00946,0.14992 -0.0655,0.26595 -0.12151,0.38196c-0.10101,0.19735 -0.22649,0.2913 -0.22649,0.2913c0,0 0.07887,-0.12788 0.12227,-0.32438z" fill="#519b3d"/><path d="M275.24299,187.24775c0.04261,-0.25414 0.15467,-0.48617 0.40013,-0.23615c0.38604,0.40938 -0.65739,0.80439 -0.65739,0.80439c0.2044,-0.22182 0.21466,-0.31415 0.25725,-0.56824z" fill="#a1af93"/><path d="M276.36312,188.23434c-0.01503,-0.25327 0.06229,-0.49637 0.34172,-0.2929c0.45388,0.31621 -0.49481,0.89427 -0.49481,0.89427c0.18075,-0.26759 0.1681,-0.34806 0.15309,-0.60137z" fill="#a1af93"/><path d="M277.47763,188.81776c-0.0955,-0.24062 -0.11055,-0.49392 0.22492,-0.40647c0.54382,0.1536 -0.17039,1.0164 -0.17039,1.0164c0.09941,-0.3125 0.02917,-0.39217 -0.05454,-0.60993z" fill="#a1af93"/></g><g><path d="M264.73681,172.61267c2.27416,1.9267 3.52805,6.76005 1.85046,11.3123c-0.5784,1.51768 -0.1703,1.85759 -0.1703,1.85759c0,0 1.19887,-0.82357 3.54927,-1.72109c1.82321,-0.68261 3.02199,-2.34737 3.88387,-2.53239c0.90767,-0.20876 2.63559,1.39148 -2.00828,4.81042c-8.10068,5.99137 -11.0181,4.22358 -10.68694,0.65835c0.36108,-3.89985 -2.17976,-5.10834 -3.60713,-8.31454c-1.42735,-3.20617 3.32911,-9.32307 7.18905,-6.07065z" fill="#69b229"/><path d="M261.1122,186.4108c-0.01263,-0.08052 -0.01424,-0.1957 -0.01582,-0.31091c-0.00158,-0.1152 -0.015,-0.25328 -0.02844,-0.39139c-0.01345,-0.13806 -0.03871,-0.29902 -0.06398,-0.45998c-0.02528,-0.16099 -0.08529,-0.33296 -0.12239,-0.5168c-0.03712,-0.18386 -0.10897,-0.37872 -0.16899,-0.55072c-0.05998,-0.17199 -0.11999,-0.34397 -0.21473,-0.52701c-0.09473,-0.18301 -0.16655,-0.37788 -0.24945,-0.53805c-0.11763,-0.17116 -0.17761,-0.34315 -0.28342,-0.49146c-0.10576,-0.14829 -0.19972,-0.2737 -0.28262,-0.43386c-0.07105,-0.13726 -0.16497,-0.26268 -0.25891,-0.38813c-0.15316,-0.23979 -0.30552,-0.42201 -0.41129,-0.5703c-0.09392,-0.12542 -0.16421,-0.2051 -0.16421,-0.2051c0,0 0.07029,0.07968 0.18709,0.19326c0.07027,0.07965 0.14051,0.15931 0.2108,0.23899c0.09312,0.06782 0.17523,0.17035 0.26915,0.29577c0.105,0.09072 0.21077,0.23901 0.30472,0.36441c0.0829,0.16017 0.18867,0.30846 0.29443,0.45676c0.10581,0.14831 0.1887,0.30845 0.28342,0.49146c0.11762,0.1712 0.17763,0.34318 0.27236,0.52619c0.09474,0.18304 0.15472,0.35504 0.22659,0.54992c0.07185,0.19485 0.13183,0.36685 0.16898,0.55069c0.0371,0.18383 0.07421,0.36767 0.09948,0.52865c0.02526,0.16096 0.02765,0.33375 0.04111,0.47185c0.02684,0.27616 0.00713,0.51841 -0.01338,0.70309c-0.00946,0.14992 -0.04259,0.25409 -0.04259,0.25409c0,0 0.01026,-0.09233 -0.03791,-0.24143z" fill="#519b3d"/><path d="M273.16425,181.9421c-0.09076,0.10499 -0.23912,0.21078 -0.37566,0.33947c-0.07973,0.07027 -0.15942,0.14053 -0.23915,0.2108c-0.09154,0.04738 -0.17126,0.11765 -0.27387,0.19976c-0.1823,0.15237 -0.39935,0.29372 -0.61639,0.43507c-0.21705,0.14135 -0.44513,0.31742 -0.7198,0.45958c-0.51455,0.29537 -1.06389,0.57971 -1.64793,0.85297c-0.58406,0.2733 -1.14521,0.53475 -1.67165,0.80723c-0.53828,0.24961 -1.04183,0.51025 -1.4538,0.72348c-0.20601,0.10663 -0.41199,0.21325 -0.57222,0.29618c-0.16023,0.08293 -0.30858,0.18873 -0.42303,0.24796c-0.23995,0.15321 -0.37727,0.22428 -0.37727,0.22428c0,0 0.12548,-0.09395 0.36543,-0.24716c0.21702,-0.14133 0.57141,-0.35377 0.97156,-0.5899c0.41196,-0.21323 0.90368,-0.49675 1.43011,-0.76923c0.52644,-0.27248 1.11046,-0.54577 1.65981,-0.83011c0.58403,-0.27329 1.14521,-0.53475 1.65978,-0.8301c0.26283,-0.16505 0.51459,-0.29536 0.73164,-0.43671c0.21705,-0.14135 0.43409,-0.2827 0.62823,-0.41219c0.19417,-0.12951 0.37647,-0.28188 0.52486,-0.38769c0.14839,-0.10581 0.2849,-0.23448 0.3875,-0.31659c0.19335,-0.18713 0.31883,-0.28109 0.31883,-0.28109c0,0 -0.11362,0.11686 -0.30699,0.30396z" fill="#519b3d"/><path d="M270.10711,187.5855c-0.41122,0.27086 -0.91394,0.58908 -1.46248,0.93101c-0.56038,0.31906 -1.13179,0.67283 -1.7616,0.96982c-0.60694,0.28515 -1.26046,0.53639 -1.88083,0.68343c-0.62036,0.14706 -1.25336,0.21366 -1.76167,0.12866c-0.27706,-0.03063 -0.5083,-0.08497 -0.6938,-0.16302c-0.18549,-0.07802 -0.35994,-0.19076 -0.46492,-0.28149c-0.10499,-0.09069 -0.1871,-0.19321 -0.2455,-0.25c-0.0584,-0.05679 -0.0821,-0.10257 -0.0821,-0.10257c0,0 0.0829,0.16017 0.33863,0.31785c0.25575,0.15772 0.63856,0.33664 1.1461,0.36403c0.51933,0.05025 1.09473,-0.01549 1.71512,-0.16257c0.31016,-0.07352 0.60852,-0.16994 0.92976,-0.27817c0.32123,-0.10826 0.63062,-0.23939 0.94001,-0.37053c0.32123,-0.10826 0.60694,-0.28515 0.90448,-0.43916c0.28571,-0.17689 0.58325,-0.3309 0.84608,-0.49594c0.53747,-0.3072 1.04022,-0.62544 1.48611,-0.88527c0.88003,-0.54252 1.45144,-0.89629 1.45144,-0.89629c0,0 -0.55957,0.37665 -1.40484,0.93022z" fill="#519b3d"/><path d="M266.86516,176.50031c-0.0608,-0.22962 -0.18001,-0.51598 -0.27634,-0.81422c-0.09631,-0.29822 -0.22738,-0.60748 -0.35845,-0.91675c-0.04814,-0.14912 -0.13102,-0.30925 -0.20209,-0.44654c-0.06001,-0.17198 -0.15393,-0.29739 -0.22499,-0.43468c-0.08289,-0.16014 -0.165,-0.26266 -0.23604,-0.39992c-0.09394,-0.12545 -0.17602,-0.22799 -0.25813,-0.33052c-0.0592,-0.11438 -0.15234,-0.18224 -0.22261,-0.26189c-0.04656,-0.03391 -0.0584,-0.05679 -0.10499,-0.09069c-0.03472,-0.01104 -0.0584,-0.05679 -0.09312,-0.06782c-0.12791,-0.07886 -0.18631,-0.13565 -0.18631,-0.13565c0,0 0.08131,0.04493 0.20919,0.12381c0.03472,0.01104 0.08131,0.04493 0.11602,0.05597c0.03475,0.01102 0.05843,0.05677 0.10499,0.09069c0.09315,0.06781 0.18628,0.13566 0.26839,0.23819c0.08208,0.10254 0.18707,0.19323 0.28101,0.31868c0.09395,0.1254 0.18787,0.25082 0.25892,0.38808c0.09397,0.12543 0.16501,0.26269 0.2479,0.42283c0.0829,0.16017 0.13104,0.30928 0.21393,0.46942c0.14291,0.33214 0.25108,0.65327 0.34738,0.95148c0.09632,0.29825 0.15791,0.58543 0.23058,0.8379c0.12239,0.5168 0.15005,0.85058 0.15005,0.85058c0,0 -0.08529,-0.33296 -0.2653,-0.84894z" fill="#519b3d"/></g></g><g><g><path d="M233.66721,213.00246c-0.0852,0.50822 -0.09141,1.72974 0.09887,2.15339c0.21314,0.41178 0.63697,0.22141 0.81858,0.85262c0.16975,0.6083 -0.29825,0.93756 -0.72606,0.8399c-0.4278,-0.09763 -0.45228,-0.20098 -0.55887,-0.4069c0,0 -0.17046,0.17525 -0.45855,0.17933c-0.36859,0.01675 -0.56832,-0.25698 -0.58413,-0.56785c-0.01582,-0.31091 -0.15553,-0.41263 -0.15553,-0.41263c0,0 -0.32991,0.31579 -0.67721,0.2055c-0.47437,-0.13157 -0.54862,-0.49926 -0.36,-1.03197c0.16567,-0.52087 -0.02538,-1.00213 -0.4272,-1.7224c-0.29526,-0.51433 0.38345,-1.44578 0.54747,-2.92302c0.18533,-1.60432 1.14432,-1.43353 2.06073,-1.00863c1.65838,0.73703 0.78872,2.02837 0.42189,3.84265z" fill="#69b229"/><path d="M233.36761,216.34832c0.02207,-0.06943 0.08996,-0.16258 0.11125,-0.28963c0.0221,-0.06945 0.0213,-0.12704 0.00867,-0.20756c-0.02368,-0.04575 -0.03633,-0.12622 -0.07185,-0.19485c-0.03552,-0.06863 -0.07105,-0.13726 -0.12944,-0.19405c-0.03554,-0.06866 -0.09397,-0.12543 -0.16421,-0.2051c-0.10579,-0.14828 -0.16579,-0.3203 -0.2258,-0.49228c-0.04814,-0.14912 -0.05054,-0.32194 -0.06396,-0.46002c-0.01345,-0.13806 0.00785,-0.26511 0.02995,-0.33456c0.0221,-0.06945 0.03314,-0.10417 0.03314,-0.10417c0,0 -0.01104,0.03472 0.00161,0.11519c-0.0221,0.06945 0.00235,0.17281 0.01581,0.31088c0.01344,0.13811 0.06161,0.28721 0.10974,0.43633c0.07105,0.13726 0.13107,0.30927 0.22499,0.43468c0.03552,0.06863 0.09395,0.1254 0.16421,0.2051c0.07024,0.07967 0.10576,0.14829 0.15313,0.2398c0.06001,0.17198 0.06241,0.3448 0.01821,0.48371c-0.0221,0.06945 -0.05601,0.11601 -0.08996,0.16258c-0.03394,0.04657 -0.06789,0.09315 -0.09076,0.10499c-0.05682,0.05842 -0.1026,0.08211 -0.1026,0.08211c0,0 0.04578,-0.0237 0.06789,-0.09315z" fill="#519b3d"/><path d="M232.15834,215.5819c0.05682,-0.05842 0.07892,-0.12787 0.11206,-0.23203c0.0781,-0.18549 0.05126,-0.46165 -0.04429,-0.70229c-0.10737,-0.26348 -0.21473,-0.52701 -0.26368,-0.73372c-0.02449,-0.10335 -0.01424,-0.1957 -0.01505,-0.2533c-0.00077,-0.05761 0.01026,-0.09233 0.01026,-0.09233c0,0 0.01342,0.13808 0.10816,0.32112c0.07185,0.19485 0.20212,0.44653 0.30946,0.71002c0.00081,0.05759 0.03634,0.12625 0.04899,0.20672c0.01262,0.08049 0.02526,0.16096 0.02604,0.21857c-0.00946,0.14992 -0.03074,0.277 -0.09859,0.37013c-0.10102,0.19732 -0.23834,0.26839 -0.23834,0.26839c0,0 0.03391,-0.04656 0.04498,-0.08129z" fill="#519b3d"/><path d="M231.39823,215.62723c0.01972,-0.24225 0.07417,-0.47351 0.35359,-0.27004c0.44281,0.35095 -0.52952,0.88323 -0.52952,0.88323c0.19256,-0.2447 0.16807,-0.34804 0.17593,-0.6132z" fill="#a1af93"/><path d="M232.65488,216.48519c-0.01502,-0.25331 0.0047,-0.49556 0.31805,-0.3387c0.49886,0.23492 -0.37877,0.95027 -0.37877,0.95027c0.14599,-0.27864 0.09862,-0.37014 0.06071,-0.61157z" fill="#a1af93"/><path d="M233.82467,216.89497c-0.11842,-0.2288 -0.15633,-0.47022 0.19016,-0.41752c0.54306,0.09602 -0.04328,1.03767 -0.04328,1.03767c0.04177,-0.31171 -0.02847,-0.39138 -0.14688,-0.62014z" fill="#a1af93"/></g><path d="M244.68172,180.96271c3.27594,3.52569 3.39917,12.45416 0.27928,14.38811c-4.74257,2.94785 -7.39593,5.27848 -8.91522,6.26791c-1.46169,0.98865 -1.58948,1.75097 -1.80187,8.90967c-0.05586,1.79836 -1.90568,4.72831 -2.59115,0.99308c-0.14846,-0.73535 -1.19485,-6.40132 -0.74988,-8.40108c0.83627,-3.71066 2.41645,-3.62935 3.39191,-4.77241c1.23668,-1.42329 2.34142,-4.05464 -0.21861,-7.48676c-4.8382,-6.488 2.52074,-18.62208 10.60553,-9.89852z" fill="#69b229"/></g><g><path d="M219.56577,150.82885c13.13835,-10.10723 21.56871,-3.07093 21.56871,-3.07093c-2.43551,10.60097 10.35696,22.19617 10.35696,22.19617c-11.48079,-5.08032 -21.07633,9.51679 -21.07633,9.51679c-4.16693,-10.46139 -11.37704,-1.74016 -11.37704,-1.74016c-1.58527,-11.30453 -8.55673,-7.84113 -10.28114,-5.84628c0,0 4.65046,-16.30159 10.80884,-21.05558z" fill="#a1c380"/><path d="M252.94073,171.40851c-2.63577,-3.07386 -5.99345,-3.33741 -9.56231,-8.04581c-3.20494,-4.2296 -3.37696,-11.68247 -3.37696,-11.68247c0,0 -3.66049,2.85189 -7.05794,7.22109c-3.53319,4.55548 -2.34434,22.21473 -2.34434,22.21473c0,0 -1.99538,-8.45257 -2.08223,-16.41365c-0.08682,-7.96109 10.55211,-15.44029 10.55211,-15.44029c0,0 -10.07192,2.63156 -13.49235,6.17146c-3.42045,3.53987 -6.63164,23.91166 -6.63164,23.91166c-0.41649,-13.47586 2.54098,-21.33025 4.62587,-25.60018c2.08487,-4.26996 14.77407,-6.83488 14.77407,-6.83488c-2.05471,-1.89522 -11.75644,0.83481 -16.91176,3.93833c-5.13247,3.09169 -13.40858,23.09738 -13.40858,23.09738c0,0 5.12362,-20.43349 11.88664,-24.80424c8.59089,-5.54893 20.27796,-5.56466 20.27796,-5.56466c-0.84322,-2.63831 -3.9427,-1.73019 -3.9427,-1.73019c2.16961,-1.4711 5.05618,-0.26749 6.99178,2.18252c1.9356,2.45001 -0.0779,10.22187 1.42228,15.36286c1.50015,5.14101 12.43463,9.05371 12.43463,9.05371c1.29226,1.76777 -2.44474,4.92035 -4.15454,2.96262z" fill="#69b229"/><path d="M255.22931,167.70031c-0.5912,-0.24514 -1.43737,-0.59038 -2.4122,-1.07203c-0.97481,-0.4817 -2.1012,-1.08798 -3.26391,-1.82048c-1.13982,-0.74439 -2.33884,-1.60313 -3.33347,-2.68373c-0.50282,-0.52292 -0.93778,-1.13902 -1.22356,-1.80329c-0.28581,-0.66426 -0.43348,-1.34204 -0.58113,-2.01979c-0.2606,-1.3445 -0.34757,-2.63381 -0.38557,-3.71643c-0.03799,-1.08262 0.00691,-2.00507 0.03291,-2.62767c0.02597,-0.62259 0.06696,-0.99192 0.06696,-0.99192c0,0 -0.09534,1.44173 -0.00753,3.6298c0.07274,1.09364 0.17076,2.34826 0.43135,3.69273c0.13581,0.65488 0.29532,1.35554 0.56929,1.99692c0.29681,0.62955 0.71996,1.22276 1.19987,1.75754c0.98279,1.05772 2.15892,1.9283 3.29875,2.67269c1.13981,0.74436 2.24329,1.3625 3.21813,1.84418c1.9386,0.99807 3.29465,1.54348 3.29465,1.54348c0,0 -0.35914,-0.13317 -0.90455,-0.402z" fill="#519b3d"/><path d="M239.38948,149.09626c-0.29674,0.2116 -0.70715,0.54006 -1.17438,0.92692c-0.47906,0.36402 -1.01414,0.84402 -1.59501,1.34771c-0.56901,0.5266 -1.18382,1.07687 -1.75206,1.66109c-0.56822,0.58417 -1.13646,1.16838 -1.64709,1.75174c-0.51061,0.58339 -0.96439,1.10832 -1.34953,1.59776c-0.39696,0.46652 -0.70237,0.88568 -0.90599,1.16511c-0.2265,0.29127 -0.33937,0.46571 -0.33937,0.46571c0,0 0.11286,-0.17444 0.30465,-0.47675c0.19174,-0.30232 0.46244,-0.73249 0.84755,-1.22191c0.38515,-0.48941 0.81526,-1.06014 1.32586,-1.64348c0.51061,-0.58339 1.06703,-1.19045 1.63523,-1.77465c0.58009,-0.56131 1.18305,-1.13448 1.76392,-1.63818c0.58087,-0.5037 1.12781,-0.96086 1.62976,-1.33669c0.46723,-0.38687 0.90132,-0.66956 1.19807,-0.88117c0.30858,-0.18873 0.47985,-0.30638 0.46801,-0.32926c0.01184,0.02288 -0.15942,0.14053 -0.40961,0.38604z" fill="#519b3d"/><path d="M238.56367,146.88401c-0.36782,0.07436 -0.8848,0.19692 -1.52803,0.35583c-0.65512,0.13601 -1.38992,0.34232 -2.17051,0.57231c-0.7806,0.22997 -1.62984,0.49551 -2.44437,0.77208c-0.42461,0.13276 -0.8374,0.28841 -1.22729,0.43221c-0.41281,0.15562 -0.79086,0.3223 -1.18075,0.46609c-0.38989,0.1438 -0.76794,0.31047 -1.10023,0.45346c-0.35517,0.15483 -0.66456,0.28597 -0.96211,0.43998c-0.30939,0.13113 -0.59587,0.25041 -0.82476,0.36888c-0.25176,0.13031 -0.45777,0.23694 -0.61797,0.31986c-0.34333,0.17771 -0.52644,0.27248 -0.52644,0.27248c0,0 0.17126,-0.11765 0.51459,-0.29536c0.1831,-0.09477 0.37724,-0.22427 0.60613,-0.34274c0.23992,-0.15319 0.50353,-0.26063 0.80108,-0.41464c0.29755,-0.15401 0.5951,-0.30802 0.95027,-0.46285c0.35517,-0.15483 0.6985,-0.33254 1.08839,-0.47634c0.38989,-0.1438 0.76794,-0.31047 1.18073,-0.46612c0.38989,-0.1438 0.79085,-0.32233 1.21547,-0.45506c0.8374,-0.28841 1.67561,-0.51923 2.4562,-0.74923c0.40175,-0.12089 0.79244,-0.20709 1.14839,-0.30431c0.35598,-0.09724 0.72377,-0.17158 1.03396,-0.24512c0.65509,-0.136 1.18391,-0.23568 1.56357,-0.28717c0.37964,-0.05144 0.59827,-0.07758 0.59827,-0.07758c0,0 -0.21863,0.02615 -0.57459,0.12334z" fill="#519b3d"/><path d="M239.38262,143.58843c-0.55252,0.0539 -1.31258,0.09925 -2.24473,0.20462c-0.46016,0.06415 -0.97793,0.12907 -1.49568,0.19402c-0.54066,0.07681 -1.10421,0.16543 -1.66775,0.25408c-0.5517,0.11153 -1.15,0.18913 -1.74748,0.32435c-0.57457,0.12337 -1.20679,0.24752 -1.79243,0.40563c-0.31019,0.07354 -0.59748,0.13522 -0.90767,0.20876c-0.29834,0.09637 -0.58566,0.15807 -0.88398,0.25447c-0.27548,0.08458 -0.58564,0.1581 -0.86109,0.24266c-0.29835,0.09642 -0.5738,0.18098 -0.84928,0.26555c-0.26362,0.10741 -0.53907,0.19197 -0.81451,0.27653c-0.26364,0.10745 -0.53908,0.19201 -0.77981,0.28761c-0.25254,0.0727 -0.49327,0.1683 -0.734,0.26389c-0.24073,0.0956 -0.44674,0.20223 -0.66456,0.28597c-0.43567,0.16749 -0.81372,0.33417 -1.16889,0.489c-0.34333,0.17771 -0.62981,0.29699 -0.88161,0.42732c-0.49251,0.22588 -0.76715,0.36803 -0.76715,0.36803c0,0 0.27464,-0.14215 0.75529,-0.39094c0.25179,-0.13033 0.52644,-0.27248 0.86977,-0.45019c0.33228,-0.14294 0.73324,-0.32147 1.15707,-0.51184c0.21782,-0.08374 0.42383,-0.19037 0.66456,-0.28597c0.24073,-0.0956 0.48146,-0.19119 0.72215,-0.28677c0.26364,-0.10745 0.50433,-0.20303 0.76797,-0.31048c0.2636,-0.10744 0.53905,-0.192 0.8145,-0.27656c0.26364,-0.10745 0.56196,-0.20385 0.83745,-0.2884c0.29832,-0.0964 0.58561,-0.15808 0.88396,-0.2545c0.29835,-0.09642 0.58564,-0.1581 0.88399,-0.25452c0.29832,-0.0964 0.58561,-0.15808 0.89582,-0.23159c0.59748,-0.13522 1.2068,-0.24757 1.8043,-0.38276c0.60932,-0.11235 1.19574,-0.21284 1.7822,-0.31331c0.57538,-0.06577 1.13892,-0.15442 1.65669,-0.21934c0.51775,-0.06495 1.01263,-0.11806 1.48465,-0.1593c0.43725,-0.05229 0.88635,-0.0817 1.25496,-0.09842c0.36859,-0.01675 0.70247,-0.04454 0.96765,-0.03677c0.54148,-0.01918 0.86429,-0.01224 0.86429,-0.01224c0,0 -0.32281,-0.00695 -0.80665,0.01145z" fill="#519b3d"/><path d="M252.27608,170.85329c-0.04736,-0.09151 -0.14129,-0.21692 -0.28181,-0.37627c-0.14051,-0.15931 -0.31574,-0.32966 -0.52573,-0.51107c-0.20995,-0.18139 -0.47756,-0.36197 -0.75699,-0.56544c-0.30232,-0.19158 -0.61646,-0.40609 -0.9535,-0.60871c-0.33705,-0.20265 -0.70885,-0.41632 -1.0806,-0.62998c-0.76648,-0.4155 -1.54633,-0.96907 -2.25756,-1.55819c-0.74592,-0.60017 -1.40032,-1.24767 -1.99709,-1.89605c-0.59679,-0.64836 -1.1012,-1.28648 -1.48959,-1.86867c-0.39945,-0.54743 -0.6718,-1.07362 -0.83837,-1.45153c-0.07185,-0.19485 -0.1429,-0.33211 -0.1674,-0.43549c-0.02446,-0.10336 -0.04814,-0.14912 -0.04814,-0.14912c0,0 0.00077,0.05761 0.04814,0.14912c0.0245,0.10338 0.09555,0.24064 0.19028,0.42365c0.16659,0.3779 0.47286,0.85753 0.88415,1.42783c0.4113,0.57033 0.93858,1.19662 1.52354,1.8221c0.59676,0.64837 1.27404,1.28403 1.98525,1.87317c0.71122,0.58909 1.47925,1.11981 2.2228,1.54713c0.40652,0.22471 0.75541,0.45023 1.09246,0.65288c0.34888,0.2255 0.66305,0.43999 0.94246,0.64343c0.55888,0.40693 0.97963,0.82731 1.24878,1.12308c0.14053,0.15935 0.23445,0.28476 0.28181,0.37627c0.04738,0.09154 0.07106,0.13729 0.07106,0.13729c0,0 -0.03554,-0.06866 -0.09394,-0.12545z" fill="#519b3d"/><path d="M240.12057,151.12544c0.00479,0.34563 -0.0007,0.78355 0.02854,1.23254c0.02924,0.44899 0.05852,0.89796 0.08616,1.23172c0.02528,0.16099 0.0387,0.29907 0.02844,0.39139c-0.01023,0.09231 -0.00946,0.14992 -0.00946,0.14992c0,0 -0.02368,-0.04575 -0.04814,-0.14912c-0.01265,-0.08047 -0.06083,-0.2296 -0.08609,-0.39056c-0.06236,-0.34479 -0.11451,-0.78192 -0.14376,-1.23091c-0.02927,-0.44897 -0.00089,-0.89878 0.05196,-1.2452c0.03233,-0.16176 0.05364,-0.28885 0.08678,-0.39302c0.01026,-0.09233 0.04417,-0.13889 0.04417,-0.13889c0,0 -0.0197,0.24228 -0.03861,0.54212z" fill="#519b3d"/><path d="M238.15794,146.71695c-0.06943,-0.02207 -0.15074,-0.067 -0.25494,-0.10012c-0.10421,-0.03308 -0.22024,-0.08904 -0.3473,-0.11029c-0.12709,-0.02123 -0.26599,-0.06536 -0.41597,-0.07479c-0.12709,-0.02123 -0.29993,-0.01879 -0.46174,-0.05106c-0.14997,-0.00939 -0.33465,-0.02982 -0.50754,-0.02739c-0.17284,0.00245 -0.34569,0.00489 -0.51856,0.00736c-0.17284,0.00245 -0.34569,0.00489 -0.51854,0.00731c-0.17287,0.00246 -0.33388,0.02779 -0.50672,0.03023c-0.33388,0.02779 -0.633,0.06659 -0.90927,0.09353c-0.51775,0.06495 -0.87451,0.10458 -0.87451,0.10458c0,0 0.0805,-0.01266 0.22966,-0.06086c0.161,-0.02532 0.36779,-0.07435 0.6322,-0.12419c0.25339,-0.01509 0.56355,-0.08862 0.89743,-0.11641c0.161,-0.02532 0.34491,-0.0625 0.51775,-0.06495c0.17287,-0.00246 0.36861,-0.01672 0.54148,-0.01918c0.17284,-0.00245 0.35753,0.01798 0.5304,0.01552c0.18468,0.02043 0.35754,0.01801 0.51935,0.05028c0.16181,0.03227 0.31177,0.04166 0.47358,0.07393c0.14997,0.00939 0.28888,0.05355 0.42781,0.09766c0.11602,0.05597 0.24311,0.0772 0.33623,0.14503c0.10423,0.03311 0.1855,0.07805 0.24393,0.13483c0.12786,0.07884 0.17523,0.17035 0.17523,0.17035c0,0 -0.07027,-0.07965 -0.20998,-0.18137z" fill="#519b3d"/><path d="M239.81979,142.69495c0.11684,0.11359 0.22261,0.26189 0.31733,0.4449c0.09474,0.18304 0.17843,0.40077 0.18161,0.63121c0.00081,0.05759 0.00161,0.11519 -0.02049,0.18464c0.00077,0.05761 -0.0213,0.12704 -0.03236,0.16178c-0.0221,0.06945 -0.02049,0.18464 -0.00786,0.26516c0.03713,0.18382 0.1429,0.33211 0.2479,0.42283c0.10496,0.0907 0.22101,0.14665 0.31335,0.15687c0.09234,0.01021 0.13813,-0.01348 0.13813,-0.01348c0,0 -0.05682,0.05842 -0.14919,0.04822c-0.11522,0.00163 -0.24231,-0.01961 -0.38201,-0.12133c-0.13972,-0.10175 -0.28023,-0.26107 -0.32918,-0.46778c-0.0245,-0.10338 -0.04896,-0.20674 -0.02766,-0.33379c-0.00081,-0.05759 0.03314,-0.10417 0.03233,-0.16176c0.01107,-0.03473 0.0221,-0.06945 0.02131,-0.12709c-0.01423,-0.19567 -0.06317,-0.40238 -0.14607,-0.56255c-0.08289,-0.16014 -0.16577,-0.32027 -0.25974,-0.4457c-0.16497,-0.26268 -0.30549,-0.42202 -0.30549,-0.42202c0,0 0.17447,0.11277 0.4081,0.33991z" fill="#519b3d"/><path d="M243.65686,169.3391c-0.13813,0.01348 -0.31019,0.07354 -0.53986,0.1344c-0.22969,0.06088 -0.50514,0.14544 -0.81453,0.27657c-0.14916,0.0482 -0.30939,0.13113 -0.48146,0.19119c-0.17204,0.06004 -0.34412,0.12007 -0.52723,0.21484c-0.16023,0.08293 -0.37805,0.16667 -0.56118,0.26146c-0.1831,0.09477 -0.38908,0.20139 -0.5951,0.30802c-0.41196,0.21323 -0.80025,0.47226 -1.24619,0.73208c-0.22889,0.11847 -0.43409,0.2827 -0.65114,0.42405c-0.21705,0.14135 -0.43406,0.28268 -0.63927,0.44691c-0.23995,0.15321 -0.44513,0.31742 -0.65033,0.48164l-0.30781,0.24634l-0.30781,0.24634c-0.42143,0.3632 -0.83184,0.69165 -1.21854,1.06584c-0.17049,0.17526 -0.37569,0.33949 -0.56904,0.52662c-0.0797,0.07026 -0.17046,0.17525 -0.27306,0.25736c-0.09076,0.10499 -0.17046,0.17525 -0.26122,0.28023c-0.36385,0.36236 -0.70478,0.7129 -1.02282,1.05155c-0.30623,0.36154 -0.5785,0.67654 -0.85075,0.99149c-0.1247,0.15156 -0.26125,0.28025 -0.38592,0.4318c-0.1247,0.15156 -0.23833,0.26842 -0.34016,0.40815c-0.19256,0.2447 -0.39696,0.46652 -0.5327,0.6528c-0.27146,0.37259 -0.45299,0.58257 -0.45299,0.58257c0,0 0.16968,-0.23285 0.44115,-0.60545c0.15862,-0.19812 0.3283,-0.43098 0.50902,-0.69855c0.07891,-0.1279 0.20361,-0.27946 0.30541,-0.41917c0.1247,-0.15156 0.24941,-0.30313 0.37408,-0.45467c0.27227,-0.315 0.53271,-0.65284 0.83891,-1.01437c0.29518,-0.32685 0.62428,-0.70024 0.9881,-1.06258c0.09076,-0.10499 0.17046,-0.17525 0.2612,-0.28026c0.07973,-0.07027 0.17049,-0.17526 0.27309,-0.25737c0.19336,-0.1871 0.3867,-0.37419 0.58006,-0.56129c0.38673,-0.3742 0.82,-0.71453 1.21857,-1.06585l0.30781,-0.24634l0.33069,-0.25818c0.22808,-0.17607 0.44513,-0.31742 0.65033,-0.48164c0.22807,-0.1761 0.44511,-0.31745 0.66216,-0.45879c0.21705,-0.14135 0.43406,-0.28268 0.65111,-0.42403c0.44593,-0.25982 0.85712,-0.53066 1.28095,-0.72103c0.20601,-0.10663 0.40015,-0.23612 0.5951,-0.30802c0.21785,-0.08375 0.4128,-0.15565 0.5959,-0.25043c0.37805,-0.16667 0.72215,-0.28677 1.04338,-0.39503c0.29837,-0.09639 0.57381,-0.18095 0.80351,-0.24182c0.2415,-0.03799 0.41357,-0.09804 0.5517,-0.11153c0.12628,-0.03636 0.18391,-0.03718 0.18391,-0.03718c0,0 -0.08053,0.01268 -0.21705,0.14135z" fill="#7d9950"/><path d="M233.14714,158.62189c-0.10183,0.13972 -0.24941,0.30313 -0.40722,0.55884c-0.31567,0.51149 -0.66209,1.29995 -0.97141,2.27225c-0.13176,0.47431 -0.28562,1.01808 -0.39289,1.59574c-0.11916,0.55477 -0.22563,1.19002 -0.30925,1.81345c-0.07175,0.64629 -0.14353,1.29259 -0.20342,1.96179c-0.02998,0.33458 -0.05991,0.66917 -0.08989,1.00374c-0.02996,0.33461 -0.02519,0.6802 -0.05515,1.01481c-0.05991,0.66917 -0.0851,1.34937 -0.11029,2.02957c-0.02519,0.6802 -0.03935,1.32569 -0.05349,1.9712c-0.02828,1.29095 -0.0463,2.48958 -0.04383,3.50356c-0.00611,2.06266 0.0011,3.42226 0.0011,3.42226c0,0 -0.00474,-0.34561 -0.02456,-0.94451c-0.01979,-0.59891 -0.05459,-1.45113 -0.0689,-2.488c-0.0143,-1.03683 -0.01915,-2.22362 -0.01377,-3.50276c0.01412,-0.64547 0.02828,-1.29095 0.05347,-1.97115c0.00228,-0.66834 0.02747,-1.34855 0.07557,-2.0406c0.02996,-0.33461 0.04807,-0.69204 0.07803,-1.02665c0.02996,-0.33461 0.05991,-0.66917 0.08987,-1.00377c0.05991,-0.66917 0.14272,-1.35019 0.22634,-1.97362c0.10647,-0.63525 0.20193,-1.23581 0.33211,-1.82532c0.10729,-0.57763 0.26115,-1.12139 0.41578,-1.60755c0.15467,-0.48617 0.333,-0.92654 0.51212,-1.30935c0.17914,-0.38278 0.37091,-0.68511 0.52875,-0.94084c0.18072,-0.26757 0.3283,-0.43098 0.44194,-0.54781c0.11365,-0.11688 0.18231,-0.15241 0.18231,-0.15241c0,0 -0.09157,0.0474 -0.19335,0.18713z" fill="#519b3d"/><path d="M216.20224,171.01848c-0.09312,-0.06782 -0.19812,-0.15854 -0.32599,-0.23738c-0.10499,-0.09069 -0.2676,-0.18055 -0.4302,-0.27046c-0.13971,-0.10172 -0.3481,-0.16789 -0.54545,-0.26882c-0.20837,-0.06618 -0.41673,-0.13236 -0.64802,-0.18672c-0.24311,-0.0772 -0.48542,-0.09681 -0.72773,-0.11642c-0.12708,-0.02128 -0.2652,-0.0078 -0.38045,-0.00616c-0.11522,0.00163 -0.23047,0.00327 -0.36859,0.01675l-0.37963,0.05147c-0.13813,0.01348 -0.24153,0.038 -0.36782,0.07436c-0.1263,0.03633 -0.22968,0.06083 -0.35596,0.09719l-0.17207,0.06006c-0.05762,0.00082 -0.12628,0.03636 -0.17207,0.06006c-0.22886,0.11846 -0.43564,0.16748 -0.64165,0.27411c-0.17126,0.11765 -0.37724,0.22427 -0.53747,0.3072c-0.09157,0.0474 -0.1831,0.09477 -0.25176,0.13031c-0.09157,0.0474 -0.14839,0.10581 -0.21705,0.14135c-0.12551,0.09397 -0.25099,0.18792 -0.34253,0.2353c-0.20601,0.10663 -0.30861,0.18874 -0.30861,0.18874c0,0 0.07973,-0.07027 0.26202,-0.22264c0.1026,-0.08211 0.20521,-0.16423 0.33069,-0.25818c0.05682,-0.05842 0.14839,-0.10581 0.20521,-0.16423c0.07973,-0.07027 0.14839,-0.10581 0.23992,-0.15319c0.14839,-0.10581 0.33149,-0.20058 0.52566,-0.33009c0.1831,-0.09477 0.41199,-0.21325 0.62981,-0.29699c0.04578,-0.0237 0.11444,-0.05924 0.16023,-0.08293l0.17207,-0.06006c0.12625,-0.03634 0.25254,-0.0727 0.37882,-0.10906c0.12628,-0.03636 0.25257,-0.07272 0.39069,-0.0862l0.37964,-0.05144c0.13813,-0.01348 0.26522,0.00775 0.40334,-0.00573c0.11522,-0.00163 0.25334,-0.01511 0.38043,0.00612c0.27704,0.03067 0.51935,0.05028 0.76246,0.12748c0.23127,0.05433 0.46334,0.16629 0.6717,0.23247c0.19733,0.1009 0.38284,0.17895 0.55729,0.29169c0.18549,0.07802 0.30233,0.19162 0.44204,0.29334c0.13971,0.10172 0.24471,0.19244 0.31495,0.2721c0.16339,0.14747 0.2455,0.25 0.2455,0.25c0,0 -0.08211,-0.10253 -0.27944,-0.20343z" fill="#7d9950"/><path d="M227.76345,175.24495c-0.09315,-0.06781 -0.22101,-0.14665 -0.38364,-0.23655c-0.08128,-0.04495 -0.16258,-0.08988 -0.24389,-0.13481c-0.10418,-0.03309 -0.18549,-0.07802 -0.28967,-0.11111c-0.11604,-0.056 -0.22022,-0.08909 -0.32441,-0.12218c-0.10421,-0.03308 -0.22024,-0.08904 -0.3473,-0.11029c-0.12711,-0.02126 -0.25417,-0.04252 -0.38126,-0.06375c-0.12706,-0.02125 -0.27703,-0.03064 -0.40412,-0.05188c-0.0805,0.01266 -0.14997,-0.00939 -0.20761,-0.0086l-0.20756,-0.00859c-0.13813,0.01348 -0.28809,0.00409 -0.42622,0.01757c-0.13813,0.01348 -0.28729,0.06168 -0.42541,0.07517l-0.21863,0.02615c-0.05762,0.00082 -0.12628,0.03636 -0.20683,0.04901c-0.27545,0.08456 -0.56273,0.14624 -0.8145,0.27656c-0.28651,0.11929 -0.52724,0.21489 -0.76716,0.36808c-0.12548,0.09395 -0.23992,0.15319 -0.35437,0.21243c-0.11444,0.05924 -0.22889,0.11847 -0.33149,0.20058c-0.19414,0.12949 -0.39935,0.29372 -0.57061,0.41137c-0.20601,0.10663 -0.34254,0.23535 -0.47906,0.36402c-0.13655,0.12869 -0.26202,0.22264 -0.36463,0.30475c-0.18233,0.15238 -0.30781,0.24634 -0.30781,0.24634c0,0 0.09076,-0.10499 0.28413,-0.29209c0.1026,-0.08211 0.19336,-0.1871 0.32988,-0.31577c0.13653,-0.12872 0.26123,-0.28028 0.45537,-0.40977c0.15942,-0.14053 0.35359,-0.27004 0.5588,-0.43426c0.20521,-0.16423 0.43406,-0.28268 0.67402,-0.43589c0.23992,-0.15319 0.50353,-0.26063 0.76713,-0.36806c0.25179,-0.13033 0.56196,-0.20385 0.8374,-0.28841c0.05762,-0.00082 0.12628,-0.03636 0.20682,-0.04904l0.21863,-0.02615c0.13813,-0.01348 0.29914,-0.03878 0.43727,-0.05226c0.14997,0.00939 0.29993,0.01879 0.43806,0.0053c0.06943,0.02207 0.14997,0.00939 0.20756,0.00859c0.06947,0.02206 0.14997,0.00939 0.21943,0.03145c0.12711,0.02126 0.27707,0.03066 0.40413,0.05191c0.10418,0.03309 0.24311,0.0772 0.37017,0.09845c0.12711,0.02126 0.24313,0.07723 0.34731,0.11032c0.10418,0.03309 0.23127,0.05433 0.32442,0.12213c0.09313,0.06785 0.19735,0.10093 0.27862,0.14588c0.09315,0.06781 0.17445,0.11274 0.25576,0.15767c0.13972,0.10175 0.26759,0.1806 0.37257,0.27128c0.19812,0.15854 0.29207,0.28394 0.29207,0.28394c0,0 -0.10499,-0.09069 -0.22341,-0.31948z" fill="#7d9950"/><path d="M227.10467,154.23658c-0.25099,0.18792 -0.59274,0.48084 -0.99128,0.83215c-0.20521,0.16423 -0.42143,0.3632 -0.61402,0.60791c-0.19256,0.2447 -0.37328,0.51227 -0.54214,0.80275c-0.34963,0.55804 -0.64,1.23047 -0.9075,1.89107c-0.2675,0.66059 -0.48844,1.3551 -0.71019,1.99201c-0.22172,0.6369 -0.40949,1.22722 -0.57521,1.74807c-0.34324,1.0189 -0.56416,1.71339 -0.56416,1.71339c0,0 0.16329,-0.69367 0.45997,-1.74648c0.15383,-0.54375 0.31877,-1.12221 0.52865,-1.78199c0.20987,-0.65977 0.44266,-1.3314 0.69832,-2.01487c0.2675,-0.66059 0.55791,-1.33304 0.93039,-1.90295c0.18072,-0.26757 0.3496,-0.55802 0.5769,-0.7917c0.21542,-0.25657 0.43169,-0.45553 0.63687,-0.61974c0.42145,-0.36317 0.78688,-0.61033 1.03787,-0.79825c0.25096,-0.18791 0.41119,-0.27084 0.41119,-0.27084c0,0 -0.14839,0.10581 -0.37566,0.33947z" fill="#519b3d"/><path d="M208.30404,173.30815c0.16728,-0.40568 0.42372,-1.03154 0.73622,-1.77344c0.31248,-0.74189 0.681,-1.5998 1.08343,-2.50426c0.42534,-0.91633 0.84988,-1.89024 1.30915,-2.85317c0.45928,-0.9629 0.91857,-1.9258 1.35575,-2.81925c0.43718,-0.89345 0.87514,-1.72929 1.26892,-2.42624c0.19096,-0.35993 0.37091,-0.68511 0.55163,-0.95268c0.16886,-0.29048 0.30383,-0.53437 0.43957,-0.72065c0.25962,-0.39547 0.4064,-0.61647 0.4064,-0.61647c0,0 -0.13493,0.24387 -0.37168,0.6275c-0.1239,0.20916 -0.23596,0.44119 -0.40482,0.73167c-0.16888,0.29045 -0.32594,0.60379 -0.51691,0.96372c-0.39378,0.69695 -0.79702,1.54383 -1.23421,2.43728c-0.43718,0.89345 -0.89647,1.85635 -1.3557,2.81926c-0.45928,0.9629 -0.89566,1.91394 -1.321,2.83027c-0.40246,0.90448 -0.8057,1.75136 -1.13002,2.47037c-0.64867,1.43803 -1.0961,2.42384 -1.0961,2.42384c0,0 0.10023,-0.25496 0.27937,-0.63773z" fill="#519b3d"/></g><g><g><path d="M269.65029,173.6954c-1.7978,10.03882 -3.5616,12.51817 -10.42492,16.30267c-6.18852,3.40622 -13.7932,-3.10019 -19.26176,1.52879c-5.46856,4.62898 -10.68321,6.77694 -13.44143,2.34513c-3.39448,-5.43682 -0.89945,-12.55871 3.58243,-17.69226c4.48185,-5.13353 13.57101,-8.82281 19.02831,-7.58649c5.43439,1.24818 6.1312,-0.04073 10.05076,-0.82219c3.78141,-0.76796 11.13869,2.00855 10.46662,5.92435z" fill="#7cbf2e"/><path d="M256.11283,186.61988c6.47526,-1.00201 10.03163,-10.55876 10.5369,-17.37594c1.92836,1.09043 3.29794,2.6151 2.97686,4.40567c-1.78595,10.06172 -3.54975,12.54108 -10.4249,16.3027c-6.18852,3.40622 -13.86349,-3.17987 -19.26176,1.52879c-4.68089,4.07622 -6.81984,4.42916 -9.13086,4.84216c4.85627,-10.57765 17.95479,-8.53923 25.30376,-9.70338z" fill="#b4d189"/><path d="M268.45425,178.89759c-0.04338,0.19653 -0.09704,0.48535 -0.2075,0.83262c-0.2091,0.71738 -0.52945,1.72439 -1.06684,2.87278c-0.28016,0.58009 -0.60606,1.1839 -1.01249,1.80038c-0.40642,0.61644 -0.90519,1.2227 -1.46237,1.77215c-0.54533,0.57236 -1.17198,1.09975 -1.83337,1.61615c-0.63849,0.50452 -1.35826,0.96409 -2.0899,1.40079c-0.73164,0.43671 -1.48696,0.82766 -2.2549,1.13813c-0.76794,0.31047 -1.58327,0.52945 -2.36545,0.64421c-0.78216,0.11479 -1.56592,0.11436 -2.2929,0.05552c-0.72694,-0.05885 -1.38521,-0.15322 -2.02061,-0.25945c-1.25894,-0.18961 -2.27636,-0.41717 -3.01594,-0.55649c-0.71671,-0.15117 -1.13267,-0.22592 -1.13267,-0.22592c0,0 0.41596,0.07475 1.1437,0.1912c0.72775,0.11645 1.75623,0.30928 3.01517,0.49888c0.62355,0.08333 1.31655,0.18876 2.03165,0.22473c0.72697,0.05884 1.476,0.04821 2.25818,-0.06655c0.79401,-0.09192 1.57461,-0.32189 2.34254,-0.63236c0.76797,-0.31048 1.48854,-0.71246 2.22018,-1.14917c0.73164,-0.43671 1.41668,-0.90734 2.08989,-1.40083c0.67324,-0.4935 1.28805,-1.04377 1.84522,-1.59325c0.55719,-0.54945 1.04489,-1.12098 1.46318,-1.71456c0.41827,-0.59361 0.75601,-1.17453 1.03616,-1.75466c0.54924,-1.12548 0.89247,-2.14433 1.11341,-2.83884c0.11046,-0.34727 0.19884,-0.62506 0.24222,-0.82158c0.0434,-0.1965 0.07654,-0.30066 0.07654,-0.30066c0,0 -0.03314,0.10417 -0.12309,0.26675z" fill="#7d9950"/></g><path d="M243.91252,168.65563c-0.79323,0.14953 -1.94242,0.39625 -3.27313,0.85298c-1.33069,0.45668 -2.83188,1.08867 -4.36459,1.94002c-1.53272,0.85135 -3.06226,1.93313 -4.45129,3.17423c-0.69451,0.62053 -1.36535,1.28685 -1.96674,1.9752c-0.60134,0.68837 -1.15616,1.41066 -1.65332,2.13211c-0.97149,1.43106 -1.7117,2.91647 -2.20094,4.21397c-0.50025,1.33221 -0.78431,2.46546 -0.92312,3.26252c-0.13886,0.79705 -0.15537,1.26972 -0.15537,1.26972c0,0 -0.00637,-0.46083 0.12061,-1.28077c0.12702,-0.81992 0.37631,-1.96422 0.8537,-3.28456c0.4774,-1.32038 1.18286,-2.81681 2.1654,-4.28263c0.48532,-0.74433 1.04015,-1.4666 1.6415,-2.15496c0.58953,-0.71126 1.26036,-1.37754 1.95488,-1.99811c1.38903,-1.2411 2.94146,-2.33469 4.47418,-3.18604c1.55562,-0.8632 3.06862,-1.4723 4.41117,-1.90615c1.34256,-0.43382 2.50359,-0.65766 3.30863,-0.7843c0.80509,-0.12662 1.28893,-0.14501 1.28893,-0.14501c0,0 -0.44912,0.02943 -1.2305,0.20179z" fill="#519b3d"/></g><g><g><path d="M234.72231,187.56805c0.21347,3.7765 0.42044,5.40981 -5.87297,9.56649c-4.80884,3.15626 -4.53106,10.75742 -18.12555,13.70391c-13.59446,2.94647 -13.80043,-4.45982 -13.80043,-4.45982c0.76995,4.0106 7.52092,5.44752 14.42603,1.3513c6.9509,-4.11992 12.13541,-23.48261 15.97825,-25.64574c4.24301,-2.39922 7.13142,1.44308 7.39466,5.48387z" fill="#7cbf2e"/><path d="M233.44337,192.61015l2.8795,1.52632c-0.86498,0.79582 -4.60373,2.15085 -6.15696,3.18685c-4.78595,3.14437 -5.83578,10.59151 -19.43027,13.538c-1.64327,0.35742 -3.10423,0.56248 -4.39391,0.64987c4.77746,-1.25451 11.18708,-3.67289 14.34142,-8.1193c5.35856,-7.5888 12.76022,-10.78174 12.76022,-10.78174z" fill="#b4d189"/></g><path d="M201.99968,210.07472c0.24231,0.01961 0.5304,0.01552 0.8761,0.01065c0.34572,-0.00491 0.71431,-0.02166 1.1287,-0.06208c0.19572,-0.01429 0.41438,-0.04045 0.633,-0.06659c0.21863,-0.02615 0.43725,-0.05229 0.67876,-0.09028c0.47121,-0.09883 0.97716,-0.18668 1.45939,-0.32026c0.51698,-0.12256 1.01026,-0.29083 1.52644,-0.47099c0.4933,-0.16831 1.02054,-0.3832 1.50119,-0.63199c0.49249,-0.22591 0.9613,-0.49757 1.41827,-0.79211c0.45697,-0.29454 0.9021,-0.61195 1.27778,-0.95147c0.3875,-0.31659 0.75133,-0.67894 1.0694,-1.01761c0.17044,-0.17528 0.31802,-0.33868 0.4656,-0.50208c0.13577,-0.1863 0.28335,-0.3497 0.40803,-0.50125c0.27227,-0.315 0.49877,-0.60627 0.7024,-0.8857c0.21542,-0.25657 0.37326,-0.5123 0.509,-0.69858c0.28255,-0.40729 0.42931,-0.62832 0.42931,-0.62832c0,0 -0.14676,0.22103 -0.39456,0.63934c-0.15865,0.19814 -0.29357,0.44204 -0.49719,0.72147c-0.07892,0.12787 -0.19178,0.30231 -0.29358,0.44201c-0.1247,0.15156 -0.23752,0.32602 -0.36223,0.47758c-0.1247,0.15156 -0.26044,0.33784 -0.40803,0.50125c-0.14758,0.1634 -0.28331,0.34972 -0.45376,0.52496c-0.34095,0.35051 -0.67005,0.72389 -1.08045,1.05237c-0.37566,0.33947 -0.80895,0.67976 -1.26595,0.97432c-0.44513,0.31742 -0.92578,0.5662 -1.42931,0.82683c-0.50356,0.26064 -1.00789,0.46367 -1.52407,0.64383c-0.50433,0.20303 -1.00947,0.34847 -1.52642,0.47102c-0.50515,0.14541 -1.0111,0.23325 -1.47123,0.29738c-0.24153,0.038 -0.46018,0.06412 -0.6788,0.09026c-0.23047,0.00327 -0.44909,0.02941 -0.64484,0.04372c-0.40333,0.00569 -0.80664,0.0114 -1.12948,0.00447c-0.32281,-0.00695 -0.62276,-0.02576 -0.86507,-0.04537c-0.48463,-0.03925 -0.75062,-0.10461 -0.75062,-0.10461c0,0 0.27703,0.03064 0.69222,0.04782z" fill="#519b3d"/><path d="M224.02113,203.89773c-0.17046,0.17525 -0.39777,0.40892 -0.64795,0.65444c-0.11364,0.11683 -0.25018,0.24552 -0.40959,0.38608c-0.15942,0.14053 -0.31884,0.28106 -0.47827,0.42158c-0.14761,0.16342 -0.34175,0.29291 -0.52408,0.4453c-0.19414,0.12949 -0.3646,0.30474 -0.58164,0.44609c-0.39936,0.29376 -0.83265,0.63406 -1.30146,0.90572c-0.23992,0.15319 -0.46801,0.32926 -0.7198,0.45958c-0.27464,0.14215 -0.51456,0.29534 -0.76636,0.42567c-0.25176,0.13031 -0.52644,0.27248 -0.7782,0.4028c-0.2636,0.10744 -0.53828,0.24961 -0.79004,0.37992c-0.53828,0.24961 -1.06549,0.46448 -1.6156,0.69121c-0.56196,0.20385 -1.10105,0.39584 -1.61723,0.57599c-0.52802,0.15728 -1.06787,0.29168 -1.5501,0.42526c-0.25257,0.07272 -0.48225,0.13355 -0.72378,0.17155c-0.22966,0.06086 -0.4712,0.09886 -0.67798,0.14789c-0.44832,0.08702 -0.839,0.17318 -1.19575,0.21281c-0.34491,0.0625 -0.67879,0.09029 -0.92029,0.12828c-0.5178,0.06494 -0.81693,0.10374 -0.81693,0.10374c0,0 0.29913,-0.03881 0.80509,-0.12662c0.2415,-0.03799 0.56354,-0.08865 0.90845,-0.15115c0.35675,-0.03963 0.73559,-0.14866 1.18391,-0.23568c0.20679,-0.04902 0.44832,-0.08702 0.67798,-0.14789c0.24153,-0.038 0.4712,-0.09886 0.72377,-0.17158c0.50515,-0.14541 1.01026,-0.29083 1.53828,-0.44811c0.51617,-0.18016 1.05526,-0.37217 1.59431,-0.56417c0.55013,-0.2267 1.07737,-0.44159 1.61565,-0.6912c0.25176,-0.13031 0.53828,-0.24961 0.79004,-0.37992c0.25176,-0.13031 0.53828,-0.24961 0.7782,-0.4028c0.25176,-0.13031 0.49169,-0.2835 0.74348,-0.41383c0.25176,-0.13031 0.46881,-0.27166 0.70873,-0.42485c0.45697,-0.29454 0.91392,-0.58911 1.3133,-0.88284c0.21702,-0.14133 0.3875,-0.31659 0.58164,-0.44609c0.18233,-0.15238 0.37647,-0.28188 0.53589,-0.4224c0.31887,-0.28107 0.64954,-0.53928 0.89973,-0.7848c0.2849,-0.23448 0.4893,-0.4563 0.68267,-0.6434c0.352,-0.38527 0.5564,-0.60709 0.5564,-0.60709c0,0 -0.19256,0.2447 -0.52245,0.56052z" fill="#7d9950"/></g><g><g><g><path d="M273.74369,151.27152c-1.7071,1.57976 -0.02539,6.51078 0.27724,10.06706c0.30268,3.55629 0.62085,12.41287 -4.77664,17.17909c-6.86623,6.07763 -12.39114,-0.05497 -13.14765,-3.92746c-0.75651,-3.87249 -2.91305,-5.62799 4.13045,-7.21421c4.65358,-1.04532 8.82012,-2.30272 7.14841,-9.84955c-1.23027,-5.6288 1.35641,-11.95691 3.88206,-12.68404c3.61643,-1.03067 4.19323,4.84935 2.48613,6.42911z" fill="#7cbf2e"/><path d="M260.24257,180.18922c5.28639,-2.79425 10.06582,-8.0818 11.16183,-11.34675c1.78089,-5.41793 -0.42678,-13.38352 0.90624,-14.50861c0.30781,-0.24634 0.46801,-0.32926 0.69063,-0.06742c0.1099,2.11867 0.8158,4.82806 1.00782,7.04926c0.31452,3.57917 1.12415,9.62874 -2.978,15.55195c-4.55356,6.62099 -4.12813,6.54585 -10.78851,3.32156z" fill="#b4d189"/></g><path d="M263.64777,166.35967c0.12628,-0.03636 0.32123,-0.10826 0.57299,-0.23857c0.11444,-0.05924 0.25176,-0.13031 0.38911,-0.20141c0.13732,-0.07108 0.29755,-0.15401 0.44593,-0.25982c0.33146,-0.20057 0.66214,-0.45875 0.9802,-0.79744c0.31807,-0.33867 0.63533,-0.73492 0.88231,-1.21086c0.2241,-0.4641 0.4356,-1.00865 0.55472,-1.56344c0.14202,-0.56664 0.17986,-1.16637 0.18295,-1.77712c-0.01979,-0.59891 -0.08616,-1.23172 -0.22117,-1.829c-0.24718,-1.20642 -0.40281,-2.46019 -0.45345,-3.62328c-0.06245,-1.18598 0.01477,-2.27022 0.17493,-3.19431c0.08598,-0.45062 0.21854,-0.86733 0.31715,-1.23743c0.09862,-0.37014 0.19806,-0.68266 0.29828,-0.93758c0.20042,-0.50985 0.3117,-0.79949 0.3117,-0.79949c0,0 -0.11128,0.28964 -0.27699,0.81053c-0.06547,0.26593 -0.16491,0.57845 -0.26353,0.9486c-0.09862,0.37014 -0.19645,0.79785 -0.28243,1.24847c-0.13725,0.91224 -0.17976,2.00751 -0.12915,3.17062c0.05064,1.16309 0.22916,2.40505 0.47633,3.61144c0.14688,0.62014 0.21322,1.25297 0.21013,1.86372c0.00875,0.63363 -0.05196,1.2452 -0.19398,1.81184c-0.13018,0.58952 -0.35351,1.11122 -0.6005,1.58713c-0.24701,0.47595 -0.58715,0.88406 -0.9052,1.22275c-0.14758,0.1634 -0.32988,0.31577 -0.4893,0.4563c-0.17126,0.11765 -0.33069,0.25818 -0.49091,0.34111c-0.17126,0.11765 -0.33149,0.20058 -0.46881,0.27166c-0.16023,0.08293 -0.29755,0.15401 -0.42383,0.19037c-0.24073,0.0956 -0.43567,0.16749 -0.58483,0.21569c-0.14919,0.04822 -0.21785,0.08375 -0.21785,0.08375c0,0 0.06866,-0.03554 0.20521,-0.16423z" fill="#519b3d"/></g><path d="M269.74473,178.8678c0.33937,-0.46571 0.82549,-1.15245 1.36686,-2.01281c0.54137,-0.86036 1.11509,-1.88249 1.58301,-3.05294c0.46793,-1.17041 0.87668,-2.45526 1.12359,-3.77236c0.26981,-1.32895 0.38963,-2.66729 0.42978,-3.93538c0.01723,-1.25627 -0.04525,-2.44223 -0.10533,-3.45536c-0.0601,-1.01317 -0.15253,-1.86457 -0.2181,-2.43978c-0.10029,-0.58625 -0.12794,-0.92 -0.12794,-0.92c0,0 0.05052,0.32191 0.15081,0.90816c0.10032,0.58623 0.21562,1.42579 0.29863,2.4271c0.08296,1.00129 0.1573,2.21016 0.14005,3.4664c-0.04015,1.26809 -0.14813,2.6293 -0.41794,3.95825c-0.26981,1.32895 -0.66669,2.63666 -1.16935,3.79608c-0.50265,1.15938 -1.09929,2.19337 -1.64065,3.05373c-0.57608,0.84932 -1.07405,1.51318 -1.43629,1.99073c-0.3741,0.45472 -0.57769,0.73413 -0.57769,0.73413c0,0 0.2036,-0.27941 0.60057,-0.74597z" fill="#7d9950"/></g><g><g><path d="M268.09149,142.59417c0.01493,-0.58787 1.83741,-0.48692 2.76399,-0.99552c0.92659,-0.50861 2.65682,0.42328 2.39168,1.25669c-0.90661,2.78985 -5.18166,0.36145 -5.15567,-0.26116z" fill="#69b229"/><g><path d="M272.55972,143.15314c0,0 -2.38301,-1.46425 -4.92291,-0.93278c-1.50514,0.34394 -2.98519,-0.83346 -2.98519,-0.83346c2.16194,0.47639 2.73564,-0.54573 4.5044,-0.99715c1.74587,-0.43954 4.55194,0.77673 4.55194,0.77673c-1.09943,0.51105 -1.14823,1.98666 -1.14823,1.98666z" fill="#f1f2dc"/><path d="M272.61029,143.47507c-0.47202,0.04124 -0.93067,-0.62057 -0.93067,-0.62057c-0.22187,-1.04545 1.17112,-1.99855 1.17112,-1.99855c0.52721,-0.21487 1.19186,0.34035 1.19186,0.34035" fill="#7cbf2e"/><path d="M273.37009,140.90624c-0.03472,-0.01104 -0.10418,-0.03309 -0.16181,-0.03227c-0.06943,-0.02207 -0.13813,0.01348 -0.21863,0.02615c-0.06866,0.03554 -0.13732,0.07108 -0.22889,0.11847c-0.06866,0.03554 -0.14836,0.10579 -0.22808,0.17607c-0.0797,0.07026 -0.15942,0.14053 -0.22728,0.23366c-0.06789,0.09315 -0.13574,0.18628 -0.20363,0.27943c-0.07973,0.07027 -0.11286,0.17444 -0.18072,0.26757c-0.06787,0.09318 -0.11285,0.17447 -0.14599,0.27864c-0.07812,0.18546 -0.13335,0.35908 -0.10808,0.52007c0.02526,0.16096 0.08447,0.27534 0.15471,0.355c0.07029,0.07968 0.11684,0.11359 0.11684,0.11359c0,0 -0.03472,-0.01104 -0.12788,-0.07887c-0.09315,-0.06781 -0.18707,-0.19323 -0.22417,-0.37706c-0.02531,-0.16097 0.00625,-0.38034 0.07255,-0.5887c0.03312,-0.1042 0.0781,-0.18549 0.13414,-0.30152c0.06785,-0.09313 0.1239,-0.20916 0.19175,-0.30229c0.06789,-0.09315 0.13574,-0.18628 0.20363,-0.27943c0.06784,-0.09316 0.14757,-0.16343 0.22726,-0.23369c0.07973,-0.07027 0.15945,-0.14054 0.25099,-0.18792c0.09157,-0.0474 0.1831,-0.09477 0.2636,-0.10744c0.10341,-0.02452 0.18391,-0.03718 0.25339,-0.01509c0.06947,0.02206 0.12706,0.02125 0.17365,0.05515c0.11602,0.05597 0.13971,0.10172 0.13971,0.10172c0,0 -0.04656,-0.03391 -0.12709,-0.02123z" fill="#519b3d"/><path d="M270.20913,142.36832c-0.33467,-0.02985 -0.75062,-0.10461 -1.1887,-0.10994c-0.24231,-0.01961 -0.4499,-0.02818 -0.64562,-0.01389c-0.20759,-0.00857 -0.40336,0.0057 -0.56436,0.03103c-0.17284,0.00245 -0.28809,0.00409 -0.39147,0.02859c-0.08053,0.01268 -0.13813,0.01348 -0.13813,0.01348c0,0 0.04575,-0.02368 0.14916,-0.0482c0.09157,-0.0474 0.21782,-0.08374 0.37885,-0.10908c0.0805,-0.01266 0.18391,-0.03718 0.26441,-0.04984c0.10338,-0.0245 0.18388,-0.03716 0.29913,-0.03881c0.21864,-0.02611 0.44911,-0.02938 0.6567,-0.02081c0.4499,0.02818 0.88875,0.09112 1.2013,0.1904c0.32363,0.06457 0.52096,0.16547 0.52096,0.16547c0,0 -0.19652,-0.04331 -0.54224,-0.03839z" fill="#c9bd9b"/><path d="M267.62091,141.0683c-0.16023,0.08293 -0.34333,0.17771 -0.53828,0.24961c-0.21785,0.08375 -0.42464,0.13278 -0.6543,0.19364c-0.12628,0.03636 -0.22969,0.06088 -0.34491,0.0625c-0.11525,0.00164 -0.21864,0.02611 -0.33389,0.02776c-0.11522,0.00163 -0.23047,0.00327 -0.32281,-0.00695c-0.09234,-0.01021 -0.18468,-0.02043 -0.27703,-0.03064c-0.16181,-0.03227 -0.30075,-0.07641 -0.40494,-0.1095c-0.06947,-0.02206 -0.13893,-0.04411 -0.13893,-0.04411c0,0 0.05762,-0.00082 0.14997,0.00939c0.05762,-0.00082 0.12709,0.02123 0.18471,0.02041c0.0805,-0.01266 0.13813,-0.01348 0.23048,-0.00324c0.06943,0.02207 0.17284,-0.00245 0.26518,0.00777c0.11525,-0.00164 0.19575,-0.0143 0.31097,-0.01593c0.10341,-0.02452 0.21866,-0.02616 0.32203,-0.05066c0.11525,-0.00164 0.21863,-0.02615 0.32203,-0.05066c0.43646,-0.10985 0.8611,-0.24263 1.17049,-0.37376c0.32123,-0.10826 0.52721,-0.21487 0.52721,-0.21487c0,0 -0.1823,0.15237 -0.46801,0.32926z" fill="#c9bd9b"/></g><path d="M270.76082,142.2568c1.74739,-1.16554 2.84602,-1.73419 4.86594,-0.69116c2.00805,1.02017 2.98615,2.5734 4.90097,2.68457c1.91485,0.11116 2.45886,1.94709 2.5489,2.62569l-0.61797,0.31986c0,0 0.16577,0.32027 -0.15228,0.65897c-0.31804,0.33865 -2.58409,0.67033 -3.6267,1.12297c-1.04261,0.45264 -4.76226,3.19016 -7.59367,0.97175c-2.83143,-2.21837 -2.84916,-6.00913 -0.32518,-7.69265z" fill="#7cbf2e"/><path d="M280.68027,146.11474c0.30939,-0.13113 0.60304,0.26801 0.46572,0.33909c-0.30939,0.13113 -0.78695,-0.23083 -0.46572,-0.33909z" fill="#46893d"/><path d="M281.12151,146.35048c-0.03552,-0.06863 -0.08208,-0.10254 -0.12867,-0.13644c-0.04656,-0.03391 -0.11604,-0.056 -0.1855,-0.07805c-0.03472,-0.01104 -0.03472,-0.01104 -0.06947,-0.02206c-0.03472,-0.01104 -0.03472,-0.01104 -0.03472,-0.01104c0,0 0,0 0.02288,-0.01184c0,0 0.04578,-0.0237 0.06869,-0.03555c0.0805,-0.01266 0.18388,-0.03716 0.27704,0.03067c0.04656,0.03391 0.07024,0.07967 0.09392,0.12542c0.00081,0.05759 0.02449,0.10335 0.01345,0.13806c0.00077,0.05761 -0.03314,0.10417 -0.03314,0.10417c0,0 -0.02368,-0.04575 -0.02449,-0.10335z" fill="#34662d"/><path d="M274.89317,146.93555c-0.20844,-0.19374 -0.29885,-0.4353 -0.20188,-0.53951c0.09693,-0.10423 0.34445,-0.03167 0.55289,0.16207c0.20844,0.19374 0.29885,0.4353 0.20189,0.53954c-0.09693,0.10423 -0.34447,0.03164 -0.55291,-0.1621z" fill="#283f1f"/><path d="M277.6962,148.70356c-0.10499,-0.09069 -0.19973,-0.27373 -0.25971,-0.44572c-0.0592,-0.11438 0.07734,-0.24307 0.19336,-0.1871c0.27861,0.14585 0.47676,0.30437 0.47676,0.30437z" fill="#f1f2dc"/><path d="M281.62284,147.59939c-0.25259,0.07269 -0.57381,0.18095 -0.91873,0.24345c-0.18391,0.03718 -0.35675,0.03963 -0.5525,0.05393c-0.11522,0.00163 -0.20756,-0.00859 -0.2999,-0.0188l-0.28891,-0.05353c-0.10418,-0.03309 -0.16181,-0.03227 -0.24231,-0.01961c-0.0805,0.01266 -0.18391,0.03718 -0.25257,0.07272c-0.17207,0.06006 -0.30939,0.13113 -0.45777,0.23694c-0.27387,0.19976 -0.52482,0.38767 -0.75291,0.56374c-0.12551,0.09397 -0.22811,0.17608 -0.31965,0.22346c-0.07973,0.07027 -0.17126,0.11765 -0.25179,0.13033c-0.0805,0.01266 -0.12625,0.03634 -0.18388,0.03716c-0.03475,-0.01102 -0.05762,0.00082 -0.05762,0.00082c0,0 0.03472,0.01104 0.0805,-0.01266c0.03475,0.01102 0.10341,-0.02452 0.17207,-0.06006c0.06866,-0.03554 0.16023,-0.08293 0.23992,-0.15319c0.07973,-0.07027 0.18233,-0.15238 0.28493,-0.2345c0.20518,-0.16421 0.43248,-0.39789 0.72922,-0.60949c0.12551,-0.09397 0.29676,-0.21165 0.46884,-0.27168c0.09154,-0.04738 0.17204,-0.06004 0.27545,-0.08456c0.09234,0.01021 0.23047,-0.00327 0.29993,0.01879l0.26599,0.06536c0.09234,0.01021 0.18468,0.02043 0.2652,0.0078c0.18468,0.02043 0.36859,-0.01675 0.52963,-0.04209c0.322,-0.05065 0.6322,-0.12419 0.90764,-0.20875c0.52803,-0.15725 0.87217,-0.27736 0.87217,-0.27736c0,0 -0.34333,0.17771 -0.81295,0.39178z" fill="#519b3d"/><path d="M275.46067,146.23477c-0.18388,0.03716 -0.45932,0.12173 -0.68821,0.2402c-0.11444,0.05924 -0.21705,0.14135 -0.33149,0.20058c-0.1026,0.08211 -0.19417,0.12951 -0.27387,0.19976c-0.07973,0.07027 -0.15942,0.14053 -0.20521,0.16423c-0.05682,0.05842 -0.07973,0.07027 -0.07973,0.07027c0,0 0.01107,-0.03473 0.04501,-0.08131c0.03391,-0.04656 0.07892,-0.12787 0.15862,-0.19812c0.04498,-0.08129 0.14757,-0.16343 0.25017,-0.24555c0.1026,-0.08211 0.20521,-0.16423 0.34253,-0.2353c0.11444,-0.05924 0.26364,-0.10745 0.38989,-0.1438c0.12628,-0.03636 0.24155,-0.03797 0.35677,-0.0396c0.20759,0.00857 0.34652,0.05268 0.34652,0.05268c0,0 -0.12709,-0.02123 -0.311,0.01595z" fill="#519b3d"/><path d="M275.61295,145.5758c-0.09315,-0.06781 -0.20919,-0.12381 -0.34809,-0.16793c-0.04659,-0.0339 -0.13893,-0.04411 -0.19656,-0.04329c-0.0805,0.01266 -0.13813,0.01348 -0.19572,0.01429c-0.05762,0.00082 -0.11525,0.00164 -0.13813,0.01348c-0.03475,-0.01102 -0.05762,0.00082 -0.05762,0.00082c0,0 0.02288,-0.01184 0.04578,-0.0237c0.03391,-0.04656 0.0797,-0.07026 0.12548,-0.09395c0.04578,-0.0237 0.12628,-0.03636 0.20679,-0.04902c0.03472,0.01104 0.0805,-0.01266 0.11525,-0.00164c0.03472,0.01104 0.09234,0.01021 0.12706,0.02125c0.17365,0.05515 0.31337,0.1569 0.37257,0.27128c0.08211,0.10253 0.09473,0.18301 0.09473,0.18301c0,0 -0.0584,-0.05679 -0.15155,-0.1246z" fill="#519b3d"/><path d="M275.57441,146.95908c-0.0221,0.06945 -0.07812,0.18546 -0.14599,0.27864c-0.06785,0.09313 -0.17046,0.17525 -0.23912,0.21078c-0.09157,0.0474 -0.14919,0.04822 -0.14919,0.04822c0,0 0,0 0.01107,-0.03473c0.02288,-0.01184 0.05682,-0.05842 0.06784,-0.09316c0.05682,-0.05842 0.1247,-0.15156 0.19256,-0.2447c0.07973,-0.07027 0.14758,-0.1634 0.20443,-0.22184c0.0797,-0.07026 0.11364,-0.11683 0.11364,-0.11683c0,0 0.00081,0.05759 -0.05524,0.17362z" fill="#519b3d"/><g><path d="M270.69798,145.21906c0,0 -2.47298,-1.30162 -4.96473,-0.62108c-1.4696,0.4126 -3.04038,-0.65983 -3.04038,-0.65983c2.2061,0.33747 2.7214,-0.74143 4.44276,-1.28435c1.74429,-0.55474 4.60558,0.48788 4.60558,0.48788c-1.06391,0.57968 -1.04323,2.07738 -1.04323,2.07738z" fill="#f1f2dc"/><path d="M270.75957,145.50624c-0.46016,0.06415 -0.96456,-0.57398 -0.96456,-0.57398c-0.26766,-1.02175 1.05507,-2.0545 1.05507,-2.0545c0.5154,-0.23777 1.21399,0.27088 1.21399,0.27088" fill="#7cbf2e"/><path d="M271.35762,142.90515c-0.06948,-0.02209 -0.12711,-0.02126 -0.1847,-0.02046c-0.05762,0.00082 -0.13813,0.01348 -0.20682,0.04904c-0.06866,0.03554 -0.13732,0.07108 -0.21702,0.14133c-0.07973,0.07027 -0.13655,0.12869 -0.21627,0.19896c-0.05682,0.05842 -0.12466,0.15158 -0.19254,0.24473c-0.0797,0.07026 -0.11286,0.17444 -0.18072,0.26757c-0.06789,0.09315 -0.11286,0.17444 -0.16888,0.29045c-0.03317,0.10418 -0.07813,0.18551 -0.11127,0.28967c-0.05524,0.17362 -0.09864,0.37011 -0.07333,0.53109c0.02526,0.16096 0.10734,0.2635 0.17761,0.34315c0.08128,0.04495 0.12788,0.07887 0.12788,0.07887c0,0 -0.05762,0.00082 -0.15079,-0.06702c-0.08131,-0.04493 -0.1981,-0.15851 -0.23524,-0.34233c-0.06,-0.17202 -0.02844,-0.39139 0.03784,-0.59973c0.03312,-0.1042 0.08917,-0.22022 0.1223,-0.32439c0.03314,-0.10417 0.08918,-0.22019 0.15704,-0.31333c0.06789,-0.09315 0.13572,-0.18631 0.20361,-0.27946c0.06785,-0.09313 0.13574,-0.18628 0.21544,-0.25654c0.06789,-0.09315 0.14758,-0.1634 0.23915,-0.2108c0.07973,-0.07027 0.17126,-0.11765 0.25176,-0.13031c0.10341,-0.02452 0.18391,-0.03718 0.25337,-0.01513c0.06943,0.02207 0.12706,0.02125 0.17365,0.05515c0.08129,0.04498 0.12788,0.07887 0.12788,0.07887c0,0 -0.04659,-0.0339 -0.14997,-0.00939z" fill="#519b3d"/><path d="M268.349,144.54943c-0.29995,-0.01882 -0.74985,-0.047 -1.17607,-0.02943c-0.20761,-0.0086 -0.42623,0.01754 -0.62195,0.03183c-0.19575,0.0143 -0.3915,0.02861 -0.5525,0.05393c-0.161,0.02532 -0.29913,0.03881 -0.40255,0.0633c-0.10338,0.0245 -0.161,0.02532 -0.161,0.02532c0,0 0.05762,-0.00082 0.14916,-0.0482c0.06866,-0.03554 0.21785,-0.08375 0.36703,-0.13192c0.06866,-0.03554 0.14916,-0.0482 0.25257,-0.07272c0.09154,-0.04738 0.18388,-0.03716 0.28729,-0.06168c0.19575,-0.0143 0.41438,-0.04045 0.64484,-0.04372c0.44911,-0.02938 0.88794,0.03353 1.21156,0.09807c0.32363,0.06457 0.532,0.13075 0.532,0.13075c0,0 -0.20756,-0.00859 -0.53037,-0.01553z" fill="#c9bd9b"/><path d="M265.63605,143.40099c-0.1602,0.08292 -0.3433,0.17769 -0.5264,0.27247c-0.18313,0.09479 -0.40096,0.17853 -0.63065,0.23941c-0.10338,0.0245 -0.22966,0.06086 -0.33307,0.08538c-0.10338,0.0245 -0.20679,0.04902 -0.322,0.05065c-0.11525,0.00164 -0.21863,0.02615 -0.31097,0.01593c-0.09239,-0.01023 -0.17289,0.00243 -0.26523,-0.00778c-0.18468,-0.02043 -0.31177,-0.04166 -0.41596,-0.07475c-0.08131,-0.04493 -0.1389,-0.04413 -0.1389,-0.04413c0,0 0.05759,-0.00081 0.14997,0.00939c0.05759,-0.00081 0.12706,0.02125 0.18468,0.02043c0.05762,-0.00082 0.14997,0.00939 0.23047,-0.00327c0.0805,-0.01266 0.18391,-0.03718 0.27625,-0.02697c0.09234,0.01021 0.19574,-0.01426 0.29914,-0.03878c0.10341,-0.02452 0.20679,-0.04902 0.31019,-0.07354c0.10338,-0.0245 0.20679,-0.04902 0.31016,-0.07352c0.42464,-0.13278 0.82556,-0.31129 1.13495,-0.44242c0.30939,-0.13113 0.5154,-0.23777 0.5154,-0.23777c0,0 -0.17049,0.17526 -0.46804,0.32927z" fill="#c9bd9b"/></g><path d="M275.48879,143.26147c-0.27943,-0.20347 -0.6283,-0.42897 -1.01114,-0.60792c-0.10418,-0.03309 -0.18549,-0.07802 -0.28969,-0.11114c-0.10418,-0.03309 -0.18549,-0.07802 -0.28967,-0.11111c-0.09234,-0.01021 -0.17365,-0.05515 -0.26599,-0.06536c-0.09234,-0.01021 -0.16182,-0.0323 -0.25417,-0.04252c-0.05762,0.00082 -0.14997,-0.00939 -0.20759,-0.00857c-0.05762,0.00082 -0.11525,0.00164 -0.17284,0.00245c-0.0805,0.01266 -0.13813,0.01348 -0.13813,0.01348c0,0 0.04578,-0.0237 0.14916,-0.0482c0.10341,-0.02452 0.22969,-0.06088 0.40254,-0.06333c0.0805,-0.01266 0.17284,-0.00245 0.26518,0.00777c0.09236,0.01025 0.19657,0.04332 0.28891,0.05353c0.19652,0.04331 0.40489,0.10949 0.60224,0.21042c0.08131,0.04493 0.18549,0.07802 0.27864,0.14583c0.09315,0.06781 0.17447,0.11277 0.26759,0.1806c0.17445,0.11274 0.326,0.23734 0.44284,0.35093c0.25653,0.21528 0.37415,0.38648 0.37415,0.38648c0,0 -0.1634,-0.1475 -0.44204,-0.29334z" fill="#519b3d"/><path d="M276.70103,150.08887c-0.1602,0.08292 -0.36621,0.18955 -0.58403,0.27329c-0.21785,0.08375 -0.45858,0.17935 -0.71112,0.25205c-0.12628,0.03636 -0.25257,0.07272 -0.37885,0.10908c-0.11444,0.05924 -0.22969,0.06088 -0.35598,0.09724c-0.2415,0.03799 -0.46013,0.06413 -0.65588,0.07844c-0.09236,-0.01025 -0.1847,-0.02046 -0.2652,-0.0078c-0.0805,0.01266 -0.14997,-0.00939 -0.20759,-0.00857c-0.12709,-0.02123 -0.18468,-0.02043 -0.18468,-0.02043c0,0 0.05759,-0.00081 0.17284,-0.00245c0.05762,-0.00082 0.11525,-0.00164 0.19575,-0.0143c0.05759,-0.00081 0.161,-0.02532 0.2415,-0.03799c0.19575,-0.0143 0.40255,-0.0633 0.63221,-0.12416c0.12628,-0.03636 0.22969,-0.06088 0.35598,-0.09724c0.09154,-0.04738 0.21782,-0.08374 0.34411,-0.1201c0.22969,-0.06088 0.47042,-0.15647 0.68824,-0.24021c0.21785,-0.08375 0.43567,-0.16749 0.60774,-0.22755c0.36698,-0.13194 0.60771,-0.22754 0.60771,-0.22754c0,0 -0.21705,0.14135 -0.50275,0.31824z" fill="#519b3d"/><path d="M282.36373,145.33039c-0.12864,-0.13645 -0.26915,-0.29577 -0.4673,-0.45429c-0.1981,-0.15851 -0.41913,-0.30519 -0.7088,-0.41631c-0.06947,-0.02206 -0.13893,-0.04411 -0.20837,-0.06618c-0.06948,-0.02209 -0.16182,-0.0323 -0.23129,-0.05436c-0.14997,-0.00939 -0.33465,-0.02982 -0.50752,-0.02736c-0.36938,-0.04089 -0.72852,-0.17406 -1.07664,-0.34198c-0.34807,-0.1679 -0.69696,-0.39343 -1.02298,-0.6308c-0.326,-0.23734 -0.65199,-0.47472 -0.978,-0.71209c-0.17445,-0.11274 -0.34889,-0.22553 -0.52335,-0.33827c-0.17442,-0.11276 -0.32599,-0.23738 -0.50044,-0.35012c-0.34889,-0.22553 -0.67409,-0.40527 -1.03324,-0.53847c-0.37098,-0.15605 -0.72933,-0.23165 -1.06398,-0.26147c-0.17287,0.00246 -0.33468,-0.02981 -0.4957,-0.00451c-0.17284,0.00245 -0.32281,-0.00695 -0.47197,0.04125c-0.29916,0.03882 -0.56276,0.14626 -0.79243,0.20712c-0.22889,0.11847 -0.42383,0.19037 -0.58406,0.2733c-0.30858,0.18873 -0.49172,0.28352 -0.49172,0.28352c0,0 0.17129,-0.11767 0.47988,-0.3064c0.14839,-0.10581 0.34333,-0.17771 0.57222,-0.29618c0.21782,-0.08374 0.50433,-0.20303 0.80346,-0.24184c0.14916,-0.0482 0.31019,-0.07354 0.48304,-0.07599c0.161,-0.02532 0.34573,-0.00488 0.51858,-0.00733c0.17284,-0.00245 0.34649,0.0527 0.53118,0.07313c0.16181,0.03227 0.35838,0.07559 0.54387,0.15361c0.37096,0.15609 0.71907,0.32398 1.06796,0.54951c0.17445,0.11274 0.32602,0.23737 0.50044,0.35012c0.15155,0.1246 0.34889,0.22553 0.52335,0.33827c0.36073,0.2484 0.66383,0.4976 0.98984,0.73497c0.32602,0.23737 0.64014,0.45185 0.98826,0.61976c0.34809,0.16793 0.67251,0.29007 1.01901,0.3428c0.18468,0.02043 0.34649,0.0527 0.51936,0.05024c0.09234,0.01021 0.18468,0.02043 0.25415,0.04248c0.08129,0.04498 0.15076,0.06703 0.22022,0.08909c0.28967,0.11111 0.52254,0.28067 0.72068,0.43917c0.19812,0.15854 0.33863,0.31785 0.44439,0.46615c0.23445,0.28476 0.32918,0.46778 0.32918,0.46778c0,0 -0.09473,-0.18301 -0.35128,-0.39833z" fill="#519b3d"/></g><g><path d="M266.62234,148.05379c-0.83032,-0.03435 -1.4271,-0.68268 -0.9559,-0.78154c0.48304,-0.07599 1.02761,-0.70592 2.14277,-1.74726c1.10332,-1.06421 2.43967,-0.27651 2.33009,0.96951c-0.14034,1.52299 -2.70949,1.60547 -3.51696,1.55929z" fill="#7cbf2e"/><path d="M270.05721,146.39192c-0.1026,0.08211 -0.28571,0.17689 -0.50436,0.20305c-0.2415,0.03799 -0.49565,-0.0045 -0.76166,-0.06989l-0.03475,-0.01102l-0.05759,0.00081c-0.03475,-0.01102 -0.06947,-0.02206 -0.09234,-0.01021c-0.04578,0.0237 -0.10341,0.02452 -0.17207,0.06006c-0.11444,0.05924 -0.25176,0.13031 -0.35437,0.21243c-0.23995,0.15321 -0.46804,0.32927 -0.70796,0.48246c-0.11444,0.05924 -0.22889,0.11847 -0.34333,0.17771c-0.11444,0.05924 -0.24073,0.0956 -0.34411,0.1201c-0.10341,0.02452 -0.21863,0.02615 -0.29916,0.03882c-0.0805,0.01266 -0.17284,0.00245 -0.23047,0.00327c-0.12706,-0.02125 -0.19652,-0.04331 -0.19652,-0.04331c0,0 0.0805,-0.01266 0.19575,-0.0143c0.05762,-0.00082 0.13813,-0.01348 0.21863,-0.02615c0.0805,-0.01266 0.17207,-0.06006 0.27545,-0.08456c0.10341,-0.02452 0.19494,-0.0719 0.30939,-0.13113c0.11444,-0.05924 0.22889,-0.11847 0.33149,-0.20058c0.21705,-0.14135 0.44513,-0.31742 0.67321,-0.49348c0.1026,-0.08211 0.23995,-0.15321 0.37727,-0.22428c0.06866,-0.03554 0.14916,-0.0482 0.22966,-0.06086c0.04578,-0.0237 0.0805,-0.01266 0.11525,-0.00164l0.05762,-0.00082c0.03472,0.01104 0.03472,0.01104 0.06943,0.02207c0.24311,0.0772 0.50912,0.14259 0.70487,0.12829c0.19575,-0.0143 0.36779,-0.07435 0.48223,-0.13358c0.11444,-0.05924 0.1831,-0.09477 0.1831,-0.09477c0,0 -0.05682,0.05842 -0.12467,0.15155z" fill="#519b3d"/><path d="M269.82682,147.23638c-0.11286,0.17444 -0.34095,0.35051 -0.59271,0.48082c-0.05685,0.05843 -0.11444,0.05924 -0.18313,0.09479c-0.06866,0.03554 -0.12625,0.03634 -0.19494,0.0719c-0.05759,0.00081 -0.12628,0.03636 -0.18388,0.03716c-0.04578,0.0237 -0.10341,0.02452 -0.16103,0.02534c-0.10338,0.0245 -0.19574,0.01426 -0.25336,0.01508c-0.05762,0.00082 -0.09234,-0.01021 -0.09234,-0.01021c0,0 0.04575,-0.02368 0.10338,-0.0245c0.05762,-0.00082 0.12628,-0.03636 0.22969,-0.06088c0.18389,-0.03713 0.44753,-0.14459 0.67642,-0.26306c0.11441,-0.05922 0.21702,-0.14133 0.33146,-0.20057c0.1026,-0.08211 0.19417,-0.12951 0.27385,-0.19979c0.17126,-0.11765 0.26202,-0.22264 0.26202,-0.22264c0,0 -0.05601,0.11601 -0.21542,0.25657z" fill="#519b3d"/><path d="M269.46513,145.24804c-0.08131,-0.04493 -0.22024,-0.08904 -0.38206,-0.12134c-0.16181,-0.03227 -0.35753,-0.01798 -0.56431,0.03104c-0.10341,0.02452 -0.19494,0.0719 -0.28651,0.11929c-0.07973,0.07027 -0.19414,0.12949 -0.27387,0.19976c-0.36463,0.30475 -0.6827,0.64342 -0.94471,0.86609c-0.26202,0.22264 -0.45616,0.35213 -0.45616,0.35213c0,0 0.15942,-0.14053 0.39775,-0.40895c0.23834,-0.26839 0.54457,-0.62994 0.9092,-0.93469c0.0797,-0.07026 0.1823,-0.15237 0.29674,-0.2116c0.11444,-0.05924 0.24073,-0.0956 0.34411,-0.1201c0.22969,-0.06088 0.44912,-0.02943 0.62274,0.02573c0.16181,0.03227 0.30156,0.13401 0.38284,0.17895c0.09315,0.06781 0.13974,0.1017 0.13974,0.1017c0,0 -0.04659,-0.0339 -0.18549,-0.07802z" fill="#519b3d"/></g></g><g><path d="M229.4676,215.20518c-0.0852,0.50822 -0.09141,1.72974 0.09887,2.15339c0.21314,0.41178 0.63697,0.22141 0.81858,0.85262c0.16975,0.6083 -0.29825,0.93756 -0.72605,0.83993c-0.42781,-0.09766 -0.4523,-0.20101 -0.55888,-0.40693c0,0 -0.17046,0.17525 -0.45855,0.17933c-0.36859,0.01675 -0.56832,-0.25698 -0.58413,-0.56785c-0.01582,-0.31091 -0.15553,-0.41263 -0.15553,-0.41263c0,0 -0.32991,0.31579 -0.67721,0.2055c-0.47437,-0.13157 -0.54862,-0.49926 -0.36,-1.03197c0.16567,-0.52087 -0.02538,-1.00213 -0.4272,-1.7224c-0.29526,-0.51433 0.38345,-1.44578 0.54747,-2.92302c0.18533,-1.60432 1.14432,-1.43353 2.06073,-1.00863c1.68129,0.72518 0.78872,2.02837 0.42189,3.84265z" fill="#7cbf2e"/><path d="M229.168,218.55104c0.02207,-0.06943 0.08996,-0.16258 0.11125,-0.28963c0.0221,-0.06945 0.0213,-0.12704 0.00867,-0.20756c-0.02368,-0.04575 -0.03633,-0.12622 -0.07185,-0.19485c-0.03552,-0.06863 -0.07105,-0.13726 -0.12944,-0.19405c-0.03552,-0.06863 -0.09397,-0.12543 -0.16421,-0.2051c-0.10579,-0.14828 -0.16579,-0.3203 -0.2258,-0.49228c-0.04814,-0.14912 -0.05052,-0.32191 -0.06396,-0.46002c-0.01345,-0.13806 0.00785,-0.26511 0.02995,-0.33456c0.0221,-0.06945 0.03314,-0.10417 0.03314,-0.10417c0,0 -0.01104,0.03472 0.00161,0.11519c-0.0221,0.06945 0.00235,0.17281 0.01581,0.31088c0.01344,0.13811 0.06161,0.28721 0.10974,0.43633c0.07105,0.13726 0.13107,0.30927 0.22499,0.43468c0.03552,0.06863 0.09395,0.1254 0.16421,0.2051c0.07024,0.07967 0.10576,0.14829 0.15313,0.2398c0.06001,0.17198 0.06241,0.3448 0.01821,0.48371c-0.0221,0.06945 -0.05601,0.11601 -0.08996,0.16258c-0.03394,0.04657 -0.06789,0.09315 -0.09076,0.10499c-0.05682,0.05842 -0.1026,0.08211 -0.1026,0.08211c0,0 0.04578,-0.0237 0.06789,-0.09315z" fill="#519b3d"/><path d="M227.9816,217.77279c0.05682,-0.05842 0.07892,-0.12787 0.11206,-0.23203c0.07813,-0.18551 0.05126,-0.46165 -0.04426,-0.7023c-0.10737,-0.26348 -0.21476,-0.527 -0.26371,-0.73371c-0.02449,-0.10335 -0.01424,-0.1957 -0.01502,-0.25331c-0.00081,-0.05759 0.01023,-0.09231 0.01023,-0.09231c0,0 0.01345,0.13806 0.10819,0.32111c0.07182,0.19487 0.20209,0.44654 0.30946,0.71002c0.00077,0.05761 0.03631,0.12627 0.04896,0.20674c0.01265,0.08047 0.02526,0.16096 0.02607,0.21855c-0.00946,0.14992 -0.03074,0.277 -0.09862,0.37014c-0.10102,0.19732 -0.23834,0.26839 -0.23834,0.26839c0,0 0.01104,-0.03472 0.04498,-0.08129z" fill="#519b3d"/><path d="M227.22152,217.8181c0.01972,-0.24225 0.07415,-0.47346 0.35356,-0.27002c0.44284,0.35093 -0.52952,0.88323 -0.52952,0.88323c0.19256,-0.2447 0.17994,-0.32518 0.17596,-0.61321z" fill="#a1af93"/><path d="M228.47818,218.67605c-0.01505,-0.2533 0.00467,-0.49555 0.31804,-0.33865c0.49884,0.23489 -0.37875,0.95022 -0.37875,0.95022c0.12308,-0.26678 0.09859,-0.37013 0.06071,-0.61157z" fill="#a1af93"/><path d="M229.64793,219.08585c-0.11842,-0.2288 -0.15633,-0.47022 0.19019,-0.41754c0.54303,0.09604 -0.04331,1.03768 -0.04331,1.03768c0.0418,-0.31173 -0.02847,-0.39138 -0.14688,-0.62014z" fill="#a1af93"/><path d="M240.48211,183.16543c3.27594,3.52569 3.39917,12.45416 0.27928,14.38811c-4.74255,2.94788 -7.39593,5.27848 -8.91522,6.26791c-1.46169,0.98865 -1.58948,1.75097 -1.80187,8.90967c-0.05586,1.79836 -1.90568,4.72831 -2.59115,0.99308c-0.14846,-0.73535 -1.19483,-6.40129 -0.74986,-8.40105c0.83625,-3.71069 2.41643,-3.62938 3.39189,-4.77244c1.23668,-1.42329 2.34144,-4.05461 -0.21861,-7.48676c-4.81532,-6.49984 2.54361,-18.63392 10.60553,-9.89852z" fill="#7cbf2e"/><path d="M230.18285,185.18949c-0.49584,-1.68683 2.04316,-3.11704 3.88298,-3.43117c1.85163,-0.29124 1.60006,1.5214 0.84801,2.98394c-0.75205,1.46254 -4.18857,2.16801 -4.73099,0.44724z" fill="#89ce30"/><path d="M232.78139,187.23834c1.352,-0.58377 3.20533,0.08136 1.91253,0.77952c-2.03627,1.11199 -3.2535,-0.23046 -1.91253,-0.77952z" fill="#89ce30"/><path d="M236.64635,185.00579c0.93762,-0.54332 1.01272,0.72313 0.42081,1.26154c-0.55717,0.54948 -1.54154,-0.62344 -0.42081,-1.26154z" fill="#89ce30"/><path d="M242.85692,189.04302c0.04028,0.41427 0.11769,1.01236 0.15093,1.74933c0.03321,0.73699 0.0562,1.56632 -0.04633,2.48959c-0.05126,0.46165 -0.12539,0.93514 -0.23428,1.39761c-0.1089,0.46244 -0.27537,0.92572 -0.51133,1.36691c-0.23594,0.44122 -0.56505,0.8146 -0.91782,1.14226c-0.35279,0.32763 -0.7411,0.58663 -1.12941,0.84563c-0.38831,0.259 -0.76558,0.48328 -1.11995,0.69571c-0.35437,0.21243 -0.67402,0.43589 -0.9826,0.62462c-0.60534,0.40038 -1.11913,0.75333 -1.46166,0.98864c-0.35359,0.27004 -0.54773,0.39953 -0.54773,0.39953c0,0 0.1823,-0.15237 0.51298,-0.41055c0.35359,-0.27004 0.83265,-0.63406 1.438,-1.0344c0.59348,-0.42321 1.31328,-0.88279 2.07887,-1.36608c0.3654,-0.24714 0.75371,-0.50614 1.10648,-0.8338c0.35279,-0.32763 0.64717,-0.71205 0.87205,-1.11854c0.22492,-0.40647 0.40327,-0.84689 0.51212,-1.30935c0.1089,-0.46244 0.19487,-0.91306 0.24613,-1.37471c0.11437,-0.90039 0.13716,-1.75342 0.11576,-2.46752c-0.01986,-1.44007 -0.14861,-2.4177 -0.14861,-2.4177c0,0 0.06078,0.22959 0.06638,0.63281z" fill="#519b3d"/><path d="M231.49271,197.41975c-0.00239,-0.1728 -0.00555,-0.40321 -0.05531,-0.66754c-0.02687,-0.27614 -0.1232,-0.57439 -0.20848,-0.90736c-0.04814,-0.14912 -0.10815,-0.32109 -0.16817,-0.4931c-0.05998,-0.17199 -0.11999,-0.34397 -0.20289,-0.50414c-0.05998,-0.17199 -0.14287,-0.33213 -0.22577,-0.49229c-0.08289,-0.16014 -0.16577,-0.32027 -0.24867,-0.48044c-0.07105,-0.13726 -0.15393,-0.29739 -0.22499,-0.43468c-0.07105,-0.13726 -0.165,-0.26266 -0.22422,-0.37707c-0.15313,-0.2398 -0.28262,-0.43386 -0.35366,-0.57112c-0.09392,-0.12542 -0.14129,-0.21692 -0.14129,-0.21692c0,0 0.07024,0.07967 0.16419,0.20507c0.09392,0.12542 0.24629,0.30764 0.39942,0.54744c0.08213,0.10256 0.15317,0.23982 0.24709,0.36523c0.07106,0.13729 0.16498,0.26271 0.24787,0.42284c0.0829,0.16017 0.16579,0.3203 0.24867,0.48044c0.09474,0.18304 0.17763,0.34318 0.23764,0.51516c0.0829,0.16017 0.14291,0.33214 0.20289,0.50414c0.06003,0.17201 0.09713,0.35584 0.15714,0.52782c0.06,0.17202 0.08529,0.33296 0.11055,0.49392c0.01344,0.13811 0.0387,0.29907 0.05215,0.43713c0.02686,0.27619 0.03002,0.5066 -0.00231,0.66836c-0.00944,0.14995 -0.04258,0.25412 -0.04258,0.25412c0,0 0.01023,-0.09231 0.03074,-0.277z" fill="#519b3d"/><path d="M232.40575,203.4448c-0.17129,0.11767 -0.39938,0.29373 -0.68426,0.52825c-0.13655,0.12869 -0.29597,0.26921 -0.43251,0.3979c-0.06785,0.09313 -0.14758,0.1634 -0.19256,0.2447c-0.05682,0.05842 -0.11286,0.17444 -0.14599,0.27864c-0.19017,0.41749 -0.29906,0.87997 -0.37319,1.35346c-0.09706,0.48532 -0.14832,0.94697 -0.19954,1.4086c-0.06311,0.43874 -0.10334,0.86568 -0.12143,1.22314c-0.05913,0.72678 -0.09855,1.2113 -0.09855,1.2113c0,0 -0.0016,-0.11523 0.00705,-0.32275c0.00868,-0.20753 -0.00714,-0.51844 0.01096,-0.87588c-0.00476,-0.34564 0.03544,-0.77256 0.06383,-1.22234c0.02835,-0.44979 0.09064,-0.94616 0.16481,-1.41967c0.07415,-0.47346 0.20591,-0.94777 0.39607,-1.3653c0.05604,-0.11602 0.08918,-0.22019 0.15707,-0.31334c0.05601,-0.11601 0.13574,-0.18628 0.21544,-0.25654c0.1247,-0.15156 0.29597,-0.26921 0.44434,-0.37506c0.29674,-0.2116 0.57141,-0.35377 0.74268,-0.47143c0.17126,-0.11765 0.28571,-0.17689 0.28571,-0.17689c0,0 -0.07973,0.07027 -0.23992,0.15319z" fill="#519b3d"/></g><g><path d="M214.3536,153.9908c12.50526,-10.88182 21.34362,-4.34676 21.34362,-4.34676c-1.78825,10.73004 11.65056,21.55561 11.65056,21.55561c-11.77117,-4.40789 -20.47161,10.74114 -20.47161,10.74114c-4.78571,-10.19912 -11.45985,-1.05914 -11.45985,-1.05914c-2.27506,-11.17954 -8.99865,-7.29329 -10.61808,-5.20776c0,0 3.67879,-16.55284 9.55537,-21.6831z" fill="#b4d189"/><path d="M248.90991,172.4796c-2.81805,-2.92146 -6.19545,-2.94276 -10.03817,-7.4514c-3.45593,-4.04168 -4.07706,-11.46516 -4.07706,-11.46516c0,0 -3.49626,3.05702 -6.61431,7.62966c-3.25378,4.75892 -1.01753,22.31116 -1.01753,22.31116c0,0 -2.47765,-8.31901 -3.04832,-16.2617c-0.57067,-7.9427 9.61042,-16.02611 9.61042,-16.02611c0,0 -9.90213,3.23984 -13.10078,6.98401c-3.19863,3.74412 -5.19743,24.27163 -5.19743,24.27163c-1.23422,-13.42971 1.27175,-21.42751 3.08986,-25.82044c1.81808,-4.39291 14.3241,-7.70422 14.3241,-7.70422c-2.15651,-1.75552 -11.6656,1.57098 -16.6441,4.96008c-4.94379,3.40011 -12.02644,23.86133 -12.02644,23.86133c0,0 3.88677,-20.69251 10.39084,-25.45139c8.24987,-6.03958 19.91556,-6.76938 19.91556,-6.76938c-1.00344,-2.55542 -4.0429,-1.47533 -4.0429,-1.47533c2.09858,-1.60833 5.04038,-0.57837 7.12433,1.76584c2.08398,2.3442 0.54408,10.19003 2.35443,15.25749c1.79851,5.04459 12.94286,8.29752 12.94286,8.29752c1.38301,1.66275 -2.14323,5.05434 -3.94537,3.0864z" fill="#7cbf2e"/><path d="M250.9104,168.77549c-0.60224,-0.21042 -1.44763,-0.49805 -2.45637,-0.93315c-1.00878,-0.43511 -2.18015,-0.9601 -3.36494,-1.62316c-1.19663,-0.68594 -2.44063,-1.46343 -3.49207,-2.48557c-0.52575,-0.5111 -1.00647,-1.10347 -1.33803,-1.74404c-0.30867,-0.65246 -0.51398,-1.32938 -0.68451,-1.99529c-0.34113,-1.33183 -0.50857,-2.60849 -0.60419,-3.69028c-0.09562,-1.0818 -0.10835,-2.00345 -0.11707,-2.6371c-0.00875,-0.63363 0.00938,-0.99108 0.00938,-0.99108c0,0 -0.02593,1.46377 0.20003,3.63839c0.11853,1.06994 0.30884,2.33476 0.63814,3.64371c0.17053,0.66591 0.39871,1.33099 0.69554,1.96057c0.33156,0.64057 0.78863,1.18718 1.31435,1.69829c1.01671,1.01111 2.24969,1.82331 3.43447,2.48638c1.19663,0.68594 2.32221,1.23463 3.33099,1.66974c1.99461,0.88206 3.3838,1.32331 3.3838,1.32331c0,0 -0.34728,-0.11034 -0.94953,-0.32071z" fill="#519b3d"/><path d="M234.02248,151.06203c-0.2849,0.23448 -0.66056,0.57395 -1.11595,0.98369c-0.45537,0.40977 -0.97862,0.91265 -1.51293,1.45026c-0.53429,0.53764 -1.10255,1.12182 -1.64707,1.75177c-0.55641,0.60706 -1.06622,1.24804 -1.54209,1.84246c-0.46407,0.61727 -0.89415,1.18799 -1.24458,1.68843c-0.33854,0.52333 -0.64397,0.94247 -0.83571,1.24479c-0.19178,0.30231 -0.30465,0.47675 -0.30465,0.47675c0,0 0.08999,-0.1626 0.2699,-0.48777c0.15705,-0.31337 0.42773,-0.74353 0.76627,-1.26686c0.3504,-0.50043 0.76867,-1.09403 1.2327,-1.71132c0.46407,-0.61727 0.98572,-1.23538 1.53029,-1.86532c0.55637,-0.60707 1.12462,-1.19126 1.68179,-1.74074c0.56903,-0.52657 1.10413,-1.00662 1.55949,-1.41634c0.45539,-0.40974 0.85477,-0.70348 1.13967,-0.93796c0.26201,-0.22267 0.43327,-0.34032 0.42143,-0.3632c0,0 -0.15942,0.14053 -0.39855,0.35136z" fill="#519b3d"/><path d="M233.09407,148.93189c-0.35598,0.09724 -0.88399,0.25452 -1.5154,0.43627c-0.63142,0.1818 -1.37729,0.42283 -2.13419,0.69858c-0.77978,0.28759 -1.58248,0.58701 -2.3962,0.92118c-0.41277,0.15564 -0.79081,0.32231 -1.19177,0.50084c-0.40096,0.17853 -0.76716,0.36808 -1.14521,0.53475c-0.37805,0.16667 -0.72138,0.34438 -1.06471,0.52209c-0.3433,0.17769 -0.64085,0.3317 -0.9384,0.48571c-0.29758,0.15403 -0.57222,0.29618 -0.80111,0.41465c-0.25176,0.13031 -0.44593,0.25982 -0.60613,0.34274c-0.33149,0.20058 -0.51459,0.29536 -0.51459,0.29536c0,0 0.17126,-0.11765 0.50275,-0.31824c0.1831,-0.09477 0.37724,-0.22427 0.59429,-0.36562c0.23992,-0.15319 0.49169,-0.2835 0.77742,-0.46041c0.28571,-0.17689 0.58325,-0.3309 0.92656,-0.50859c0.34333,-0.17771 0.67482,-0.37829 1.05287,-0.54497c0.37805,-0.16667 0.74426,-0.35622 1.14521,-0.53475c0.38989,-0.1438 0.779,-0.3452 1.19177,-0.50084c0.81372,-0.33417 1.63928,-0.64546 2.40804,-0.8983c0.40176,-0.12094 0.78058,-0.23 1.12472,-0.35011c0.35595,-0.09722 0.70008,-0.21734 1.01025,-0.29086c0.63144,-0.18177 1.1713,-0.31617 1.53908,-0.39052c0.36782,-0.07436 0.5746,-0.12338 0.5746,-0.12338c0,0 -0.20679,0.04902 -0.53986,0.1344z" fill="#519b3d"/><path d="M233.66993,145.55907c-0.5178,0.06494 -1.29997,0.17973 -2.20843,0.33086c-0.46016,0.06415 -0.95423,0.17485 -1.48305,0.27454c-0.52881,0.09964 -1.06866,0.23404 -1.64327,0.35742c-0.56273,0.14624 -1.16023,0.28144 -1.74587,0.43954c-0.58564,0.1581 -1.1713,0.31617 -1.76797,0.50899c-0.27545,0.08456 -0.5738,0.18098 -0.87215,0.27739c-0.29832,0.0964 -0.56196,0.20385 -0.86028,0.30025c-0.29835,0.09642 -0.59668,0.19282 -0.86033,0.30024c-0.27545,0.08456 -0.56196,0.20385 -0.82556,0.31129c-0.2636,0.10744 -0.52721,0.21487 -0.79081,0.32231c-0.26364,0.10745 -0.5154,0.23777 -0.75613,0.33336c-0.24073,0.0956 -0.46962,0.21407 -0.71031,0.30965c-0.24073,0.0956 -0.44674,0.20223 -0.65272,0.30884c-0.41199,0.21325 -0.79004,0.37992 -1.13337,0.55763c-0.34333,0.17771 -0.60616,0.34275 -0.85793,0.47307c-0.46881,0.27166 -0.74345,0.41382 -0.74345,0.41382c0,0 0.2628,-0.16503 0.73161,-0.43669c0.25176,-0.13031 0.51459,-0.29536 0.84608,-0.49594c0.32042,-0.16585 0.70954,-0.36726 1.12153,-0.5805c0.20598,-0.10662 0.41199,-0.21325 0.64088,-0.33172c0.22886,-0.11846 0.46959,-0.21405 0.69847,-0.33252c0.2636,-0.10744 0.49249,-0.22591 0.75613,-0.33336c0.2636,-0.10744 0.52721,-0.21487 0.79081,-0.32231c0.2636,-0.10744 0.52724,-0.21489 0.81372,-0.33417c0.29835,-0.09642 0.56196,-0.20385 0.86031,-0.30027c0.27546,-0.08453 0.56197,-0.20382 0.8603,-0.30022c0.29835,-0.09642 0.59671,-0.19283 0.89503,-0.28923c0.5738,-0.18098 1.19416,-0.32804 1.77981,-0.48611c0.60855,-0.16996 1.19496,-0.27045 1.75771,-0.41666c0.5746,-0.12338 1.1263,-0.23491 1.65512,-0.33459c0.50593,-0.0878 1.01184,-0.17563 1.472,-0.23977c0.46018,-0.06412 0.87452,-0.10455 1.25418,-0.15603c0.35675,-0.03963 0.69061,-0.06737 0.96686,-0.09434c0.52963,-0.04209 0.84061,-0.05799 0.84061,-0.05799c0,0 -0.29914,0.03878 -0.82954,0.02326z" fill="#519b3d"/><path d="M248.16636,172.05227c-0.04736,-0.09151 -0.15314,-0.23983 -0.30472,-0.36441c-0.15155,-0.1246 -0.32679,-0.29498 -0.55964,-0.46451c-0.23287,-0.16956 -0.4886,-0.32725 -0.79093,-0.51886c-0.29046,-0.16875 -0.61566,-0.3485 -0.97562,-0.53929c-0.34807,-0.1679 -0.73091,-0.34686 -1.12558,-0.54869c-0.7775,-0.38075 -1.5913,-0.88777 -2.33644,-1.4303c-0.74518,-0.54254 -1.44533,-1.16637 -2.07604,-1.76816c-0.6307,-0.6018 -1.15802,-1.22807 -1.59218,-1.78653c-0.43418,-0.55849 -0.74045,-1.03812 -0.92992,-1.40418c-0.09473,-0.18301 -0.1429,-0.33211 -0.19028,-0.42365c-0.02449,-0.10335 -0.04817,-0.1491 -0.04817,-0.1491c0,0 0.02368,0.04575 0.07105,0.13726c0.04738,0.09154 0.11842,0.2288 0.21315,0.41181c0.17763,0.34318 0.51868,0.83381 0.96388,1.35756c0.43418,0.55849 0.9954,1.1382 1.62614,1.73998c0.63069,0.60177 1.34189,1.1909 2.08704,1.73346c0.74516,0.54251 1.52422,1.03852 2.30172,1.41927c0.39468,0.20183 0.75462,0.39259 1.11455,0.5834c0.35993,0.19081 0.66225,0.38239 0.96458,0.57401c0.60462,0.38322 1.05931,0.75702 1.32847,1.05282c0.16339,0.14747 0.25736,0.27291 0.30472,0.36441c0.04736,0.09151 0.07105,0.13726 0.07105,0.13726c0,0 -0.02368,-0.04575 -0.11683,-0.11356z" fill="#519b3d"/><path d="M234.86883,153.08957c0.00474,0.34561 0.03401,0.79458 0.08613,1.23173c0.02927,0.44897 0.09323,0.909 0.14379,1.2309c0.02526,0.16096 0.0387,0.29907 0.06319,0.40241c0.02449,0.10335 0.02526,0.16096 0.02526,0.16096c0,0 -0.02368,-0.04575 -0.04814,-0.14912c-0.02449,-0.10335 -0.09555,-0.24064 -0.12081,-0.40159c-0.08529,-0.33296 -0.17214,-0.7811 -0.22429,-1.21823c-0.02924,-0.44899 -0.03561,-0.90982 -0.00563,-1.24439c-0.0024,-0.17283 0.04177,-0.31171 0.05203,-0.40404c0.01026,-0.09233 0.0442,-0.1389 0.0442,-0.1389c0,0 -0.00868,0.20753 -0.01574,0.53028z" fill="#519b3d"/><path d="M232.71206,148.81056c-0.06948,-0.02209 -0.15079,-0.06702 -0.25497,-0.10011c-0.10418,-0.03309 -0.23127,-0.05433 -0.35833,-0.07558c-0.14997,-0.00939 -0.27707,-0.03066 -0.42704,-0.04005c-0.14997,-0.00939 -0.32281,-0.00695 -0.47278,-0.01634c-0.17284,0.00245 -0.34573,0.00488 -0.51858,0.00733c-0.17284,0.00245 -0.35675,0.03963 -0.5296,0.04208c-0.17287,0.00246 -0.35675,0.03963 -0.52963,0.04209c-0.19574,0.01426 -0.35677,0.0396 -0.51777,0.06492c-0.32203,0.05066 -0.62116,0.08947 -0.88557,0.13931c-0.52881,0.09964 -0.87372,0.16214 -0.87372,0.16214c0,0 0.0805,-0.01266 0.22966,-0.06086c0.12628,-0.03636 0.35595,-0.09722 0.60853,-0.16991c0.26441,-0.04984 0.5746,-0.12338 0.89661,-0.17403c0.16103,-0.02534 0.34491,-0.0625 0.50594,-0.08784c0.161,-0.02532 0.35677,-0.0396 0.51777,-0.06492c0.17284,-0.00245 0.36859,-0.01675 0.54144,-0.0192c0.18471,0.02041 0.35756,0.01797 0.53042,0.01555c0.17287,-0.00246 0.32284,0.00693 0.48465,0.0392c0.14994,0.00941 0.28887,0.05352 0.41597,0.07479c0.12706,0.02125 0.24308,0.07722 0.34727,0.11031c0.08131,0.04493 0.16261,0.08986 0.24393,0.13483c0.13971,0.10172 0.1981,0.15851 0.1981,0.15851c0,0 -0.07024,-0.07967 -0.15232,-0.18221z" fill="#519b3d"/><path d="M234.01554,144.71301c0.11683,0.11356 0.22259,0.26186 0.34024,0.43304c0.09473,0.18301 0.20131,0.38893 0.20447,0.61934c0.00081,0.05759 -0.0213,0.12704 -0.02052,0.18465c0.00081,0.05759 -0.01023,0.09231 -0.00944,0.14995c-0.01023,0.09231 0.01423,0.19567 0.02687,0.27614c0.0371,0.18383 0.16579,0.3203 0.27078,0.41099c0.12786,0.07884 0.24389,0.13481 0.33623,0.14503c0.09236,0.01025 0.13814,-0.01345 0.13814,-0.01345c0,0 -0.06866,0.03554 -0.14916,0.0482c-0.08055,0.01265 -0.23048,0.00324 -0.37022,-0.09847c-0.13971,-0.10172 -0.28023,-0.26107 -0.35205,-0.45593c-0.04736,-0.09151 -0.04894,-0.20671 -0.05057,-0.32193c0.0221,-0.06945 0.03317,-0.10418 0.03236,-0.16178c-0.00081,-0.05759 0.01026,-0.09233 0.00946,-0.14992c-0.01423,-0.19567 -0.08606,-0.39057 -0.16895,-0.55071c-0.0829,-0.16017 -0.1887,-0.30845 -0.28262,-0.43386c-0.18789,-0.25085 -0.3284,-0.41017 -0.3284,-0.41017c0,0 0.17445,0.11274 0.37338,0.32887z" fill="#519b3d"/><path d="M239.42639,170.97765c-0.13813,0.01348 -0.31016,0.07352 -0.52802,0.15728c-0.21782,0.08374 -0.48146,0.19119 -0.79085,0.32233c-0.14916,0.0482 -0.30939,0.13113 -0.46959,0.21405c-0.16023,0.08293 -0.32045,0.16587 -0.50356,0.26064c-0.1602,0.08292 -0.36621,0.18955 -0.54931,0.28432c-0.1831,0.09477 -0.37727,0.22428 -0.57141,0.35377c-0.40015,0.23612 -0.7995,0.52984 -1.21071,0.8007c-0.19414,0.12949 -0.39935,0.29372 -0.60455,0.45794c-0.20519,0.16426 -0.4104,0.32848 -0.61557,0.49269c-0.20521,0.16423 -0.39857,0.35133 -0.60378,0.51555l-0.29597,0.26921l-0.29595,0.26925c-0.3867,0.37419 -0.80815,0.73736 -1.16016,1.1226c-0.19335,0.18713 -0.35197,0.38525 -0.54533,0.57236c-0.09076,0.10499 -0.17046,0.17525 -0.26122,0.28023c-0.09076,0.10499 -0.15865,0.19814 -0.24941,0.30313c-0.32909,0.37341 -0.63529,0.73494 -0.94152,1.09648c-0.28331,0.34972 -0.56663,0.6994 -0.80415,1.02542c-0.1247,0.15156 -0.24941,0.30313 -0.35121,0.44283c-0.10183,0.13972 -0.20363,0.27943 -0.30542,0.41914c-0.1807,0.2676 -0.35039,0.50046 -0.48613,0.68674c-0.29437,0.38445 -0.44115,0.60545 -0.44115,0.60545c0,0 0.14678,-0.221 0.4064,-0.61647c0.13574,-0.18628 0.29358,-0.44201 0.47429,-0.70962c0.10183,-0.13972 0.20363,-0.27943 0.29358,-0.44201c0.10183,-0.13972 0.21465,-0.31418 0.33935,-0.46574c0.26044,-0.33784 0.52089,-0.67569 0.79235,-1.04828c0.28332,-0.34969 0.61243,-0.72307 0.92967,-1.11936c0.09076,-0.10499 0.15862,-0.19812 0.24938,-0.30311c0.06789,-0.09315 0.17049,-0.17526 0.26125,-0.28025c0.19335,-0.18713 0.35197,-0.38525 0.54533,-0.57236c0.34014,-0.4081 0.76157,-0.7713 1.1483,-1.1455l0.29597,-0.26921l0.30781,-0.24634c0.20518,-0.16421 0.39854,-0.35131 0.60373,-0.51557c0.20521,-0.16423 0.42225,-0.30557 0.62746,-0.4698c0.20521,-0.16423 0.41038,-0.32843 0.62743,-0.46978c0.43409,-0.2827 0.83344,-0.57642 1.24543,-0.78966c0.20601,-0.10663 0.40015,-0.23612 0.58325,-0.3309c0.20601,-0.10663 0.38911,-0.20141 0.57222,-0.29618c0.37805,-0.16667 0.71034,-0.30966 1.01973,-0.4408c0.30939,-0.13113 0.57299,-0.23857 0.80266,-0.29943c0.21785,-0.08375 0.40173,-0.12092 0.52802,-0.15728c0.12628,-0.03636 0.18391,-0.03718 0.18391,-0.03718c0,0 -0.04578,0.0237 -0.25257,0.07272z" fill="#7d9950"/><path d="M228.35004,160.95981c-0.10178,0.13974 -0.23752,0.32602 -0.38352,0.60463c-0.146,0.27861 -0.31409,0.6267 -0.45848,1.02049c-0.15544,0.42856 -0.29904,0.88 -0.40713,1.40003c-0.23906,1.05199 -0.38337,2.28697 -0.45743,3.60162c-0.03703,0.65733 -0.06222,1.33753 -0.07556,2.04064c-0.01335,0.70308 -0.0267,1.40616 -0.00533,2.12027c0.00803,1.41722 0.03896,2.82256 0.09198,4.15844c0.04117,1.31305 0.10443,2.55663 0.16533,3.62739c0.07194,1.03604 0.13041,1.93399 0.16204,2.55578c0.05454,0.60993 0.07116,0.97843 0.07116,0.97843c0,0 -0.0395,-0.35666 -0.09404,-0.96659c-0.05454,-0.60993 -0.13591,-1.49602 -0.21966,-2.55495c-0.04189,-0.52946 -0.07274,-1.09364 -0.12725,-1.70358c-0.05454,-0.60993 -0.09802,-1.25462 -0.11861,-1.91113c-0.0759,-1.32404 -0.11865,-2.7523 -0.1267,-4.16948c-0.0166,-0.36852 0.00151,-0.72595 -0.00325,-1.0716c0.01811,-0.35744 0.01335,-0.70308 0.03144,-1.06054c0.01335,-0.70308 0.06145,-1.39514 0.09848,-2.05246c0.04807,-0.69204 0.09694,-1.32649 0.1924,-1.92704c0.06071,-0.61157 0.17983,-1.16636 0.31078,-1.69826c0.27379,-1.04092 0.60837,-1.85226 0.93508,-2.39847c0.146,-0.27861 0.30463,-0.47678 0.41827,-0.59361c0.11364,-0.11683 0.17046,-0.17525 0.17046,-0.17525c0,0 -0.05682,0.05842 -0.17046,0.17525z" fill="#519b3d"/><path d="M212.23638,174.28952c-0.09315,-0.06781 -0.22103,-0.14668 -0.34889,-0.22553c-0.12786,-0.07884 -0.26757,-0.18056 -0.45308,-0.25862c-0.18549,-0.07802 -0.37098,-0.15605 -0.57936,-0.22226c-0.19656,-0.04329 -0.41676,-0.13235 -0.65907,-0.15196c-0.23129,-0.05436 -0.48463,-0.03925 -0.72694,-0.05885c-0.12709,-0.02123 -0.25337,0.01513 -0.36859,0.01675c-0.12628,0.03636 -0.25339,0.01509 -0.37968,0.05145l-0.36779,0.07435c-0.10341,0.02452 -0.24153,0.038 -0.35598,0.09724c-0.12628,0.03636 -0.21782,0.08374 -0.34411,0.1201l-0.17207,0.06006c-0.04578,0.0237 -0.11444,0.05924 -0.1602,0.08292c-0.22889,0.11847 -0.42383,0.19037 -0.62984,0.297c-0.19414,0.12949 -0.37724,0.22427 -0.52563,0.33008c-0.09157,0.0474 -0.17126,0.11765 -0.23992,0.15319c-0.07973,0.07027 -0.14839,0.10581 -0.20521,0.16423c-0.12551,0.09397 -0.25099,0.18792 -0.33069,0.25818c-0.19417,0.12951 -0.29677,0.21162 -0.29677,0.21162c0,0 0.1026,-0.08211 0.26202,-0.22264c0.07973,-0.07027 0.17049,-0.17526 0.29597,-0.26921c0.06866,-0.03554 0.12548,-0.09395 0.1823,-0.15237c0.07973,-0.07027 0.14839,-0.10581 0.22811,-0.17608c0.14836,-0.10579 0.31965,-0.22346 0.51379,-0.35295c0.1831,-0.09477 0.41199,-0.21325 0.61797,-0.31986c0.04578,-0.0237 0.11444,-0.05924 0.16023,-0.08293l0.17207,-0.06006c0.12628,-0.03636 0.24073,-0.0956 0.36701,-0.13196c0.11444,-0.05924 0.25254,-0.0727 0.37882,-0.10906l0.39069,-0.0862c0.13813,-0.01348 0.25337,-0.01513 0.3915,-0.02861c0.1381,-0.01347 0.2644,-0.0498 0.39149,-0.02856c0.26518,0.00777 0.5304,0.01552 0.76167,0.06984c0.25417,0.04252 0.47437,0.13157 0.68274,0.19776c0.1855,0.07805 0.40574,0.1671 0.56832,0.25698c0.1855,0.07805 0.33705,0.20265 0.46492,0.28149c0.1279,0.07883 0.23287,0.16956 0.32602,0.23737c0.16339,0.14747 0.24551,0.25003 0.24551,0.25003c0,0 -0.105,-0.09072 -0.25736,-0.27291z" fill="#7d9950"/><path d="M223.87091,177.98491c-0.11602,-0.05597 -0.25573,-0.15769 -0.4065,-0.22468c-0.08128,-0.04495 -0.1855,-0.07805 -0.26678,-0.123c-0.08131,-0.04493 -0.18549,-0.07802 -0.28967,-0.11111c-0.10421,-0.03308 -0.23127,-0.05433 -0.33547,-0.08745c-0.12709,-0.02123 -0.23127,-0.05433 -0.35833,-0.07558c-0.12709,-0.02123 -0.25418,-0.04247 -0.38126,-0.06375c-0.12709,-0.02123 -0.24231,-0.01961 -0.39227,-0.029c-0.05762,0.00082 -0.14997,-0.00939 -0.20759,-0.00857c-0.05762,0.00082 -0.11522,0.00163 -0.19575,0.0143c-0.1381,0.01347 -0.27622,0.02695 -0.41436,0.0404c-0.12628,0.03636 -0.28732,0.0617 -0.41357,0.09804l-0.20682,0.04904c-0.04575,0.02368 -0.12625,0.03634 -0.19494,0.0719c-0.2636,0.10744 -0.53905,0.192 -0.79081,0.32231c-0.27467,0.14217 -0.5154,0.23777 -0.74348,0.41383c-0.12548,0.09395 -0.23992,0.15319 -0.34253,0.2353c-0.1026,0.08211 -0.21705,0.14135 -0.31965,0.22346c-0.20521,0.16423 -0.3875,0.31659 -0.54693,0.45712c-0.18231,0.15241 -0.31886,0.2811 -0.45537,0.40977c-0.11367,0.11685 -0.22731,0.23368 -0.32991,0.31579c-0.20521,0.16423 -0.29597,0.26921 -0.29597,0.26921c0,0 0.11367,-0.11685 0.27229,-0.31497c0.09076,-0.10499 0.18152,-0.20998 0.31807,-0.33867c0.11364,-0.11683 0.2612,-0.28026 0.42063,-0.42079c0.15942,-0.14053 0.32991,-0.31579 0.53512,-0.48001c0.20518,-0.16421 0.42222,-0.30556 0.66218,-0.45876c0.21702,-0.14133 0.49169,-0.2835 0.74345,-0.41382c0.25176,-0.13031 0.55012,-0.22673 0.81372,-0.33417c0.06869,-0.03555 0.13735,-0.07109 0.21785,-0.08375l0.20679,-0.04902c0.161,-0.02532 0.31019,-0.07354 0.44829,-0.08701c0.17287,-0.00246 0.311,-0.01595 0.44914,-0.0294c0.0805,-0.01266 0.13813,-0.01348 0.21863,-0.02615c0.05762,-0.00082 0.14997,0.00939 0.20756,0.00859c0.14997,0.00939 0.28809,-0.00409 0.41518,0.01714c0.12706,0.02125 0.25417,0.04252 0.38122,0.06377c0.12709,0.02123 0.26602,0.06535 0.3702,0.09844c0.11602,0.05597 0.22022,0.08909 0.32441,0.12218c0.10418,0.03309 0.18549,0.07802 0.28967,0.11111c0.08131,0.04493 0.16261,0.08986 0.24393,0.13483c0.16258,0.08988 0.30229,0.1916 0.39543,0.25941c0.19815,0.15852 0.30311,0.24922 0.30311,0.24922c0,0 -0.10496,-0.0907 -0.34889,-0.22553z" fill="#7d9950"/><path d="M222.08185,156.92341c-0.23912,0.21078 -0.58087,0.5037 -0.95571,0.90079c-0.19336,0.1871 -0.37489,0.39708 -0.56745,0.64178c-0.19257,0.24474 -0.32673,0.54623 -0.49561,0.83668c-0.30302,0.59196 -0.57052,1.25256 -0.79146,1.94706c-0.20987,0.65977 -0.39607,1.3653 -0.58307,2.01323c-0.187,0.64793 -0.34005,1.24929 -0.47105,1.78118c-0.27378,1.04095 -0.45997,1.74648 -0.45997,1.74648c0,0 0.1286,-0.70472 0.36763,-1.75669c0.09624,-0.54294 0.24931,-1.14427 0.40159,-1.80324c0.15225,-0.65895 0.35031,-1.34162 0.57123,-2.03611c0.22094,-0.69451 0.48844,-1.3551 0.81437,-1.95892c0.16888,-0.29045 0.33774,-0.58093 0.5303,-0.82562c0.19259,-0.24471 0.39699,-0.46653 0.59034,-0.65366c0.3867,-0.37419 0.72845,-0.6671 0.97944,-0.85502c0.25096,-0.18791 0.39935,-0.29372 0.39935,-0.29372c0,0 -0.13655,0.12869 -0.32991,0.31579z" fill="#519b3d"/><path d="M204.41478,177.11968c0.15544,-0.42856 0.35428,-1.05361 0.63201,-1.80652c0.27776,-0.75292 0.57682,-1.63289 0.93272,-2.57128c0.35586,-0.93841 0.73384,-1.94624 1.12366,-2.9312c0.41268,-0.99683 0.81434,-1.9589 1.20496,-2.88626c0.39059,-0.92734 0.77096,-1.76238 1.11818,-2.49324c0.16806,-0.34807 0.33616,-0.69613 0.48214,-0.97477c0.146,-0.27861 0.28094,-0.52248 0.40482,-0.73167c0.23676,-0.3836 0.3717,-0.62747 0.3717,-0.62747c0,0 -0.11206,0.23203 -0.33696,0.63854c-0.10099,0.1973 -0.22412,0.46407 -0.37012,0.74268c-0.14595,0.27862 -0.29118,0.61484 -0.4474,0.98579c-0.34723,0.73087 -0.69284,1.57692 -1.08346,2.50428c-0.39062,0.92736 -0.7804,1.91233 -1.17022,2.89728c-0.38982,0.98495 -0.77962,1.96994 -1.13553,2.90834c-0.35588,0.93838 -0.70149,1.78443 -0.97925,2.53735c-0.56736,1.48297 -0.95716,2.46795 -0.95716,2.46795c0,0 0.07733,-0.2431 0.20991,-0.65979z" fill="#519b3d"/></g><g><g><path d="M270.61097,190.68952c0,0 -0.57306,-0.60259 -0.21712,-0.69981c0.20679,-0.04902 0.23205,0.11194 0.19973,0.27373c-0.05524,0.17362 -0.08918,0.22019 0.01739,0.42608z" fill="#a1af93"/><path d="M273.92669,189.58246c0.16817,0.4931 0.60941,0.72884 0.61577,1.18967c0.02457,0.94454 0.0562,1.56632 0.48956,2.06719c0.42152,0.47799 -0.52,1.57447 -0.87047,1.23374c-0.30391,-0.30682 -0.21396,-0.4694 -0.11609,-0.89713c0,0 -0.17914,0.38278 -0.43093,0.51311c-0.30858,0.18873 -0.6109,-0.00286 -0.76485,-0.30028c-0.15395,-0.29743 -0.0324,-0.6794 -0.0324,-0.6794c0,0 -0.34175,0.29291 -0.71352,0.07923c-0.4302,-0.27046 -0.27,-0.35338 -0.15084,-0.90815c0.09782,-0.42774 0.05673,-0.8996 -0.24799,-1.26402c-0.35205,-0.45593 -0.35842,-0.91676 -0.74364,-1.26852c-0.22179,-0.20426 -0.11513,0.84282 -0.38036,0.83503c-0.38043,-0.00612 -0.55647,-0.23407 -0.49256,-0.61525c0.09466,-0.65815 0.21775,-0.9249 0.4553,-1.25093c0.3504,-0.50043 -0.00496,-2.02793 0.91147,-1.60306c0.91641,0.42491 2.18259,1.9741 2.47156,2.86876z" fill="#7cbf2e"/><path d="M273.87816,193.58158c0.05682,-0.05842 0.12467,-0.15155 0.146,-0.27861c0.04417,-0.13889 0.03074,-0.277 -0.01743,-0.4261c-0.01262,-0.08049 -0.04814,-0.14912 -0.08366,-0.21775c-0.04738,-0.09154 -0.0829,-0.16017 -0.13027,-0.25167c-0.16659,-0.3779 -0.1603,-0.75822 -0.09484,-1.02419c0.02133,-0.12706 0.07734,-0.24307 0.09944,-0.31252c0.0221,-0.06945 0.05601,-0.11601 0.05601,-0.11601c0,0 0.00081,0.05759 -0.0213,0.12704c-0.02207,0.06943 -0.02049,0.18464 -0.04179,0.31168c-0.00786,0.26516 0.00872,0.63364 0.13979,0.94291c0.03552,0.06863 0.07105,0.13726 0.11842,0.2288c0.04736,0.09151 0.09473,0.18301 0.10737,0.26348c0.01262,0.08049 0.02526,0.16096 0.01502,0.25331c-0.01026,0.09233 -0.03236,0.16178 -0.05443,0.23121c-0.05604,0.11602 -0.15865,0.19814 -0.21547,0.25655c-0.06866,0.03554 -0.11444,0.05924 -0.11444,0.05924c0,0 0.03394,-0.04657 0.09157,-0.0474z" fill="#519b3d"/><path d="M272.96323,192.43074c0.07815,-0.18548 0.13177,-0.47428 0.08204,-0.73863c-0.06159,-0.28718 -0.1232,-0.57439 -0.12639,-0.80478c-0.0016,-0.11523 0.00867,-0.20756 0.03077,-0.27701c0.0221,-0.06945 0.03314,-0.10417 0.03314,-0.10417c0,0 -0.00946,0.14992 0.0395,0.35666c0.02449,0.10335 0.06078,0.22959 0.09711,0.35581c0.01263,0.08052 0.03631,0.12627 0.04896,0.20674c0.00081,0.05759 0.01342,0.13808 0.02607,0.21855c0.01342,0.13808 0.01582,0.31091 -0.02838,0.44981c-0.04417,0.13889 -0.08838,0.27779 -0.15623,0.37092c-0.13572,0.18631 -0.26123,0.28028 -0.26123,0.28028c0,0 0.11367,-0.11685 0.21465,-0.31418z" fill="#519b3d"/><path d="M272.00664,192.43277c0.06545,-0.26596 0.18938,-0.47513 0.41199,-0.21325c0.37496,0.44408 -0.70399,0.77046 -0.70399,0.77046c0.23915,-0.2108 0.24938,-0.30311 0.292,-0.55722z" fill="#a1af93"/><path d="M273.10463,193.48883c0.00788,-0.26512 0.09706,-0.48532 0.35359,-0.27004c0.41994,0.36279 -0.56427,0.87221 -0.56427,0.87221c0.19256,-0.2447 0.1681,-0.34806 0.21068,-0.60218z" fill="#a1af93"/><path d="M274.13945,194.14251c-0.06078,-0.22959 -0.05292,-0.49474 0.27148,-0.37256c0.5328,0.18835 -0.23985,0.99435 -0.23985,0.99435c0.11128,-0.28964 0.04104,-0.36931 -0.03163,-0.62179z" fill="#a1af93"/></g><g><path d="M262.62038,177.102c2.14948,2.07825 3.0474,7.00884 1.03356,11.41603c-0.68261,1.48461 -0.32027,1.8482 -0.32027,1.8482c0,0 1.2462,-0.73205 3.65663,-1.45756c1.85954,-0.55638 3.17512,-2.10757 4.06071,-2.24685c0.90845,-0.15115 2.52272,1.56597 -2.35638,4.64253c-8.52382,5.39816 -11.29442,3.40939 -10.70913,-0.11339c0.63815,-3.8692 -1.78986,-5.25211 -2.99937,-8.54206c-1.18664,-3.30179 4.00081,-9.09059 7.63425,-5.54691z" fill="#7cbf2e"/><path d="M258.06832,190.50994c0.02207,-0.06943 0.02049,-0.18464 0.0189,-0.29987c-0.00158,-0.1152 -0.015,-0.25328 -0.00555,-0.40321c-0.01345,-0.13806 -0.01582,-0.31091 -0.04111,-0.47185c-0.02526,-0.16096 -0.05054,-0.32194 -0.08764,-0.50578c-0.03713,-0.18382 -0.09713,-0.35584 -0.13423,-0.53967c-0.06001,-0.17198 -0.12004,-0.34398 -0.19186,-0.53885c-0.08289,-0.16014 -0.13185,-0.36688 -0.21473,-0.52701c-0.09474,-0.18304 -0.15475,-0.35502 -0.23764,-0.51516c-0.09474,-0.18304 -0.16579,-0.3203 -0.24867,-0.48044c-0.07106,-0.13729 -0.16498,-0.26271 -0.23603,-0.39997c-0.15317,-0.23982 -0.28262,-0.43386 -0.38843,-0.58217c-0.09392,-0.12542 -0.14129,-0.21692 -0.14129,-0.21692c0,0 0.0584,0.05679 0.16419,0.20507c0.03554,0.06866 0.10578,0.14833 0.18789,0.25085c0.07024,0.07967 0.12944,0.19405 0.22338,0.3195c0.0592,0.11438 0.15316,0.23979 0.25894,0.38811c0.08289,0.16014 0.18865,0.30843 0.27155,0.4686c0.10579,0.14828 0.16577,0.32027 0.26052,0.50331c0.09473,0.18301 0.15475,0.35502 0.2266,0.54987c0.07182,0.19487 0.12081,0.40159 0.18079,0.57359c0.04894,0.20671 0.08609,0.39056 0.1232,0.57439c0.0371,0.18383 0.07422,0.3677 0.07661,0.54049c0.00239,0.1728 0.02766,0.33379 0.01821,0.48371c0.00397,0.288 -0.03861,0.54212 -0.07097,0.7039c-0.03233,0.16176 -0.06547,0.26593 -0.06547,0.26593c0,0 0.03314,-0.10417 0.05285,-0.34642z" fill="#519b3d"/><path d="M270.29489,186.99518c-0.09076,0.10499 -0.23912,0.21078 -0.3875,0.31659c-0.0797,0.07026 -0.17126,0.11765 -0.25099,0.18792c-0.09154,0.04738 -0.17126,0.11765 -0.28571,0.17689c-0.19414,0.12949 -0.42303,0.24796 -0.66295,0.40115c-0.22889,0.11847 -0.46881,0.27166 -0.75532,0.39096c-0.53828,0.24961 -1.13415,0.50002 -1.70717,0.73861c-0.59587,0.25041 -1.18073,0.46612 -1.73082,0.69284c-0.52726,0.21486 -1.05447,0.42973 -1.4783,0.6201c-0.20601,0.10663 -0.42383,0.19037 -0.58406,0.2733c-0.17207,0.06006 -0.33227,0.14298 -0.44671,0.20221c-0.26364,0.10745 -0.40096,0.17853 -0.40096,0.17853c0,0 0.12548,-0.09395 0.37727,-0.22428c0.22889,-0.11847 0.5951,-0.30802 1.00709,-0.52127c0.43487,-0.22509 0.92736,-0.451 1.47748,-0.67773c0.55012,-0.22673 1.15784,-0.45423 1.73087,-0.69282c0.60771,-0.22754 1.18073,-0.46612 1.71898,-0.71571c0.26364,-0.10745 0.53828,-0.24961 0.76716,-0.36808c0.25176,-0.13031 0.48065,-0.24879 0.67482,-0.37829c0.20598,-0.10662 0.40015,-0.23612 0.54851,-0.34192c0.16023,-0.08293 0.30861,-0.18874 0.41122,-0.27086c0.22808,-0.17607 0.35356,-0.27002 0.35356,-0.27002c0,0 -0.11364,0.11683 -0.37647,0.28188z" fill="#519b3d"/><path d="M266.83123,192.41388c-0.44593,0.25982 -0.97237,0.5323 -1.54456,0.82847c-0.57222,0.29618 -1.19019,0.61604 -1.82081,0.85544c-0.63062,0.23939 -1.28493,0.433 -1.929,0.53433c-0.64404,0.10131 -1.24312,0.1213 -1.76327,0.01343c-0.26599,-0.06536 -0.47439,-0.13153 -0.67169,-0.23244c-0.1855,-0.07805 -0.33708,-0.20263 -0.44204,-0.29334c-0.105,-0.09072 -0.18709,-0.19326 -0.22261,-0.26189c-0.03552,-0.06863 -0.0592,-0.11438 -0.0592,-0.11438c0,0 0.08289,0.16014 0.31572,0.32971c0.23285,0.16953 0.62753,0.37136 1.12399,0.43345c0.4965,0.06211 1.10741,0.06496 1.71674,-0.04735c0.29913,-0.03881 0.60929,-0.11233 0.94236,-0.19771c0.33307,-0.08538 0.6543,-0.19364 0.97558,-0.30188c0.33307,-0.08538 0.63062,-0.23939 0.94001,-0.37053c0.29755,-0.15401 0.60694,-0.28515 0.88158,-0.4273c0.58406,-0.2733 1.11049,-0.54579 1.56824,-0.78272c0.90371,-0.49677 1.4988,-0.80479 1.4988,-0.80479c0,0 -0.57141,0.35377 -1.50984,0.8395z" fill="#519b3d"/><path d="M264.44014,181.17837c-0.04976,-0.26433 -0.13423,-0.53967 -0.20768,-0.84976c-0.07345,-0.31009 -0.18159,-0.63118 -0.28979,-0.95229c-0.04814,-0.14912 -0.10815,-0.32109 -0.17921,-0.45838c-0.05998,-0.17199 -0.13102,-0.30925 -0.20209,-0.44654c-0.08289,-0.16014 -0.14209,-0.27452 -0.21315,-0.41181c-0.04817,-0.1491 -0.15316,-0.23979 -0.21236,-0.35417c-0.0821,-0.10257 -0.15237,-0.18222 -0.22261,-0.26189c-0.01184,-0.02288 -0.0584,-0.05679 -0.08208,-0.10254c-0.03475,-0.01102 -0.05843,-0.05677 -0.09315,-0.06781c-0.105,-0.09072 -0.1634,-0.1475 -0.1634,-0.1475c0,0 0.0584,0.05679 0.18628,0.13566c0.01184,0.02288 0.04659,0.0339 0.09315,0.06781c0.03472,0.01104 0.0584,0.05679 0.10499,0.09069c0.07024,0.07967 0.16339,0.14747 0.24548,0.25005c0.08211,0.10253 0.18707,0.19323 0.25811,0.33049c0.07106,0.13729 0.16501,0.26269 0.23606,0.39995c0.07106,0.13729 0.14211,0.27455 0.20209,0.44654c0.0829,0.16017 0.13107,0.30927 0.19108,0.48124c0.13104,0.30928 0.21631,0.64222 0.28976,0.9523c0.09632,0.29825 0.14688,0.62014 0.1848,0.8616c0.08764,0.50578 0.09241,0.85137 0.09241,0.85137c0,0 -0.0624,-0.34477 -0.2187,-0.81501z" fill="#519b3d"/></g></g></g></g></svg>