<svg version="1.1" xmlns="http://www.w3.org/2000/svg" xmlns:xlink="http://www.w3.org/1999/xlink" width="87.91234" height="73.02605" viewBox="0,0,87.91234,73.02605"><g transform="translate(-196.04383,-143.48697)"><g data-paper-data="{&quot;isPaintingLayer&quot;:true}" fill-rule="nonzero" stroke="none" stroke-width="0.95" stroke-linecap="butt" stroke-linejoin="miter" stroke-miterlimit="10" stroke-dasharray="" stroke-dashoffset="0" style="mix-blend-mode: normal"><g><path d="M258.56253,191.10445c0.00437,1.22558 -0.69167,1.82588 -1.19381,2.11994c-1.06439,0.63305 -2.13948,0.74005 -3.24783,0.17538c-1.15766,-0.58909 -2.58789,-3.35529 -1.26168,-5.87577c-2.32952,-1.49666 -3.83985,-3.52327 -3.73336,-4.54026c0.01224,-0.95641 1.11324,-1.92702 3.30398,-2.17223c-0.76247,-0.65891 -2.45698,-3.05193 -2.07305,-4.19442c0.38393,-1.14255 2.46629,-1.07611 3.64102,-1.1772c0,0 -3.93554,-3.37971 -2.79253,-5.63786c0.81522,-1.60854 3.54086,-1.06583 5.55775,-0.27112c0,0 -7.70654,-5.76728 -5.67401,-8.30437c1.58895,-1.9827 5.58022,0.27205 6.38424,0.66673c-1.25001,-1.694 -3.34989,-5.79659 -3.938,-9.80935c-1.9661,-13.40245 10.36034,-8.66244 14.24168,-2.37049c2.2347,3.62441 2.64208,5.64028 2.64208,5.64028c0.92469,2.202 1.31983,4.27263 1.45809,6.2504c0.30917,4.44503 -0.5603,6.84586 -1.6652,7.91118c-4.76397,4.59697 -11.66891,15.47997 -11.64938,21.58917z" fill="#279afa"/><path d="M258.56253,191.10445c0.00437,1.22558 -0.69167,1.82588 -1.19381,2.12045c-1.06439,0.63305 -2.13948,0.74 -3.24783,0.17533c-1.15766,-0.58909 -2.58789,-3.35524 -1.26168,-5.87572c0,0 -3.7944,-4.97257 3.17842,-5.26956c0,0 -6.60744,-5.67596 1.61682,-5.45374c0,0 -8.79576,-7.61172 3.12669,-5.39214c0,0 -11.73293,-10.4893 1.40971,-6.66071c0,0 -9.0493,-16.44564 -2.45359,-18.04441c3.70503,-0.8978 9.33117,5.37507 10.68175,8.64974c0.92469,2.202 1.31983,4.27263 1.45809,6.2504c0.30917,4.44503 -0.5603,6.84586 -1.6652,7.91118c-4.76397,4.59697 -11.66891,15.47997 -11.64938,21.58917z" fill="#0043a5"/></g><path d="M259.87944,202.48326c0.994,-1.72135 2.29136,-2.47312 4.26769,-2.71587c0.84849,-0.09723 1.45465,-0.07281 2.13361,0.43669c0.6184,0.4606 -0.23981,1.70814 -3.01578,2.19367c2.98406,0.27745 4.56766,0.61891 4.80994,1.7829c0.18217,0.90906 -1.11519,1.39408 -2.03644,1.26075c-2.09695,-0.30285 -4.38883,-1.11519 -5.38288,0.77615c-0.25446,0.48507 -0.36388,0.95739 -0.87286,1.11519c-0.55783,0.16999 -1.23679,-0.18171 -1.3096,-0.77568c-0.12114,-1.05508 0.46358,-1.70474 0.19395,-2.71587c-0.09672,-0.36393 -4.07333,-1.89134 -5.69797,-2.54588c0.80011,-0.19395 1.85473,-0.8851 2.64311,-1.11565c0.5334,-0.1578 2.93372,1.13956 4.26723,2.3036z" fill="#ffa600"/><g><path d="M263.51505,190.28238c-0.1524,0.90608 -0.09425,1.72377 0.1524,2.51462c-2.39492,7.21854 -6.51561,13.56611 -13.43911,16.23801c-3.95559,1.52694 -12.07485,-1.04089 -17.55692,-6.73105c-3.53942,2.84533 -5.93485,5.15577 -10.13174,6.66169c-4.51974,1.62124 -3.06268,-2.88924 -2.02173,-4.83236c-1.94311,0.55536 -5.13526,0.27791 -5.75998,-1.04094c-0.64282,-1.35644 0.77224,-2.45451 2.4379,-3.14813c-1.87375,-0.48553 -4.55445,-0.75177 -4.37176,-2.63673c0.19883,-2.05644 1.93386,-1.84835 4.92717,-2.3598c-1.66567,-1.24898 -3.7475,-3.29616 -2.84533,-5.13521c0.97107,-1.94311 5.33357,-3.37483 17.62531,5.69108c3.74699,0.69413 17.59255,-8.67514 23.03992,-12.07532c7.11303,-4.44112 14.98024,-7.14038 21.37374,-1.80439c0.47772,0.39859 0.86751,0.79717 1.19381,1.19427c-2.0061,-0.86263 -4.43135,-0.64966 -6.62261,-0.08988c-0.49479,0.12654 -0.97837,0.26866 -1.44143,0.42203c-2.98406,0.98865 -5.13526,2.7408 -6.17615,5.69015c-0.17929,0.50749 -0.30676,0.98572 -0.38347,1.44195z" fill="#ff0600"/><path d="M270.07468,183.14982c-2.98406,0.98865 -5.13526,2.74075 -6.17569,5.69062c-0.17924,0.50749 -0.30676,0.98572 -0.38342,1.44195c-0.91636,0.18171 -3.06612,-0.26768 -4.76891,-2.54295c-1.4131,-1.88794 0.14217,-4.33659 2.40813,-5.35651c3.59217,-1.61343 7.49161,-2.01834 10.36132,0.34486c-0.49479,0.12649 -0.97837,0.26866 -1.44143,0.42203z" fill="#0043a5"/><path d="M279.02675,183.28854c0,0 9.10355,7.8086 2.56789,22.13625c-1.25829,-5.80348 -5.49132,-14.89427 -11.31141,-12.9072c-0.24274,1.99535 0.71953,3.91163 2.62794,4.53635c-2.29039,1.82151 -5.66373,0.65115 -7.55506,-1.48298c-0.84016,-0.94711 -1.39799,-1.84151 -1.68911,-2.77546c-0.24619,-0.79034 -0.30434,-1.60803 -0.15194,-2.5141c0.07718,-0.45623 0.20469,-0.93446 0.38347,-1.44195c1.04089,-2.94935 3.19209,-4.7015 6.17615,-5.69015c0.46306,-0.15338 0.94711,-0.2955 1.44143,-0.42203c2.19125,-0.55978 4.61651,-0.77275 6.62261,0.08988c0.30629,0.13189 0.60328,0.28675 0.88803,0.47139z" fill="#ffa600"/></g><path d="M257.17041,209.6676c1.79071,-2.21033 3.79244,-2.98257 6.63968,-2.88292c1.22116,0.05275 2.6211,0.528 2.85557,1.71986c0.42301,2.15171 -4.71903,0.97158 -5.75998,2.01248c3.8164,-0.486 7.3861,1.6852 7.46817,3.38409c0.05322,1.32569 -1.88841,1.72089 -3.16088,1.32621c-2.8966,-0.8978 -5.95341,-2.55858 -7.78171,-0.10844c-0.46846,0.62863 -0.72879,1.27243 -1.48349,1.38086c-0.82597,0.11528 -1.70716,-0.53387 -1.67687,-1.38966c0.06494,-1.51769 1.37989,-2.38273 0.88217,-3.79491c-0.7708,-2.18637 -4.86465,-3.50471 -7.4838,-4.8739c1.17427,-0.09476 2.9655,-0.71264 3.86864,-1.5455c0.97061,0.34681 4.00788,2.82873 5.63252,4.77184z" fill="#ffa600"/><g><path d="M268.49154,183.8493c2.30216,2.58151 -1.57676,6.40573 -4.99407,3.86617c-1.33397,-0.99158 -1.11565,-2.91027 -0.36244,-3.76704c1.23093,-1.40092 3.99076,-1.63147 5.35651,-0.09913z" fill="#ffffff"/><path d="M267.65528,185.2639c0.3048,0 0.58081,0.11137 0.78057,0.29113c0.19981,0.17976 0.32336,0.4279 0.32336,0.7019c0,0.27405 -0.12356,0.52219 -0.32336,0.70195c-0.19976,0.17976 -0.47576,0.29113 -0.78057,0.29113c-0.3048,0 -0.58076,-0.11137 -0.78057,-0.29113c-0.19976,-0.17976 -0.32336,-0.4279 -0.32336,-0.70195c0,-0.274 0.12361,-0.52214 0.32336,-0.7019c0.19981,-0.17976 0.47576,-0.29113 0.78057,-0.29113z" fill="#272525"/></g><g><path d="M254.13067,188.42719c1.46539,0.79471 1.7287,2.01587 1.75313,2.8077c0.06057,1.68274 -0.51191,3.0363 -1.90846,3.99024c-1.45758,0.99745 -5.69062,0.90222 -7.83446,-2.3236c-3.30351,1.80341 -6.70714,2.28504 -7.85159,1.4947c-1.13324,-0.63747 -1.57337,-2.58352 -0.43818,-5.358c-1.28415,0.47967 -5.24416,0.94227 -6.35735,-0.26033c-1.11324,-1.20311 0.32336,-3.64446 0.9686,-5.11227c0,0 -6.59916,2.49313 -8.54814,-0.3429c-1.38868,-2.02127 1.03508,-4.92033 3.29863,-6.8092c0,0 -11.90538,5.43857 -13.60817,1.3584c-1.33058,-3.18819 3.96196,-6.48193 4.95694,-7.18434c-2.83649,0.38738 -9.10154,0.21935 -14.27341,-1.694c-17.27551,-6.3901 -3.58436,-18.01017 6.4536,-18.54064c5.78193,-0.30532 8.45337,0.52312 8.45337,0.52312c3.23071,0.33118 5.95876,1.20898 8.40941,2.33389c5.50644,2.52732 7.80372,5.13037 8.35568,7.14285c2.38026,8.68146 10.86685,24.01535 18.17038,27.97439z" fill="#279afa"/><path d="M254.13067,188.42719c1.46539,0.79471 1.7287,2.01587 1.75313,2.80672c0.06057,1.68274 -0.51191,3.0363 -1.90846,3.99024c-1.45758,0.99745 -5.69062,0.90222 -7.83446,-2.3236c0,0 -8.40648,1.2861 -4.21643,-7.22784c0,0 -11.08034,4.18568 -5.4542,-5.48495c0,0 -14.81663,5.53626 -4.39618,-7.24543c0,0 -20.16579,7.16434 -7.02999,-6.02421c0,0 -25.52425,0.08011 -23.1337,-8.83294c1.34328,-5.00677 12.49689,-7.63224 17.28482,-7.10912c3.23071,0.33118 5.95876,1.20898 8.40941,2.33389c5.50644,2.52732 7.80372,5.13037 8.35568,7.14285c2.38026,8.68146 10.86685,24.01535 18.17038,27.97439z" fill="#0043a5"/></g></g></g></svg>