<svg version="1.1" xmlns="http://www.w3.org/2000/svg" xmlns:xlink="http://www.w3.org/1999/xlink" width="96.02275" height="42.88282" viewBox="0,0,96.02275,42.88282"><g transform="translate(-191.98863,-158.68984)"><g data-paper-data="{&quot;isPaintingLayer&quot;:true}" fill-rule="evenodd" stroke-linecap="butt" stroke-linejoin="miter" stroke-miterlimit="10" stroke-dasharray="" stroke-dashoffset="0" style="mix-blend-mode: normal"><g><path d="M238.02817,174.92642c0,0 0.17784,6.41996 -8.45285,10.11642c-8.6759,3.71555 -10.27522,4.74038 -10.7787,5.58898c-0.53383,0.90022 -0.22477,2.26054 0.36341,4.20291l0.87426,2.45793c0,0 0.26426,0.94184 1.2056,0.70632c2.8723,-0.71834 3.62878,-0.73844 3.90294,-0.44145c0.77617,0.84158 0.2773,1.63367 -0.78612,3.75227h-6.31445c0,0 -0.37468,0.06637 -1.05842,-1.85409c-0.68344,-1.9201 -3.57231,-9.97656 -3.57231,-9.97656c0,0 -0.26462,-0.50747 0,-1.16964c0.26457,-0.66217 2.17725,-2.17225 3.04307,-3.37719c0.90426,-1.25793 3.48023,-5.47387 4.43036,-12.40453" fill="#bb8e5d" stroke="none" stroke-width="1"/><path d="M238.02852,174.92642c0,0 0.17784,6.41996 -8.45321,10.11642c-8.6759,3.71555 -10.27522,4.74038 -10.77834,5.58898c-0.53383,0.90022 -0.22477,2.26054 0.36306,4.20291l0.87462,2.45793c0,0 0.26426,0.94184 1.20525,0.70632c2.8723,-0.71834 3.62878,-0.73844 3.90329,-0.44145c0.77582,0.84158 0.40008,1.67322 -0.78648,3.75227h-6.31409c0,0 -0.37503,0.06637 -1.05842,-1.85409c-0.68379,-1.9201 -3.57236,-9.97656 -3.57236,-9.97656c0,0 -0.26457,-0.50747 0,-1.16964c0.26462,-0.66217 2.1773,-2.17225 3.04312,-3.37719c0.90391,-1.25793 3.47988,-5.47387 4.43,-12.40453" fill="none" stroke="#784e3d" stroke-width="0.525"/><path d="M222.56299,198.83789c0,0 0.06278,-0.04768 0.17996,-0.11971c0.05889,-0.03495 0.13087,-0.07874 0.21699,-0.12112c0.08677,-0.03748 0.18097,-0.10526 0.29987,-0.11764c0.23143,-0.04627 0.50842,-0.10132 0.82774,-0.04697c0.15521,0.02899 0.33796,0.0996 0.4565,0.25709c0.05788,0.07455 0.09986,0.16779 0.11789,0.25078c0.02152,0.06884 0.03738,0.15254 0.04834,0.24224c0.03702,0.33831 -0.05011,0.66712 -0.17537,0.93901c-0.12385,0.27548 -0.28224,0.50257 -0.42271,0.69011c-0.03667,0.04556 -0.07021,0.09071 -0.10122,0.13415c-0.0392,0.03677 -0.08223,0.06642 -0.11925,0.09678c-0.07728,0.05723 -0.14466,0.10703 -0.20007,0.14835c-0.11253,0.07874 -0.18027,0.119 -0.18027,0.119c0,0 0.03738,-0.06849 0.10299,-0.18895c0.03248,-0.0593 0.07198,-0.13173 0.11678,-0.21436c0.02187,-0.04096 0.04238,-0.08758 0.0695,-0.13102c0.03318,-0.03849 0.06672,-0.0798 0.10056,-0.1243c0.13375,-0.17764 0.2823,-0.39165 0.39271,-0.63884c0.11324,-0.24472 0.18345,-0.52726 0.1535,-0.79921c-0.00742,-0.06213 -0.01768,-0.12855 -0.04096,-0.20517c-0.01445,-0.06531 -0.03914,-0.11193 -0.07198,-0.15643c-0.06314,-0.08723 -0.17496,-0.13632 -0.29598,-0.15895c-0.24734,-0.04379 -0.50878,0 -0.72082,0.04627c-0.1041,0.03743 -0.21244,0.0251 -0.30346,0.04061c-0.09208,0.01131 -0.17289,0.02086 -0.23956,0.02864c-0.1344,0.01904 -0.21168,0.02965 -0.21168,0.02965" fill="#784e3d" stroke="none" stroke-width="1"/></g><g><path d="M261.17483,177.0969c-1.00059,-1.82651 4.8072,-5.52544 8.37951,-0.8829c0.41281,0.53646 0.90391,1.27278 0.90391,1.27278c0,0 -2.61652,5.47387 -2.08729,11.24227c0.52923,5.76804 1.60462,7.83472 1.94051,8.50498c0.19476,0.28679 0.26462,1.11847 2.20513,0.64738c1.94056,-0.4708 2.62536,-0.55909 3.03711,-0.05864c0.41175,0.50004 -0.0896,1.48608 -1.23631,3.4874h-5.84375c0,0 -1.71893,-2.65925 -3.74838,-7.04117c-2.11729,-4.57017 -3.19763,-8.1448 -4.80751,-10.35199c0,0 2.75659,-4.08316 1.25707,-6.82009" fill="#bb8e5d" stroke="none" stroke-width="1"/><path d="M270.45825,177.48678c0,0 -2.61652,5.47387 -2.08729,11.24227c0.52923,5.76804 1.60462,7.83472 1.94051,8.50498c0.19476,0.28679 0.26462,1.11847 2.20513,0.64738c1.94056,-0.4708 2.62536,-0.55909 3.03711,-0.05864c0.41175,0.50004 -0.0896,1.48608 -1.23631,3.4874h-5.84375c0,0 -1.71893,-2.65925 -3.74838,-7.04117c-2.11729,-4.57017 -3.19763,-8.1448 -4.80751,-10.35199c0,0 2.64648,-3.46513 1.25707,-6.82009" fill="none" stroke="#784e3d" stroke-width="0.525"/><path d="M272.20051,199.01447c0,0 0.06738,-0.05298 0.19441,-0.13208c0.06455,-0.03813 0.14254,-0.0844 0.23214,-0.13738c0.04622,-0.02505 0.09526,-0.05192 0.14643,-0.08016c0.05329,-0.02399 0.11466,-0.03106 0.17461,-0.05192c0.24522,-0.06884 0.53489,-0.14304 0.86618,-0.16244c0.16511,-0.0053 0.34614,-0.00283 0.53418,0.08087c0.09314,0.0399 0.18522,0.11971 0.23815,0.21966c0.05329,0.09925 0.07198,0.21047 0.06596,0.30725c-0.00278,0.10804 -0.01763,0.17234 -0.02576,0.26027c-0.01303,0.0844 -0.02712,0.17198 -0.04445,0.25532c-0.03667,0.16633 -0.08112,0.32912 -0.14077,0.48135c-0.11642,0.30619 -0.28472,0.57 -0.45337,0.76845c-0.07445,0.1088 -0.17815,0.17552 -0.26639,0.23345c-0.08784,0.05864 -0.16511,0.10556 -0.23002,0.14304c-0.12951,0.07415 -0.20749,0.10981 -0.20749,0.10981c0,0 0.05258,-0.06672 0.14395,-0.18365c0.04591,-0.05718 0.10021,-0.12749 0.15809,-0.20976c0.05925,-0.08228 0.11289,-0.18118 0.19901,-0.2631c0.1538,-0.18153 0.30412,-0.41564 0.40928,-0.69324c0.0543,-0.13809 0.09526,-0.28709 0.1291,-0.44074c0.01551,-0.07733 0.02753,-0.15289 0.04056,-0.23199c0.00707,-0.07703 0.0247,-0.17729 0.02364,-0.23557c0.00495,-0.13951 -0.04197,-0.23027 -0.15309,-0.28144c-0.11253,-0.05157 -0.26426,-0.06218 -0.40821,-0.05511c-0.29214,0.01657 -0.57121,0.08581 -0.80552,0.15218c-0.05925,0.01414 -0.11218,0.04061 -0.16724,0.05157c-0.05677,0.00707 -0.11041,0.01379 -0.16087,0.02015c-0.10127,0.01515 -0.18946,0.02823 -0.26179,0.0392c-0.14678,0.02293 -0.23073,0.03601 -0.23073,0.03601" fill="#784e3d" stroke="none" stroke-width="1"/></g><g><path d="M284.64035,165.75801c0,0 0.66717,1.57578 0.66717,2.98837l2.29337,2.1779c0,0 0.49994,0.32346 -0.33801,1.33879c-0.83795,1.01533 -2.09931,2.4456 -2.69027,3.4874c-0.30871,0.54454 -1.35657,-1.04109 -3.66474,-1.4384l2.08658,0.77057c-1.17595,1.11842 -1.39153,2.21285 -1.39153,2.21285c-0.05894,-0.50039 -0.44105,-0.67662 -0.44105,-0.67662c0.05894,2.58965 -1.26414,4.14953 -1.26414,4.14953c-0.17643,-1.3243 -1.35274,-1.67746 -1.35274,-1.67746c0.35286,0.55903 -0.26462,1.02978 -0.26462,1.02978c-0.14678,-0.35316 -0.61742,-0.47074 -0.61742,-0.47074c-0.02894,0.58868 -0.7642,1.23606 -0.7642,1.23606c-0.08819,-0.38251 -0.99988,-1.05948 -0.99988,-1.05948l-1.32309,0.8239c-4.55703,-1.64816 -7.96776,-0.58833 -11.6724,0.82426c-3.70459,1.41264 -7.76169,4.88519 -13.96572,4.94414c0,0 -7.2328,0.11764 -14.78917,-6.47471c-3.11646,-2.29549 -15.52413,5.62116 -13.78929,-6.70988c0.8231,-4.6129 4.85125,-6.70958 5.90972,-7.44555c0.70708,-0.4418 1.41128,-0.73597 1.9991,-0.76526c0.58813,-0.02935 2.08764,-0.29417 13.11328,1.17742c11.02568,1.47123 13.93607,0.50004 16.24459,-0.27972c0.81148,-0.27442 1.83858,-1.00296 1.91091,-1.00048c-0.49964,-0.02965 -1.11706,0.11759 -1.11706,0.11759c2.20513,-1.295 4.79236,-1.89818 4.79236,-1.89818c-0.14708,-0.32381 -1.27894,-0.22072 -1.27894,-0.22072c2.19028,-1.17742 3.20465,-1.04463 3.20465,-1.04463c-0.23497,-0.23552 -1.04362,-0.33866 -1.04362,-0.33866c2.49899,-1.01533 4.96878,-0.16173 5.90972,-0.11759c0.94098,0.04414 2.19033,-0.64732 2.54313,-0.80946c0.35286,-0.16173 1.91126,-1.17211 4.61633,-1.16221c3.71237,0.01308 7.76204,3.92885 7.76204,3.92885c-0.50029,-0.30901 -0.98508,-0.26487 -0.98508,-0.26487c1.70519,1.35364 2.02875,3.39911 2.02875,3.39911c-0.64672,-0.52974 -1.9698,-1.01533 -1.9698,-1.01533l0.19087,0.70632c-1.27899,-1.41264 -3.90784,-2.75674 -3.90784,-2.75674" fill="#dcb285" stroke="none" stroke-width="1"/><path d="M284.64035,165.75801c0,0 0.66717,1.57578 0.66717,2.98837l2.29337,2.1779c0,0 0.49994,0.32346 -0.33801,1.33879c-0.83795,1.01533 -2.09931,2.4456 -2.69027,3.4874c-0.30871,0.54454 -1.35657,-1.04109 -3.66474,-1.4384l2.08658,0.77057c-1.17595,1.11842 -1.39153,2.21285 -1.39153,2.21285c-0.05894,-0.50039 -0.44105,-0.67662 -0.44105,-0.67662c0.05894,2.58965 -1.26414,4.14953 -1.26414,4.14953c-0.17643,-1.3243 -1.35274,-1.67746 -1.35274,-1.67746c0.35286,0.55903 -0.26462,1.02978 -0.26462,1.02978c-0.14678,-0.35316 -0.61742,-0.47074 -0.61742,-0.47074c-0.02894,0.58868 -0.7642,1.23606 -0.7642,1.23606c-0.08819,-0.38251 -0.99988,-1.05948 -0.99988,-1.05948l-1.32309,0.8239c-4.55703,-1.64816 -7.96776,-0.58833 -11.6724,0.82426c-3.70459,1.41264 -7.76169,4.88519 -13.96572,4.94414c0,0 -7.2328,0.11764 -14.78917,-6.47471c-3.11646,-2.29549 -15.52413,5.62116 -13.78929,-6.70988c0.8231,-4.6129 4.85125,-6.70958 5.90972,-7.44555c0.70708,-0.4418 1.41128,-0.73597 1.9991,-0.76526c0.58813,-0.02935 2.08764,-0.29417 13.11328,1.17742c11.02568,1.47123 13.93607,0.50004 16.24459,-0.27972c0.81148,-0.27442 1.83858,-1.00296 1.91091,-1.00048c-0.49964,-0.02965 -1.11706,0.11759 -1.11706,0.11759c2.20513,-1.295 4.79236,-1.89818 4.79236,-1.89818c-0.14708,-0.32381 -1.27894,-0.22072 -1.27894,-0.22072c2.19028,-1.17742 3.20465,-1.04463 3.20465,-1.04463c-0.23497,-0.23552 -1.04362,-0.33866 -1.04362,-0.33866c2.49899,-1.01533 4.96878,-0.16173 5.90972,-0.11759c0.94098,0.04414 2.19033,-0.64732 2.54313,-0.80946c0.35286,-0.16173 1.91126,-1.17211 4.61633,-1.16221c3.71237,0.01308 7.76204,3.92885 7.76204,3.92885c-0.50029,-0.30901 -0.98508,-0.26487 -0.98508,-0.26487c1.70519,1.35364 2.02875,3.39911 2.02875,3.39911c-0.64672,-0.52974 -1.9698,-1.01533 -1.9698,-1.01533l0.19087,0.70632c-1.27899,-1.41264 -3.90784,-2.75674 -3.90784,-2.75674" fill="none" stroke="#784e3d" stroke-width="0.525"/><g><path d="M280.88253,174.38103c0.02965,-0.04414 1.81388,0.38988 2.04319,0.78223c0,0 -1.08529,0.87052 -1.18267,1.59695c-0.2085,1.5627 -0.13723,0.08193 -0.69996,-0.18188c0,0 0.38594,1.9201 -1.15231,4.14816c0,0 -0.5804,-1.67256 -1.56548,-1.7315c0,0 0.7141,0.41741 -0.10481,1.19186c0,0 -0.11218,-0.67308 -0.61177,-0.54065c0,0 -0.31437,0.8133 -0.74092,1.28404c0,0 -0.63758,-1.04675 -0.99922,-1.05948l-1.32309,0.8239c0,0 -2.95696,-1.04847 -5.25527,-0.81754c0,0 3.66762,-5.22103 2.71178,-8.76737l-0.44665,1.20318c0,0 0.1436,-2.37847 -0.65025,-3.91259l-0.30341,0.93836c0,0 -0.03637,-1.84879 -0.99215,-2.90821c0,0 0.0194,1.01246 -0.08819,1.39602c0,0 -0.45761,-1.48961 -0.67814,-1.83747c-0.22052,-0.3475 -0.61742,-0.8829 -0.89861,-1.09797l-0.1542,0.30901c0,0 -0.9925,-1.57826 -2.97145,-1.2304c-2.23619,0.39271 -4.90459,1.77004 -6.01457,1.98652c-1.24581,0.2426 -1.52169,0.19279 -1.52169,0.19279c0,0 1.86889,-0.90477 2.16103,-1.12549c0,0 -0.33624,-0.15466 -0.5952,-0.13243c0,0 3.07621,-1.59094 4.33297,-1.70711c-0.03248,0.00349 -0.32528,-0.2575 -1.00872,-0.33447c0,0 1.69352,-1.04428 2.91185,-0.95033c0,0 -0.29886,-0.21401 -0.75647,-0.3521c-0.02753,0 1.73165,-0.58055 3.01065,-0.44286c1.27894,0.13809 2.71178,0.58626 3.5663,0.26098c0.85451,-0.32558 4.46531,-2.47772 7.54687,-1.6665c3.08186,0.81118 6.23858,3.53185 6.23858,3.53185c0,0 -0.61535,-0.14193 -0.78082,-0.07592c0,0 1.86323,1.68665 1.979,3.30905c0,0 -1.786,-0.92704 -1.96243,-0.96023l0.21911,0.68899c0,0 -1.76832,-1.53336 -3.90183,-2.79694c-0.0247,-0.01485 -0.01096,-0.54494 -0.17572,-0.61237c-0.38352,-0.15683 -1.08458,0.11334 -1.81701,-0.12607c-0.27906,-0.09147 -1.02599,-1.17848 -1.29839,-1.25338c-0.25542,-0.07026 -0.24805,0.78966 -0.47383,0.77239c-1.16888,-0.08829 -1.49456,0.07874 0.52711,1.74948c3.72858,2.79735 3.67075,4.74427 3.81399,5.24083c0,0 -0.73597,-0.47888 -1.09973,-0.10915c0,0 1.73655,1.93672 1.2698,4.45506c0,0 -0.58606,-0.49868 -0.71309,-0.55939l0.60581,1.42815" fill="#ac612a" stroke="none" stroke-width="1"/><path d="M284.60969,165.80215c0,0 0.66717,1.57578 0.66717,2.98837l2.29337,2.1779c0,0 0.49994,0.32346 -0.33801,1.33879c-0.83795,1.01533 -2.09931,2.4456 -2.69027,3.4874c-0.30907,0.54454 -1.35657,-1.04109 -3.66439,-1.4384l2.08658,0.77057c-1.17595,1.11842 -1.39188,2.21285 -1.39188,2.21285c-0.05859,-0.50039 -0.44105,-0.67662 -0.44105,-0.67662c0.05859,2.58965 -1.2645,4.14953 -1.2645,4.14953c-0.17643,-1.3243 -1.35203,-1.67746 -1.35203,-1.67746c0.35286,0.55903 -0.26462,1.02978 -0.26462,1.02978c-0.14713,-0.35316 -0.61742,-0.47074 -0.61742,-0.47074c-0.02965,0.58868 -0.76491,1.23606 -0.76491,1.23606c-0.08819,-0.38251 -0.99917,-1.05948 -0.99917,-1.05948l-1.32309,0.8239c-4.55739,-1.64816 -7.96812,-0.58833 -11.67276,0.82426c-3.70459,1.41259 -7.76204,4.88519 -13.96572,4.94414c0,0 -7.23316,0.11759 -14.78917,-6.47471c-3.11646,-2.29549 -14.67982,4.50274 -13.78964,-6.70988c0.82345,-4.6129 4.8516,-6.70958 5.91007,-7.44555c0.70672,-0.4418 1.41128,-0.73597 1.99945,-0.76526c0.58777,-0.02935 2.08729,-0.29417 13.11292,1.17742c11.02568,1.47123 13.93642,0.50004 16.24424,-0.27972c0.81183,-0.27442 1.83858,-1.00296 1.91162,-1.00048c-0.50034,-0.02965 -1.11777,0.11759 -1.11777,0.11759c2.20513,-1.295 4.79271,-1.89818 4.79271,-1.89818c-0.14678,-0.32381 -1.27894,-0.22072 -1.27894,-0.22072c2.19063,-1.17742 3.20501,-1.04463 3.20501,-1.04463c-0.23532,-0.23552 -1.04397,-0.33866 -1.04397,-0.33866c2.49899,-1.01533 4.96909,-0.16173 5.90972,-0.11759c0.94063,0.04414 2.19068,-0.64732 2.54349,-0.80946c0.35286,-0.16173 1.91091,-1.17211 4.61598,-1.16221c3.71202,0.01308 7.76169,3.92885 7.76169,3.92885c-0.49959,-0.30901 -0.98473,-0.26487 -0.98473,-0.26487c1.70554,1.35364 2.02875,3.39911 2.02875,3.39911c-0.64707,-0.52974 -1.97016,-1.01533 -1.97016,-1.01533l0.19158,0.70632c-1.27899,-1.41264 -3.90784,-2.75674 -3.90784,-2.75674" fill="none" stroke="#784e3d" stroke-width="0.525"/></g></g><g><path d="M235.50711,201.30996h-6.35076c-3.29678,-6.56371 -3.11752,-5.76663 -4.49849,-8.25496c-0.55146,-0.99306 -2.05092,-3.00181 -1.96273,-4.19367c0.08819,-1.19191 0.99038,-4.157 -1.80999,-10.57979c-2.80068,-6.42314 8.75636,-11.29384 11.20388,-9.92534c2.44782,1.36844 7.29912,6.70988 4.91762,11.10241c-2.38156,4.39217 -5.04995,6.86424 -6.21848,7.94594c-1.16858,1.08135 -2.34241,2.41065 -2.60208,3.20066c-0.24487,0.74405 -0.16405,0.73137 2.40343,6.31222c0.61742,1.32435 0.46327,1.14777 1.14666,1.0817c0.68379,-0.06637 3.10873,-0.31533 3.10873,-0.31533c0,0 1.94122,-0.39094 1.83111,0.9775c-0.09667,1.19545 -0.55146,2.14118 -1.16888,2.64865" fill="#dcb285" stroke="none" stroke-width="1"/><path d="M235.50711,201.30996h-6.35076c-3.29678,-6.56371 -3.11752,-5.76663 -4.49849,-8.25496c-0.55146,-0.99306 -2.05092,-3.00181 -1.96273,-4.19367c0.08819,-1.19191 0.99038,-4.157 -1.80999,-10.57979c-1.2253,-2.81002 3.60797,-7.15204 7.60824,-6.98253c5.14309,0.21754 11.34884,1.63367 8.51326,8.1596c-1.99168,4.58289 -5.04995,6.86424 -6.21848,7.94594c-1.16858,1.08135 -2.34241,2.41065 -2.60208,3.20066c-0.24487,0.74405 -0.16405,0.73137 2.40343,6.31222c0.61742,1.32435 0.46327,1.14777 1.14666,1.0817c0.68379,-0.06637 3.10873,-0.31533 3.10873,-0.31533c0,0 1.94122,-0.39094 1.83111,0.9775c-0.09667,1.19545 -0.55146,2.14118 -1.16888,2.64865z" fill="none" stroke="#784e3d" stroke-width="0.525"/><path d="M233.43426,199.12483c0,0 0.05859,-0.04768 0.169,-0.11971c0.05541,-0.03571 0.12349,-0.07809 0.20466,-0.12152c0.04127,-0.02116 0.08465,-0.04379 0.13087,-0.06778c0.04622,-0.02399 0.10233,-0.02258 0.15597,-0.03955c0.10935,-0.02541 0.22896,-0.05016 0.35952,-0.0643c0.1288,-0.01727 0.26851,-0.02576 0.41599,-0.01445c0.14673,0.00672 0.30376,0.04273 0.45478,0.1137c0.14744,0.08016 0.28613,0.20941 0.35139,0.37119c0.01131,0.02576 0.01692,0.02399 0.03177,0.07238l0.01232,0.05298l0.02576,0.10556c0.02258,0.06394 0.01586,0.16001 0.0194,0.24088c0.00601,0.08723 -0.00737,0.16244 -0.02187,0.23658c-0.01338,0.07491 -0.02328,0.15047 -0.05011,0.21754c-0.02293,0.06854 -0.04551,0.13597 -0.06773,0.20204c-0.0293,0.06213 -0.05819,0.12289 -0.08642,0.18219c-0.05187,0.12152 -0.1242,0.22002 -0.18067,0.31821c-0.04834,0.10455 -0.1344,0.16986 -0.20391,0.23098c-0.06703,0.06283 -0.13304,0.10981 -0.18527,0.14936c-0.10582,0.07844 -0.1683,0.1187 -0.1683,0.1187c0,0 0.03248,-0.06925 0.09319,-0.18294c0.03031,-0.05652 0.06879,-0.12289 0.10263,-0.20588c0.01768,-0.03995 0.03637,-0.08304 0.05647,-0.12819c0.01869,-0.04556 0.06066,-0.07773 0.08253,-0.12541c0.05187,-0.09041 0.12067,-0.18289 0.16623,-0.29204c0.02541,-0.05369 0.05147,-0.10875 0.07864,-0.16456c0.01904,-0.05829 0.0392,-0.11759 0.0593,-0.17799c0.0247,-0.0597 0.03071,-0.12254 0.04268,-0.18577c0.01273,-0.06354 0.02399,-0.12749 0.01833,-0.18431c-0.0046,-0.06076 0.01273,-0.11198 -0.01303,-0.18719l-0.0247,-0.10561l-0.01273,-0.05298c0.0046,0.01379 -0.01091,-0.01798 -0.01551,-0.0247c-0.04409,-0.11087 -0.13092,-0.18719 -0.23073,-0.24507c-0.10763,-0.04874 -0.22795,-0.08051 -0.35286,-0.08546c-0.12349,-0.00955 -0.24835,-0.00283 -0.36619,0.01303c-0.11748,0.01237 -0.22936,0.03606 -0.33134,0.0597c-0.05218,0.00849 -0.09774,0.03142 -0.14673,0.03601c-0.0494,0.00318 -0.09561,0.00636 -0.13976,0.00955c-0.0889,0.00849 -0.16617,0.01591 -0.23037,0.02222c-0.12915,0.0145 -0.20325,0.02263 -0.20325,0.02263" fill="#784e3d" stroke="none" stroke-width="1"/></g><path d="M276.86782,163.89039c0.52288,0.23697 1.00801,0.55339 1.47409,0.89701c0.2371,0.16775 0.43362,0.38317 0.64002,0.58553c0.20252,0.20695 0.39481,0.42449 0.5751,0.65192c0.36129,0.4538 0.67706,0.94716 0.92227,1.47583c0.2505,0.5262 0.42021,1.09054 0.51794,1.66582l0.04093,0.24191l-0.22933,-0.10171c-0.31895,-0.14126 -0.71411,-0.24933 -1.01154,-0.14267l0.04869,-0.21366c0.1436,0.16174 0.26215,0.32455 0.37752,0.49618c0.11326,0.17163 0.21734,0.34892 0.31295,0.53044c0.09526,0.18187 0.17923,0.3694 0.25791,0.55939l0.10514,0.28959c0.03775,0.0957 0.05963,0.19671 0.08997,0.29488c0.02964,0.09853 0.0561,0.19777 0.07515,0.29912c0.01976,0.10065 0.04446,0.20094 0.06033,0.3023c0.02576,0.20412 0.05927,0.40789 0.0621,0.61413c0.00282,0.10277 0.01517,0.20554 0.00917,0.3083l-0.012,0.30866c-0.00706,0.20589 -0.04728,0.4086 -0.06951,0.61272l-0.03493,0.31643l-0.2004,-0.25851c-0.07339,-0.095 -0.169,-0.18505 -0.26003,-0.26769c-0.04869,-0.03708 -0.09244,-0.08228 -0.14148,-0.11583c-0.04728,-0.03991 -0.09844,-0.06321 -0.14854,-0.09323l0.13337,-0.15963c0.17112,0.34892 0.30837,0.70383 0.40045,1.07641c0.04481,0.18541 0.0815,0.3747 0.08538,0.56646c0.00564,0.095 -0.00071,0.19176 -0.0127,0.2857c-0.01058,0.095 -0.03846,0.18611 -0.06915,0.27511c0.02082,-0.09253 0.0381,-0.18399 0.03846,-0.27758c0.00141,-0.09288 -0.00247,-0.18611 -0.01835,-0.27793c-0.02576,-0.18364 -0.0748,-0.36375 -0.13584,-0.53856c-0.12102,-0.34962 -0.29002,-0.68759 -0.48019,-0.99872l-0.16971,-0.27864l0.30378,0.11901c0.07021,0.02719 0.14501,0.05297 0.20605,0.09182c0.06774,0.0339 0.1249,0.07734 0.18206,0.12219c0.11043,0.09359 0.20217,0.196 0.29637,0.30972l-0.23498,0.05792c0.02046,-0.19494 0.05927,-0.38812 0.06562,-0.58376l0.01164,-0.29382c0.006,-0.09782 -0.00635,-0.19565 -0.00882,-0.29347c-0.00212,-0.196 -0.03493,-0.38953 -0.05892,-0.58412c-0.01517,-0.09676 -0.03916,-0.19176 -0.05786,-0.28782c-0.01799,-0.09676 -0.04269,-0.19141 -0.07162,-0.28499c-0.02893,-0.09359 -0.04939,-0.19 -0.08538,-0.28146l-0.10055,-0.27652c-0.07515,-0.18152 -0.15524,-0.36057 -0.24627,-0.53467c-0.09138,-0.1734 -0.19088,-0.34291 -0.29884,-0.50642c-0.10832,-0.16139 -0.22757,-0.32349 -0.35035,-0.46228l-0.13125,-0.14832l0.17994,-0.06569c0.21804,-0.07981 0.4382,-0.06992 0.64037,-0.03496c0.20428,0.03814 0.39198,0.09924 0.58251,0.18646l-0.18841,0.1402c-0.0942,-0.55057 -0.2558,-1.09054 -0.49642,-1.5959c-0.23568,-0.50783 -0.53982,-0.98388 -0.88981,-1.42321c-0.17429,-0.22001 -0.36023,-0.43085 -0.55746,-0.63214c-0.19229,-0.20624 -0.4128,-0.38176 -0.60897,-0.58553c-0.40327,-0.39588 -0.8436,-0.75787 -1.31567,-1.08171" fill="#784e3d" stroke="none" stroke-width="1"/><path d="M266.75382,164.22888c0.2004,0.12855 0.39163,0.27122 0.57616,0.42343c0.08962,0.07946 0.1817,0.15609 0.26426,0.24438c0.08785,0.08264 0.16124,0.17975 0.24027,0.27228l-0.09244,0.00706l0.13654,-0.31784l0.03705,-0.08652l0.07727,0.06357c0.23992,0.19883 0.44702,0.42096 0.64072,0.66004c0.09914,0.11725 0.18417,0.24615 0.26109,0.37858c0.07445,0.13385 0.15242,0.26628 0.2184,0.40471c0.13513,0.27511 0.25227,0.5601 0.33765,0.85534c0.04763,0.14621 0.08009,0.2963 0.11396,0.44603c0.03458,0.14974 0.05081,0.30301 0.07691,0.45415l-0.2498,-0.04238c0.01941,-0.04485 0.04199,-0.10453 0.05857,-0.15998c0.01976,-0.0558 0.0314,-0.11548 0.04657,-0.1734c0.02505,-0.1176 0.04798,-0.23661 0.05539,-0.35774c0.01517,-0.12043 0.01129,-0.24226 0.01164,-0.36375c-0.00212,-0.12148 -0.02152,-0.24262 -0.03034,-0.36375l-0.03317,-0.43968l0.26567,0.33585c0.05469,0.06886 0.09209,0.12925 0.13372,0.19529c0.03881,0.06533 0.07727,0.13067 0.11079,0.19777c0.07092,0.13279 0.13054,0.26981 0.18664,0.40789c0.11079,0.27723 0.1944,0.56293 0.26215,0.8511c0.06845,0.28853 0.11184,0.58129 0.14572,0.87441c0.03246,0.29347 0.04587,0.588 0.05186,0.88218l-0.26003,-0.03461l0.39692,-1.41261l0.10338,-0.36728l0.14501,0.34962c0.14642,0.35245 0.25086,0.70348 0.33941,1.06476c0.08679,0.36022 0.15454,0.72502 0.19582,1.09301c0.04199,0.36799 0.06598,0.73844 0.06069,1.10925c0.00282,0.18576 -0.012,0.37046 -0.02011,0.55586c-0.00565,0.18541 -0.04763,0.36799 -0.07692,0.55057l-0.21663,-0.0618c0.13019,-0.2518 0.25615,-0.50889 0.37328,-0.76775c0.1129,-0.26098 0.23921,-0.51843 0.30413,-0.79742c-0.01235,0.14267 -0.04022,0.28464 -0.07374,0.42484c-0.03634,0.13914 -0.0748,0.27828 -0.11855,0.41495c-0.08468,0.27511 -0.17782,0.54633 -0.27696,0.81755l-0.2371,0.64627l0.02046,-0.70807c0.01023,-0.36128 0.06315,-0.71655 0.05751,-1.07676c0.00529,-0.35951 -0.01799,-0.71902 -0.05927,-1.07641c-0.03987,-0.35739 -0.10514,-0.71196 -0.18946,-1.06123c-0.08503,-0.3475 -0.19017,-0.69818 -0.32389,-1.01991l0.24803,-0.01801l-0.39692,1.41261l-0.24168,0.85887l-0.01799,-0.89383c-0.006,-0.28605 -0.01905,-0.57211 -0.0501,-0.85604c-0.03281,-0.28394 -0.0748,-0.56646 -0.14078,-0.84333c-0.06492,-0.27687 -0.14501,-0.54986 -0.2498,-0.81225c-0.05363,-0.13067 -0.10937,-0.26027 -0.1757,-0.38352c-0.06245,-0.12254 -0.13831,-0.24897 -0.2131,-0.3468l0.23251,-0.10347c0.01058,0.13102 0.03034,0.26204 0.03281,0.39412c0.00035,0.13208 0.00388,0.26416 -0.0127,0.39588c-0.00847,0.13208 -0.03317,0.2631 -0.06069,0.39306c-0.01694,0.06463 -0.02964,0.12996 -0.05257,0.19423c-0.02046,0.06533 -0.04128,0.12537 -0.07374,0.196l-0.175,0.38706l-0.0748,-0.42943c-0.02505,-0.14373 -0.04022,-0.28959 -0.07339,-0.43155c-0.03211,-0.14232 -0.06245,-0.28535 -0.10796,-0.42414c-0.0808,-0.28076 -0.19264,-0.55198 -0.32107,-0.81402c-0.12278,-0.26628 -0.29284,-0.50466 -0.44526,-0.75469c-0.15595,-0.2465 -0.33483,-0.48665 -0.53488,-0.69465l0.11431,-0.02295l-0.17218,0.30018l-0.04234,0.07381l-0.04975,-0.0671c-0.06986,-0.09288 -0.13337,-0.1907 -0.21416,-0.27687c-0.0748,-0.09076 -0.15806,-0.1741 -0.24062,-0.25921c-0.16971,-0.16492 -0.34823,-0.32172 -0.5377,-0.46581" fill="#784e3d" stroke="none" stroke-width="1"/><g><g stroke="none" stroke-width="1"><g fill="#000000" font-family="&quot;Helvetica Neue&quot;, Helvetica, Arial, sans-serif" font-weight="400" font-size="16" text-anchor="start"/><path d="M280.31536,164.2289c0,0 -0.03455,-0.1688 -0.09455,-0.46372c-0.02753,-0.14759 -0.06102,-0.32735 -0.09986,-0.53322c-0.0194,-0.10279 -0.04021,-0.21224 -0.06208,-0.32775c-0.02046,-0.11582 -0.01904,-0.24012 -0.0349,-0.36796c-0.04798,-0.51277 -0.1041,-1.1107 -0.1641,-1.75166c-0.03844,-0.31149 -0.09981,-0.6346 -0.20992,-0.93654c-0.11041,-0.29917 -0.28012,-0.58803 -0.53595,-0.74834c-0.12733,-0.07804 -0.27022,-0.13137 -0.42301,-0.13809c-0.03384,-0.00141 -0.08536,-0.00919 -0.10445,-0.00672l-0.12733,0.01131c-0.08647,0.00884 -0.13658,0.03248 -0.20855,0.05369c-0.27553,0.11193 -0.48969,0.34998 -0.64354,0.61308c-0.1584,0.26239 -0.26745,0.54737 -0.35988,0.82178c-0.04586,0.14087 -0.09066,0.27755 -0.1337,0.40998c-0.0448,0.12996 -0.07834,0.25073 -0.11218,0.37579c-0.05576,0.24931 -0.13304,0.47676 -0.22901,0.67521c-0.04904,0.0989 -0.09455,0.19426 -0.1831,0.27265c-0.03601,0.04379 -0.12951,0.05965 -0.15845,0.05364c-0.04127,0.00071 -0.08112,0.00141 -0.11925,0.00212c-0.15981,-0.01586 -0.27906,-0.04869 -0.35493,-0.07344c-0.07763,-0.02187 -0.11784,-0.03849 -0.11784,-0.03849c0,0 0.04303,0.00778 0.12349,0.01237c0.08112,0.00884 0.19688,0.00955 0.33589,0.00177c0.0695,-0.02192 0.17537,-0.01697 0.19193,-0.06324c0.03985,-0.05051 0.07127,-0.14163 0.09667,-0.23658c0.04728,-0.19461 0.08041,-0.42736 0.1591,-0.6749c0.03318,-0.12324 0.07162,-0.26133 0.11784,-0.39342c0.04268,-0.13173 0.08683,-0.2677 0.13269,-0.40786c0.09597,-0.28326 0.20921,-0.58414 0.38422,-0.87371c0.169,-0.2875 0.41594,-0.57707 0.77299,-0.72294c0.08718,-0.03071 0.19971,-0.0646 0.28194,-0.07132l0.12698,-0.01131c0.06602,-0.0046 0.0995,0.00495 0.15102,0.00672c0.18911,0.00884 0.37892,0.07662 0.54196,0.17799c0.33129,0.21047 0.5204,0.55338 0.64283,0.88042c0.12102,0.33371 0.18345,0.6692 0.22401,0.99553c0.06,0.64061 0.11612,1.23884 0.1641,1.75161c0.00844,0.1286 0.03313,0.24972 0.03384,0.36801c0.00035,0.11794 0.00071,0.23027 0.00071,0.33548c0,0.21083 0.00071,0.39448 0.00071,0.54565c-0.00424,0.30336 -0.00636,0.4764 -0.00636,0.4764" fill="#784e3d"/></g><path d="M277.11591,160.72912c0.16016,-0.79708 0.69329,-2.01829 1.57533,-1.90773c0.52676,0.06566 1.29344,0.6254 1.37637,2.89124c0.06137,1.67604 -0.33275,2.28205 -1.75812,2.27786c-0.56626,-0.00177 -1.64559,-1.01003 -1.19358,-3.26137" fill="#bb8e5d" stroke="none" stroke-width="1"/><path d="M284.47206,168.93023l-1.41128,-0.26487l-1.19075,-1.865l2.06996,0.59575c0,0 0.50241,1.10751 0.53206,1.53411" fill="#fbf3ed" stroke="none" stroke-width="1"/><path d="M286.55591,172.08655c0,0 -0.52923,-0.41918 -0.41882,-1.23182c0.09314,-0.68864 0.40786,-0.97538 1.46987,0.14658c0.37998,0.40119 -0.10162,0.97927 -0.30341,1.22121c-0.20183,0.24189 -0.41705,0.10662 -0.74764,-0.13597" fill="#311a14" stroke="none" stroke-width="1"/><path d="M283.06078,168.66536l-1.19075,-1.865c0,0 0.80476,0.17658 1.56543,0.40827c0.73425,0.22355 0.71698,0.35316 0.71698,0.35316l0.31962,1.36844z" fill="none" stroke="#311a14" stroke-width="0.5"/><path d="M283.60103,168.704c0,0 -0.36377,-0.2426 -0.28649,-0.80552c0.03773,-0.27618 0.33765,-0.57813 0.62556,-0.50257c0.35776,0.09395 0.53206,1.53447 0.53206,1.53447l-1.11812,-0.21012" fill="#311a14" stroke="none" stroke-width="1"/><path d="M281.95478,171.57146c0,0 0.00349,0.08475 0.04763,0.21754c0.02046,0.06642 0.055,0.1434 0.09703,0.22709c0.04233,0.08511 0.11289,0.16562 0.15451,0.27123c0.05329,0.09955 0.12031,0.20481 0.20537,0.30654c0.08041,0.10415 0.17885,0.20623 0.28684,0.30442c0.21522,0.20163 0.47241,0.37609 0.75006,0.54666c0.27522,0.17163 0.55004,0.3422 0.81183,0.48948c0.26113,0.14617 0.51196,0.26911 0.7247,0.32063c0.05152,0.01131 0.10304,0.01803 0.14784,0.01839c0.04516,0.01131 0.08854,0.02015 0.13021,0.02015c0.08324,0.00384 0.15946,-0.01874 0.22118,-0.04662c0.06,-0.03041 0.10976,-0.05723 0.14011,-0.08127c0.03243,-0.02187 0.04975,-0.03389 0.04975,-0.03389c-0.00566,-0.00354 -0.02611,0.08087 -0.12844,0.19744c-0.05187,0.05647 -0.12844,0.12324 -0.23921,0.16703c-0.05541,0.02222 -0.11713,0.04096 -0.18315,0.04556c-0.06632,0.00106 -0.13052,-0.01803 -0.19719,-0.02864c-0.26285,-0.0646 -0.52535,-0.19739 -0.79491,-0.34781c-0.26921,-0.15117 -0.54686,-0.32386 -0.82279,-0.49585c-0.27588,-0.16916 -0.55924,-0.36023 -0.78961,-0.57636c-0.11678,-0.10627 -0.2237,-0.2179 -0.31402,-0.33407c-0.09385,-0.11304 -0.17042,-0.23133 -0.23179,-0.34609c-0.07763,-0.10703 -0.08789,-0.23664 -0.10763,-0.33937c-0.01409,-0.10597 -0.01409,-0.19885 -0.00808,-0.27406c0.01374,-0.15117 0.04975,-0.22815 0.04975,-0.22815" fill="#23110a" stroke="none" stroke-width="1"/><path d="M280.04806,161.2526c0.05718,0.59368 0.09314,2.86159 -1.43067,2.77755c-2.53571,-0.13981 -1.32026,-4.08068 -1.32026,-4.08068" fill="none" stroke="#784e3d" stroke-width="0.525"/></g><g><path d="M220.88502,176.54499c-5.80143,5.18713 -11.66316,6.55558 -16.13943,6.62164c-3.83692,0.01833 -9.21993,-2.37923 -11.2705,-5.84471c-2.05097,-3.46513 -1.07822,-6.53755 -0.28437,-6.62584c0.79385,-0.08829 0.88204,0.92699 1.01432,1.83181c0.13233,0.90512 1.30086,7.59278 10.51797,8.16702c8.68858,0.13208 16.16201,-9.30277 16.16201,-9.30277" fill="#dcb285" stroke="none" stroke-width="1"/><path d="M220.88502,176.54499c-5.80143,5.18713 -11.66316,6.55558 -16.13943,6.62164c-3.83692,0.01833 -9.21993,-2.37923 -11.2705,-5.84471c-2.05097,-3.46513 -1.07822,-6.53755 -0.28437,-6.62584c0.79385,-0.08829 0.88204,0.92699 1.01432,1.83181c0.13233,0.90512 1.30086,7.59278 10.51797,8.16702c8.68858,0.13208 16.16201,-9.30277 16.16201,-9.30277" fill="none" stroke="#784e3d" stroke-width="0.525"/></g><g><path d="M267.80693,177.48678c0,0 -5.52448,5.47387 -8.05913,11.24227c-2.53505,5.76804 -2.94044,7.62849 -2.96125,8.2991c0.04268,0.28644 0.26462,1.14777 2.55798,0.77233c1.87732,-0.30725 2.09502,-0.2426 2.22735,0.55201c0.2378,1.4285 -0.9925,2.95766 -2.56081,2.95766h-5.2676c0,0 -1.39612,-0.45453 -1.27899,-1.78802c0.07127,-0.8137 0.46999,-3.00428 0.69435,-5.25315c0.45655,-4.579 1.12903,-8.1448 0.69192,-10.35199c0,0 4.48718,-3.46513 4.87984,-6.82009" fill="#dcb285" stroke="none" stroke-width="1"/><path d="M267.80693,177.48678c0,0 -5.52448,5.47387 -8.05913,11.24227c-2.53505,5.76804 -2.94044,7.62849 -2.96125,8.2991c0.04268,0.28644 0.26462,1.14777 2.55798,0.77233c1.87732,-0.30725 2.09502,-0.2426 2.22735,0.55201c0.2378,1.4285 -0.9925,2.95766 -2.56081,2.95766h-5.2676c0,0 -1.39612,-0.45453 -1.27899,-1.78802c0.07127,-0.8137 0.46999,-3.00428 0.69435,-5.25315c0.45655,-4.579 1.12903,-8.1448 0.69192,-10.35199c0,0 4.48718,-3.46513 4.87984,-6.82009" fill="none" stroke="#784e3d" stroke-width="0.525"/><path d="M259.21225,198.5806c0,0 0.06814,-0.04485 0.19582,-0.10945c0.06319,-0.03248 0.14183,-0.0699 0.23568,-0.10597c0.09213,-0.04096 0.20148,-0.07768 0.3271,-0.07768c0.12385,-0.01167 0.26144,-0.01515 0.4121,0.00566c0.14643,0.02611 0.33164,0.0745 0.4562,0.24613c0.12839,0.18012 0.08925,0.37897 0.06208,0.54883c-0.04091,0.15183 -0.06879,0.30194 -0.12208,0.45908c-0.04657,0.15718 -0.10056,0.3122 -0.17112,0.45948c-0.05607,0.15254 -0.15734,0.28356 -0.23426,0.41918c-0.10375,0.11652 -0.18805,0.24684 -0.29881,0.3369c-0.10799,0.09147 -0.20183,0.19249 -0.3077,0.25462c-0.09526,0.07809 -0.20072,0.1243 -0.29492,0.15825c-0.09526,0.0293 -0.1789,0.0547 -0.24699,0.07556c-0.13653,0.04061 -0.21416,0.05899 -0.21416,0.05899c0,0 0.06066,-0.05617 0.16759,-0.14622c0.05364,-0.04414 0.11784,-0.09748 0.19193,-0.1589c0.06773,-0.0696 0.14006,-0.14799 0.24133,-0.20204c0.0995,-0.05788 0.18097,-0.14865 0.27977,-0.23128c0.10127,-0.08127 0.17219,-0.19709 0.26674,-0.29952c0.06667,-0.12254 0.1584,-0.23482 0.20921,-0.37609c0.06425,-0.1335 0.114,-0.27649 0.15739,-0.422c0.04869,-0.14198 0.0797,-0.303 0.11996,-0.45135c0.01975,-0.12678 0.03808,-0.26381 -0.02328,-0.3323c-0.05152,-0.07521 -0.16335,-0.11617 -0.27805,-0.13562c-0.11784,-0.01591 -0.2385,-0.0145 -0.34962,-0.00354c-0.05612,-0.00071 -0.10834,0.02192 -0.16016,0.01874c-0.05329,-0.00424 -0.10339,-0.00247 -0.15102,-0.00389c-0.09632,0.00177 -0.18032,0.00318 -0.24946,0.0046c-0.14042,0.00636 -0.22123,0.00985 -0.22123,0.00985" fill="#784e3d" stroke="none" stroke-width="1"/></g><path d="M221.08417,178.22258c0,0 -1.52207,-1.58601 -0.63367,-3.18403c0.88876,-1.59766 6.78545,-4.34802 6.78545,-4.34802l9.99401,-0.70807l3.67075,2.53882c0,0 -2.46975,3.33977 -4.76308,4.57545c-2.29334,1.23604 -15.05346,1.12585 -15.05346,1.12585" fill="#dcb285" stroke="none" stroke-width="1"/></g></g></svg>