<svg version="1.1" xmlns="http://www.w3.org/2000/svg" xmlns:xlink="http://www.w3.org/1999/xlink" width="48.96331" height="85.00633" viewBox="0,0,48.96331,85.00633"><g transform="translate(-216.33667,-136.24567)"><g data-paper-data="{&quot;isPaintingLayer&quot;:true}" fill-rule="nonzero" stroke-linecap="butt" stroke-linejoin="miter" stroke-miterlimit="10" stroke-dasharray="" stroke-dashoffset="0" style="mix-blend-mode: normal"><g><path d="M217.192,219.385c0,0 5.822,-45.873 9.95,-50.729c4.127,-4.856 30.489,1.483 30.489,1.483c0,0 11.198,8.818 2.835,31.239c-8.469,22.709 -43.274,18.007 -43.274,18.007" fill="#c7b4b0" stroke="none" stroke-width="1"/><path d="M224.789,167.562c16.201,-3.587 31.513,1.531 31.513,1.531c0,0 11.803,6.95 5.104,29.595c-7.661,25.902 -43.622,20.698 -43.622,20.698c-0.584,-47.493 6.428,-51.124 7.005,-51.824z" fill="none" stroke="#362f52" stroke-width="0.5"/><path d="M255.681,201.556c0,0 -0.081,0.334 -0.286,0.9c-0.109,0.28 -0.234,0.624 -0.408,1.006c-0.086,0.192 -0.178,0.395 -0.275,0.61c-0.108,0.209 -0.223,0.429 -0.342,0.658c-0.232,0.464 -0.538,0.935 -0.838,1.447c-0.34,0.487 -0.659,1.031 -1.077,1.53c-0.2,0.256 -0.403,0.516 -0.609,0.779c-0.223,0.25 -0.449,0.502 -0.676,0.757c-0.439,0.524 -0.96,0.987 -1.451,1.478c-0.504,0.478 -1.064,0.895 -1.585,1.337c-0.545,0.413 -1.107,0.788 -1.637,1.168c-0.545,0.356 -1.103,0.655 -1.617,0.958c-0.255,0.156 -0.513,0.289 -0.771,0.404c-0.254,0.122 -0.499,0.238 -0.735,0.35c-0.473,0.219 -0.895,0.444 -1.301,0.574c-0.397,0.146 -0.743,0.273 -1.029,0.378c-0.571,0.205 -0.898,0.322 -0.898,0.322c0,0 0.317,-0.141 0.871,-0.388c0.277,-0.122 0.614,-0.268 1.001,-0.437c0.392,-0.154 0.8,-0.403 1.263,-0.634c0.229,-0.12 0.468,-0.244 0.715,-0.373c0.25,-0.122 0.501,-0.264 0.748,-0.428c0.498,-0.319 1.034,-0.637 1.572,-0.991c0.519,-0.381 1.068,-0.758 1.602,-1.171c0.508,-0.444 1.055,-0.861 1.547,-1.337c0.489,-0.478 1.009,-0.928 1.448,-1.44c0.227,-0.249 0.453,-0.495 0.675,-0.738c0.207,-0.258 0.411,-0.512 0.612,-0.762c0.412,-0.491 0.751,-1.011 1.104,-1.481c0.316,-0.495 0.637,-0.951 0.883,-1.401c1.048,-1.769 1.494,-3.075 1.494,-3.075" fill="#362f52" stroke="none" stroke-width="1"/></g><g><path d="M237.605,218.268c4.128,-0.503 6.236,-1.498 6.236,-1.498c4.139,1.214 6.591,4.232 6.591,4.232h-13.182c0,-1.881 0.111,-2.92 0.111,-2.92" fill="#e09d73" stroke="none" stroke-width="1"/><path d="M237.806,218.527c2.8,-0.587 6.154,-1.793 6.154,-1.793c4.162,1.4 6.472,4.268 6.472,4.268h-13.182c0,-1.881 0.391,-2.439 0.391,-2.439" fill="none" stroke="#362f52" stroke-width="0.5"/></g><g><path d="M232.09,220.981c0,-1.881 0.356,-2.735 0.356,-2.735c4.283,0 7.146,-1.05 7.146,-1.05c3.085,1.182 5.68,3.785 5.68,3.785h-13.182" fill="#e09d73" stroke="none" stroke-width="1"/><path d="M232.446,218.246c4.283,0 7.146,-1.05 7.146,-1.05c3.085,1.182 5.68,3.785 5.68,3.785h-13.182c0,-1.881 0.356,-2.735 0.356,-2.735z" fill="none" stroke="#362f52" stroke-width="0.5"/></g><g><path d="M256.755,145.926c4.139,1.706 6.889,5.425 6.889,11.737c0,6.312 -4.557,11.704 -5.445,12.723c-0.329,0.378 -0.016,0.599 -0.089,1.101c-0.076,0.528 -0.264,3 -0.264,3c-1.125,0.301 -2.967,0.51 -5.939,0.511c-11.252,0.001 -20.742,-3.751 -24.068,-5.959c-4.693,-3.118 -2.714,-2.015 -2.714,-3.538c0,-1.523 -1.037,-3.626 -1.037,-7.64c0,-4.013 1.363,-7.157 2.651,-9.155c1.287,-1.999 11.266,-5.406 18.474,-5.112c6.505,0.266 11.542,2.332 11.542,2.332" fill="#a77e76" stroke="none" stroke-width="1"/><path d="M257.85,174.351c0.07,0.553 -3.066,0.648 -6.434,0.648c-15.513,0 -27.914,-7.35 -26.672,-8.706c1.243,-1.356 -0.665,-3.281 -0.665,-7.306c0,-4.026 0.799,-8.181 2.672,-10.281c1.873,-2.1 8.41,-5.119 17.745,-5.119c6.391,0 11.85,1.575 14.92,3.884c3.069,2.309 4.053,6.526 4.231,11.035c0.167,4.243 -3.706,10.204 -5.349,11.725c0,0 -0.543,3.379 -0.448,4.12z" fill="none" stroke="#362f52" stroke-width="0.5"/></g><g><path d="M243.98,148.498c-10.581,-0.148 -16.794,-10.631 -16.794,-10.631z" fill="#4b3a42" stroke="none" stroke-width="1"/><path d="M226.751,137.437c0,0 20.643,13.019 20.505,12.994c-14.691,-2.625 -20.505,-12.994 -20.505,-12.994z" fill="none" stroke="#362f52" stroke-width="0.5265"/></g><g><path d="M255.315,148.423l9.133,-10.631c0,0 -3.379,10.484 -9.133,10.631" fill="#4b3a42" stroke="none" stroke-width="1"/><path d="M253.533,150.356c-0.076,0.025 11.151,-12.993 11.151,-12.993c0,0 -3.162,10.368 -11.151,12.993" fill="none" stroke="#362f52" stroke-width="0.5265"/></g><g><path d="M251.731,157.632c0,-5.612 2.667,-10.161 5.958,-10.161c3.291,0 5.958,4.549 5.958,10.161c0,5.611 -2.667,10.161 -5.958,10.161c-3.291,0 -5.958,-4.55 -5.958,-10.161" fill="#c4afad" stroke="none" stroke-width="1"/><path d="M255.104,157.861c0,-2.38 1.132,-4.309 2.527,-4.309c1.396,0 2.527,1.929 2.527,4.309c0,2.381 -1.131,4.31 -2.527,4.31c-1.395,0 -2.527,-1.929 -2.527,-4.31" fill="#fccf87" stroke="none" stroke-width="1"/><path d="M259.19,157.971c0,1.498 -0.712,2.713 -1.591,2.713c-0.878,0 -1.591,-1.215 -1.591,-2.713c0,-1.498 0.713,-2.713 1.591,-2.713c0.879,0 1.591,1.215 1.591,2.713" fill="#362f52" stroke="none" stroke-width="1"/><path d="M255.104,157.774c0,-2.38 1.132,-4.309 2.527,-4.309c1.396,0 2.527,1.929 2.527,4.309c0,2.38 -1.131,4.309 -2.527,4.309c-1.395,0 -2.527,-1.929 -2.527,-4.309z" fill="none" stroke="#605579" stroke-width="0.5"/><path d="M251.695,157.663c0,-5.618 2.67,-10.172 5.964,-10.172c3.295,0 5.965,4.554 5.965,10.172c0,5.617 -2.67,10.172 -5.965,10.172c-3.294,0 -5.964,-4.555 -5.964,-10.172z" fill="none" stroke="#605579" stroke-width="0.5265"/><path d="M258.298,152.83c0,0 -0.007,-0.272 0.014,-0.676c0.022,-0.404 0.065,-0.941 0.136,-1.473c0.07,-0.534 0.168,-1.064 0.252,-1.459c0.085,-0.396 0.163,-0.657 0.163,-0.657c0,0 0.007,0.272 -0.014,0.676c-0.021,0.404 -0.065,0.941 -0.137,1.474c-0.069,0.533 -0.168,1.063 -0.251,1.459c-0.085,0.395 -0.163,0.656 -0.163,0.656" fill="#605579" stroke="none" stroke-width="1"/><path d="M256.523,167.125c0,0 -0.012,-0.273 0.002,-0.679c0.015,-0.406 0.048,-0.945 0.11,-1.482c0.06,-0.536 0.148,-1.07 0.226,-1.469c0.077,-0.399 0.15,-0.662 0.15,-0.662c0,0 0.012,0.273 -0.001,0.679c-0.015,0.405 -0.048,0.945 -0.11,1.481c-0.06,0.537 -0.15,1.071 -0.226,1.47c-0.078,0.399 -0.151,0.662 -0.151,0.662" fill="#605579" stroke="none" stroke-width="1"/><path d="M261.045,165.312c0,0 -0.14,-0.193 -0.321,-0.496c-0.182,-0.303 -0.411,-0.713 -0.613,-1.136c-0.206,-0.421 -0.384,-0.855 -0.508,-1.185c-0.124,-0.33 -0.188,-0.559 -0.188,-0.559c0,0 0.142,0.193 0.323,0.496c0.181,0.303 0.41,0.713 0.613,1.135c0.205,0.422 0.383,0.856 0.507,1.186c0.124,0.33 0.187,0.559 0.187,0.559" fill="#605579" stroke="none" stroke-width="1"/><path d="M262.48,162.373c0,0 -0.172,-0.084 -0.41,-0.233c-0.237,-0.15 -0.545,-0.36 -0.835,-0.593c-0.291,-0.231 -0.564,-0.484 -0.761,-0.683c-0.198,-0.198 -0.316,-0.347 -0.316,-0.347c0,0 0.172,0.083 0.41,0.232c0.238,0.15 0.546,0.361 0.835,0.594c0.291,0.231 0.564,0.484 0.761,0.683c0.198,0.198 0.316,0.347 0.316,0.347" fill="#605579" stroke="none" stroke-width="1"/><path d="M263.226,158.952c0,0 -0.166,0.014 -0.411,0.003c-0.245,-0.011 -0.569,-0.039 -0.887,-0.096c-0.319,-0.055 -0.633,-0.137 -0.867,-0.21c-0.233,-0.073 -0.385,-0.142 -0.385,-0.142c0,0 0.166,-0.014 0.411,-0.003c0.245,0.011 0.569,0.039 0.887,0.097c0.319,0.054 0.633,0.137 0.867,0.209c0.234,0.073 0.385,0.142 0.385,0.142" fill="#605579" stroke="none" stroke-width="1"/><path d="M263.043,154.877c0,0 -0.134,0.112 -0.351,0.254c-0.217,0.141 -0.513,0.318 -0.821,0.468c-0.307,0.153 -0.628,0.279 -0.873,0.364c-0.245,0.086 -0.418,0.124 -0.418,0.124c0,0 0.135,-0.114 0.352,-0.255c0.216,-0.142 0.511,-0.318 0.82,-0.468c0.308,-0.153 0.628,-0.279 0.873,-0.364c0.245,-0.085 0.418,-0.123 0.418,-0.123" fill="#605579" stroke="none" stroke-width="1"/><path d="M261.54,150.965c0,0 -0.07,0.221 -0.204,0.539c-0.134,0.317 -0.325,0.734 -0.542,1.137c-0.215,0.405 -0.456,0.796 -0.646,1.084c-0.19,0.288 -0.336,0.47 -0.336,0.47c0,0 0.07,-0.222 0.204,-0.539c0.134,-0.318 0.325,-0.734 0.542,-1.138c0.215,-0.404 0.456,-0.794 0.646,-1.083c0.19,-0.288 0.336,-0.47 0.336,-0.47" fill="#605579" stroke="none" stroke-width="1"/><path d="M256.035,148.885c0,0 0.092,0.252 0.197,0.636c0.104,0.385 0.231,0.899 0.328,1.42c0.1,0.52 0.171,1.045 0.214,1.441c0.042,0.396 0.049,0.663 0.049,0.663c0,0 -0.091,-0.252 -0.197,-0.637c-0.105,-0.384 -0.231,-0.898 -0.327,-1.419c-0.101,-0.52 -0.171,-1.045 -0.214,-1.441c-0.042,-0.396 -0.05,-0.663 -0.05,-0.663" fill="#605579" stroke="none" stroke-width="1"/><path d="M253.745,151.252c0,0 0.161,0.141 0.377,0.371c0.217,0.23 0.494,0.545 0.747,0.878c0.256,0.331 0.489,0.679 0.654,0.947c0.165,0.268 0.258,0.46 0.258,0.46c0,0 -0.161,-0.141 -0.378,-0.371c-0.216,-0.23 -0.493,-0.545 -0.746,-0.878c-0.256,-0.331 -0.488,-0.68 -0.654,-0.947c-0.164,-0.269 -0.258,-0.46 -0.258,-0.46" fill="#605579" stroke="none" stroke-width="1"/><path d="M252.541,154.728c0,0 0.173,0.059 0.416,0.174c0.242,0.115 0.559,0.279 0.859,0.469c0.301,0.187 0.587,0.398 0.795,0.566c0.209,0.168 0.337,0.299 0.337,0.299c0,0 -0.174,-0.059 -0.416,-0.174c-0.243,-0.115 -0.559,-0.28 -0.859,-0.47c-0.301,-0.187 -0.588,-0.399 -0.796,-0.566c-0.209,-0.168 -0.336,-0.298 -0.336,-0.298" fill="#605579" stroke="none" stroke-width="1"/><path d="M252.346,158.843c0,0 0.16,-0.042 0.4,-0.073c0.24,-0.03 0.561,-0.058 0.881,-0.055c0.322,-0.001 0.642,0.027 0.882,0.059c0.24,0.032 0.4,0.075 0.4,0.075c0,0 -0.16,0.042 -0.4,0.073c-0.241,0.03 -0.561,0.057 -0.882,0.055c-0.32,0.001 -0.641,-0.028 -0.881,-0.06c-0.24,-0.032 -0.4,-0.074 -0.4,-0.074" fill="#605579" stroke="none" stroke-width="1"/><path d="M252.994,162.831c0,0 0.113,-0.157 0.305,-0.368c0.194,-0.211 0.46,-0.482 0.746,-0.732c0.283,-0.251 0.587,-0.481 0.822,-0.645c0.235,-0.165 0.406,-0.258 0.406,-0.258c0,0 -0.114,0.156 -0.307,0.368c-0.192,0.211 -0.459,0.482 -0.745,0.731c-0.284,0.252 -0.588,0.481 -0.821,0.645c-0.236,0.165 -0.406,0.259 -0.406,0.259" fill="#605579" stroke="none" stroke-width="1"/><path d="M258.77,167.141c0,0 -0.066,-0.267 -0.133,-0.67c-0.067,-0.402 -0.143,-0.94 -0.189,-1.481c-0.05,-0.54 -0.07,-1.083 -0.073,-1.491c-0.004,-0.408 0.015,-0.682 0.015,-0.682c0,0 0.066,0.267 0.134,0.669c0.068,0.403 0.143,0.941 0.189,1.481c0.049,0.541 0.068,1.084 0.072,1.492c0.004,0.408 -0.015,0.682 -0.015,0.682" fill="#605579" stroke="none" stroke-width="1"/><path d="M254.466,165.609c0,0 0.052,-0.241 0.158,-0.591c0.107,-0.349 0.261,-0.81 0.444,-1.261c0.18,-0.451 0.386,-0.891 0.553,-1.218c0.165,-0.326 0.296,-0.536 0.296,-0.536c0,0 -0.051,0.241 -0.157,0.591c-0.106,0.349 -0.262,0.81 -0.445,1.261c-0.18,0.45 -0.387,0.89 -0.552,1.218c-0.167,0.326 -0.297,0.536 -0.297,0.536" fill="#605579" stroke="none" stroke-width="1"/><path d="M258.859,157.218c0.036,0.303 -0.059,0.564 -0.213,0.582c-0.154,0.018 -0.308,-0.213 -0.344,-0.516c-0.037,-0.304 0.058,-0.565 0.212,-0.582c0.154,-0.018 0.308,0.213 0.345,0.516" fill="#ffffff" stroke="none" stroke-width="1"/></g><g><path d="M251.054,159.884c0,0 3.262,3.132 4.177,5.569c0.15,0.108 -7.633,0 -7.633,0l1.491,-4.77c0,0 0.233,1.831 1.965,-0.799" fill="#e89b60" stroke="none" stroke-width="1"/><path d="M251.054,159.884c0,0 3.262,3.132 4.177,5.569c0.15,0.108 -7.633,0 -7.633,0l1.491,-4.77c0,0 0.233,1.831 1.965,-0.799z" fill="none" stroke="#615d7a" stroke-width="0.5"/></g><g><path d="M229.916,157.773c0,-5.612 4.615,-10.161 10.308,-10.161c5.693,0 10.308,4.549 10.308,10.161c0,5.611 -4.615,10.161 -10.308,10.161c-5.693,0 -10.308,-4.55 -10.308,-10.161" fill="#c4afad" stroke="none" stroke-width="1"/><path d="M235.752,158.002c0,-2.38 1.957,-4.309 4.372,-4.309c2.415,0 4.372,1.929 4.372,4.309c0,2.381 -1.957,4.31 -4.372,4.31c-2.415,0 -4.372,-1.929 -4.372,-4.31" fill="#fccf87" stroke="none" stroke-width="1"/><path d="M243.742,158.112c0,1.498 -1.232,2.713 -2.752,2.713c-1.52,0 -2.752,-1.215 -2.752,-2.713c0,-1.498 1.232,-2.713 2.752,-2.713c1.52,0 2.752,1.215 2.752,2.713" fill="#362f52" stroke="none" stroke-width="1"/><path d="M235.752,157.915c0,-2.38 1.957,-4.309 4.372,-4.309c2.415,0 4.372,1.929 4.372,4.309c0,2.38 -1.957,4.309 -4.372,4.309c-2.415,0 -4.372,-1.929 -4.372,-4.309z" fill="none" stroke="#605579" stroke-width="0.5"/><path d="M229.854,157.804c0,-5.618 4.62,-10.172 10.319,-10.172c5.7,0 10.319,4.554 10.319,10.172c0,5.617 -4.619,10.172 -10.319,10.172c-5.699,0 -10.319,-4.555 -10.319,-10.172z" fill="none" stroke="#605579" stroke-width="0.5265"/><path d="M241.278,152.971c0,0 0.02,-0.275 0.079,-0.682c0.062,-0.407 0.155,-0.947 0.279,-1.48c0.121,-0.533 0.27,-1.06 0.392,-1.453c0.123,-0.393 0.226,-0.65 0.226,-0.65c0,0 -0.019,0.275 -0.079,0.682c-0.061,0.407 -0.155,0.947 -0.279,1.48c-0.121,0.533 -0.271,1.06 -0.393,1.453c-0.123,0.393 -0.225,0.65 -0.225,0.65" fill="#605579" stroke="none" stroke-width="1"/><path d="M238.207,167.266c0,0 0.011,-0.276 0.058,-0.685c0.049,-0.408 0.126,-0.95 0.233,-1.486c0.105,-0.537 0.237,-1.068 0.348,-1.465c0.111,-0.396 0.206,-0.656 0.206,-0.656c0,0 -0.011,0.276 -0.058,0.684c-0.049,0.409 -0.127,0.951 -0.234,1.487c-0.104,0.537 -0.238,1.068 -0.348,1.464c-0.111,0.397 -0.205,0.657 -0.205,0.657" fill="#605579" stroke="none" stroke-width="1"/><path d="M246.031,165.453c0,0 -0.21,-0.184 -0.499,-0.481c-0.288,-0.297 -0.663,-0.701 -1.014,-1.124c-0.353,-0.421 -0.684,-0.86 -0.924,-1.196c-0.24,-0.338 -0.383,-0.575 -0.383,-0.575c0,0 0.209,0.184 0.499,0.481c0.289,0.296 0.663,0.7 1.014,1.124c0.353,0.421 0.684,0.861 0.924,1.197c0.239,0.336 0.383,0.574 0.383,0.574" fill="#605579" stroke="none" stroke-width="1"/><path d="M248.513,162.514c0,0 -0.269,-0.078 -0.66,-0.223c-0.389,-0.146 -0.904,-0.353 -1.405,-0.586c-0.503,-0.231 -0.993,-0.488 -1.356,-0.69c-0.363,-0.203 -0.596,-0.357 -0.596,-0.357c0,0 0.269,0.077 0.659,0.223c0.391,0.145 0.905,0.353 1.406,0.586c0.503,0.231 0.993,0.488 1.356,0.69c0.363,0.203 0.596,0.357 0.596,0.357" fill="#605579" stroke="none" stroke-width="1"/><path d="M249.804,159.093c0,0 -0.28,0.014 -0.697,0.004c-0.417,-0.011 -0.971,-0.039 -1.523,-0.096c-0.551,-0.054 -1.1,-0.137 -1.511,-0.21c-0.41,-0.073 -0.681,-0.143 -0.681,-0.143c0,0 0.28,-0.014 0.696,-0.004c0.418,0.011 0.972,0.039 1.524,0.096c0.551,0.054 1.1,0.138 1.511,0.211c0.41,0.073 0.681,0.142 0.681,0.142" fill="#605579" stroke="none" stroke-width="1"/><path d="M249.488,155.018c0,0 -0.256,0.116 -0.646,0.259c-0.39,0.144 -0.916,0.322 -1.449,0.472c-0.532,0.152 -1.072,0.277 -1.481,0.361c-0.408,0.083 -0.687,0.118 -0.687,0.118c0,0 0.255,-0.117 0.646,-0.26c0.39,-0.144 0.916,-0.321 1.449,-0.472c0.532,-0.152 1.072,-0.276 1.481,-0.36c0.409,-0.083 0.687,-0.118 0.687,-0.118" fill="#605579" stroke="none" stroke-width="1"/><path d="M246.886,151.106c0,0 -0.155,0.23 -0.411,0.554c-0.258,0.324 -0.61,0.747 -0.985,1.15c-0.372,0.404 -0.767,0.79 -1.071,1.071c-0.303,0.281 -0.522,0.455 -0.522,0.455c0,0 0.155,-0.231 0.412,-0.555c0.257,-0.324 0.61,-0.746 0.984,-1.148c0.373,-0.405 0.768,-0.79 1.071,-1.072c0.304,-0.281 0.522,-0.455 0.522,-0.455" fill="#605579" stroke="none" stroke-width="1"/><path d="M237.363,149.026c0,0 0.126,0.247 0.284,0.627c0.157,0.381 0.355,0.892 0.524,1.413c0.172,0.519 0.315,1.048 0.413,1.447c0.098,0.4 0.142,0.673 0.142,0.673c0,0 -0.126,-0.247 -0.285,-0.627c-0.157,-0.381 -0.355,-0.892 -0.523,-1.413c-0.172,-0.52 -0.315,-1.048 -0.413,-1.448c-0.097,-0.399 -0.142,-0.672 -0.142,-0.672" fill="#605579" stroke="none" stroke-width="1"/><path d="M233.399,151.393c0,0 0.246,0.133 0.596,0.357c0.349,0.224 0.807,0.534 1.247,0.867c0.441,0.33 0.865,0.684 1.176,0.958c0.311,0.274 0.505,0.474 0.505,0.474c0,0 -0.246,-0.133 -0.596,-0.357c-0.35,-0.223 -0.807,-0.534 -1.247,-0.867c-0.441,-0.331 -0.864,-0.685 -1.176,-0.958c-0.311,-0.275 -0.505,-0.474 -0.505,-0.474" fill="#605579" stroke="none" stroke-width="1"/><path d="M231.317,154.869c0,0 0.275,0.054 0.676,0.166c0.401,0.113 0.932,0.275 1.452,0.464c0.521,0.188 1.032,0.402 1.412,0.573c0.378,0.171 0.624,0.305 0.624,0.305c0,0 -0.275,-0.055 -0.677,-0.167c-0.401,-0.112 -0.931,-0.274 -1.451,-0.464c-0.521,-0.187 -1.032,-0.402 -1.411,-0.573c-0.38,-0.171 -0.625,-0.304 -0.625,-0.304" fill="#605579" stroke="none" stroke-width="1"/><path d="M230.979,158.984c0,0 0.277,-0.042 0.693,-0.073c0.416,-0.03 0.97,-0.058 1.525,-0.055c0.554,-0.001 1.109,0.027 1.525,0.059c0.416,0.032 0.692,0.075 0.692,0.075c0,0 -0.276,0.042 -0.693,0.073c-0.415,0.031 -0.97,0.057 -1.524,0.055c-0.555,0.001 -1.109,-0.028 -1.525,-0.06c-0.416,-0.032 -0.693,-0.074 -0.693,-0.074" fill="#605579" stroke="none" stroke-width="1"/><path d="M232.1,162.972c0,0 0.227,-0.163 0.582,-0.379c0.356,-0.215 0.835,-0.49 1.329,-0.74c0.492,-0.251 0.998,-0.477 1.382,-0.637c0.384,-0.159 0.65,-0.247 0.65,-0.247c0,0 -0.226,0.163 -0.581,0.378c-0.355,0.216 -0.836,0.491 -1.329,0.74c-0.492,0.252 -0.998,0.477 -1.382,0.637c-0.385,0.16 -0.651,0.248 -0.651,0.248" fill="#605579" stroke="none" stroke-width="1"/><path d="M242.095,167.282c0,0 -0.083,-0.264 -0.177,-0.665c-0.093,-0.401 -0.203,-0.937 -0.284,-1.478c-0.083,-0.54 -0.139,-1.084 -0.169,-1.494c-0.029,-0.411 -0.028,-0.687 -0.028,-0.687c0,0 0.083,0.264 0.177,0.664c0.093,0.401 0.203,0.938 0.283,1.478c0.084,0.541 0.138,1.086 0.169,1.495c0.03,0.41 0.029,0.687 0.029,0.687" fill="#605579" stroke="none" stroke-width="1"/><path d="M234.648,165.75c0,0 0.122,-0.25 0.331,-0.605c0.209,-0.356 0.5,-0.822 0.814,-1.272c0.313,-0.452 0.649,-0.887 0.91,-1.207c0.263,-0.32 0.454,-0.522 0.454,-0.522c0,0 -0.121,0.249 -0.33,0.605c-0.209,0.356 -0.5,0.822 -0.814,1.272c-0.313,0.452 -0.65,0.886 -0.911,1.207c-0.262,0.32 -0.454,0.522 -0.454,0.522" fill="#605579" stroke="none" stroke-width="1"/><path d="M242.888,157.251c0,0.305 -0.251,0.553 -0.561,0.553c-0.31,0 -0.561,-0.248 -0.561,-0.553c0,-0.306 0.251,-0.553 0.561,-0.553c0.31,0 0.561,0.247 0.561,0.553" fill="#ffffff" stroke="none" stroke-width="1"/></g><g><path d="M262.769,192.784c0,0 -6.778,-13.781 -4.311,-21.815c0,0 7.431,7.728 4.311,21.815" fill="#a77e76" stroke="none" stroke-width="1"/><path d="M250.758,163.053c-0.071,-1.239 0.832,-1.656 0.832,-1.656c0.051,1.278 -0.832,1.656 -0.832,1.656" fill="#615d7a" stroke="none" stroke-width="1"/><path d="M262.769,193.05c0,0 -6.761,-14.102 -4.443,-22.223" fill="none" stroke="#362f52" stroke-width="0.5"/></g><g><path d="M216.8,219.931c0,0 -0.516,-25.2 0.017,-35.405c0.532,-10.205 7.916,-18.484 7.916,-18.484c4.592,-0.292 19.53,3.259 19.074,21.328c-0.467,18.52 -27.007,32.561 -27.007,32.561" fill="#a77e76" stroke="none" stroke-width="1"/><path d="M216.576,189.564c0,0 3.411,0.07 7.165,3.087c7.166,5.759 5.284,18.842 5.284,18.842c-3.179,3.056 -12.148,8.438 -12.148,8.438z" fill="#784451" stroke="none" stroke-width="1"/><path d="M216.8,185.215c0.666,-11.747 7.989,-19.142 7.989,-19.142c2.131,-0.323 18.953,1.555 18.953,20.651c0,19.097 -26.942,33.207 -26.942,33.207c0,-5.644 -0.48,-26.243 0,-34.716z" fill="none" stroke="#362f52" stroke-width="0.5"/><path d="M216.651,189.421c15.372,2.663 12.624,21.563 12.247,22.242" fill="none" stroke="#362f52" stroke-width="0.5"/><path d="M217.777,189.813c0,0 0.261,0.891 0.46,2.265c0.089,0.688 0.197,1.492 0.237,2.361c0.052,0.867 0.043,1.796 0.001,2.723c-0.043,0.463 -0.063,0.927 -0.125,1.381c-0.062,0.453 -0.112,0.901 -0.207,1.328c-0.087,0.427 -0.16,0.842 -0.283,1.225c-0.116,0.383 -0.199,0.751 -0.324,1.078c-0.117,0.329 -0.236,0.626 -0.34,0.889c-0.11,0.261 -0.231,0.478 -0.317,0.661c-0.186,0.36 -0.292,0.566 -0.292,0.566c0,0 0.071,-0.22 0.196,-0.605c0.061,-0.191 0.152,-0.418 0.226,-0.687c0.068,-0.272 0.144,-0.578 0.239,-0.906c0.097,-0.329 0.149,-0.699 0.233,-1.081c0.09,-0.381 0.125,-0.796 0.2,-1.215c0.08,-0.42 0.097,-0.863 0.157,-1.307c0.057,-0.445 0.069,-0.902 0.106,-1.356c0.025,-0.455 0.043,-0.911 0.055,-1.36c-0.006,-0.45 0.023,-0.892 0.007,-1.321c-0.005,-0.856 -0.024,-1.658 -0.066,-2.345c-0.045,-0.686 -0.068,-1.261 -0.109,-1.662c-0.035,-0.402 -0.054,-0.632 -0.054,-0.632" fill="#362f52" stroke="none" stroke-width="1"/><path d="M220.773,190.689c0,0 0.291,1.318 0.426,3.335c0.025,0.504 0.063,1.051 0.067,1.63c0.018,0.579 0.017,1.19 -0.011,1.822c-0.008,0.633 -0.076,1.285 -0.125,1.947c-0.073,0.661 -0.161,1.332 -0.26,2c-0.14,0.663 -0.235,1.333 -0.412,1.977c-0.174,0.644 -0.318,1.285 -0.545,1.88c-0.212,0.6 -0.396,1.186 -0.659,1.709c-0.121,0.265 -0.239,0.523 -0.353,0.772c-0.108,0.252 -0.224,0.489 -0.358,0.707c-0.25,0.443 -0.489,0.844 -0.7,1.197c-0.227,0.344 -0.457,0.625 -0.629,0.865c-0.358,0.47 -0.563,0.738 -0.563,0.738c0,0 0.173,-0.289 0.476,-0.795c0.15,-0.253 0.351,-0.548 0.545,-0.907c0.176,-0.369 0.375,-0.784 0.602,-1.229c0.12,-0.22 0.222,-0.46 0.314,-0.713c0.099,-0.251 0.2,-0.511 0.305,-0.777c0.23,-0.525 0.375,-1.114 0.572,-1.705c0.211,-0.588 0.321,-1.226 0.493,-1.857c0.168,-0.633 0.253,-1.296 0.387,-1.947c0.104,-0.656 0.196,-1.316 0.274,-1.967c0.051,-0.653 0.146,-1.293 0.168,-1.918c0.04,-0.624 0.08,-1.227 0.091,-1.801c0.029,-0.574 0.019,-1.116 0.022,-1.617c-0.014,-1.003 -0.025,-1.84 -0.067,-2.425c-0.03,-0.586 -0.06,-0.921 -0.06,-0.921" fill="#362f52" stroke="none" stroke-width="1"/><path d="M224.478,193.263c0,0 0.044,0.406 0.062,1.121c0.017,0.714 0.034,1.737 -0.036,2.962c-0.039,0.612 -0.077,1.276 -0.154,1.975c-0.059,0.702 -0.156,1.438 -0.276,2.196c-0.107,0.761 -0.285,1.537 -0.429,2.331c-0.194,0.784 -0.362,1.587 -0.59,2.377c-0.256,0.78 -0.462,1.577 -0.771,2.327c-0.288,0.756 -0.554,1.507 -0.897,2.201c-0.315,0.704 -0.629,1.38 -1.001,1.985c-0.362,0.609 -0.656,1.21 -1.03,1.706c-0.349,0.51 -0.678,0.971 -0.97,1.378c-0.315,0.39 -0.612,0.714 -0.844,0.988c-0.476,0.538 -0.748,0.846 -0.748,0.846c0,0 0.243,-0.331 0.667,-0.91c0.211,-0.289 0.48,-0.63 0.764,-1.037c0.258,-0.426 0.549,-0.905 0.875,-1.42c0.348,-0.503 0.612,-1.114 0.942,-1.728c0.34,-0.611 0.612,-1.295 0.921,-1.989c0.328,-0.688 0.579,-1.433 0.852,-2.183c0.295,-0.743 0.484,-1.534 0.727,-2.307c0.237,-0.775 0.416,-1.567 0.618,-2.339c0.154,-0.783 0.342,-1.548 0.459,-2.3c0.121,-0.75 0.26,-1.474 0.347,-2.166c0.108,-0.691 0.174,-1.347 0.24,-1.954c0.118,-1.213 0.205,-2.228 0.231,-2.94c0.038,-0.712 0.041,-1.12 0.041,-1.12" fill="#362f52" stroke="none" stroke-width="1"/><path d="M227.901,198.688c0,0 0.026,0.383 0,1.054c-0.014,0.335 -0.039,0.742 -0.081,1.208c-0.047,0.466 -0.098,0.992 -0.204,1.559c-0.082,0.572 -0.226,1.18 -0.362,1.828c-0.162,0.641 -0.326,1.322 -0.558,2.007c-0.238,0.683 -0.466,1.395 -0.775,2.091c-0.149,0.35 -0.286,0.708 -0.447,1.058c-0.17,0.345 -0.341,0.692 -0.513,1.039c-0.33,0.701 -0.764,1.345 -1.151,2.001c-0.188,0.331 -0.404,0.641 -0.625,0.943c-0.217,0.305 -0.431,0.605 -0.642,0.901c-0.203,0.301 -0.425,0.58 -0.661,0.84c-0.228,0.264 -0.452,0.523 -0.67,0.775c-0.419,0.517 -0.884,0.945 -1.298,1.353c-0.42,0.4 -0.781,0.792 -1.158,1.079c-0.368,0.294 -0.689,0.552 -0.954,0.763c-0.532,0.417 -0.835,0.654 -0.835,0.654c0,0 0.279,-0.265 0.767,-0.731c0.246,-0.23 0.545,-0.509 0.887,-0.829c0.347,-0.312 0.676,-0.73 1.077,-1.141c0.389,-0.422 0.827,-0.864 1.217,-1.395c0.202,-0.257 0.41,-0.522 0.623,-0.793c0.215,-0.269 0.439,-0.54 0.631,-0.842c0.202,-0.294 0.408,-0.593 0.617,-0.896c0.213,-0.299 0.421,-0.608 0.6,-0.937c0.37,-0.651 0.786,-1.29 1.101,-1.983c0.174,-0.338 0.348,-0.676 0.52,-1.012c0.163,-0.342 0.304,-0.692 0.456,-1.034c0.315,-0.679 0.55,-1.378 0.795,-2.047c0.23,-0.673 0.433,-1.332 0.621,-1.958c0.165,-0.632 0.336,-1.227 0.443,-1.788c0.249,-1.115 0.397,-2.058 0.477,-2.721c0.082,-0.663 0.102,-1.046 0.102,-1.046" fill="#362f52" stroke="none" stroke-width="1"/></g></g></g></svg>