<svg version="1.1" xmlns="http://www.w3.org/2000/svg" xmlns:xlink="http://www.w3.org/1999/xlink" width="98.09985" height="73.93526" viewBox="0,0,98.09985,73.93526"><g transform="translate(-190.95007,-143.03237)"><g data-paper-data="{&quot;isPaintingLayer&quot;:true}" fill-rule="nonzero" stroke="none" stroke-width="1" stroke-linecap="butt" stroke-linejoin="miter" stroke-miterlimit="10" stroke-dasharray="" stroke-dashoffset="0" style="mix-blend-mode: normal"><g><path d="M202.39245,173.26663l28.77307,2.76316l2.13809,9.89554c0,0 1.05094,6.87074 1.35067,8.66289c0.15049,0.8967 1.87583,19.23096 1.72596,19.15603c-8.02846,-2.80063 -11.92935,-16.31794 -11.92935,-16.31794l-9.30357,-3.39822c0,0 -1.57609,-5.63809 -4.72703,-7.46771c-3.15094,-1.82962 -7.42775,-1.5686 -7.42775,-1.5686c0,0 -12.07922,-15.16022 -12.04238,-15.49617c2.32605,1.82962 10.31704,3.17342 11.44229,3.77101z" fill="#c8c8be"/><path d="M224.48835,197.42632l5.3265,-8.66289l2.25112,3.73417l-7.57761,4.92873" fill="#f0e6d2"/><path d="M203.03,184.99179l4.20187,-10.71669l2.28796,0.7843l-6.48983,9.93239" fill="#f0e6d2"/><path d="M215.18478,194.0281l10.61615,-18.07262l3.26396,2.01633c0,0 -12.22971,15.30946 -13.88011,16.05629z" fill="#f0e6d2"/><path d="M190.98825,169.49563c0.18733,-0.22417 2.36289,1.19456 2.36289,0.70937c0,-0.48582 -1.6504,-1.34443 -1.91267,-1.82962c0.74996,0 3.076,1.04532 3.1884,0.52266c0.1124,-0.52266 -2.70071,-1.23265 -2.51338,-1.79277c0.1124,-0.29848 5.92721,1.75531 20.97003,4.40669c6.56539,1.15709 14.85612,1.53051 16.80687,1.60544l-2.17618,6.16138c-3.67609,0 -14.44273,0.41088 -33.5001,-7.16985c-2.02569,-0.89608 -3.33889,-2.46405 -3.22587,-2.61329z" fill="#828278"/></g><g><path d="M289.00639,169.56993c0.07431,0.33595 -11.66771,15.49679 -11.66771,15.49679c0,0 -4.27618,-0.26164 -7.42775,1.56798c-3.15094,1.82962 -4.72641,7.46833 -4.72641,7.46833l-9.07877,2.94987c0,0 0.86298,15.01098 -10.72855,15.75781c-0.15049,0 2.77565,-10.45504 2.92614,-11.35174c0.3372,-1.79215 -1.2008,-15.53364 -1.2008,-15.53364l2.13872,-9.89554l28.77307,-2.76316c1.08778,-0.59759 8.74095,-1.94139 10.99206,-3.6967z" fill="#c8c8be"/><path d="M277.37677,184.99179l-6.52792,-9.93239l2.32605,-0.7843l4.20187,10.71669" fill="#f0e6d2"/><path d="M251.34188,177.97181l3.26334,-2.01633l10.61677,18.07262c-1.6504,-0.74683 -13.88011,-16.05629 -13.88011,-16.05629z" fill="#f0e6d2"/><path d="M285.7799,172.10892c-19.05737,7.58073 -29.44872,7.16985 -33.12543,7.16985l-2.17556,-6.16138c1.95076,-0.07493 10.24148,-0.44835 16.80625,-1.60544c15.04345,-2.65138 20.48297,-4.70518 20.59537,-4.40669c0.2248,0.56013 -2.58831,1.27012 -2.47592,1.79277c0.1124,0.52266 2.43845,-0.52266 3.1884,-0.52266c-0.26227,0.48519 -1.91329,1.3438 -1.91329,1.82962c0,0.48519 2.17618,-0.93354 2.36352,-0.70937c0.1124,0.14924 -1.20018,1.71722 -3.26334,2.61329z" fill="#828278"/><path d="M256.10576,197.01544l-8.36566,-2.53898l1.98885,-3.95834l6.37681,6.49733" fill="#f0e6d2"/></g><path d="M238.14304,211.21714c0,0 -0.78742,3.13658 -1.23765,5.75049l-0.60009,-0.11178c0.26227,-1.34443 0.48769,-2.53898 0.48769,-2.53898c0,0 -2.13872,-2.42721 -2.77627,-3.47315c-2.06316,-3.32328 -5.85228,-13.03149 -5.73988,-16.01883l7.46521,5.48885c0.15049,1.19518 2.40098,10.90339 2.40098,10.90339z" fill="#3c3c32"/><path d="M249.92252,210.06005c-1.95076,3.39759 -8.0653,3.80848 -8.0653,3.80848c0,0.74683 -0.07493,1.49367 -0.22542,2.20303c-0.14987,0.03747 -0.26227,0.03747 -0.41213,0l0.1124,-4.3686c0,0 2.55085,-0.89608 3.45129,-2.57645c0.74996,-1.38189 0.56262,-2.83809 -0.67565,-3.92088h-0.03747c-0.18733,-0.18671 -2.66325,-2.65138 -2.85058,-2.83809l7.27725,-4.40607c0.60009,1.12025 1.83836,7.58011 1.91329,8.8496c0.07493,0.93354 -0.07493,2.50214 -0.48769,3.24898z" fill="#3c3c32"/><g><g fill="#64645a"><path d="M229.38648,145.09365l-0.26227,-0.11178c-0.03747,-0.14924 -0.03747,-0.26164 -0.03747,-0.37342c-0.07493,-0.33595 -0.11302,-0.67252 -0.18796,-1.04594c-0.07493,-0.14924 -0.03747,-0.33595 0.03747,-0.48519c0.18796,0 0.26289,0.03747 0.30036,0.18671c0.03747,0.26164 0.1124,0.56013 0.14987,0.82177c0.03747,0.22355 0.07493,0.44773 0.07493,0.6719c-0.03747,0.14924 -0.07493,0.26164 -0.07493,0.33595z"/><path d="M228.89879,145.57947l-0.29973,-0.03747c-0.03747,-0.1124 -0.07493,-0.26164 -0.11302,-0.37342c-0.14987,-0.33595 -0.26227,-0.63506 -0.41213,-0.97101c-0.11302,-0.26164 -0.11302,-0.26164 -0.03747,-0.48519c0.18733,-0.03747 0.26227,0 0.3372,0.11178c0.1124,0.26164 0.22542,0.52266 0.33782,0.7843c0.1124,0.26102 0.14987,0.44773 0.2248,0.63443c-0.03747,0.1124 -0.03747,0.22417 -0.03747,0.33657z"/><path d="M229.64937,145.05619c0,-0.22355 0,-0.44773 0.03747,-0.6719c0.03747,-0.29848 0.07493,-0.56013 0.1124,-0.85861c0,-0.14987 0.03747,-0.18671 0.26289,-0.22417c0.1124,0.22417 0.1124,0.22417 0.07493,0.48519c-0.07493,0.33595 -0.1124,0.70937 -0.15049,1.04594c-0.03747,0.11178 -0.03747,0.22355 -0.03747,0.37342l-0.26227,0.11178c0,-0.07493 -0.03747,-0.18671 -0.03747,-0.26164z"/></g><path d="M229.502,180.82926c0,0 -2.70071,-9.41035 -3.30143,-14.18984c-0.48769,-3.92088 -0.41213,-7.87859 -0.2248,-11.79947c0.1124,-2.53961 0.37529,-9.44719 3.41383,-10.45567c3.82658,1.04532 5.62685,11.01579 6.22694,14.15237c0.78805,4.07012 2.43845,14.48832 2.70134,18.63274c-1.76343,1.08341 -8.81588,3.65986 -8.81588,3.65986z" fill="#64645a"/><path d="M229.87729,174.29447c0,0 -1.65103,-9.26048 -1.87583,-16.69135c-0.14987,-5.11606 0.67502,-8.62605 1.4256,-8.85023c1.87583,-0.56013 3.56369,7.46833 3.93898,9.48466c0.52516,2.65138 1.72534,11.16503 1.91329,13.85389c-1.16334,0.70937 -5.40205,2.20303 -5.40205,2.20303z" fill="#3c3c32"/></g><g><g fill="#64645a"><path d="M248.56311,145.04932l-0.22542,-0.14987c0,-0.14924 0.03747,-0.26102 0.03747,-0.37342c0,-0.33595 0.03747,-0.70937 0.03747,-1.04532c0,-0.26164 0,-0.26164 0.15049,-0.44835c0.18733,0.07493 0.2248,0.1124 0.2248,0.26164c0,0.29848 -0.03747,0.56013 -0.03747,0.85861c0,0.29911 -0.03747,0.44835 -0.07493,0.67252c-0.03747,0.03747 -0.07493,0.11178 -0.1124,0.22417z"/><path d="M247.9624,145.38527l-0.26227,-0.1124c0,-0.14924 -0.03747,-0.26102 -0.03747,-0.37342c-0.07493,-0.33595 -0.1124,-0.70937 -0.18796,-1.04532c-0.07493,-0.14924 -0.03747,-0.33595 0.03747,-0.48519c0.22542,0 0.26289,0.03684 0.30036,0.18671c0.03747,0.29848 0.1124,0.56013 0.14987,0.82114c0.03747,0.26164 0.07556,0.44835 0.07556,0.67252c0,0.14924 -0.03809,0.22355 -0.07556,0.33595z"/><path d="M248.86285,145.04932c0.03747,-0.22417 0.07493,-0.37342 0.18796,-0.67252c0.1124,-0.29848 0.18733,-0.56013 0.29973,-0.82114c0.03747,-0.14987 0.1124,-0.14987 0.30036,-0.14987c0.07493,0.14987 0.07493,0.33657 -0.03747,0.48582c-0.15049,0.29848 -0.26289,0.63443 -0.37529,0.97101c-0.03747,0.11178 -0.07493,0.26102 -0.1124,0.37342l-0.30036,0.07431c0,-0.11178 0,-0.22417 0.03747,-0.26102z"/></g><path d="M252.20861,185.60125c-1.46307,-2.46405 -9.529,-8.77529 -10.01668,-9.40973c-0.56262,-3.92088 0.82551,-32.26246 6.00214,-31.81473c4.38921,0.37342 4.23934,8.70036 4.61463,11.65023c0.52516,4.21998 0.03747,24.5331 -0.60009,29.57423z" fill="#64645a"/><path d="M244.40557,178.58127c0.52516,-7.01998 1.4256,-28.15487 3.63863,-30.09689c2.21365,-1.94202 2.85121,8.25263 2.92614,11.0901c0.07493,2.65138 -0.48769,12.06111 -1.08778,19.67869z" fill="#3c3c32"/></g><path d="M248.79728,202.1059c-4.20187,3.95834 -10.87904,3.47315 -15.45558,0.33657c-4.38921,-2.98733 -6.97815,-9.85808 -7.27788,-14.97414c-0.30036,-4.81695 -1.23827,-11.83694 1.6504,-16.01945c3.15156,-4.51784 5.25219,-5.78733 11.44166,-5.9372c4.12694,-0.14924 8.14086,1.38189 11.14193,4.18252c2.43845,2.31481 3.90152,5.97467 4.20125,9.26048c0.67565,7.43087 -1.8752,19.52944 -5.70179,23.15121z" fill="#64645a"/><g><path d="M234.89906,182.62828c0.03747,-0.14924 0,-0.29848 0.60071,-0.33595c1.83773,-0.18671 5.58939,-0.07493 6.90259,-0.1124c1.31258,-0.03684 2.77565,0.18671 2.77565,0.56013c0,0.37342 -0.45022,0.63506 -1.23765,0.63506c-1.4256,0.03747 -2.85121,0.03747 -4.23934,0c-1.16271,0 -2.28796,-0.03747 -3.41383,-0.11178c-0.41276,-0.03747 -1.538,-0.03747 -1.38814,-0.63506z" fill="#000000"/><path d="M242.62716,182.14309c0.67502,0 1.01285,0.03684 1.01285,0.03684c-0.2248,0.48582 -0.97538,1.94202 -1.20018,1.94202c-0.26289,0 -0.97538,-1.49367 -1.2008,-1.97886c0,0 1.2008,0 1.38814,0z" fill="#ffffff"/><path d="M244.54045,178.89411c-2.06316,2.16557 -7.61508,1.60544 -9.3785,0.14924c-1.50054,-1.23203 -1.16271,-3.77101 0.37529,-4.96619c1.538,-1.19518 3.97645,-0.97101 5.77672,-1.04532c1.83836,0.22355 3.03916,0.14924 3.75165,2.05379c0.52516,1.38127 0.26289,3.02418 -0.52516,3.80848z" fill="#f01446"/><path d="M243.11485,174.86146c0.97538,-0.07493 1.01285,1.23203 0.97538,1.82962c-0.03747,0.59759 -0.07493,1.60544 -0.93791,1.53113c-0.86298,-0.07493 -1.01285,-1.00847 -0.97538,-1.53113c0.03747,-0.52266 -0.07493,-1.79215 0.93791,-1.82962z" fill="#6e1e3c"/><path d="M236.47515,174.86146c0.97538,-0.07493 1.05031,1.23203 0.97538,1.82962c-0.07556,0.59759 -0.07556,1.60544 -0.93791,1.53113c-0.86298,-0.07493 -1.01285,-1.00847 -0.97538,-1.53113c0.03747,-0.52266 -0.03747,-1.79215 0.93791,-1.82962z" fill="#6e1e3c"/><path d="M229.98469,176.98956c-0.2248,0 -0.37467,-0.14924 -0.41213,-0.37342c-0.07556,-0.33595 -0.07556,-0.6719 -0.07556,-1.00785c0.03809,-0.33595 0.30036,-0.44835 0.60071,-0.56013c0.2248,0.33595 0.26227,0.7843 0.14987,1.15772c0,0.29848 0,0.59697 -0.26289,0.78368z" fill="#000000"/><path d="M249.94251,177.10196c-0.52516,-0.22417 -0.45022,-0.63506 -0.41276,-1.08278c0,-0.48582 0.07493,-0.52328 0.52516,-0.70999c0.48769,0.44835 0.52516,1.15772 0.07493,1.64291c-0.07493,0.03747 -0.1124,0.07493 -0.18733,0.14987z" fill="#000000"/><path d="M237.90013,182.14309h0.82551c-0.33782,0.59697 -0.90045,1.60544 -1.08778,1.60544c-0.18733,0 -0.71249,-0.93354 -1.01285,-1.5686c0.03747,0 1.23765,-0.03684 1.27511,-0.03684z" fill="#ffffff"/></g></g></g></svg>