<svg version="1.1" xmlns="http://www.w3.org/2000/svg" xmlns:xlink="http://www.w3.org/1999/xlink" width="63.77577" height="84.93452" viewBox="0,0,63.77577,84.93452"><g transform="translate(-205.98938,-134.93848)"><g data-paper-data="{&quot;isPaintingLayer&quot;:true}" stroke-linecap="butt" stroke-linejoin="miter" stroke-miterlimit="10" stroke-dasharray="" stroke-dashoffset="0" style="mix-blend-mode: normal"><g><path d="M246.38421,161.94745c4.75518,3.33049 12.48116,11.95424 17.76971,20.80184c5.28911,8.84713 5.60991,22.89842 4.7669,23.00056c-0.84273,0.10306 -1.38701,-0.84495 -3.42006,-3.32587c-2.0324,-2.48 -5.53087,-4.51157 -7.42531,-5.22789c-1.89407,-0.71631 -4.36142,-4.02362 -4.36142,-4.02362c0,0 -11.96837,-18.40864 -13.34559,-20.99918c-1.77403,-3.33511 -0.78179,-6.02029 -0.78179,-6.02029" fill="#3e5766" fill-rule="nonzero" stroke="none" stroke-width="1"/><path d="M246.38421,161.94745c4.75518,3.33049 12.48116,11.95424 17.76971,20.80184c5.28911,8.84713 5.60991,22.89842 4.7669,23.00056c-0.84273,0.10306 -1.38701,-0.84495 -3.42006,-3.32587c-2.0324,-2.48 -5.53087,-4.51157 -7.42531,-5.22789c-1.89407,-0.71631 -4.36142,-4.02362 -4.36142,-4.02362c0,0 -11.96837,-18.40864 -13.34559,-20.99918c-1.77403,-3.33511 -0.78179,-6.02029 -0.78179,-6.02029" fill="none" fill-rule="evenodd" stroke="#2e374a" stroke-width="0.5"/></g><g fill-rule="nonzero" stroke="none" stroke-width="1"><path d="M254.29931,138.37999c2.80727,3.51056 -1.33207,7.77603 -1.33207,7.77603c0,0 -1.56754,2.58213 0.00785,3.32402c-1.26835,12.354 -4.54749,37.98868 -4.59274,38.41946c-0.06464,0.6188 0.81494,23.96657 0.89897,24.4499c0.13898,0.80173 4.57935,2.92288 4.57935,2.92288c0.24702,1.98143 -0.86711,1.02733 -0.86711,1.02733c0.19485,1.08264 0.70505,1.13371 0.70505,1.13371c-0.93083,-0.11423 -1.68574,0.29153 -2.10914,0.29384c-0.38461,0.00092 -0.03371,-0.34814 -2.19225,1.89555h-30.08853c-0.23086,0 -2.63966,-10.29048 -1.6779,-22.43836c0.96177,-12.14789 5.50649,-23.85049 8.60094,-29.27849c3.59358,-6.30259 9.74878,-18.26099 10.24329,-19.683c0.49497,-1.42155 0.76646,-7.20276 3.28884,-10.0755c1.75269,-1.9963 4.87485,-2.95908 6.87549,-2.95908c2.0011,0 6.10072,1.24185 7.65996,3.19169" fill="#3e5766"/><path d="M253.44217,150.15112c0,0 1.66081,2.62526 2.80542,5.75434c2.48406,7.15677 3.45183,17.77636 0.97239,30.4869c-2.28644,11.72218 -3.82028,18.72852 -7.86912,24.69452c-0.55499,0.81799 2.85528,2.19124 2.85528,2.19124c-0.31905,0 -3.30962,-0.50272 -3.30962,-0.11562l0.97793,1.05429c-0.44741,0.34731 -1.86305,0.02881 -2.55563,-0.18377c-0.69258,-0.21267 -2.328,0.48324 -2.328,0.48324c-0.64733,0.04266 -6.6631,2.96554 -7.37738,2.51435c-1.34684,-0.85095 -4.06869,-1.75814 -4.06869,-1.75814c-9.30368,-1.43171 2.53947,-14.56888 4.15503,-18.01083c3.23205,-6.88657 6.54859,-7.71943 9.75202,-35.25048c0.85003,-7.30443 5.99037,-11.86005 5.99037,-11.86005" fill="#fbf8ea"/><path d="M247.9403,159.27658c1.20602,-8.59402 5.03507,-9.79643 5.03507,-9.79643l1.31729,2.07147c-2.95271,0.37741 -6.36714,7.8295 -6.35236,7.72497" fill="#f0c579"/></g><g><path d="M250.18149,145.74981c-0.09188,0.01302 4.1458,-2.24092 4.63753,-4.06213c0.37676,-1.39274 -0.96315,-2.93073 -0.5199,-3.30768c0.29596,-0.25164 0.75768,1.08726 1.8732,1.68288c1.19493,0.63782 2.86637,1.56681 5.73827,1.97303c2.87237,0.40622 5.30102,1.18986 6.25032,2.32117c0.94976,1.13186 1.36716,2.37925 1.36716,2.37925c0,0 -1.13445,-2.11829 -9.29953,-1.30538c-6.23785,0.31886 -6.80716,1.25717 -7.79247,1.84716c-0.98485,0.58962 0.38184,-1.90525 -2.25459,-1.5283" fill="#e3a066" fill-rule="nonzero" stroke="none" stroke-width="1"/><path d="M252.28048,145.54674c0,0 0.25755,-0.08865 0.71428,-0.20657c0.22948,-0.0567 0.50836,-0.12494 0.82824,-0.2038c0.16068,-0.03712 0.33161,-0.07665 0.51168,-0.11839c0.18044,-0.03999 0.37492,-0.04968 0.57438,-0.08219c1.603,-0.21775 3.75047,-0.44565 5.91142,-0.49118c1.07941,-0.02225 2.16215,0.00092 3.17433,0.08773c0.50651,0.04137 0.99446,0.10444 1.45571,0.17878c0.46126,0.07563 0.89389,0.17176 1.29014,0.2762c0.19623,0.05984 0.38868,0.10536 0.56275,0.17545c0.17315,0.07434 0.33244,0.15643 0.48342,0.22707c0.29559,0.1592 0.54945,0.30123 0.74023,0.44889c0.19983,0.13141 0.33373,0.26558 0.42617,0.35285c0.09271,0.08634 0.14212,0.13233 0.14212,0.13233c0,0 -0.05716,-0.03629 -0.16382,-0.105c-0.10536,-0.06963 -0.25958,-0.16945 -0.47151,-0.26872c-0.20316,-0.11331 -0.47049,-0.21175 -0.77283,-0.31942c-0.30889,-0.09151 -0.65703,-0.19457 -1.03703,-0.30686c-0.38369,-0.10167 -0.80478,-0.19503 -1.25588,-0.26928c-0.4511,-0.07286 -0.93046,-0.13464 -1.42903,-0.17499c-0.99686,-0.08588 -2.06713,-0.10869 -3.13749,-0.0869c-2.14193,0.04506 -4.27877,0.27158 -5.87208,0.48795c-0.19946,0.02373 -0.38794,0.0664 -0.57115,0.08034c-0.1833,0.01302 -0.35737,0.02549 -0.52091,0.03758c-0.3269,0.02789 -0.61169,0.05245 -0.84634,0.0724c-0.23455,0.02235 -0.41924,0.03952 -0.54474,0.05153c-0.12374,0.01164 -0.19208,0.02419 -0.19208,0.02419" fill="#8d6a4a" fill-rule="nonzero" stroke="none" stroke-width="1"/><path d="M250.18149,145.74981c-0.09188,0.01302 4.1458,-2.24092 4.63753,-4.06213c0.37676,-1.39274 -0.96315,-2.93073 -0.5199,-3.30768c0.29596,-0.25164 0.75768,1.08726 1.8732,1.68288c1.19493,0.63782 2.86637,1.56681 5.73827,1.97303c2.87237,0.40622 5.30102,1.18986 6.25032,2.32117c0.94976,1.13186 1.36716,2.37925 1.36716,2.37925c0,0 -1.13445,-2.11829 -9.29953,-1.30538c-6.23785,0.31886 -6.80716,1.25717 -7.79247,1.84716c-0.98485,0.58962 0.38184,-1.90525 -2.25459,-1.5283z" fill="none" fill-rule="evenodd" stroke="#8d6a4a" stroke-width="0.5"/></g><g><path d="M247.56012,140.45866c0.13575,-0.6091 1.07359,-1.16058 2.42404,-1.10259c1.78834,0.14489 1.97349,1.05891 1.92907,1.42155c-0.05356,0.43919 -0.24,1.07378 -2.30353,1.07378c-1.76184,0 -2.17138,-0.84541 -2.04958,-1.39274" fill="#e2e3e4" fill-rule="nonzero" stroke="none" stroke-width="1"/><path d="M249.97049,141.83275c0,0 -0.66174,-0.43494 -0.43088,-1.26225c0.23003,-0.82454 1.09622,-1.00646 1.41204,-0.97728c0.31628,0.02881 0.54391,0.30224 0.54391,0.30224c0,0 0.62933,0.51537 0.39708,1.08126c-0.23225,0.56589 -1.1146,0.81799 -1.1146,0.81799c0,0 -0.70006,0.09613 -0.80755,0.03805" fill="#2e374a" fill-rule="nonzero" stroke="none" stroke-width="1"/><path d="M247.55615,140.4981c0.13575,-0.6091 1.07341,-1.16068 2.42404,-1.10259c1.78815,0.1448 1.97294,1.05891 1.92907,1.42155c-0.05356,0.4391 -0.2401,1.07378 -2.30362,1.07378c-1.7623,0 -2.17148,-0.84541 -2.04949,-1.39274z" fill="none" fill-rule="evenodd" stroke="#2e374a" stroke-width="0.5"/></g><path d="M253.86058,215.27248c0.08773,0.81429 2.07775,1.72 2.07775,1.72c-1.23418,-0.15505 -2.9444,-0.69267 -2.9444,-0.69267c0.19438,1.08264 0.94376,1.234 0.94376,1.234c-0.93083,-0.11423 -1.82842,0.69406 -2.25181,0.69683c0,0 -0.13021,-0.85188 -2.28875,1.39227h-30.08853c-0.23086,0 -2.63966,-10.29048 -1.6779,-22.43882c0.96177,-12.14743 5.50649,-23.85049 8.60141,-29.27803c3.59312,-6.30259 9.74832,-18.26145 10.24329,-19.683c0.4945,-1.42201 0.766,-7.20322 3.28838,-10.0755c1.75269,-1.9963 4.87485,-2.95908 6.87549,-2.95908c2.0011,0 6.17737,1.17961 7.65996,3.19169" fill="none" fill-rule="evenodd" stroke="#2e374a" stroke-width="0.5"/><g><path d="M248.01805,219.623c3.15032,-2.90155 5.61176,-4.35052 5.61176,-4.35052c6.4641,2.45497 7.19131,4.35052 7.19131,4.35052h-12.80307" fill="#e3a066" fill-rule="nonzero" stroke="none" stroke-width="1"/><path d="M253.84849,215.27248c0,0 -2.70116,-0.96841 -4.02806,-2.24184" fill="none" fill-rule="evenodd" stroke="#2e374a" stroke-width="0.5"/><path d="M253.86067,215.27248c4.50178,1.3714 6.96045,4.35052 6.96045,4.35052h-13.04363" fill="none" fill-rule="evenodd" stroke="#8d6a4a" stroke-width="0.5"/></g><path d="M252.43617,147.27792c0,0 -0.51066,0.91033 -0.03832,1.47021c0.58786,0.69637 9.57481,11.03791 5.04024,36.44366c-3.71455,20.81301 -7.60871,25.03952 -8.08751,25.89509c-0.31859,0.56967 1.09659,1.26272 2.85575,2.19124c0,0 -3.43068,-0.4921 -3.31008,-0.11562c0,0 0.38083,0.41038 0.97839,1.05383c-2.02003,-0.0459 -1.99796,-0.00092 -2.93932,-0.22098c0,0 -1.33484,0.19503 -3.57188,1.11977c-2.23759,0.92483 -4.72941,2.01209 -5.72996,2.065" fill="none" fill-rule="evenodd" stroke="#d1c1b5" stroke-width="0.5"/><g><path d="M227.93318,219.623c3.15032,-2.90155 5.61176,-4.35052 5.61176,-4.35052c6.4641,2.45497 7.19131,4.35052 7.19131,4.35052h-12.80307" fill="#e3a066" fill-rule="nonzero" stroke="none" stroke-width="1"/><path d="M232.69768,215.27248c5.00183,0.94616 8.03857,4.35052 8.03857,4.35052h-13.04363" fill="none" fill-rule="evenodd" stroke="#8d6a4a" stroke-width="0.5"/></g><g><path d="M244.30194,161.53273c-2.26197,5.41821 -9.07199,14.91665 -16.60682,22.0567c-7.53474,7.142 -21.17999,10.50305 -21.45573,9.69255c-0.27519,-0.81014 0.53652,-1.55295 2.53439,-4.09787c1.99888,-2.54547 3.25421,-6.44046 3.55996,-8.46649c0.30464,-2.0264 3.01864,-5.18005 3.01864,-5.18005c0,0 15.47699,-15.80888 17.71856,-17.72991c2.88677,-2.47492 5.71288,-2.07701 5.71288,-2.07701" fill="#3e5766" fill-rule="nonzero" stroke="none" stroke-width="1"/><path d="M244.30194,161.53273c-2.26197,5.41821 -9.07199,14.91665 -16.60682,22.0567c-7.53474,7.142 -21.17999,10.50305 -21.45573,9.69255c-0.27519,-0.81014 0.53652,-1.55295 2.53439,-4.09787c1.99888,-2.54547 3.25421,-6.44046 3.55996,-8.46649c0.30464,-2.0264 3.01864,-5.18005 3.01864,-5.18005c0,0 15.47699,-15.80888 17.71856,-17.72991c2.88677,-2.47492 5.71288,-2.07701 5.71288,-2.07701" fill="none" fill-rule="evenodd" stroke="#2e374a" stroke-width="0.5"/></g></g></g></svg>