<svg version="1.1" xmlns="http://www.w3.org/2000/svg" xmlns:xlink="http://www.w3.org/1999/xlink" width="93.51701" height="51.97613" viewBox="0,0,93.51701,51.97613"><g transform="translate(-193.9,-150.4738)"><g data-paper-data="{&quot;isPaintingLayer&quot;:true}" fill-rule="nonzero" stroke="none" stroke-width="1" stroke-linecap="butt" stroke-linejoin="miter" stroke-miterlimit="10" stroke-dasharray="" stroke-dashoffset="0" style="mix-blend-mode: normal"><g><g><path d="M238.04001,190.37394c5.60268,3.25561 12.18961,4.61842 18.32227,5.98124c-2.72563,3.93702 -9.69112,4.61842 -14.0824,5.07269c-7.19263,0.75712 -15.44522,-1.51424 -20.4422,-6.66264c-1.51424,-1.51424 -4.39129,-4.92127 -2.80134,-7.34405c1.13568,-1.66566 4.54271,-1.21139 5.98124,-2.04422z" fill="#86d0fd"/><path d="M225.01757,185.37696l10.52395,4.01273c0,0 4.84556,2.19564 5.52696,2.49849c0,0 1.13568,0.52998 1.74137,0.75712h0.07571c2.49849,0.98425 5.07269,1.74137 7.6469,2.34707v0c1.96851,0.52998 3.93702,0.90854 5.90552,1.36281c-0.15142,0.22714 -1.13568,1.2871 -1.13568,1.2871c-1.81708,0.07571 -3.78559,0.15142 -5.67839,0.07571c-0.45427,0.45427 -2.34707,2.49849 -2.87705,3.10419c-0.52998,0.07571 -1.13568,0.15142 -1.66566,0.22714c1.13568,-1.05997 2.27136,-2.34707 3.1799,-3.40703c-0.60569,-0.07571 -1.2871,-0.07571 -1.8928,-0.15142c-1.2871,-0.15142 -2.80134,-0.22714 -4.39129,-0.37856c-0.07571,0.07571 -3.33132,3.10419 -5.07269,4.23986c-0.60569,-0.07571 -1.21139,-0.15142 -1.74137,-0.22714c1.36281,-0.75712 2.5742,-1.8928 3.70988,-2.80134c0.60569,-0.45427 1.13568,-0.90854 1.66566,-1.36281c-1.66566,-0.22714 -3.25561,-0.60569 -4.467,-1.2871c-0.07571,0 -0.07571,0 -0.07571,0c-0.07571,0.07571 -3.78559,2.95276 -5.90552,4.16415c-0.52998,-0.15142 -0.98425,-0.30285 -1.43853,-0.52998c0.90854,-0.52998 1.74137,-1.13568 2.5742,-1.66566c1.21139,-0.83283 2.42278,-1.66566 3.63417,-2.49849c-1.58995,-0.90854 -3.02847,-1.66566 -4.467,-2.42278c-0.68141,0.45427 -1.36281,0.83283 -2.11993,1.2871c-1.43853,0.83283 -2.95276,1.74137 -4.54271,2.34707c-0.30285,-0.22714 -0.60569,-0.45427 -0.90854,-0.75712c2.27136,-0.68141 4.467,-2.11993 6.3598,-3.33132c0.07571,0 0.07571,-0.07571 0.15142,-0.07571c-1.36281,-0.75712 -2.72563,-1.51424 -4.23986,-2.42278c-0.15142,0.07571 -3.78559,1.66566 -5.52696,2.11993c-0.22714,-0.30285 -0.37856,-0.68141 -0.52998,-0.98425c1.66566,-0.37856 3.33132,-1.05997 4.92127,-1.81708c-0.15142,-0.15142 -2.34707,-1.8928 -3.25561,-2.72563c0.15142,-0.07571 0.37856,-0.07571 0.52998,-0.15142c0,0 3.63417,-0.75712 3.78559,-0.83283z" fill="#194ec2" opacity="0.2"/></g><g><path d="M218.73349,174.17161c-4.61842,1.05997 0.22714,-6.58693 0.83283,-7.79832c1.58995,-3.1799 3.10419,-7.34405 5.90552,-9.6154c3.1799,-2.5742 8.02546,-3.48274 11.88676,-4.39129c5.29983,-1.36281 11.5082,-2.34707 17.03517,-1.66566c3.33132,0.37856 6.88978,1.36281 9.99396,2.64991c1.21139,0.52998 7.26834,4.31558 6.96549,6.20837c-0.30285,2.04422 -6.66264,0.07571 -7.79832,0.15142c-5.90552,0.37856 -12.1139,0.45427 -17.71657,2.5742c-4.69413,1.81708 -8.3283,4.99698 -12.49245,7.72261c-2.87705,1.81708 -5.60268,2.95276 -8.70686,4.23986h-5.90552z" fill="#d8d213"/><g fill="#194ec2" opacity="0.2"><path d="M271.35322,159.18066c0,0.15142 0,0.22714 0.15142,0.52998c-0.30285,2.04422 -6.66264,0.07571 -7.79832,0.15142c-5.90552,0.37856 -12.1139,0.45427 -17.71657,2.5742c-4.69413,1.81708 -8.3283,5.07269 -12.49245,7.72261c-2.87705,1.8928 -5.60268,2.95276 -8.70686,4.23986h-5.98124c-0.15142,0 -0.30285,0.07571 -0.45427,0.07571v0c-0.15142,0 -0.30285,0 -0.37856,0c0.90854,-0.52998 1.81708,-1.13568 2.49849,-1.66566c1.36281,-0.98425 2.49849,-2.27136 3.63417,-3.63417c-1.58995,-0.75712 -3.33132,-1.2871 -4.99698,-1.66566c0.22714,-0.45427 0.45427,-0.83283 0.52998,-0.98425c1.74137,0.45427 3.48274,0.98425 5.14841,1.74137c0.60569,-0.83283 1.21139,-1.58995 1.8928,-2.34707c0.45427,-0.52998 0.90854,-1.05997 1.43853,-1.51424c-1.43853,-1.05997 -2.80134,-1.96851 -4.31558,-2.87705c-0.45427,-0.22714 -0.98425,-0.52998 -1.43853,-0.75712c0.15142,-0.30285 0.37856,-0.60569 0.52998,-0.90854c0.52998,0.22714 0.98425,0.45427 1.43853,0.75712c1.58995,0.90854 3.02847,1.96851 4.54271,3.02847c0.83283,-0.68141 1.74137,-1.36281 2.64991,-1.96851c-0.90854,-1.21139 -1.81708,-2.34707 -2.80134,-3.48274c-0.60569,-0.75712 -1.2871,-1.51424 -1.96851,-2.27136c0.30285,-0.22714 0.60569,-0.37856 0.90854,-0.52998c0.45427,0.52998 0.83283,1.05997 1.2871,1.51424c1.21139,1.36281 2.34707,2.72563 3.40703,4.16415c0.52998,-0.30285 1.13568,-0.60569 1.66566,-0.90854c0.90854,-0.37856 1.81708,-0.83283 2.72563,-1.2871c-1.05997,-1.8928 -2.19564,-3.78559 -3.55846,-5.45125v0c0.37856,-0.15142 0.75712,-0.22714 1.13568,-0.30285c0.07571,0.22714 0.22714,0.37856 0.37856,0.52998c1.13568,1.51424 2.11993,3.10419 3.02847,4.76985c1.66566,-0.83283 3.48274,-1.51424 5.14841,-1.96851c0.22714,-0.07571 0.37856,-0.07571 0.60569,-0.15142c-0.90854,-1.51424 -1.8928,-3.02847 -3.02847,-4.467c0,-0.07571 -0.07571,-0.07571 -0.07571,-0.15142c0.37856,-0.07571 0.75712,-0.15142 1.13568,-0.22714c0.15142,0.15142 0.30285,0.30285 0.45427,0.52998c0.98425,1.2871 1.8928,2.64991 2.64991,4.01273c2.19564,-0.52998 4.31558,-0.90854 6.51122,-1.05997c-0.98425,-1.51424 -1.96851,-2.95276 -3.10419,-4.31558l-0.07571,-0.07571c0.45427,0 0.83283,-0.07571 1.2871,-0.07571c1.13568,1.36281 2.11993,2.87705 3.10419,4.39129c1.36281,-0.07571 2.64991,-0.07571 4.01273,0c-0.60569,-1.58995 -1.13568,-2.87705 -1.96851,-4.23986c0.45427,0 0.90854,0.07571 1.36281,0.15142c0.68141,1.2871 1.13568,2.5742 1.74137,4.16415c1.43853,0.15142 2.95276,0.37856 4.467,0.68141c0.83283,0.15142 1.74137,0.37856 2.5742,0.60569c-0.52998,-1.2871 -0.90854,-2.42278 -1.36281,-3.40703c0.37856,0.15142 0.75712,0.30285 1.13568,0.45427c0,0 0.07571,0.07571 0.15142,0.07571c0.37856,0.90854 0.75712,1.96851 1.2871,3.1799c1.81708,0.52998 3.55846,1.05997 5.22412,1.81708c0.15142,0.15142 0.22714,0.37856 0.30285,0.52998c0,0.07571 0,0.07571 0,0.07571c0.07571,0.07571 0.07571,0.15142 0.07571,0.22714c0,0.07571 0,0.07571 0,0z"/></g></g><g fill="#86d0fd"><path d="M272.26176,191.3582c0,1.21139 -3.48274,5.52696 -4.61842,6.88978c-0.90854,1.05997 -7.49547,6.13266 -7.72261,3.40703c-0.37856,-5.52696 6.3598,-8.55544 5.90552,-10.29681z"/></g></g><path d="M193.9,167.58468c1.05997,-0.83283 3.55846,-0.52998 4.76985,-0.37856c3.1799,0.45427 6.28408,3.02847 8.934,4.69413c2.04422,1.2871 5.22412,3.1799 7.79832,3.10419c1.66566,-0.07571 3.70988,-1.43853 4.99698,-2.42278c2.42278,-1.81708 4.31558,-4.54271 6.28408,-6.81407c2.04422,-2.34707 4.69413,-4.31558 7.49547,-5.67839c2.72563,-1.36281 5.90552,-2.95276 8.78257,-3.70988c6.3598,-1.58995 12.56817,-2.19564 19.00367,-0.75712c5.07269,1.13568 9.76683,2.49849 14.00669,5.60268c4.08844,3.02847 5.07269,6.66264 6.81407,11.12964c0.52998,1.2871 1.05997,2.49849 1.8928,3.63417c0.60569,0.83283 1.36281,1.21139 2.04422,1.81708c0.52998,0.52998 1.13568,1.43853 0.22714,1.96851c-0.75712,0.45427 -1.8928,-0.52998 -2.5742,-0.07571c-1.2871,0.83283 1.81708,2.11993 1.81708,2.11993c-0.07571,1.58995 -2.64991,1.81708 -3.02847,2.11993c-2.11993,1.74137 -5.37554,6.88978 -11.65962,9.31256c-6.28408,2.49849 -11.28107,4.01273 -14.23383,4.16415c-3.48274,0.22714 -7.57118,0.37856 -11.05393,0c-3.02847,-0.30285 -7.72261,-0.30285 -10.29681,-1.81708c-4.69413,-2.64991 -7.94974,-4.01273 -12.41674,-7.0412c-2.64991,-1.74137 -4.61842,-5.07269 -7.87403,-5.22412c-3.93702,-0.15142 -6.66264,3.02847 -9.16113,5.67839c-1.43853,1.51424 -3.40703,4.23986 -5.60268,4.84556c-2.04422,0.60569 -1.58995,-1.21139 -1.2871,-2.64991c0.52998,-2.34707 1.05997,-4.39129 0.75712,-6.73835c-0.15142,-1.21139 -0.37856,-2.49849 -0.52998,-3.70988c-0.45427,-3.40703 -1.13568,-8.02546 -3.63417,-10.44823z" fill="#194ec2"/><g><path d="M286.19274,181.89422c-0.15142,1.58995 -2.72563,1.81708 -3.02847,2.11993c-1.13568,0.90854 -2.5742,2.72563 -4.54271,4.61842c-2.80134,-0.60569 -5.7541,-1.81708 -8.25259,-2.64991c-4.69413,-1.58995 -7.79832,-5.37554 -6.58693,-10.44823c1.2871,-5.22412 1.2871,-19.76079 10.29681,-14.91523l12.7953,19.30652c-0.68141,0.45427 -1.81708,-0.52998 -2.49849,-0.07571c-1.2871,0.83283 1.81708,2.04422 1.81708,2.04422z" fill="#86d0fd"/><path d="M268.85473,175.53442c-0.45427,0.68141 -0.83283,1.43853 -1.2871,2.11993c-0.45427,0.83283 -0.60569,1.81708 -1.05997,2.5742c-0.90854,1.36281 -3.10419,0.90854 -4.54271,1.2871c-2.04422,0.52998 -3.48274,0.68141 -4.84556,-0.98425c-1.81708,-2.19564 -3.78559,-4.84556 -5.07269,-7.41976c-1.51424,-3.02847 -0.68141,-5.7541 3.10419,-5.29983c2.64991,0.30285 5.37554,1.66566 7.6469,3.10419c1.81708,1.13568 4.39129,2.42278 5.90552,4.01273c0.07571,0.07571 0.15142,0.15142 0.15142,0.22714c0.07571,0.07571 0.07571,0.22714 0,0.37856zM267.4162,175.83727c-4.54271,-2.87705 -9.91825,-3.55846 -15.14237,-4.84556c0.22714,1.13568 1.05997,2.49849 1.81708,3.48274c2.27136,0.15142 4.467,0.37856 6.66264,0.60569c2.19564,0.15142 4.467,0.30285 6.66264,0.75712zM252.65239,169.25034c-0.15142,0.15142 -0.22714,0.37856 -0.30285,0.60569c3.93702,1.05997 7.94974,1.66566 11.73534,3.10419c-0.07571,0 -0.07571,-0.07571 -0.15142,-0.07571c-1.81708,-1.2871 -3.70988,-2.34707 -5.82981,-3.1799c-1.2871,-0.52998 -4.39129,-1.74137 -5.45125,-0.45427zM254.92375,175.53442c0.68141,0.98425 1.43853,2.34707 2.34707,3.48274c2.95276,-0.15142 5.98124,-0.45427 8.934,-0.90854c0.07571,-0.22714 0.22714,-0.37856 0.37856,-0.68141c0.07571,-0.22714 0.22714,-0.37856 0.30285,-0.60569c-2.27136,-0.37856 -4.54271,-0.52998 -6.81407,-0.75712c-1.74137,-0.22714 -3.40703,-0.37856 -5.14841,-0.52998c0,0.07571 0,0.07571 0,0zM265.59912,179.2443c-2.49849,0.37856 -5.07269,0.60569 -7.57118,0.75712c0.15142,0.07571 0.22714,0.15142 0.30285,0.22714c1.51424,1.2871 4.16415,0.07571 5.90552,-0.22714c0.90854,-0.15142 1.13568,-0.22714 1.36281,-0.75712z" fill="#86d0fd"/><path d="M286.72272,177.88149c0.52998,0.52998 1.13568,1.43853 0.22714,1.96851c-0.75712,0.45427 -1.8928,-0.52998 -2.5742,-0.07571c-1.2871,0.83283 1.81708,2.11993 1.81708,2.11993c-0.07571,1.36281 -1.96851,1.74137 -2.72563,1.96851c-3.78559,0.52998 -8.47973,-0.52998 -11.65962,-1.58995c-4.08844,-1.36281 -6.81407,-4.69413 -5.7541,-9.08542c0.98425,-4.16415 1.05997,-15.14237 7.19263,-13.62813c0.90854,0.52998 1.81708,1.05997 2.72563,1.74137c4.16415,2.95276 5.07269,6.58693 6.81407,11.12964c0.52998,1.2871 1.05997,2.49849 1.8928,3.63417c0.60569,0.83283 1.36281,1.21139 2.04422,1.81708z" fill="#06134a"/><g><path d="M274.00313,165.1619c4.76985,-0.07571 4.99698,5.29983 0.98425,5.52696c-4.01273,0.22714 -4.99698,-5.52696 -0.98425,-5.52696z" fill="#ffffff"/><path d="M274.83596,169.25034c-0.68141,0.07571 -1.13568,-0.22714 -1.43853,-0.68141c1.05997,-0.22714 1.05997,-1.36281 0,-1.8928c0.15142,-0.22714 0.45427,-0.30285 0.90854,-0.22714c2.34707,0.45427 2.49849,2.72563 0.52998,2.80134z" fill="#06134a"/></g></g><g><path d="M198.66985,167.13041c0.45427,0.07571 0.83283,0.15142 1.2871,0.30285c2.49849,5.14841 4.54271,11.12964 4.92127,16.65661c0.07571,1.51424 0.68141,3.55846 0.98425,5.67839c-1.36281,1.51424 -3.10419,3.63417 -4.99698,4.16415c-2.11993,0.60569 -1.66566,-1.21139 -1.2871,-2.64991c0.60569,-2.27136 1.05997,-4.31558 0.75712,-6.73835c-0.15142,-1.21139 -0.37856,-2.49849 -0.52998,-3.70988c-0.45427,-3.40703 -1.13568,-8.02546 -3.63417,-10.44823l-2.27136,-2.80134c1.05997,-0.75712 3.55846,-0.45427 4.76985,-0.45427z" fill="#06134a"/><path d="M213.66079,183.78701c-2.87705,0.75712 -5.07269,3.25561 -7.11691,5.45125c-0.52998,0.60569 -1.21139,1.36281 -1.8928,2.11993c0,-0.15142 0,-0.30285 0,-0.45427c-0.15142,-1.58995 -2.04422,-1.43853 -2.11993,-3.02847c-0.07571,-1.58995 2.11993,-3.1799 1.36281,-4.84556c-0.37856,-0.83283 -0.98425,-0.75712 -0.98425,-1.8928c0,-0.52998 0.98425,-0.83283 0.98425,-1.21139c0,-1.2871 -1.66566,-1.96851 -1.96851,-3.1799c-0.22714,-1.21139 0.90854,-1.96851 0.15142,-3.55846c-0.45427,-1.13568 -1.74137,-1.66566 -1.96851,-2.80134c0.22714,-0.07571 0.45427,-0.22714 0.75712,-0.30285c-0.52998,-0.75712 -2.04422,-1.8928 -2.49849,-2.87705c0.15142,0.07571 0.22714,0.07571 0.37856,0.07571c3.1799,0.45427 6.28408,3.02847 8.934,4.69413c1.43853,0.90854 3.40703,2.11993 5.37554,2.72563c0.60569,3.25561 0.68141,7.0412 0.60569,9.08542z" fill="#194ec2"/><path d="M214.56933,183.48417v0.07571c-1.2871,0.15142 -2.34707,0.60569 -3.40703,1.2871c-3.78559,1.58995 -7.49547,3.48274 -11.28107,4.99698c0.07571,-0.37856 0.15142,-0.83283 0.22714,-1.21139c4.16415,-1.66566 8.17688,-3.78559 12.34103,-5.45125c0,-0.52998 0,-1.13568 0,-1.66566c-4.23986,0 -8.55544,-0.15142 -12.71959,-0.90854c-0.07571,-0.37856 -0.07571,-0.75712 -0.15142,-1.13568c4.23986,0.83283 8.55544,0.98425 12.87101,0.98425c0,-0.60569 0,-1.21139 -0.07571,-1.81708c-4.54271,-0.83283 -9.16113,-1.51424 -13.47671,-2.95276c-0.15142,-0.45427 -0.22714,-0.90854 -0.37856,-1.2871c4.39129,1.58995 9.08542,2.34707 13.77956,3.10419c-0.07571,-0.22714 -0.07571,-0.52998 -0.07571,-0.75712c-3.33132,-0.98425 -6.43551,-2.42278 -9.6154,-3.93702c-2.04422,-0.98425 -4.16415,-1.58995 -6.28408,-2.34707c-0.07571,0 -0.07571,-0.07571 -0.15142,-0.15142l-1.13568,-1.36281c2.42278,0.98425 4.99698,1.66566 7.41976,2.72563c3.33132,1.51424 6.3598,2.95276 9.69112,4.01273c0,-0.45427 -0.07571,-0.90854 -0.07571,-1.36281c0.68141,0.30285 1.43853,0.45427 2.11993,0.60569c0,0 1.51424,6.13266 0.37856,8.55544z" fill="#86d0fd"/></g></g></g></svg>