<svg version="1.1" xmlns="http://www.w3.org/2000/svg" xmlns:xlink="http://www.w3.org/1999/xlink" width="50.7465" height="88.51778" viewBox="0,0,50.7465,88.51778"><g transform="translate(-211.99409,-130.99045)"><g data-paper-data="{&quot;isPaintingLayer&quot;:true}" stroke-linecap="butt" stroke-linejoin="miter" stroke-miterlimit="10" stroke-dasharray="" stroke-dashoffset="0" style="mix-blend-mode: normal"><g><path d="M230.71078,198.76799c6.00529,-4.80802 13.19187,-5.73987 14.86518,3.23785c1.6734,8.97781 -9.69686,14.12899 -9.69686,14.12899c0,0 7.91489,-1.28689 9.53921,-1.58133c1.62432,-0.29435 5.32597,-1.16561 6.06434,0.84541c0.73828,2.01101 -1.32897,3.53229 -1.32897,3.53229c0,0 -22.93717,0.73583 -26.13684,0" fill="#d9e2f3" fill-rule="nonzero" stroke="none" stroke-width="1"/><path d="M230.71078,198.76799c6.00529,-4.80802 13.19187,-5.73987 14.86518,3.23785c1.6734,8.97781 -9.69686,14.12899 -9.69686,14.12899c0,0 7.91489,-1.28689 9.53921,-1.58133c1.62432,-0.29435 5.32597,-1.16561 6.06434,0.84541c0.73828,2.01101 -1.32897,3.53229 -1.32897,3.53229c0,0 -22.93717,0.73583 -26.13684,0" fill="none" fill-rule="evenodd" stroke="#738cb5" stroke-width="0.5"/><path d="M248.3355,215.42993c-0.00708,-0.00118 0.07266,0.01823 0.18196,0.06477c0.11039,0.04535 0.26342,0.11656 0.43059,0.22958c0.17008,0.10831 0.35023,0.26614 0.50561,0.46452c0.07973,0.09833 0.14822,0.20899 0.20373,0.32846c0.06495,0.1142 0.09334,0.24791 0.13525,0.37091c0.01542,0.13008 0.05261,0.25789 0.04726,0.38506c-0.00644,0.12717 0.01007,0.25253 -0.01714,0.36909c-0.02712,0.23784 -0.08799,0.44919 -0.14704,0.62698c-0.05134,0.18015 -0.13053,0.3173 -0.16836,0.41853c-0.04309,0.09896 -0.06794,0.15602 -0.06794,0.15602c0,0 0.01832,-0.05941 0.05025,-0.16309c0.02658,-0.10477 0.08862,-0.24718 0.11928,-0.42969c0.03783,-0.18078 0.07384,-0.39095 0.07384,-0.61755c0.01415,-0.11248 -0.01596,-0.22786 -0.02241,-0.34388c-0.00771,-0.11656 -0.05615,-0.22723 -0.08091,-0.33961c-0.05025,-0.10486 -0.08508,-0.21552 -0.15239,-0.30678c-0.05851,-0.09715 -0.12645,-0.18251 -0.20319,-0.25779c-0.14885,-0.15076 -0.31313,-0.26614 -0.4667,-0.34088c-0.31068,-0.1601 -0.52448,-0.18541 -0.52502,-0.18541zM243.12165,215.42594c-0.00771,0 0.07502,0.01234 0.18958,0.05062c0.11574,0.04064 0.27993,0.09896 0.45536,0.22432c0.08572,0.06059 0.1796,0.13479 0.2558,0.2343c0.08391,0.09298 0.14232,0.21489 0.19312,0.3397c0.03429,0.13243 0.06204,0.26723 0.04907,0.40266c0.00943,0.13833 -0.04372,0.26315 -0.06622,0.39386c-0.04073,0.12418 -0.09624,0.24074 -0.14232,0.35794c-0.06259,0.10831 -0.12345,0.21489 -0.18305,0.31784c-0.05443,0.1054 -0.1318,0.19076 -0.19257,0.27911c-0.0644,0.08536 -0.12463,0.16718 -0.18078,0.24192c-0.24627,0.2802 -0.41046,0.46688 -0.41046,0.46688c0,0 0.14169,-0.2031 0.3544,-0.50688c0.04662,-0.07946 0.09679,-0.166 0.15003,-0.25789c0.05016,-0.09243 0.11574,-0.18305 0.15647,-0.29018c0.04545,-0.10422 0.09216,-0.21135 0.13942,-0.32093c0.03066,-0.11302 0.0703,-0.22659 0.09334,-0.34025c0.00526,-0.11475 0.04191,-0.23013 0.01887,-0.33671c-0.00054,-0.11066 -0.03665,-0.20727 -0.06912,-0.29852c-0.04844,-0.08354 -0.09452,-0.16246 -0.16246,-0.22069c-0.0596,-0.06304 -0.13407,-0.10949 -0.20319,-0.14722c-0.13761,-0.07828 -0.27521,-0.11066 -0.36674,-0.13126c-0.09397,-0.02059 -0.13588,-0.01941 -0.14296,-0.02177zM245.07162,214.83833c-0.00771,0 0.08917,0.01297 0.22741,0.0595c0.13878,0.04708 0.33843,0.11593 0.54806,0.26369c0.10395,0.07248 0.21625,0.16019 0.30777,0.27793c0.10159,0.11066 0.17189,0.25544 0.2333,0.40384c0.04191,0.1572 0.07737,0.31793 0.06259,0.48157c0.01297,0.16654 -0.04962,0.31848 -0.07502,0.47686c-0.0478,0.1513 -0.11457,0.29372 -0.17008,0.4374c-0.06966,0.13597 -0.14831,0.26369 -0.21852,0.38969c-0.06622,0.12953 -0.15892,0.23548 -0.23276,0.34379c-0.07737,0.10658 -0.15058,0.20673 -0.21797,0.29907c-0.29825,0.34678 -0.49736,0.577 -0.49736,0.577c0,0 0.17661,-0.24673 0.4413,-0.617c0.05842,-0.09715 0.12101,-0.20246 0.18777,-0.3144c0.06268,-0.11302 0.14414,-0.22423 0.19611,-0.35558c0.05669,-0.12708 0.11574,-0.25843 0.17607,-0.39259c0.03891,-0.1396 0.08917,-0.27911 0.11983,-0.4198c0.00835,-0.14241 0.05497,-0.28492 0.02785,-0.41971c0.00118,-0.13833 -0.042,-0.26079 -0.08218,-0.37735c-0.0596,-0.10776 -0.11747,-0.20963 -0.20319,-0.28501c-0.07438,-0.08182 -0.16826,-0.14123 -0.25453,-0.19067c-0.17371,-0.10132 -0.34551,-0.14368 -0.46017,-0.17135c-0.1181,-0.02712 -0.17362,-0.02767 -0.18069,-0.03002z" fill="#738cb5" fill-rule="nonzero" stroke="none" stroke-width="1"/></g><g><path d="M247.1386,162.51476c0,0 -4.44237,-5.53142 -7.16654,-14.91189c-2.72408,-9.38101 0.30242,-14.85837 1.16896,-16.21057c0,0 11.56809,12.0396 7.8611,30.07995" fill="#fffef9" fill-rule="nonzero" stroke="none" stroke-width="1"/><path d="M247.1386,162.51476c0,0 -4.44237,-5.53142 -7.16654,-14.91189c-2.72408,-9.38101 0.30242,-14.85837 1.16896,-16.21057c0,0 11.56809,12.0396 7.8611,30.07995" fill="none" fill-rule="evenodd" stroke="#738cb5" stroke-width="0.5"/></g><g><path d="M256.16703,186.94491c-0.07384,2.86994 -3.22443,9.79428 -3.22443,9.79428l5.43935,19.4203c0,0 1.84583,-0.88305 3.34734,-0.14722c1.50087,0.73592 0.31948,2.99239 0.31948,2.99239h-6.69395l-8.81091,-20.77604c0,0 1.32897,-2.15878 0.91081,-4.63604" fill="#d9e2f3" fill-rule="nonzero" stroke="none" stroke-width="1"/><path d="M256.16703,186.94491c-0.07384,2.86994 -3.22443,9.79428 -3.22443,9.79428l5.43935,19.4203c0,0 1.84583,-0.88305 3.34734,-0.14722c1.50087,0.73592 0.31948,2.99239 0.31948,2.99239h-6.69395l-8.81091,-20.77604c0,0 1.32897,-2.15878 0.91081,-4.63604" fill="none" fill-rule="evenodd" stroke="#738cb5" stroke-width="0.5"/><path d="M259.82658,216.71836c-0.00762,-0.0059 0.10395,0.13071 0.21144,0.33907c0.06204,0.10069 0.1093,0.2314 0.17071,0.36265c0.04436,0.14015 0.10223,0.28437 0.13171,0.43622c0.0225,0.15366 0.06912,0.2997 0.06032,0.44629c-0.00481,0.14423 0.01887,0.27548 -0.01007,0.38787c-0.03955,0.22024 -0.06613,0.36737 -0.06613,0.36737c0,0 -0.00118,-0.14776 -0.00299,-0.36909c0.00825,-0.10894 -0.03955,-0.2343 -0.05969,-0.36619c-0.01587,-0.13425 -0.08735,-0.2655 -0.13225,-0.39857c-0.05198,-0.1318 -0.13053,-0.25371 -0.19203,-0.36909c-0.07855,-0.10831 -0.13996,-0.21425 -0.21144,-0.29199c-0.13053,-0.16663 -0.22795,-0.24428 -0.23149,-0.25253z" fill="#738cb5" fill-rule="nonzero" stroke="none" stroke-width="1"/><path d="M261.63722,216.48895c-0.00535,-0.00889 0.04962,0.15892 0.07384,0.39204c0.02123,0.11602 0.01769,0.25553 0.02721,0.39975c-0.00889,0.14659 -0.00717,0.30143 -0.03492,0.45391c-0.03538,0.1513 -0.0449,0.30487 -0.10631,0.4374c-0.05606,0.13298 -0.08209,0.26433 -0.15003,0.35848c-0.11692,0.19076 -0.19493,0.31848 -0.19493,0.31848l0.13116,-0.34497c0.04726,-0.09887 0.04844,-0.23312 0.07737,-0.36265c0.03429,-0.13071 0.01479,-0.27902 0.02123,-0.41917c-0.00054,-0.14187 -0.02948,-0.28428 -0.04481,-0.41381c-0.03429,-0.12899 -0.05261,-0.25027 -0.09098,-0.3485c-0.06141,-0.20255 -0.12409,-0.31031 -0.12463,-0.31911z" fill="#738cb5" fill-rule="nonzero" stroke="none" stroke-width="1"/></g><path d="M234.48408,207.94228c6.00529,-4.80793 6.69395,-5.93644 6.69395,-5.93644c1.6734,8.97772 -9.69632,14.12889 -9.69632,14.12889c0,0 7.91434,-1.28689 9.53867,-1.58124c1.62432,-0.29435 5.32597,-1.16561 6.06425,0.84541c0.73837,2.01101 -1.32897,3.5322 -1.32897,3.5322c0,0 -22.93717,0.73592 -26.13675,0c-3.19966,-0.73592 -5.61134,-5.98479 -5.16832,-13.24594c0.44302,-7.26106 2.90431,-12.85317 9.64788,-16.87637c6.74302,-4.02321 5.66032,-3.72831 7.77665,-7.11338c2.11633,-3.38507 3.34725,-4.61127 5.85761,-6.72125c2.51028,-2.10989 3.98692,-3.48276 3.98692,-3.48276c0,0 0.534,-0.50924 -0.88595,-5.00404c-1.13232,-3.58164 2.50084,-5.73334 5.69751,-6.62292c2.84227,-0.79116 4.74661,-0.50688 6.71526,0.19548c1.07499,0.38324 3.31949,1.19681 3.62137,2.60089c0.32719,1.52472 -0.07384,1.80266 1.78433,2.84517c2.34609,1.31582 2.60842,1.44118 2.60842,1.44118c0,0 -0.29535,1.32462 -0.83643,2.67981c-0.1494,0.37445 -0.84704,1.93037 -3.70047,2.46193c-2.27643,0.42334 -2.69877,0.82536 -4.2859,1.45062c-1.30358,0.51332 3.16247,9.62765 2.91611,8.54858c0,0 0.98464,6.96616 -3.5439,11.77409c-4.52864,4.80802 -17.32593,14.08009 -17.32593,14.08009" fill="#fffef9" fill-rule="nonzero" stroke="none" stroke-width="1"/><path d="M252.43817,173.53924c0,0 5.40516,6.71427 3.54454,15.18456c-1.92085,8.74406 -14.64013,15.33042 -14.64013,15.33042c0,0 -0.16309,-2.95584 -0.33608,-2.85043c12.80137,-6.70365 15.36489,-16.12349 10.24502,-27.66455h1.18665" fill="#d9e2f3" fill-rule="nonzero" stroke="none" stroke-width="1"/><g><path d="M221.31389,219.12178l-1.91668,-0.09243c0,0 -5.90188,0.10187 -6.94031,-3.5322c-1.05785,-3.70355 2.17193,-4.73146 2.17193,-4.73146" fill="#fffef9" fill-rule="nonzero" stroke="none" stroke-width="1"/><path d="M221.31389,219.12178l-1.91668,-0.09243c0,0 -5.90188,0.10187 -6.94031,-3.5322c-1.05785,-3.70355 2.17193,-4.73146 2.17193,-4.73146" fill="none" fill-rule="evenodd" stroke="#738cb5" stroke-width="0.5"/></g><path d="M226.31285,198.7679c6.00529,-4.80793 13.19187,-5.73987 14.86518,3.23794c1.6734,8.97772 -9.69686,14.12889 -9.69686,14.12889c0,0 7.91489,-1.28689 9.53921,-1.58124c1.62432,-0.29435 5.32597,-1.16561 6.06425,0.84541c0.73837,2.01101 -1.32897,3.5322 -1.32897,3.5322c0,0 -22.93717,0.73592 -26.13675,0c-3.19966,-0.73592 -5.61134,-5.98479 -5.16832,-13.24594c0.44302,-7.26106 2.90431,-12.85317 9.64724,-16.87637c6.74366,-4.02321 5.66096,-3.72831 7.77728,-7.11338c2.11633,-3.38507 3.34725,-4.61127 5.85761,-6.72125c2.51028,-2.10989 3.98692,-3.48276 3.98692,-3.48276c0,0 0.534,-0.50924 -0.88595,-5.00404c-1.13232,-3.58164 2.50084,-5.73334 5.69697,-6.62292c2.84281,-0.79116 4.74715,-0.50688 6.71581,0.19548c1.07499,0.38324 3.31949,1.19681 3.62073,2.60089c0.32782,1.52472 -0.07384,1.80266 1.78442,2.84517c2.34664,1.31582 2.60897,1.44118 2.60897,1.44118c0,0 -0.29535,1.32462 -0.83697,2.67981c-0.14885,0.37445 -0.84649,1.93037 -3.69992,2.46193c-2.27643,0.42334 -3.15766,1.35755 -5.8919,1.47647c-3.05779,0.1337 -4.38686,-2.46664 -4.63313,-3.54572" fill="none" fill-rule="evenodd" stroke="#738cb5" stroke-width="0.5"/><path d="M252.3432,173.39383c0,0.05533 5.11516,6.98322 4.0077,13.56967c-1.03254,6.13899 -3.97051,10.13689 -15.00877,17.09072" fill="none" fill-rule="evenodd" stroke="#738cb5" stroke-width="0.5"/><g><path d="M249.5705,163.69108c0,0 2.16531,-1.39764 3.51914,-0.41681c1.35383,0.98074 1.42767,2.40369 1.42767,2.40369c0,0 -1.20616,1.12851 -2.6828,0.39259c-1.47665,-0.73583 -2.264,-2.37947 -2.264,-2.37947" fill="#d9e2f3" fill-rule="nonzero" stroke="none" stroke-width="1"/><path d="M260.57756,168.8974c0,0 -0.20319,-0.69819 -0.72005,-1.23155c-0.51677,-0.53337 -0.71996,-0.8289 -0.31358,-1.15971c0.32664,-0.26668 1.21795,0.29372 1.21795,0.29372l0.46479,0.29081z" fill="#0f233a" fill-rule="nonzero" stroke="none" stroke-width="1"/><path d="M252.83439,163.12133c0.59423,0.1943 1.19083,0.73529 0.89548,2.02344c-0.32365,1.40989 -1.36027,1.11907 -1.36027,1.11907c0,0 -1.12406,-0.11774 -0.89194,-1.64129c0.23983,-1.57543 1.35673,-1.50123 1.35673,-1.50123" fill="#0f233a" fill-rule="nonzero" stroke="none" stroke-width="1"/><path d="M249.5705,163.69108c0,0 2.16531,-1.39764 3.51914,-0.41681c1.35383,0.98074 1.42767,2.40369 1.42767,2.40369c0,0 -1.20616,1.12851 -2.6828,0.39259c-1.47665,-0.73583 -2.264,-2.37947 -2.264,-2.37947z" fill="none" fill-rule="evenodd" stroke="#0f233a" stroke-width="0.5"/></g><g><path d="M244.23002,162.21987c0,0 -5.26692,-4.75849 -9.45059,-13.58909c-4.18367,-8.83059 -2.06734,-14.71769 -1.42767,-16.18944c0,0 13.33891,10.05689 12.55156,28.4539" fill="#fffef9" fill-rule="nonzero" stroke="none" stroke-width="1"/><path d="M243.98365,160.11053c0,0 -12.20714,-13.58972 -9.89352,-24.82401c0,0 12.30519,13.58918 9.89352,24.82401" fill="#d9e2f3" fill-rule="nonzero" stroke="none" stroke-width="1"/><path d="M244.23002,162.21987c0,0 -5.26692,-4.75849 -9.45059,-13.58909c-4.18367,-8.83059 -2.06734,-14.71769 -1.42767,-16.18944c0,0 13.33891,10.05689 12.55156,28.4539" fill="none" fill-rule="evenodd" stroke="#738cb5" stroke-width="0.5"/></g><g><path d="M253.23759,186.94491c-0.07384,2.86994 -3.22443,9.79428 -3.22443,9.79428l5.43944,19.4203c0,0 1.84583,-0.88305 3.34725,-0.14722c1.50087,0.73592 0.31957,2.99239 0.31957,2.99239h-6.69395l-8.81091,-20.77604c0,0 1.32897,-2.15878 0.91081,-4.63604" fill="#fffef9" fill-rule="nonzero" stroke="none" stroke-width="1"/><path d="M253.23759,186.94491c-0.07384,2.86994 -3.22443,9.79428 -3.22443,9.79428l5.43944,19.4203c0,0 1.84583,-0.88305 3.34725,-0.14722c1.50087,0.73592 0.31957,2.99239 0.31957,2.99239h-6.69395l-8.81091,-20.77604c0,0 1.32897,-2.15878 0.91081,-4.63604" fill="none" fill-rule="evenodd" stroke="#738cb5" stroke-width="0.5"/><path d="M256.89723,216.71836c-0.00771,-0.0059 0.10395,0.13071 0.21144,0.33907c0.06204,0.10069 0.1093,0.2314 0.17071,0.36265c0.04427,0.14015 0.10214,0.28437 0.13171,0.43622c0.02241,0.15366 0.06912,0.2997 0.06023,0.44629c-0.00472,0.14423 0.01896,0.27548 -0.01007,0.38787c-0.03955,0.22024 -0.06613,0.36737 -0.06613,0.36737c0,0 -0.00118,-0.14776 -0.0029,-0.36909c0.00825,-0.10894 -0.03964,-0.2343 -0.05969,-0.36619c-0.01596,-0.13425 -0.08744,-0.2655 -0.13234,-0.39857c-0.05198,-0.1318 -0.13053,-0.25371 -0.19194,-0.36909c-0.07855,-0.10831 -0.13996,-0.21425 -0.21144,-0.29199c-0.13053,-0.16663 -0.22804,-0.24428 -0.23158,-0.25253z" fill="#738cb5" fill-rule="nonzero" stroke="none" stroke-width="1"/><path d="M258.70787,216.48895c-0.00535,-0.00889 0.04962,0.15892 0.07384,0.39204c0.02123,0.11602 0.01769,0.25553 0.02712,0.39975c-0.00889,0.14659 -0.00708,0.30143 -0.03483,0.45391c-0.03547,0.1513 -0.0449,0.30487 -0.10631,0.4374c-0.05615,0.13298 -0.08209,0.26433 -0.15003,0.35848c-0.11692,0.19076 -0.19493,0.31848 -0.19493,0.31848l0.13116,-0.34497c0.04726,-0.09887 0.04844,-0.23312 0.07737,-0.36265c0.0342,-0.13071 0.01469,-0.27902 0.02123,-0.41917c-0.00054,-0.14187 -0.02957,-0.28428 -0.0449,-0.41381c-0.03429,-0.12899 -0.05252,-0.25027 -0.09098,-0.3485c-0.06141,-0.20255 -0.124,-0.31031 -0.12463,-0.31911z" fill="#738cb5" fill-rule="nonzero" stroke="none" stroke-width="1"/></g></g></g></svg>