<svg version="1.1" xmlns="http://www.w3.org/2000/svg" xmlns:xlink="http://www.w3.org/1999/xlink" width="84.50883" height="63.05076" viewBox="0,0,84.50883,63.05076"><g transform="translate(-195.52073,-150.75182)"><g data-paper-data="{&quot;isPaintingLayer&quot;:true}" fill-rule="nonzero" stroke="none" stroke-linecap="butt" stroke-linejoin="miter" stroke-miterlimit="10" stroke-dasharray="" stroke-dashoffset="0" style="mix-blend-mode: normal"><g stroke-width="1"><path d="M239.35846,171.55533l31.23122,-20.24613c3.35062,-2.19069 6.7806,2.61438 3.67228,5.10554l-21.85418,17.3826c-3.41889,2.6956 -8.31913,2.41941 -11.44651,-0.64108z" fill="#fcf6ec"/><path d="M241.68605,172.07083l-0.11324,-1.79503l0.20705,-0.13629l0.07537,1.80512l2.62534,1.32849l2.45678,-1.58748l-0.13828,-2.80236l-1.73424,-0.8764l0.31057,-0.20443l1.50452,0.77537l2.45678,-1.58748l-0.08297,-1.68142l0.24492,-0.14638l0.08546,1.84299l2.57737,1.30071l2.45678,-1.58748l-0.14077,-2.96394l-1.60044,-0.83093l4.25456,-2.75602l0.11324,1.79503l2.62534,1.32849l2.45678,-1.58748l-0.13828,-2.80236l-1.73424,-0.8764l0.31057,-0.20443l1.46665,0.78546l2.49466,-1.59758l-0.08297,-1.68142l0.24492,-0.14638l0.08546,1.84299l2.57737,1.30071l2.45678,-1.58748l-0.13828,-2.80236l-1.73424,-0.8764l0.31057,-0.20443l1.50452,0.77537l2.52244,-1.64554l-0.05531,-1.12094c0.07574,-0.02018 0.11361,-0.03027 0.19945,-0.01258l0.05531,1.12094l2.63543,1.36636l0.04771,1.24465c-0.03538,0.17167 -0.10863,0.35343 -0.18188,0.53518l-0.07288,-1.64354l-2.48145,-1.24515l0.01009,0.03787l-2.58809,1.70359l0.15597,2.71653l2.29969,1.1719l-0.16918,0.1262l-2.15581,-1.08855l-2.49466,1.59758l0.16095,3.03968l-2.56031,1.65563l0.01507,0.36102l-0.20705,0.13629l0.00262,-0.44686l-2.62534,-1.32849l-2.45678,1.58748l0.14077,2.96394l0.93906,0.47987l-0.16918,0.1262l-0.85323,-0.46218l-2.49466,1.59758l0.06029,1.4441l-0.20705,0.13629l-0.09057,-1.55771l-2.62534,-1.32849l-2.45678,1.58748l0.14077,2.96394l1.83016,0.93196l-0.16918,0.1262l-1.73424,-0.8764l-2.45678,1.58748l0.11573,1.95661l-0.18936,0.05045l-0.09804,-2.04244l-2.62534,-1.32849l-2.45678,1.58748l0.09555,1.88086c-0.08583,-0.01769 -0.1338,-0.04547 -0.21963,-0.06316l-0.07537,-1.80512zM262.52642,161.69132l2.62534,1.32849l2.45678,-1.58748l-0.14077,-2.96394l-2.48145,-1.24515l0.01009,0.03787l-2.59818,1.66572zM254.85559,166.69608l2.62534,1.32849l2.45678,-1.58748l-0.17864,-2.95385l-2.62534,-1.32849l-2.45678,1.58748zM247.09893,171.68315l2.62534,1.32849l2.45678,-1.58748l-0.14077,-2.96394l-2.44358,-1.25524l0.01009,0.03787l-2.58809,1.70359z" fill="#e1d9ca"/><path d="M239.35846,171.55533l31.23122,-20.24613c1.24228,-0.81772 2.5096,-0.62812 3.45116,0.01333l-33.30169,21.609z" fill="#758a72"/><path d="M270.04889,153.84633l-0.1313,0.11611l-1.06003,-1.54276l0.16918,-0.1262l1.02215,1.55285" fill="#1a252e"/><path d="M266.00636,156.78922l-0.16918,0.1262l-1.06003,-1.54276l0.16918,-0.1262l1.06003,1.54276" fill="#1a252e"/></g><g stroke-width="1"><path d="M235.34371,174.45025c-0.76079,4.29928 -4.60138,7.39116 -8.96893,7.13527l-27.86901,-1.53816c-3.98634,-0.19521 -3.9826,-6.11798 0.02654,-6.29388l37.14763,-1.54251z" fill="#fcf6ec"/><path d="M229.27818,181.21752c-0.07574,0.02018 -0.11361,0.03027 -0.18936,0.05045l-1.05243,-1.66647l-2.92607,0.13068l-0.8764,1.73424l-0.20954,-0.02529l0.94205,-1.79229l-1.59758,-2.49466l-2.92607,0.13068l-1.36636,2.63543l0.8379,1.31803l-0.24741,-0.0152l-0.76976,-1.2145l-2.92607,0.13068l-0.45209,0.8911l-0.20954,-0.02529l0.47987,-0.93906l-1.59758,-2.49466l-2.92607,0.13068l-1.36636,2.63543l0.27257,0.41409l-0.24741,-0.0152l-0.20443,-0.31057l-3.04977,0.12308l-1.62785,-2.60827l-2.96394,0.14077l-1.12643,2.1659l-0.20954,-0.02529l1.15421,-2.21386l-1.47138,-2.32548l-3.08764,0.13317l-0.01009,-0.03787l-1.29311,2.45367l0.89596,1.38368c-0.15398,-0.12121 -0.30795,-0.24243 -0.46193,-0.36364l-0.64356,-1.04533l1.39414,-2.68339l-0.62338,-0.96958c0.02778,-0.04796 0.10352,-0.06814 0.1313,-0.11611l0.61329,0.93171l2.97403,-0.1029l0.80315,-1.55248l0.3989,-0.02516l-0.90418,1.7822l1.48147,2.36335l2.92607,-0.13068l1.34867,-2.54959l-1.03225,-1.59072l0.28528,0.00511l0.91614,1.45942l2.92607,-0.13068l0.80315,-1.55248l0.3989,-0.02516l-0.90418,1.7822l1.48147,2.36335l2.92607,-0.13068l1.37645,-2.59756l-0.98428,-1.56294l5.11999,-0.26909l-0.85871,1.6484l1.59758,2.49466l2.92607,-0.13068l1.34867,-2.54959l-1.04234,-1.6286l0.28528,0.00511l0.92623,1.49729l2.93616,-0.09281l0.80315,-1.55248l0.3989,-0.02516l-0.94205,1.79229l1.48147,2.36335l2.92607,-0.13068l1.37645,-2.59756l-0.98428,-1.56294l0.23732,-0.02267l0.98428,1.56294l-1.42192,2.73135l0.97419,1.52507c-0.02778,0.04796 -0.09343,0.10602 -0.12121,0.15398l-0.99437,-1.60082l-2.92607,0.13068l-1.37645,2.59756zM211.07386,177.59096l-1.47138,-2.32548l-3.08764,0.13317l-0.01009,-0.03787l-1.29311,2.45367l1.59758,2.49466l2.92607,-0.13068zM220.26104,177.21162l-1.59758,-2.49466l-2.92607,0.13068l-1.37645,2.59756l1.59758,2.49466l2.92607,-0.13068zM228.0339,179.43993l1.37645,-2.59756l-1.47138,-2.32548l-3.08764,0.13317l-0.01009,-0.03787l-1.29311,2.45367l1.5597,2.50475z" fill="#e1d9ca"/><path d="M235.33873,174.1271l-39.63693,1.63793c0.40164,-1.08046 1.34855,-1.94116 2.83052,-2.01154l37.14763,-1.54251z" fill="#758a72"/><path d="M200.37531,173.66802l0.20954,0.02529l0.00972,1.86317l-0.19945,0.01258l-0.01981,-1.90105" fill="#1a252e"/><path d="M205.63919,173.48228l0.19945,-0.01258l0.05768,1.89096l-0.20954,-0.02529l-0.04759,-1.85308" fill="#1a252e"/></g><g stroke-width="1"><path d="M243.3015,185.89726l-1.80624,-6.77898l34.98311,-9.36171c3.29481,-0.87789 5.01061,3.73495 1.96308,5.23647l-28.49576,13.91998c-1.25486,0.61828 -2.74692,0.65079 -4.03941,0.06229c-1.29249,-0.5885 -2.24151,-1.71468 -2.60478,-3.07805z" fill="#fbf4e9"/><path d="M277.75042,171.4862l2.04705,2.05041c-0.04547,0.1338 -0.1389,0.23981 -0.18437,0.37361l0.06316,-0.21963l-2.09501,-2.07819l-2.84036,0.7568l-0.74535,2.835l1.38069,1.3762l-0.17927,0.08833l-1.28476,-1.32064l-2.84036,0.7568l-0.74535,2.835l0.05805,0.06565l0.01009,0.03787l-0.17927,0.08833l-0.01009,-0.03787l-2.84036,0.7568l-0.20717,0.74472l0.01009,0.03787l-0.25501,0.10851l0.24255,-0.91639l-2.09501,-2.07819l-2.84036,0.7568l-0.74535,2.835l1.38069,1.3762l0.01009,0.03787l-0.17927,0.08833l-1.33272,-1.34842l-2.84036,0.7568l-0.74535,2.835l0.10602,0.09343l-0.17927,0.08833l-0.05805,-0.06565l-2.84036,0.7568l-0.23495,0.79268l-0.25501,0.10851l0.27033,-0.96435l-2.09501,-2.07819l-2.84036,0.7568l-0.78322,2.84509l1.38069,1.3762l0.01009,0.03787l-0.17927,0.08833l-1.34282,-1.38629l-2.84036,0.7568l-0.17179,0.57305l-0.19185,-0.11112l0.14401,-0.52509l-2.16316,-2.18172l0.79082,-2.9688l-2.16316,-2.18172l0.19708,-0.78259l0.22723,-0.06054l-0.22486,0.83056l2.09501,2.07819l2.87823,-0.7669l0.74535,-2.835l-1.21662,-1.21712l0.17927,-0.08833l1.1106,1.12369l2.84036,-0.7568l0.56845,-1.97666l0.22723,-0.06054l-0.57604,2.10037l2.09501,2.07819l2.84036,-0.7568l0.74535,-2.835l-1.54476,-1.53529l0.22723,-0.06054l1.44883,1.47973l2.84036,-0.7568l0.52048,-2.00444l0.2651,-0.07064l-0.57604,2.10037l2.09501,2.07819l2.84036,-0.7568l0.74535,-2.835l-1.54476,-1.53529l0.22723,-0.06054l1.44883,1.47973l2.84036,-0.7568l0.52048,-2.00444l0.22723,-0.06054l-0.58614,2.0625l2.09501,2.07819l2.84036,-0.7568l0.78322,-2.84509l-1.54476,-1.53529l0.22723,-0.06054l1.44883,1.47973l2.84036,-0.7568l0.43203,-1.57528c0.04796,0.02778 0.1338,0.04547 0.18176,0.07325zM247.2785,182.404l-2.84036,0.7568l-0.74535,2.835l2.09501,2.07819l2.84036,-0.7568l0.74535,-2.835zM251.02329,178.64813l-2.84036,0.7568l-0.74535,2.835l2.09501,2.07819l2.84036,-0.7568l0.74535,-2.835zM256.10254,180.05286l-2.84036,0.7568l-0.74535,2.835l2.09501,2.07819l2.84036,-0.7568l0.78322,-2.84509zM259.8852,176.28689l-2.84036,0.7568l-0.74535,2.835l2.09501,2.07819l2.84036,-0.7568l0.74535,-2.835zM268.74711,173.92566l-2.84036,0.7568l-0.74535,2.835l2.09501,2.07819l2.84036,-0.7568l0.74535,-2.835z" fill="#e1d9ca"/><path d="M279.55816,170.96397l-37.55836,10.04788l-0.50454,-1.89357l34.94523,-9.35162c1.20179,-0.36077 2.4741,0.15198 3.11766,1.19731z" fill="#758a72"/><path d="M273.41078,170.57392l0.15149,-0.04036l0.50454,1.89357l-0.15149,0.04036l-0.50454,-1.89357" fill="#1a252e"/><path d="M267.77803,172.11531l0.15149,-0.04036l0.50454,1.89357l-0.15149,0.04036l-0.50454,-1.89357" fill="#1a252e"/></g><g stroke-width="1"><path d="M239.0087,190.48867c-0.78035,1.18136 -2.09078,1.89556 -3.47682,2.02151l-31.58863,2.61661c-3.37043,0.28964 -4.22528,-4.59316 -0.97843,-5.49883l34.81405,-9.84395l1.91986,6.74871c0.36327,1.36337 0.09032,2.77458 -0.69003,3.95594z" fill="#fbf4e9"/><path d="M201.5155,190.58197c0.06565,-0.05805 0.09343,-0.10602 0.15908,-0.16407l1.14848,1.11359l2.7823,-0.82246l0.52048,-2.00444l0.22723,-0.06054l-0.52808,2.12815l2.13288,2.0681l2.83027,-0.79468l0.6696,-2.81482l-1.54476,-1.53529l0.22723,-0.06054l1.47661,1.43176l2.83027,-0.79468l0.52048,-2.00444l0.22723,-0.06054l-0.53817,2.09028l2.09501,2.07819l2.83027,-0.79468l0.73525,-2.87287l-1.54476,-1.53529l0.22723,-0.06054l1.47661,1.43176l2.83027,-0.79468l0.44474,-1.98426l0.22723,-0.06054l-0.52808,2.12815l2.09501,2.07819l2.83027,-0.79468l0.73525,-2.87287l-1.54476,-1.53529l0.22723,-0.06054l1.47661,1.43176l2.82018,-0.83255l0.39416,-1.56519l0.19945,-0.01258l-0.41185,1.65102l2.09501,2.07819l2.83027,-0.79468l0.73525,-2.87287l-0.60831,-0.60856l0.28528,0.00511l0.59822,0.57069l-0.75294,2.9587l2.19094,2.13376l-0.75294,2.9587l0.38619,0.38382c-0.05556,0.09592 -0.08334,0.14389 -0.11112,0.19185l-0.43415,-0.4116l-2.83027,0.79468l-0.47501,1.87065l-0.19945,0.01258l-0.01009,-0.03787l0.46492,-1.90852l-2.09501,-2.07819l-2.83027,0.79468l-0.70747,2.82491l0.71432,0.70199l-0.27519,0.03276l-0.59822,-0.57069l-2.83027,0.79468l-0.01769,0.08583l-0.19945,0.01258l0.11361,-0.03027l-2.13288,-2.0681l-2.83027,0.79468l-0.44723,1.82269l-0.19945,0.01258l-0.01009,-0.03787l0.47501,-1.87065l-2.13288,-2.0681l-2.83027,0.79468l-0.69738,2.86278l0.70423,0.66412l-0.27519,0.03276l-0.01009,-0.03787l-0.55026,-0.54291l-2.83027,0.79468l-0.02778,0.04796l-0.19945,0.01258l-0.01009,-0.03787l0.01769,-0.08583l-2.13288,-2.0681l-2.85805,0.84264l-0.45732,1.78482l-0.19945,0.01258l0.47501,-1.87065l-2.13288,-2.0681l-2.83027,0.79468l-0.69738,2.86278l0.16407,0.15908c-0.1338,-0.04547 -0.23981,-0.1389 -0.34583,-0.23234l0.70747,-2.82491zM233.7579,188.44013l2.08492,2.04032l2.83027,-0.79468l0.70747,-2.82491l-2.09501,-2.07819l-2.83027,0.79468zM228.613,187.09345l2.1051,2.11607l2.83027,-0.79468l0.73525,-2.87287l-2.13288,-2.0681l-2.83027,0.79468zM224.92626,190.91497l2.13288,2.0681l2.83027,-0.79468l0.73525,-2.87287l-2.13288,-2.0681l-2.83027,0.79468zM219.82932,189.59607l2.09501,2.07819l2.83027,-0.79468l0.69738,-2.86278l-2.09501,-2.07819l-2.83027,0.79468zM210.9699,192.11888l2.09501,2.07819l2.83027,-0.79468l0.73525,-2.87287l-2.09501,-2.07819l-2.83027,0.79468z" fill="#e1d9ca"/><path d="M202.96483,189.62796l34.81405,-9.84395l0.54241,1.88348l-37.41709,10.57808c0.00025,-1.21687 0.84874,-2.29471 2.06063,-2.61761z" fill="#758a72"/><path d="M206.52686,190.66631l-0.15149,0.04036l-0.54241,-1.88348l0.15149,-0.04036l0.54241,1.88348" fill="#1a252e"/><path d="M212.14952,189.08705l-0.15149,0.04036l-0.54241,-1.88348l0.18936,-0.05045l0.50454,1.89357" fill="#1a252e"/></g><g stroke-width="1"><path d="M241.7076,177.78406l8.80921,33.06175c0.57517,2.15867 -1.66684,2.87773 -1.66684,2.87773c-1.24976,0.33299 -2.54474,-0.41708 -2.87773,-1.66684l-8.80921,-33.06175c-0.33299,-1.24976 0.41708,-2.54474 1.66684,-2.87773c1.24976,-0.33299 2.54474,0.41708 2.87773,1.66684z" fill="#0c5a43"/><g><path d="M244.78154,207.58787l4.54457,-1.21089l1.16043,4.35521l-4.54457,1.21089z" fill="#5cbcc5"/><path d="M241.79468,196.37793l4.54457,-1.21089l1.80624,6.77898l-4.54457,1.21089z" fill="#eee75a"/><path d="M239.08027,186.19052l4.54457,-1.21089l1.36225,5.11264l-4.54457,1.21089z" fill="#eee75a"/></g></g><g><g><g stroke-width="1"><path d="M235.35368,162.76629c0.49233,-0.13118 1.01991,0.17441 1.15109,0.66674l1.3118,4.92329l-1.8557,0.49445l-1.3118,-4.92329c-0.06054,-0.22723 -0.01757,-0.5226 0.09356,-0.71445c0.1389,-0.23981 0.34595,-0.3761 0.61105,-0.44673z" fill="#1c252e"/><path d="M236.37533,166.75288l1.34792,1.10101l-1.93144,0.51463l0.58352,-1.61564" fill="#758a72"/><path d="M234.21978,164.44746c0.37606,-0.1002 0.75757,-0.0384 1.07028,0.14273c0.31271,0.18113 0.55615,0.48131 0.65635,0.85737c0.1002,0.37606 0.0384,0.75757 -0.14273,1.07028c-0.18113,0.31271 -0.48131,0.55615 -0.85737,0.65635c-0.37606,0.1002 -0.75757,0.0384 -1.07028,-0.14273c-0.31271,-0.18113 -0.55615,-0.48131 -0.65635,-0.85737c-0.1002,-0.37606 -0.0384,-0.75757 0.14273,-1.07028c0.18113,-0.31271 0.48131,-0.55615 0.85737,-0.65635z" fill="#fcf6ec"/><path d="M234.39132,165.09127c0.19845,-0.05288 0.39983,-0.02014 0.56482,0.07543c0.16499,0.09557 0.29359,0.25396 0.34646,0.45241c0.05288,0.19845 0.02014,0.39983 -0.07543,0.56482c-0.09557,0.16499 -0.25396,0.29359 -0.45241,0.34646c-0.19845,0.05288 -0.39983,0.02014 -0.56482,-0.07543c-0.16499,-0.09557 -0.29359,-0.25396 -0.34646,-0.45241c-0.05288,-0.19845 -0.02014,-0.39983 0.07543,-0.56482c0.09557,-0.16499 0.25396,-0.29359 0.45241,-0.34646z" fill="#1c252e"/><path d="M237.09801,163.68056c0.37606,-0.1002 0.75757,-0.0384 1.07028,0.14273c0.31271,0.18113 0.55615,0.48131 0.65635,0.85737c0.1002,0.37606 0.0384,0.75757 -0.14273,1.07028c-0.18113,0.31271 -0.48131,0.55615 -0.85737,0.65635c-0.37606,0.1002 -0.75757,0.0384 -1.07028,-0.14273c-0.31271,-0.18113 -0.55615,-0.48131 -0.65635,-0.85737c-0.1002,-0.37606 -0.0384,-0.75757 0.14273,-1.07028c0.18113,-0.31271 0.48131,-0.55615 0.85737,-0.65635z" fill="#fcf6ec"/><path d="M237.26955,164.32438c0.19845,-0.05288 0.39983,-0.02014 0.56482,0.07543c0.16499,0.09557 0.29359,0.25396 0.34646,0.45241c0.05288,0.19845 0.02014,0.39983 -0.07543,0.56482c-0.09557,0.16499 -0.25396,0.29359 -0.45241,0.34646c-0.19845,0.05288 -0.39983,0.02014 -0.56482,-0.07543c-0.16499,-0.09557 -0.29359,-0.25396 -0.34646,-0.45241c-0.05288,-0.19845 -0.02014,-0.39983 0.07543,-0.56482c0.09557,-0.16499 0.25396,-0.29359 0.45241,-0.34646z" fill="#1c252e"/></g><path d="M238.19167,173.56974c1.05548,-0.28123 2.12596,-0.10732 3.00271,0.40052c0.87675,0.50783 1.56024,1.34986 1.84147,2.40533c0.28123,1.05548 0.10732,2.12596 -0.40052,3.00271c-0.50783,0.87675 -1.34986,1.56024 -2.40533,1.84147c-1.05548,0.28123 -2.12596,0.10732 -3.00271,-0.40052c-0.87675,-0.50783 -1.56024,-1.34986 -1.84147,-2.40533c-0.28123,-1.05548 -0.10732,-2.12596 0.40052,-3.00271c0.50783,-0.87675 1.34986,-1.56024 2.40533,-1.84147z" fill="#115c40" stroke-width="1"/><path d="M236.81783,177.62705c0.09268,-0.69657 0.45992,-1.29023 0.97766,-1.68667c0.51805,-0.39604 1.18707,-0.59522 1.88406,-0.50249c0.69658,0.09272 1.2902,0.45997 1.68664,0.97771c0.39604,0.51805 0.59522,1.18707 0.50254,1.88364c-0.09277,0.697 -0.46002,1.29062 -0.9777,1.68668c-0.51811,0.39642 -1.18713,0.5956 -1.8837,0.50292c-0.69696,-0.09278 -1.29058,-0.46003 -1.687,-0.97814c-0.3961,-0.51767 -0.59528,-1.18669 -0.5025,-1.88365z" fill="#1c252e" stroke-width="1"/><path d="M239.29405,177.8593l2.35774,1.23755l-3.78714,1.00907l1.4294,-2.24662" fill="#008e77" stroke-width="1"/></g><path d="M236.08016,168.10593c0.99643,-0.44652 2.08093,-0.44633 3.02806,-0.08566c0.94694,0.36116 1.75651,1.08284 2.20303,2.07927c0.44669,0.99679 0.4465,2.08129 0.0857,3.02805c-0.36102,0.94731 -1.08284,1.75651 -2.07927,2.20303c-0.99679,0.44669 -2.08115,0.44687 -3.02809,0.08571c-0.94713,-0.36066 -1.7567,-1.08234 -2.20339,-2.07913c-0.44652,-0.99643 -0.44633,-2.08093 -0.0853,-3.02824c0.3608,-0.94676 1.08248,-1.75633 2.07927,-2.20303z" fill="#1c252e" stroke-width="1"/><path d="M242.91725,176.08271l-7.61216,2.02824c-0.38332,-2.04755 0.87939,-4.0064 2.8487,-4.53112c2.00719,-0.53481 4.03929,0.54615 4.76345,2.50288z" fill="#1c252e" stroke-width="1"/></g></g></g></svg>